G04 #@! TF.GenerationSoftware,KiCad,Pcbnew,(5.0.2)-1*
G04 #@! TF.CreationDate,2019-03-25T12:23:43+09:00*
G04 #@! TF.ProjectId,NixieHourglass,4e697869-6548-46f7-9572-676c6173732e,rev?*
G04 #@! TF.SameCoordinates,Original*
G04 #@! TF.FileFunction,Paste,Bot*
G04 #@! TF.FilePolarity,Positive*
%FSLAX46Y46*%
G04 Gerber Fmt 4.6, Leading zero omitted, Abs format (unit mm)*
G04 Created by KiCad (PCBNEW (5.0.2)-1) date 25/03/2019 12:23:43*
%MOMM*%
%LPD*%
G01*
G04 APERTURE LIST*
%ADD10C,1.500000*%
%ADD11C,0.100000*%
%ADD12R,1.500000X3.000000*%
G04 APERTURE END LIST*
D10*
G04 #@! TO.C,N1*
X86530000Y-86640000D03*
D11*
G36*
X85170403Y-87621833D02*
X86560291Y-84963223D01*
X87889597Y-85658167D01*
X86499709Y-88316777D01*
X85170403Y-87621833D01*
X85170403Y-87621833D01*
G37*
D10*
X83840000Y-84270000D03*
D11*
G36*
X82179824Y-84507311D02*
X84646256Y-82799473D01*
X85500176Y-84032689D01*
X83033744Y-85740527D01*
X82179824Y-84507311D01*
X82179824Y-84507311D01*
G37*
D10*
X82560000Y-80900000D03*
D11*
G36*
X80979779Y-80338394D02*
X83957417Y-79972786D01*
X84140221Y-81461606D01*
X81162583Y-81827214D01*
X80979779Y-80338394D01*
X80979779Y-80338394D01*
G37*
D10*
X82990000Y-77350000D03*
D11*
G36*
X81851940Y-76118205D02*
X84658272Y-77178629D01*
X84128060Y-78581795D01*
X81321728Y-77521371D01*
X81851940Y-76118205D01*
X81851940Y-76118205D01*
G37*
D10*
X85030000Y-74400000D03*
D11*
G36*
X84594959Y-72780358D02*
X86586738Y-75023752D01*
X85465041Y-76019642D01*
X83473262Y-73776248D01*
X84594959Y-72780358D01*
X84594959Y-72780358D01*
G37*
D10*
X88200000Y-72720000D03*
D11*
G36*
X88567695Y-71083754D02*
X89288379Y-73995904D01*
X87832305Y-74356246D01*
X87111621Y-71444096D01*
X88567695Y-71083754D01*
X88567695Y-71083754D01*
G37*
D10*
X91780000Y-72720000D03*
D11*
G36*
X92866151Y-71442199D02*
X92150551Y-74355602D01*
X90693849Y-73997801D01*
X91409449Y-71084398D01*
X92866151Y-71442199D01*
X92866151Y-71442199D01*
G37*
D10*
X94960000Y-74390000D03*
D11*
G36*
X96515647Y-73763531D02*
X94527787Y-76010399D01*
X93404353Y-75016469D01*
X95392213Y-72769601D01*
X96515647Y-73763531D01*
X96515647Y-73763531D01*
G37*
D10*
X97010000Y-77340000D03*
D11*
G36*
X98678569Y-77508459D02*
X95874092Y-78573780D01*
X95341431Y-77171541D01*
X98145908Y-76106220D01*
X98678569Y-77508459D01*
X98678569Y-77508459D01*
G37*
D10*
X97440000Y-80900000D03*
D11*
G36*
X98839033Y-81824773D02*
X95860761Y-81464363D01*
X96040967Y-79975227D01*
X99019239Y-80335637D01*
X98839033Y-81824773D01*
X98839033Y-81824773D01*
G37*
D10*
X96170000Y-84250000D03*
D11*
G36*
X96978822Y-85719118D02*
X94509413Y-84015587D01*
X95361178Y-82780882D01*
X97830587Y-84484413D01*
X96978822Y-85719118D01*
X96978822Y-85719118D01*
G37*
D10*
X93480000Y-86640000D03*
D11*
G36*
X93513218Y-88316722D02*
X92118692Y-85660541D01*
X93446782Y-84963278D01*
X94841308Y-87619459D01*
X93513218Y-88316722D01*
X93513218Y-88316722D01*
G37*
D12*
X90000000Y-87500000D03*
G04 #@! TD*
M02*
