G04 #@! TF.GenerationSoftware,KiCad,Pcbnew,(5.0.2)-1*
G04 #@! TF.CreationDate,2019-03-25T12:23:43+09:00*
G04 #@! TF.ProjectId,NixieHourglass,4e697869-6548-46f7-9572-676c6173732e,rev?*
G04 #@! TF.SameCoordinates,Original*
G04 #@! TF.FileFunction,Legend,Top*
G04 #@! TF.FilePolarity,Positive*
%FSLAX46Y46*%
G04 Gerber Fmt 4.6, Leading zero omitted, Abs format (unit mm)*
G04 Created by KiCad (PCBNEW (5.0.2)-1) date 25/03/2019 12:23:43*
%MOMM*%
%LPD*%
G01*
G04 APERTURE LIST*
%ADD10C,0.300000*%
%ADD11C,0.200000*%
%ADD12C,0.120000*%
%ADD13C,0.150000*%
G04 APERTURE END LIST*
D10*
X83714285Y-101278571D02*
X84642857Y-101278571D01*
X84142857Y-101850000D01*
X84357142Y-101850000D01*
X84500000Y-101921428D01*
X84571428Y-101992857D01*
X84642857Y-102135714D01*
X84642857Y-102492857D01*
X84571428Y-102635714D01*
X84500000Y-102707142D01*
X84357142Y-102778571D01*
X83928571Y-102778571D01*
X83785714Y-102707142D01*
X83714285Y-102635714D01*
X86000000Y-101278571D02*
X85285714Y-101278571D01*
X85214285Y-101992857D01*
X85285714Y-101921428D01*
X85428571Y-101850000D01*
X85785714Y-101850000D01*
X85928571Y-101921428D01*
X86000000Y-101992857D01*
X86071428Y-102135714D01*
X86071428Y-102492857D01*
X86000000Y-102635714D01*
X85928571Y-102707142D01*
X85785714Y-102778571D01*
X85428571Y-102778571D01*
X85285714Y-102707142D01*
X85214285Y-102635714D01*
X86714285Y-102635714D02*
X86785714Y-102707142D01*
X86714285Y-102778571D01*
X86642857Y-102707142D01*
X86714285Y-102635714D01*
X86714285Y-102778571D01*
X87714285Y-101278571D02*
X87857142Y-101278571D01*
X88000000Y-101350000D01*
X88071428Y-101421428D01*
X88142857Y-101564285D01*
X88214285Y-101850000D01*
X88214285Y-102207142D01*
X88142857Y-102492857D01*
X88071428Y-102635714D01*
X88000000Y-102707142D01*
X87857142Y-102778571D01*
X87714285Y-102778571D01*
X87571428Y-102707142D01*
X87500000Y-102635714D01*
X87428571Y-102492857D01*
X87357142Y-102207142D01*
X87357142Y-101850000D01*
X87428571Y-101564285D01*
X87500000Y-101421428D01*
X87571428Y-101350000D01*
X87714285Y-101278571D01*
X89142857Y-101278571D02*
X89285714Y-101278571D01*
X89428571Y-101350000D01*
X89500000Y-101421428D01*
X89571428Y-101564285D01*
X89642857Y-101850000D01*
X89642857Y-102207142D01*
X89571428Y-102492857D01*
X89500000Y-102635714D01*
X89428571Y-102707142D01*
X89285714Y-102778571D01*
X89142857Y-102778571D01*
X89000000Y-102707142D01*
X88928571Y-102635714D01*
X88857142Y-102492857D01*
X88785714Y-102207142D01*
X88785714Y-101850000D01*
X88857142Y-101564285D01*
X88928571Y-101421428D01*
X89000000Y-101350000D01*
X89142857Y-101278571D01*
X90571428Y-101278571D02*
X90714285Y-101278571D01*
X90857142Y-101350000D01*
X90928571Y-101421428D01*
X91000000Y-101564285D01*
X91071428Y-101850000D01*
X91071428Y-102207142D01*
X91000000Y-102492857D01*
X90928571Y-102635714D01*
X90857142Y-102707142D01*
X90714285Y-102778571D01*
X90571428Y-102778571D01*
X90428571Y-102707142D01*
X90357142Y-102635714D01*
X90285714Y-102492857D01*
X90214285Y-102207142D01*
X90214285Y-101850000D01*
X90285714Y-101564285D01*
X90357142Y-101421428D01*
X90428571Y-101350000D01*
X90571428Y-101278571D01*
X92857142Y-102778571D02*
X92857142Y-101778571D01*
X92857142Y-101921428D02*
X92928571Y-101850000D01*
X93071428Y-101778571D01*
X93285714Y-101778571D01*
X93428571Y-101850000D01*
X93500000Y-101992857D01*
X93500000Y-102778571D01*
X93500000Y-101992857D02*
X93571428Y-101850000D01*
X93714285Y-101778571D01*
X93928571Y-101778571D01*
X94071428Y-101850000D01*
X94142857Y-101992857D01*
X94142857Y-102778571D01*
X94857142Y-102778571D02*
X94857142Y-101778571D01*
X94857142Y-101921428D02*
X94928571Y-101850000D01*
X95071428Y-101778571D01*
X95285714Y-101778571D01*
X95428571Y-101850000D01*
X95500000Y-101992857D01*
X95500000Y-102778571D01*
X95500000Y-101992857D02*
X95571428Y-101850000D01*
X95714285Y-101778571D01*
X95928571Y-101778571D01*
X96071428Y-101850000D01*
X96142857Y-101992857D01*
X96142857Y-102778571D01*
X72500000Y-100000000D02*
X107500000Y-100000000D01*
X72500000Y-80000000D02*
X72500000Y-100586421D01*
X107500000Y-80000000D02*
X107500000Y-100586421D01*
X107500000Y-100000000D02*
X106373496Y-100586421D01*
X107500000Y-100000000D02*
X106373496Y-99413579D01*
X72500000Y-100000000D02*
X73626504Y-100586421D01*
X72500000Y-100000000D02*
X73626504Y-99413579D01*
D11*
X109000000Y-80000000D02*
G75*
G03X109000000Y-80000000I-19000000J0D01*
G01*
D12*
G04 #@! TO.C,U3*
X80008000Y-70429000D02*
X80008000Y-69754000D01*
X80008000Y-69754000D02*
X80183000Y-69754000D01*
X83228000Y-70429000D02*
X83228000Y-69754000D01*
X83228000Y-69754000D02*
X83053000Y-69754000D01*
X83228000Y-72299000D02*
X83228000Y-72974000D01*
X83228000Y-72974000D02*
X83053000Y-72974000D01*
G04 #@! TO.C,J1*
X101259000Y-86290000D02*
X101279000Y-86290000D01*
X101279000Y-86290000D02*
X101279000Y-88950000D01*
X101279000Y-88950000D02*
X101259000Y-88950000D01*
X94829000Y-86290000D02*
X94809000Y-86290000D01*
X94809000Y-86290000D02*
X94809000Y-88950000D01*
X94809000Y-88950000D02*
X94829000Y-88950000D01*
X101259000Y-83985000D02*
X101259000Y-86290000D01*
G04 #@! TO.C,J3*
X82126000Y-90040000D02*
X79466000Y-90040000D01*
X79466000Y-90040000D02*
X79466000Y-92820000D01*
X79466000Y-92820000D02*
X82126000Y-92820000D01*
X82126000Y-92820000D02*
X82126000Y-90040000D01*
X83396000Y-90040000D02*
X84786000Y-90040000D01*
X84786000Y-90040000D02*
X84786000Y-91430000D01*
G04 #@! TO.C,J4*
X75826000Y-81922000D02*
X77216000Y-81922000D01*
X75826000Y-83312000D02*
X75826000Y-81922000D01*
X78606000Y-84582000D02*
X75826000Y-84582000D01*
X78606000Y-87242000D02*
X78606000Y-84582000D01*
X75826000Y-87242000D02*
X78606000Y-87242000D01*
X75826000Y-84582000D02*
X75826000Y-87242000D01*
G04 #@! TO.C,Q1*
X77414000Y-80262000D02*
X78344000Y-80262000D01*
X80574000Y-80262000D02*
X79644000Y-80262000D01*
X80574000Y-80262000D02*
X80574000Y-78102000D01*
X77414000Y-80262000D02*
X77414000Y-78802000D01*
G04 #@! TO.C,Q2*
X80266000Y-81986000D02*
X81726000Y-81986000D01*
X80266000Y-85146000D02*
X82426000Y-85146000D01*
X80266000Y-85146000D02*
X80266000Y-84216000D01*
X80266000Y-81986000D02*
X80266000Y-82916000D01*
G04 #@! TO.C,Q3*
X80266000Y-86050000D02*
X80266000Y-86980000D01*
X80266000Y-89210000D02*
X80266000Y-88280000D01*
X80266000Y-89210000D02*
X82426000Y-89210000D01*
X80266000Y-86050000D02*
X81726000Y-86050000D01*
D13*
G04 #@! TO.C,SW1*
X93088000Y-65296000D02*
X98088000Y-65296000D01*
X93088000Y-68796000D02*
X98088000Y-68796000D01*
X93088000Y-65296000D02*
X93088000Y-64546000D01*
G04 #@! TO.C,SW2*
X83944000Y-65296000D02*
X83944000Y-64546000D01*
X83944000Y-68796000D02*
X88944000Y-68796000D01*
X83944000Y-65296000D02*
X88944000Y-65296000D01*
G04 #@! TO.C,U1*
X84513000Y-86429000D02*
X84738000Y-86429000D01*
X84513000Y-79179000D02*
X84838000Y-79179000D01*
X91763000Y-79179000D02*
X91438000Y-79179000D01*
X91763000Y-86429000D02*
X91438000Y-86429000D01*
X84513000Y-86429000D02*
X84513000Y-86104000D01*
X91763000Y-86429000D02*
X91763000Y-86104000D01*
X91763000Y-79179000D02*
X91763000Y-79504000D01*
X84513000Y-79179000D02*
X84513000Y-79504000D01*
X84738000Y-86429000D02*
X84738000Y-87854000D01*
G04 #@! TO.C,U2*
X93726000Y-72517000D02*
X103886000Y-72517000D01*
X103886000Y-72517000D02*
X103886000Y-80899000D01*
X103886000Y-80899000D02*
X93726000Y-80899000D01*
X93726000Y-80899000D02*
X93726000Y-72517000D01*
X103886000Y-77343000D02*
X103124000Y-77343000D01*
X103124000Y-77343000D02*
X103124000Y-76073000D01*
X103124000Y-76073000D02*
X103886000Y-76073000D01*
D12*
G04 #@! TO.C,U4*
X90736000Y-70842000D02*
X90436000Y-70842000D01*
X90736000Y-75462000D02*
X90736000Y-70842000D01*
X90436000Y-75462000D02*
X90736000Y-75462000D01*
X84016000Y-70842000D02*
X84316000Y-70842000D01*
X84016000Y-75462000D02*
X84016000Y-70842000D01*
X84316000Y-75462000D02*
X84016000Y-75462000D01*
X84316000Y-76352000D02*
X84316000Y-75462000D01*
D13*
G04 #@! TO.C,Y1*
X89944000Y-88912000D02*
X89944000Y-90412000D01*
X93444000Y-88912000D02*
X93444000Y-90412000D01*
D12*
G04 #@! TO.C,C1*
X93304000Y-92537221D02*
X93304000Y-92862779D01*
X92284000Y-92537221D02*
X92284000Y-92862779D01*
G04 #@! TO.C,C2*
X93220000Y-76108779D02*
X93220000Y-75783221D01*
X92200000Y-76108779D02*
X92200000Y-75783221D01*
G04 #@! TO.C,C3*
X90506000Y-92537221D02*
X90506000Y-92862779D01*
X91526000Y-92537221D02*
X91526000Y-92862779D01*
G04 #@! TO.C,C4*
X88732000Y-90759221D02*
X88732000Y-91084779D01*
X87712000Y-90759221D02*
X87712000Y-91084779D01*
G04 #@! TO.C,C6*
X104390000Y-79654779D02*
X104390000Y-79329221D01*
X105410000Y-79654779D02*
X105410000Y-79329221D01*
G04 #@! TO.C,R1*
X80092000Y-75336779D02*
X80092000Y-75011221D01*
X81112000Y-75336779D02*
X81112000Y-75011221D01*
G04 #@! TO.C,R2*
X82636000Y-75336779D02*
X82636000Y-75011221D01*
X81616000Y-75336779D02*
X81616000Y-75011221D01*
G04 #@! TO.C,R3*
X86954000Y-90759221D02*
X86954000Y-91084779D01*
X85934000Y-90759221D02*
X85934000Y-91084779D01*
G04 #@! TO.C,R4*
X91268000Y-67137221D02*
X91268000Y-67462779D01*
X92288000Y-67137221D02*
X92288000Y-67462779D01*
G04 #@! TO.C,R5*
X83144000Y-67137221D02*
X83144000Y-67462779D01*
X82124000Y-67137221D02*
X82124000Y-67462779D01*
G04 #@! TO.C,R6*
X75774000Y-79075221D02*
X75774000Y-79400779D01*
X76794000Y-79075221D02*
X76794000Y-79400779D01*
G04 #@! TO.C,C5*
X76478000Y-76250000D02*
X79138000Y-76250000D01*
X76478000Y-73650000D02*
X76478000Y-76250000D01*
X79138000Y-73650000D02*
X79138000Y-76250000D01*
X76478000Y-73650000D02*
X79138000Y-73650000D01*
X76478000Y-72380000D02*
X76478000Y-71050000D01*
X76478000Y-71050000D02*
X77808000Y-71050000D01*
G04 #@! TO.C,D1*
X93286000Y-69622000D02*
X91286000Y-69622000D01*
X91286000Y-69622000D02*
X91286000Y-73522000D01*
X93286000Y-69622000D02*
X93286000Y-73522000D01*
G04 #@! TO.C,TP_INT*
X74060000Y-77144000D02*
X74060000Y-75744000D01*
X75460000Y-77144000D02*
X74060000Y-77144000D01*
X75460000Y-75744000D02*
X75460000Y-77144000D01*
X74060000Y-75744000D02*
X75460000Y-75744000D01*
G04 #@! TO.C,U3*
D13*
X78620380Y-72125904D02*
X79429904Y-72125904D01*
X79525142Y-72078285D01*
X79572761Y-72030666D01*
X79620380Y-71935428D01*
X79620380Y-71744952D01*
X79572761Y-71649714D01*
X79525142Y-71602095D01*
X79429904Y-71554476D01*
X78620380Y-71554476D01*
X78620380Y-71173523D02*
X78620380Y-70554476D01*
X79001333Y-70887809D01*
X79001333Y-70744952D01*
X79048952Y-70649714D01*
X79096571Y-70602095D01*
X79191809Y-70554476D01*
X79429904Y-70554476D01*
X79525142Y-70602095D01*
X79572761Y-70649714D01*
X79620380Y-70744952D01*
X79620380Y-71030666D01*
X79572761Y-71125904D01*
X79525142Y-71173523D01*
G04 #@! TO.C,J1*
X101731380Y-87953333D02*
X102445666Y-87953333D01*
X102588523Y-88000952D01*
X102683761Y-88096190D01*
X102731380Y-88239047D01*
X102731380Y-88334285D01*
X102731380Y-86953333D02*
X102731380Y-87524761D01*
X102731380Y-87239047D02*
X101731380Y-87239047D01*
X101874238Y-87334285D01*
X101969476Y-87429523D01*
X102017095Y-87524761D01*
G04 #@! TO.C,J3*
X83316666Y-92914380D02*
X83316666Y-93628666D01*
X83269047Y-93771523D01*
X83173809Y-93866761D01*
X83030952Y-93914380D01*
X82935714Y-93914380D01*
X83697619Y-92914380D02*
X84316666Y-92914380D01*
X83983333Y-93295333D01*
X84126190Y-93295333D01*
X84221428Y-93342952D01*
X84269047Y-93390571D01*
X84316666Y-93485809D01*
X84316666Y-93723904D01*
X84269047Y-93819142D01*
X84221428Y-93866761D01*
X84126190Y-93914380D01*
X83840476Y-93914380D01*
X83745238Y-93866761D01*
X83697619Y-93819142D01*
G04 #@! TO.C,J4*
X76712666Y-87580380D02*
X76712666Y-88294666D01*
X76665047Y-88437523D01*
X76569809Y-88532761D01*
X76426952Y-88580380D01*
X76331714Y-88580380D01*
X77617428Y-87913714D02*
X77617428Y-88580380D01*
X77379333Y-87532761D02*
X77141238Y-88247047D01*
X77760285Y-88247047D01*
G04 #@! TO.C,Q1*
X82041619Y-79597238D02*
X81994000Y-79692476D01*
X81898761Y-79787714D01*
X81755904Y-79930571D01*
X81708285Y-80025809D01*
X81708285Y-80121047D01*
X81946380Y-80073428D02*
X81898761Y-80168666D01*
X81803523Y-80263904D01*
X81613047Y-80311523D01*
X81279714Y-80311523D01*
X81089238Y-80263904D01*
X80994000Y-80168666D01*
X80946380Y-80073428D01*
X80946380Y-79882952D01*
X80994000Y-79787714D01*
X81089238Y-79692476D01*
X81279714Y-79644857D01*
X81613047Y-79644857D01*
X81803523Y-79692476D01*
X81898761Y-79787714D01*
X81946380Y-79882952D01*
X81946380Y-80073428D01*
X81946380Y-78692476D02*
X81946380Y-79263904D01*
X81946380Y-78978190D02*
X80946380Y-78978190D01*
X81089238Y-79073428D01*
X81184476Y-79168666D01*
X81232095Y-79263904D01*
G04 #@! TO.C,Q2*
X80133619Y-85429238D02*
X80086000Y-85524476D01*
X79990761Y-85619714D01*
X79847904Y-85762571D01*
X79800285Y-85857809D01*
X79800285Y-85953047D01*
X80038380Y-85905428D02*
X79990761Y-86000666D01*
X79895523Y-86095904D01*
X79705047Y-86143523D01*
X79371714Y-86143523D01*
X79181238Y-86095904D01*
X79086000Y-86000666D01*
X79038380Y-85905428D01*
X79038380Y-85714952D01*
X79086000Y-85619714D01*
X79181238Y-85524476D01*
X79371714Y-85476857D01*
X79705047Y-85476857D01*
X79895523Y-85524476D01*
X79990761Y-85619714D01*
X80038380Y-85714952D01*
X80038380Y-85905428D01*
X79133619Y-85095904D02*
X79086000Y-85048285D01*
X79038380Y-84953047D01*
X79038380Y-84714952D01*
X79086000Y-84619714D01*
X79133619Y-84572095D01*
X79228857Y-84524476D01*
X79324095Y-84524476D01*
X79466952Y-84572095D01*
X80038380Y-85143523D01*
X80038380Y-84524476D01*
G04 #@! TO.C,Q3*
X80133619Y-89239238D02*
X80086000Y-89334476D01*
X79990761Y-89429714D01*
X79847904Y-89572571D01*
X79800285Y-89667809D01*
X79800285Y-89763047D01*
X80038380Y-89715428D02*
X79990761Y-89810666D01*
X79895523Y-89905904D01*
X79705047Y-89953523D01*
X79371714Y-89953523D01*
X79181238Y-89905904D01*
X79086000Y-89810666D01*
X79038380Y-89715428D01*
X79038380Y-89524952D01*
X79086000Y-89429714D01*
X79181238Y-89334476D01*
X79371714Y-89286857D01*
X79705047Y-89286857D01*
X79895523Y-89334476D01*
X79990761Y-89429714D01*
X80038380Y-89524952D01*
X80038380Y-89715428D01*
X79038380Y-88953523D02*
X79038380Y-88334476D01*
X79419333Y-88667809D01*
X79419333Y-88524952D01*
X79466952Y-88429714D01*
X79514571Y-88382095D01*
X79609809Y-88334476D01*
X79847904Y-88334476D01*
X79943142Y-88382095D01*
X79990761Y-88429714D01*
X80038380Y-88524952D01*
X80038380Y-88810666D01*
X79990761Y-88905904D01*
X79943142Y-88953523D01*
G04 #@! TO.C,SW1*
X90190666Y-65164761D02*
X90333523Y-65212380D01*
X90571619Y-65212380D01*
X90666857Y-65164761D01*
X90714476Y-65117142D01*
X90762095Y-65021904D01*
X90762095Y-64926666D01*
X90714476Y-64831428D01*
X90666857Y-64783809D01*
X90571619Y-64736190D01*
X90381142Y-64688571D01*
X90285904Y-64640952D01*
X90238285Y-64593333D01*
X90190666Y-64498095D01*
X90190666Y-64402857D01*
X90238285Y-64307619D01*
X90285904Y-64260000D01*
X90381142Y-64212380D01*
X90619238Y-64212380D01*
X90762095Y-64260000D01*
X91095428Y-64212380D02*
X91333523Y-65212380D01*
X91524000Y-64498095D01*
X91714476Y-65212380D01*
X91952571Y-64212380D01*
X92857333Y-65212380D02*
X92285904Y-65212380D01*
X92571619Y-65212380D02*
X92571619Y-64212380D01*
X92476380Y-64355238D01*
X92381142Y-64450476D01*
X92285904Y-64498095D01*
G04 #@! TO.C,SW2*
X85618666Y-64910761D02*
X85761523Y-64958380D01*
X85999619Y-64958380D01*
X86094857Y-64910761D01*
X86142476Y-64863142D01*
X86190095Y-64767904D01*
X86190095Y-64672666D01*
X86142476Y-64577428D01*
X86094857Y-64529809D01*
X85999619Y-64482190D01*
X85809142Y-64434571D01*
X85713904Y-64386952D01*
X85666285Y-64339333D01*
X85618666Y-64244095D01*
X85618666Y-64148857D01*
X85666285Y-64053619D01*
X85713904Y-64006000D01*
X85809142Y-63958380D01*
X86047238Y-63958380D01*
X86190095Y-64006000D01*
X86523428Y-63958380D02*
X86761523Y-64958380D01*
X86952000Y-64244095D01*
X87142476Y-64958380D01*
X87380571Y-63958380D01*
X87713904Y-64053619D02*
X87761523Y-64006000D01*
X87856761Y-63958380D01*
X88094857Y-63958380D01*
X88190095Y-64006000D01*
X88237714Y-64053619D01*
X88285333Y-64148857D01*
X88285333Y-64244095D01*
X88237714Y-64386952D01*
X87666285Y-64958380D01*
X88285333Y-64958380D01*
G04 #@! TO.C,U1*
X83610380Y-79237904D02*
X84419904Y-79237904D01*
X84515142Y-79190285D01*
X84562761Y-79142666D01*
X84610380Y-79047428D01*
X84610380Y-78856952D01*
X84562761Y-78761714D01*
X84515142Y-78714095D01*
X84419904Y-78666476D01*
X83610380Y-78666476D01*
X84610380Y-77666476D02*
X84610380Y-78237904D01*
X84610380Y-77952190D02*
X83610380Y-77952190D01*
X83753238Y-78047428D01*
X83848476Y-78142666D01*
X83896095Y-78237904D01*
G04 #@! TO.C,U2*
X104438380Y-76443904D02*
X105247904Y-76443904D01*
X105343142Y-76396285D01*
X105390761Y-76348666D01*
X105438380Y-76253428D01*
X105438380Y-76062952D01*
X105390761Y-75967714D01*
X105343142Y-75920095D01*
X105247904Y-75872476D01*
X104438380Y-75872476D01*
X104533619Y-75443904D02*
X104486000Y-75396285D01*
X104438380Y-75301047D01*
X104438380Y-75062952D01*
X104486000Y-74967714D01*
X104533619Y-74920095D01*
X104628857Y-74872476D01*
X104724095Y-74872476D01*
X104866952Y-74920095D01*
X105438380Y-75491523D01*
X105438380Y-74872476D01*
G04 #@! TO.C,U4*
X82628380Y-73913904D02*
X83437904Y-73913904D01*
X83533142Y-73866285D01*
X83580761Y-73818666D01*
X83628380Y-73723428D01*
X83628380Y-73532952D01*
X83580761Y-73437714D01*
X83533142Y-73390095D01*
X83437904Y-73342476D01*
X82628380Y-73342476D01*
X82961714Y-72437714D02*
X83628380Y-72437714D01*
X82580761Y-72675809D02*
X83295047Y-72913904D01*
X83295047Y-72294857D01*
G04 #@! TO.C,Y1*
X92825809Y-87850190D02*
X92825809Y-88326380D01*
X92492476Y-87326380D02*
X92825809Y-87850190D01*
X93159142Y-87326380D01*
X94016285Y-88326380D02*
X93444857Y-88326380D01*
X93730571Y-88326380D02*
X93730571Y-87326380D01*
X93635333Y-87469238D01*
X93540095Y-87564476D01*
X93444857Y-87612095D01*
G04 #@! TO.C,C1*
X93151142Y-95152666D02*
X93198761Y-95200285D01*
X93246380Y-95343142D01*
X93246380Y-95438380D01*
X93198761Y-95581238D01*
X93103523Y-95676476D01*
X93008285Y-95724095D01*
X92817809Y-95771714D01*
X92674952Y-95771714D01*
X92484476Y-95724095D01*
X92389238Y-95676476D01*
X92294000Y-95581238D01*
X92246380Y-95438380D01*
X92246380Y-95343142D01*
X92294000Y-95200285D01*
X92341619Y-95152666D01*
X93246380Y-94200285D02*
X93246380Y-94771714D01*
X93246380Y-94486000D02*
X92246380Y-94486000D01*
X92389238Y-94581238D01*
X92484476Y-94676476D01*
X92532095Y-94771714D01*
G04 #@! TO.C,C2*
X91637142Y-76112666D02*
X91684761Y-76160285D01*
X91732380Y-76303142D01*
X91732380Y-76398380D01*
X91684761Y-76541238D01*
X91589523Y-76636476D01*
X91494285Y-76684095D01*
X91303809Y-76731714D01*
X91160952Y-76731714D01*
X90970476Y-76684095D01*
X90875238Y-76636476D01*
X90780000Y-76541238D01*
X90732380Y-76398380D01*
X90732380Y-76303142D01*
X90780000Y-76160285D01*
X90827619Y-76112666D01*
X90827619Y-75731714D02*
X90780000Y-75684095D01*
X90732380Y-75588857D01*
X90732380Y-75350761D01*
X90780000Y-75255523D01*
X90827619Y-75207904D01*
X90922857Y-75160285D01*
X91018095Y-75160285D01*
X91160952Y-75207904D01*
X91732380Y-75779333D01*
X91732380Y-75160285D01*
G04 #@! TO.C,C3*
X91373142Y-95406666D02*
X91420761Y-95454285D01*
X91468380Y-95597142D01*
X91468380Y-95692380D01*
X91420761Y-95835238D01*
X91325523Y-95930476D01*
X91230285Y-95978095D01*
X91039809Y-96025714D01*
X90896952Y-96025714D01*
X90706476Y-95978095D01*
X90611238Y-95930476D01*
X90516000Y-95835238D01*
X90468380Y-95692380D01*
X90468380Y-95597142D01*
X90516000Y-95454285D01*
X90563619Y-95406666D01*
X90468380Y-95073333D02*
X90468380Y-94454285D01*
X90849333Y-94787619D01*
X90849333Y-94644761D01*
X90896952Y-94549523D01*
X90944571Y-94501904D01*
X91039809Y-94454285D01*
X91277904Y-94454285D01*
X91373142Y-94501904D01*
X91420761Y-94549523D01*
X91468380Y-94644761D01*
X91468380Y-94930476D01*
X91420761Y-95025714D01*
X91373142Y-95073333D01*
G04 #@! TO.C,C4*
X89341142Y-93628666D02*
X89388761Y-93676285D01*
X89436380Y-93819142D01*
X89436380Y-93914380D01*
X89388761Y-94057238D01*
X89293523Y-94152476D01*
X89198285Y-94200095D01*
X89007809Y-94247714D01*
X88864952Y-94247714D01*
X88674476Y-94200095D01*
X88579238Y-94152476D01*
X88484000Y-94057238D01*
X88436380Y-93914380D01*
X88436380Y-93819142D01*
X88484000Y-93676285D01*
X88531619Y-93628666D01*
X88769714Y-92771523D02*
X89436380Y-92771523D01*
X88388761Y-93009619D02*
X89103047Y-93247714D01*
X89103047Y-92628666D01*
G04 #@! TO.C,C6*
X105343142Y-82198666D02*
X105390761Y-82246285D01*
X105438380Y-82389142D01*
X105438380Y-82484380D01*
X105390761Y-82627238D01*
X105295523Y-82722476D01*
X105200285Y-82770095D01*
X105009809Y-82817714D01*
X104866952Y-82817714D01*
X104676476Y-82770095D01*
X104581238Y-82722476D01*
X104486000Y-82627238D01*
X104438380Y-82484380D01*
X104438380Y-82389142D01*
X104486000Y-82246285D01*
X104533619Y-82198666D01*
X104438380Y-81341523D02*
X104438380Y-81532000D01*
X104486000Y-81627238D01*
X104533619Y-81674857D01*
X104676476Y-81770095D01*
X104866952Y-81817714D01*
X105247904Y-81817714D01*
X105343142Y-81770095D01*
X105390761Y-81722476D01*
X105438380Y-81627238D01*
X105438380Y-81436761D01*
X105390761Y-81341523D01*
X105343142Y-81293904D01*
X105247904Y-81246285D01*
X105009809Y-81246285D01*
X104914571Y-81293904D01*
X104866952Y-81341523D01*
X104819333Y-81436761D01*
X104819333Y-81627238D01*
X104866952Y-81722476D01*
X104914571Y-81770095D01*
X105009809Y-81817714D01*
G04 #@! TO.C,R1*
X81816380Y-77626666D02*
X81340190Y-77960000D01*
X81816380Y-78198095D02*
X80816380Y-78198095D01*
X80816380Y-77817142D01*
X80864000Y-77721904D01*
X80911619Y-77674285D01*
X81006857Y-77626666D01*
X81149714Y-77626666D01*
X81244952Y-77674285D01*
X81292571Y-77721904D01*
X81340190Y-77817142D01*
X81340190Y-78198095D01*
X81816380Y-76674285D02*
X81816380Y-77245714D01*
X81816380Y-76960000D02*
X80816380Y-76960000D01*
X80959238Y-77055238D01*
X81054476Y-77150476D01*
X81102095Y-77245714D01*
G04 #@! TO.C,R2*
X83086380Y-77626666D02*
X82610190Y-77960000D01*
X83086380Y-78198095D02*
X82086380Y-78198095D01*
X82086380Y-77817142D01*
X82134000Y-77721904D01*
X82181619Y-77674285D01*
X82276857Y-77626666D01*
X82419714Y-77626666D01*
X82514952Y-77674285D01*
X82562571Y-77721904D01*
X82610190Y-77817142D01*
X82610190Y-78198095D01*
X82181619Y-77245714D02*
X82134000Y-77198095D01*
X82086380Y-77102857D01*
X82086380Y-76864761D01*
X82134000Y-76769523D01*
X82181619Y-76721904D01*
X82276857Y-76674285D01*
X82372095Y-76674285D01*
X82514952Y-76721904D01*
X83086380Y-77293333D01*
X83086380Y-76674285D01*
G04 #@! TO.C,R3*
X86896380Y-93628666D02*
X86420190Y-93962000D01*
X86896380Y-94200095D02*
X85896380Y-94200095D01*
X85896380Y-93819142D01*
X85944000Y-93723904D01*
X85991619Y-93676285D01*
X86086857Y-93628666D01*
X86229714Y-93628666D01*
X86324952Y-93676285D01*
X86372571Y-93723904D01*
X86420190Y-93819142D01*
X86420190Y-94200095D01*
X85896380Y-93295333D02*
X85896380Y-92676285D01*
X86277333Y-93009619D01*
X86277333Y-92866761D01*
X86324952Y-92771523D01*
X86372571Y-92723904D01*
X86467809Y-92676285D01*
X86705904Y-92676285D01*
X86801142Y-92723904D01*
X86848761Y-92771523D01*
X86896380Y-92866761D01*
X86896380Y-93152476D01*
X86848761Y-93247714D01*
X86801142Y-93295333D01*
G04 #@! TO.C,R4*
X90087333Y-66990380D02*
X89754000Y-66514190D01*
X89515904Y-66990380D02*
X89515904Y-65990380D01*
X89896857Y-65990380D01*
X89992095Y-66038000D01*
X90039714Y-66085619D01*
X90087333Y-66180857D01*
X90087333Y-66323714D01*
X90039714Y-66418952D01*
X89992095Y-66466571D01*
X89896857Y-66514190D01*
X89515904Y-66514190D01*
X90944476Y-66323714D02*
X90944476Y-66990380D01*
X90706380Y-65942761D02*
X90468285Y-66657047D01*
X91087333Y-66657047D01*
G04 #@! TO.C,R5*
X81816380Y-67720666D02*
X81340190Y-68054000D01*
X81816380Y-68292095D02*
X80816380Y-68292095D01*
X80816380Y-67911142D01*
X80864000Y-67815904D01*
X80911619Y-67768285D01*
X81006857Y-67720666D01*
X81149714Y-67720666D01*
X81244952Y-67768285D01*
X81292571Y-67815904D01*
X81340190Y-67911142D01*
X81340190Y-68292095D01*
X80816380Y-66815904D02*
X80816380Y-67292095D01*
X81292571Y-67339714D01*
X81244952Y-67292095D01*
X81197333Y-67196857D01*
X81197333Y-66958761D01*
X81244952Y-66863523D01*
X81292571Y-66815904D01*
X81387809Y-66768285D01*
X81625904Y-66768285D01*
X81721142Y-66815904D01*
X81768761Y-66863523D01*
X81816380Y-66958761D01*
X81816380Y-67196857D01*
X81768761Y-67292095D01*
X81721142Y-67339714D01*
G04 #@! TO.C,R6*
X76625333Y-77658380D02*
X76292000Y-77182190D01*
X76053904Y-77658380D02*
X76053904Y-76658380D01*
X76434857Y-76658380D01*
X76530095Y-76706000D01*
X76577714Y-76753619D01*
X76625333Y-76848857D01*
X76625333Y-76991714D01*
X76577714Y-77086952D01*
X76530095Y-77134571D01*
X76434857Y-77182190D01*
X76053904Y-77182190D01*
X77482476Y-76658380D02*
X77292000Y-76658380D01*
X77196761Y-76706000D01*
X77149142Y-76753619D01*
X77053904Y-76896476D01*
X77006285Y-77086952D01*
X77006285Y-77467904D01*
X77053904Y-77563142D01*
X77101523Y-77610761D01*
X77196761Y-77658380D01*
X77387238Y-77658380D01*
X77482476Y-77610761D01*
X77530095Y-77563142D01*
X77577714Y-77467904D01*
X77577714Y-77229809D01*
X77530095Y-77134571D01*
X77482476Y-77086952D01*
X77387238Y-77039333D01*
X77196761Y-77039333D01*
X77101523Y-77086952D01*
X77053904Y-77134571D01*
X77006285Y-77229809D01*
G04 #@! TO.C,C5*
X76133142Y-73308666D02*
X76180761Y-73356285D01*
X76228380Y-73499142D01*
X76228380Y-73594380D01*
X76180761Y-73737238D01*
X76085523Y-73832476D01*
X75990285Y-73880095D01*
X75799809Y-73927714D01*
X75656952Y-73927714D01*
X75466476Y-73880095D01*
X75371238Y-73832476D01*
X75276000Y-73737238D01*
X75228380Y-73594380D01*
X75228380Y-73499142D01*
X75276000Y-73356285D01*
X75323619Y-73308666D01*
X75228380Y-72403904D02*
X75228380Y-72880095D01*
X75704571Y-72927714D01*
X75656952Y-72880095D01*
X75609333Y-72784857D01*
X75609333Y-72546761D01*
X75656952Y-72451523D01*
X75704571Y-72403904D01*
X75799809Y-72356285D01*
X76037904Y-72356285D01*
X76133142Y-72403904D01*
X76180761Y-72451523D01*
X76228380Y-72546761D01*
X76228380Y-72784857D01*
X76180761Y-72880095D01*
X76133142Y-72927714D01*
G04 #@! TO.C,D1*
X93579904Y-70038380D02*
X93579904Y-69038380D01*
X93818000Y-69038380D01*
X93960857Y-69086000D01*
X94056095Y-69181238D01*
X94103714Y-69276476D01*
X94151333Y-69466952D01*
X94151333Y-69609809D01*
X94103714Y-69800285D01*
X94056095Y-69895523D01*
X93960857Y-69990761D01*
X93818000Y-70038380D01*
X93579904Y-70038380D01*
X95103714Y-70038380D02*
X94532285Y-70038380D01*
X94818000Y-70038380D02*
X94818000Y-69038380D01*
X94722761Y-69181238D01*
X94627523Y-69276476D01*
X94532285Y-69324095D01*
G04 #@! TO.C,TP_INT*
X74545619Y-77436476D02*
X74545619Y-78007904D01*
X73545619Y-77722190D02*
X74545619Y-77722190D01*
X73545619Y-78341238D02*
X74545619Y-78341238D01*
X74545619Y-78722190D01*
X74498000Y-78817428D01*
X74450380Y-78865047D01*
X74355142Y-78912666D01*
X74212285Y-78912666D01*
X74117047Y-78865047D01*
X74069428Y-78817428D01*
X74021809Y-78722190D01*
X74021809Y-78341238D01*
X73450380Y-79103142D02*
X73450380Y-79865047D01*
X73545619Y-80103142D02*
X74545619Y-80103142D01*
X73545619Y-80579333D02*
X74545619Y-80579333D01*
X73545619Y-81150761D01*
X74545619Y-81150761D01*
X74545619Y-81484095D02*
X74545619Y-82055523D01*
X73545619Y-81769809D02*
X74545619Y-81769809D01*
G04 #@! TD*
M02*
