G04 #@! TF.GenerationSoftware,KiCad,Pcbnew,(5.0.2)-1*
G04 #@! TF.CreationDate,2019-03-25T12:23:43+09:00*
G04 #@! TF.ProjectId,NixieHourglass,4e697869-6548-46f7-9572-676c6173732e,rev?*
G04 #@! TF.SameCoordinates,Original*
G04 #@! TF.FileFunction,Copper,L3,Inr*
G04 #@! TF.FilePolarity,Positive*
%FSLAX46Y46*%
G04 Gerber Fmt 4.6, Leading zero omitted, Abs format (unit mm)*
G04 Created by KiCad (PCBNEW (5.0.2)-1) date 25/03/2019 12:23:43*
%MOMM*%
%LPD*%
G01*
G04 APERTURE LIST*
G04 #@! TA.AperFunction,ViaPad*
%ADD10R,1.700000X1.700000*%
G04 #@! TD*
G04 #@! TA.AperFunction,ViaPad*
%ADD11O,1.700000X1.700000*%
G04 #@! TD*
G04 #@! TA.AperFunction,ViaPad*
%ADD12C,0.600000*%
G04 #@! TD*
G04 #@! TA.AperFunction,Conductor*
%ADD13C,0.250000*%
G04 #@! TD*
G04 #@! TA.AperFunction,Conductor*
%ADD14C,2.000000*%
G04 #@! TD*
G04 #@! TA.AperFunction,Conductor*
%ADD15C,3.000000*%
G04 #@! TD*
G04 #@! TA.AperFunction,Conductor*
%ADD16C,1.000000*%
G04 #@! TD*
G04 #@! TA.AperFunction,Conductor*
%ADD17C,0.500000*%
G04 #@! TD*
G04 #@! TA.AperFunction,Conductor*
%ADD18C,0.254000*%
G04 #@! TD*
G04 APERTURE END LIST*
D10*
G04 #@! TO.N,+BATT*
G04 #@! TO.C,J3*
X83396000Y-91430000D03*
D11*
G04 #@! TO.N,GND*
X80856000Y-91430000D03*
G04 #@! TD*
G04 #@! TO.N,GND*
G04 #@! TO.C,J4*
X77216000Y-85852000D03*
D10*
G04 #@! TO.N,+HV*
X77216000Y-83312000D03*
G04 #@! TD*
G04 #@! TO.N,GND*
G04 #@! TO.C,C5*
X77808000Y-72380000D03*
D11*
G04 #@! TO.N,+BATT*
X77808000Y-74920000D03*
G04 #@! TD*
D12*
G04 #@! TO.N,GND*
X82888000Y-73396000D03*
X89238000Y-77206000D03*
X87206000Y-88636000D03*
X88593000Y-88636000D03*
X96858000Y-93462000D03*
X100414000Y-79238000D03*
X104900000Y-77628000D03*
X81618000Y-71364000D03*
X84920000Y-65014000D03*
X81872000Y-85588000D03*
X80856000Y-82540000D03*
X91778000Y-88128000D03*
X94064000Y-77206000D03*
X94064000Y-89144000D03*
X95080000Y-88382000D03*
X101176000Y-79238000D03*
X93556000Y-73142000D03*
G04 #@! TO.N,+BATT*
X90254942Y-77206942D03*
X100160000Y-92192000D03*
X101175978Y-74666000D03*
X79332000Y-70602000D03*
X99906000Y-88382000D03*
X95334000Y-67046000D03*
X103716000Y-78222000D03*
X101175986Y-80254000D03*
X90092500Y-91430000D03*
G04 #@! TO.N,Net-(C2-Pad1)*
X90000000Y-80000000D03*
X92286000Y-77714000D03*
G04 #@! TO.N,/MISO*
X94572000Y-78983992D03*
X100584000Y-86858000D03*
G04 #@! TO.N,/SCK*
X94064000Y-78222000D03*
X99314000Y-86858010D03*
G04 #@! TO.N,/MOSI*
X94064000Y-79746000D03*
X98636000Y-88382000D03*
G04 #@! TO.N,/RESET*
X86383051Y-84124949D03*
X97874000Y-86858000D03*
X87714000Y-93716000D03*
G04 #@! TO.N,/RXD*
X96858000Y-86858000D03*
X90761978Y-85334000D03*
G04 #@! TO.N,/TXD*
X96350000Y-88381998D03*
X88730000Y-85588006D03*
G04 #@! TO.N,Net-(N1-Pad1)*
X83904000Y-69332000D03*
G04 #@! TO.N,Net-(N1-Pad2)*
X85936000Y-65522000D03*
G04 #@! TO.N,Net-(N1-Pad3)*
X86952000Y-66030000D03*
G04 #@! TO.N,Net-(N1-Pad4)*
X90508000Y-67554000D03*
G04 #@! TO.N,Net-(N1-Pad5)*
X87714872Y-68867792D03*
G04 #@! TO.N,Net-(N1-Pad6)*
X89492000Y-71618016D03*
G04 #@! TO.N,Net-(N1-Pad7)*
X88969824Y-68949344D03*
G04 #@! TO.N,Net-(N1-Pad8)*
X90000000Y-69077956D03*
G04 #@! TO.N,Net-(N1-Pad9)*
X81069439Y-79573337D03*
G04 #@! TO.N,/NIX_ANODE*
X79840032Y-77206000D03*
X86952000Y-83302000D03*
G04 #@! TO.N,/NIX_0*
X83396000Y-87365988D03*
X90254000Y-83556000D03*
G04 #@! TO.N,/SCL*
X90822478Y-82739103D03*
X81364000Y-73396000D03*
X88222000Y-83048000D03*
X97620000Y-78984000D03*
G04 #@! TO.N,/SDA*
X90223992Y-82051988D03*
X96604000Y-79237986D03*
G04 #@! TO.N,/NIX_8*
X84370051Y-87286050D03*
X91016000Y-75936000D03*
G04 #@! TO.N,/NIX_1*
X83904000Y-75682016D03*
X87968000Y-81308027D03*
G04 #@! TO.N,/NIX_2*
X86189974Y-71833987D03*
X87968000Y-80253970D03*
G04 #@! TO.N,/NIX_3*
X87264883Y-76986594D03*
X86189992Y-72888000D03*
G04 #@! TO.N,/NIX_5*
X85936000Y-80004000D03*
X86710500Y-73912329D03*
G04 #@! TO.N,/NIX_6*
X86952000Y-80000000D03*
X90000000Y-72634000D03*
G04 #@! TO.N,/NIX_7*
X83904000Y-86604000D03*
X90000000Y-73650000D03*
G04 #@! TO.N,Net-(N1-Pad0)*
X81110000Y-83555986D03*
G04 #@! TO.N,Net-(N1-PadA)*
X75522000Y-81524000D03*
G04 #@! TO.N,/SW_0*
X97874000Y-69586000D03*
X102192000Y-84826026D03*
G04 #@! TO.N,/SW_1*
X102192000Y-83810000D03*
X84411992Y-67046012D03*
X91016000Y-69077984D03*
G04 #@! TO.N,/INT_ACCEL*
X81618000Y-69332000D03*
X75268000Y-74666000D03*
G04 #@! TD*
D13*
G04 #@! TO.N,GND*
X88892999Y-88336001D02*
X88593000Y-88636000D01*
X89355001Y-87873999D02*
X88892999Y-88336001D01*
X89355001Y-85288005D02*
X89355001Y-87873999D01*
X89238000Y-85171004D02*
X89355001Y-85288005D01*
X88593000Y-88636000D02*
X87206000Y-88636000D01*
X80856000Y-88890000D02*
X80856000Y-91430000D01*
X87206000Y-88636000D02*
X81110000Y-88636000D01*
X81110000Y-88636000D02*
X80856000Y-88890000D01*
X78797919Y-88636000D02*
X81110000Y-88636000D01*
X77216000Y-87054081D02*
X78797919Y-88636000D01*
X77216000Y-85852000D02*
X77216000Y-87054081D01*
X89101000Y-88128000D02*
X88593000Y-88636000D01*
X91778000Y-88128000D02*
X89101000Y-88128000D01*
X82888000Y-72634000D02*
X81618000Y-71364000D01*
X82888000Y-73396000D02*
X82888000Y-72634000D01*
X92540000Y-78476000D02*
X89238000Y-78476000D01*
X93171612Y-77844388D02*
X92540000Y-78476000D01*
X89238000Y-77206000D02*
X89238000Y-78476000D01*
X89238000Y-78476000D02*
X89238000Y-85171004D01*
X93171612Y-77674124D02*
X93171612Y-77844388D01*
X93639736Y-77206000D02*
X93171612Y-77674124D01*
X94064000Y-77206000D02*
X93639736Y-77206000D01*
D14*
G04 #@! TO.N,+BATT*
X83396000Y-91430000D02*
X86246000Y-91430000D01*
D15*
X93048000Y-91430000D02*
X86246000Y-91430000D01*
D14*
X99398000Y-91430000D02*
X99906000Y-91938000D01*
X93048000Y-91430000D02*
X99398000Y-91430000D01*
D13*
X90254942Y-76782678D02*
X89492000Y-76019736D01*
X90254942Y-77206942D02*
X90254942Y-76782678D01*
D16*
X79631999Y-70901999D02*
X79631999Y-74457999D01*
X79332000Y-70602000D02*
X79631999Y-70901999D01*
D17*
X95334000Y-67046000D02*
X95334000Y-75174000D01*
G04 #@! TD*
D18*
G04 #@! TO.N,+BATT*
G36*
X81228541Y-74077000D02*
X81499459Y-74077000D01*
X81610513Y-74031000D01*
X82641487Y-74031000D01*
X82752541Y-74077000D01*
X83023459Y-74077000D01*
X83134513Y-74031000D01*
X86029500Y-74031000D01*
X86029500Y-74047788D01*
X86133176Y-74298085D01*
X86324744Y-74489653D01*
X86575041Y-74593329D01*
X86845959Y-74593329D01*
X87096256Y-74489653D01*
X87287824Y-74298085D01*
X87391500Y-74047788D01*
X87391500Y-74031000D01*
X89420706Y-74031000D01*
X89422676Y-74035756D01*
X89614244Y-74227324D01*
X89864541Y-74331000D01*
X90135459Y-74331000D01*
X90385756Y-74227324D01*
X90577324Y-74035756D01*
X90579294Y-74031000D01*
X102901394Y-74031000D01*
X104097000Y-75226606D01*
X104097000Y-88630390D01*
X103468727Y-89607150D01*
X102485915Y-90853841D01*
X101388138Y-92000594D01*
X101018609Y-92319000D01*
X98509000Y-92319000D01*
X98509000Y-89063000D01*
X98771459Y-89063000D01*
X99021756Y-88959324D01*
X99213324Y-88767756D01*
X99317000Y-88517459D01*
X99317000Y-88246541D01*
X99213324Y-87996244D01*
X99021756Y-87804676D01*
X98771459Y-87701000D01*
X98509000Y-87701000D01*
X98509000Y-87104513D01*
X98555000Y-86993459D01*
X98555000Y-86722551D01*
X98633000Y-86722551D01*
X98633000Y-86993469D01*
X98736676Y-87243766D01*
X98928244Y-87435334D01*
X99178541Y-87539010D01*
X99449459Y-87539010D01*
X99699756Y-87435334D01*
X99891324Y-87243766D01*
X99949002Y-87104518D01*
X100006676Y-87243756D01*
X100198244Y-87435324D01*
X100448541Y-87539000D01*
X100719459Y-87539000D01*
X100969756Y-87435324D01*
X101161324Y-87243756D01*
X101265000Y-86993459D01*
X101265000Y-86722541D01*
X101161324Y-86472244D01*
X100969756Y-86280676D01*
X100719459Y-86177000D01*
X100448541Y-86177000D01*
X100198244Y-86280676D01*
X100006676Y-86472244D01*
X99948998Y-86611492D01*
X99891324Y-86472254D01*
X99699756Y-86280686D01*
X99449459Y-86177010D01*
X99178541Y-86177010D01*
X98928244Y-86280686D01*
X98736676Y-86472254D01*
X98633000Y-86722551D01*
X98555000Y-86722551D01*
X98555000Y-86722541D01*
X98509000Y-86611487D01*
X98509000Y-83674541D01*
X101511000Y-83674541D01*
X101511000Y-83945459D01*
X101614676Y-84195756D01*
X101736933Y-84318013D01*
X101614676Y-84440270D01*
X101511000Y-84690567D01*
X101511000Y-84961485D01*
X101614676Y-85211782D01*
X101806244Y-85403350D01*
X102056541Y-85507026D01*
X102327459Y-85507026D01*
X102577756Y-85403350D01*
X102769324Y-85211782D01*
X102873000Y-84961485D01*
X102873000Y-84690567D01*
X102769324Y-84440270D01*
X102647067Y-84318013D01*
X102769324Y-84195756D01*
X102873000Y-83945459D01*
X102873000Y-83674541D01*
X102769324Y-83424244D01*
X102577756Y-83232676D01*
X102327459Y-83129000D01*
X102056541Y-83129000D01*
X101806244Y-83232676D01*
X101614676Y-83424244D01*
X101511000Y-83674541D01*
X98509000Y-83674541D01*
X98509000Y-79102541D01*
X99733000Y-79102541D01*
X99733000Y-79373459D01*
X99836676Y-79623756D01*
X100028244Y-79815324D01*
X100278541Y-79919000D01*
X100549459Y-79919000D01*
X100795000Y-79817294D01*
X101040541Y-79919000D01*
X101311459Y-79919000D01*
X101561756Y-79815324D01*
X101753324Y-79623756D01*
X101857000Y-79373459D01*
X101857000Y-79102541D01*
X101753324Y-78852244D01*
X101561756Y-78660676D01*
X101311459Y-78557000D01*
X101040541Y-78557000D01*
X100795000Y-78658706D01*
X100549459Y-78557000D01*
X100278541Y-78557000D01*
X100028244Y-78660676D01*
X99836676Y-78852244D01*
X99733000Y-79102541D01*
X98509000Y-79102541D01*
X98509000Y-76698000D01*
X98499333Y-76649399D01*
X98471803Y-76608197D01*
X98430601Y-76580667D01*
X98382000Y-76571000D01*
X94310513Y-76571000D01*
X94199459Y-76525000D01*
X93928541Y-76525000D01*
X93817487Y-76571000D01*
X91262513Y-76571000D01*
X91401756Y-76513324D01*
X91593324Y-76321756D01*
X91697000Y-76071459D01*
X91697000Y-75800541D01*
X91593324Y-75550244D01*
X91401756Y-75358676D01*
X91151459Y-75255000D01*
X90880541Y-75255000D01*
X90630244Y-75358676D01*
X90438676Y-75550244D01*
X90335000Y-75800541D01*
X90335000Y-76071459D01*
X90438676Y-76321756D01*
X90630244Y-76513324D01*
X90769487Y-76571000D01*
X89484513Y-76571000D01*
X89373459Y-76525000D01*
X89102541Y-76525000D01*
X88991487Y-76571000D01*
X87812369Y-76571000D01*
X87650639Y-76409270D01*
X87400342Y-76305594D01*
X87129424Y-76305594D01*
X86879127Y-76409270D01*
X86717397Y-76571000D01*
X80086545Y-76571000D01*
X79975491Y-76525000D01*
X79704573Y-76525000D01*
X79593519Y-76571000D01*
X78602516Y-76571000D01*
X78405803Y-76374287D01*
X78364601Y-76346757D01*
X78316000Y-76337090D01*
X78216840Y-76337090D01*
X78689358Y-76115183D01*
X79079645Y-75686924D01*
X79137783Y-75546557D01*
X83223000Y-75546557D01*
X83223000Y-75817475D01*
X83326676Y-76067772D01*
X83518244Y-76259340D01*
X83768541Y-76363016D01*
X84039459Y-76363016D01*
X84289756Y-76259340D01*
X84481324Y-76067772D01*
X84585000Y-75817475D01*
X84585000Y-75546557D01*
X84481324Y-75296260D01*
X84289756Y-75104692D01*
X84039459Y-75001016D01*
X83768541Y-75001016D01*
X83518244Y-75104692D01*
X83326676Y-75296260D01*
X83223000Y-75546557D01*
X79137783Y-75546557D01*
X79249476Y-75276890D01*
X79128155Y-75047000D01*
X77935000Y-75047000D01*
X77935000Y-75067000D01*
X77681000Y-75067000D01*
X77681000Y-75047000D01*
X76487845Y-75047000D01*
X76366524Y-75276890D01*
X76536355Y-75686924D01*
X76926642Y-76115183D01*
X77399160Y-76337090D01*
X76102696Y-76337090D01*
X75903000Y-76137394D01*
X75903000Y-74972606D01*
X76404723Y-74470883D01*
X76366524Y-74563110D01*
X76487845Y-74793000D01*
X77681000Y-74793000D01*
X77681000Y-74773000D01*
X77935000Y-74773000D01*
X77935000Y-74793000D01*
X79128155Y-74793000D01*
X79249476Y-74563110D01*
X79079645Y-74153076D01*
X78968393Y-74031000D01*
X81117487Y-74031000D01*
X81228541Y-74077000D01*
X81228541Y-74077000D01*
G37*
X81228541Y-74077000D02*
X81499459Y-74077000D01*
X81610513Y-74031000D01*
X82641487Y-74031000D01*
X82752541Y-74077000D01*
X83023459Y-74077000D01*
X83134513Y-74031000D01*
X86029500Y-74031000D01*
X86029500Y-74047788D01*
X86133176Y-74298085D01*
X86324744Y-74489653D01*
X86575041Y-74593329D01*
X86845959Y-74593329D01*
X87096256Y-74489653D01*
X87287824Y-74298085D01*
X87391500Y-74047788D01*
X87391500Y-74031000D01*
X89420706Y-74031000D01*
X89422676Y-74035756D01*
X89614244Y-74227324D01*
X89864541Y-74331000D01*
X90135459Y-74331000D01*
X90385756Y-74227324D01*
X90577324Y-74035756D01*
X90579294Y-74031000D01*
X102901394Y-74031000D01*
X104097000Y-75226606D01*
X104097000Y-88630390D01*
X103468727Y-89607150D01*
X102485915Y-90853841D01*
X101388138Y-92000594D01*
X101018609Y-92319000D01*
X98509000Y-92319000D01*
X98509000Y-89063000D01*
X98771459Y-89063000D01*
X99021756Y-88959324D01*
X99213324Y-88767756D01*
X99317000Y-88517459D01*
X99317000Y-88246541D01*
X99213324Y-87996244D01*
X99021756Y-87804676D01*
X98771459Y-87701000D01*
X98509000Y-87701000D01*
X98509000Y-87104513D01*
X98555000Y-86993459D01*
X98555000Y-86722551D01*
X98633000Y-86722551D01*
X98633000Y-86993469D01*
X98736676Y-87243766D01*
X98928244Y-87435334D01*
X99178541Y-87539010D01*
X99449459Y-87539010D01*
X99699756Y-87435334D01*
X99891324Y-87243766D01*
X99949002Y-87104518D01*
X100006676Y-87243756D01*
X100198244Y-87435324D01*
X100448541Y-87539000D01*
X100719459Y-87539000D01*
X100969756Y-87435324D01*
X101161324Y-87243756D01*
X101265000Y-86993459D01*
X101265000Y-86722541D01*
X101161324Y-86472244D01*
X100969756Y-86280676D01*
X100719459Y-86177000D01*
X100448541Y-86177000D01*
X100198244Y-86280676D01*
X100006676Y-86472244D01*
X99948998Y-86611492D01*
X99891324Y-86472254D01*
X99699756Y-86280686D01*
X99449459Y-86177010D01*
X99178541Y-86177010D01*
X98928244Y-86280686D01*
X98736676Y-86472254D01*
X98633000Y-86722551D01*
X98555000Y-86722551D01*
X98555000Y-86722541D01*
X98509000Y-86611487D01*
X98509000Y-83674541D01*
X101511000Y-83674541D01*
X101511000Y-83945459D01*
X101614676Y-84195756D01*
X101736933Y-84318013D01*
X101614676Y-84440270D01*
X101511000Y-84690567D01*
X101511000Y-84961485D01*
X101614676Y-85211782D01*
X101806244Y-85403350D01*
X102056541Y-85507026D01*
X102327459Y-85507026D01*
X102577756Y-85403350D01*
X102769324Y-85211782D01*
X102873000Y-84961485D01*
X102873000Y-84690567D01*
X102769324Y-84440270D01*
X102647067Y-84318013D01*
X102769324Y-84195756D01*
X102873000Y-83945459D01*
X102873000Y-83674541D01*
X102769324Y-83424244D01*
X102577756Y-83232676D01*
X102327459Y-83129000D01*
X102056541Y-83129000D01*
X101806244Y-83232676D01*
X101614676Y-83424244D01*
X101511000Y-83674541D01*
X98509000Y-83674541D01*
X98509000Y-79102541D01*
X99733000Y-79102541D01*
X99733000Y-79373459D01*
X99836676Y-79623756D01*
X100028244Y-79815324D01*
X100278541Y-79919000D01*
X100549459Y-79919000D01*
X100795000Y-79817294D01*
X101040541Y-79919000D01*
X101311459Y-79919000D01*
X101561756Y-79815324D01*
X101753324Y-79623756D01*
X101857000Y-79373459D01*
X101857000Y-79102541D01*
X101753324Y-78852244D01*
X101561756Y-78660676D01*
X101311459Y-78557000D01*
X101040541Y-78557000D01*
X100795000Y-78658706D01*
X100549459Y-78557000D01*
X100278541Y-78557000D01*
X100028244Y-78660676D01*
X99836676Y-78852244D01*
X99733000Y-79102541D01*
X98509000Y-79102541D01*
X98509000Y-76698000D01*
X98499333Y-76649399D01*
X98471803Y-76608197D01*
X98430601Y-76580667D01*
X98382000Y-76571000D01*
X94310513Y-76571000D01*
X94199459Y-76525000D01*
X93928541Y-76525000D01*
X93817487Y-76571000D01*
X91262513Y-76571000D01*
X91401756Y-76513324D01*
X91593324Y-76321756D01*
X91697000Y-76071459D01*
X91697000Y-75800541D01*
X91593324Y-75550244D01*
X91401756Y-75358676D01*
X91151459Y-75255000D01*
X90880541Y-75255000D01*
X90630244Y-75358676D01*
X90438676Y-75550244D01*
X90335000Y-75800541D01*
X90335000Y-76071459D01*
X90438676Y-76321756D01*
X90630244Y-76513324D01*
X90769487Y-76571000D01*
X89484513Y-76571000D01*
X89373459Y-76525000D01*
X89102541Y-76525000D01*
X88991487Y-76571000D01*
X87812369Y-76571000D01*
X87650639Y-76409270D01*
X87400342Y-76305594D01*
X87129424Y-76305594D01*
X86879127Y-76409270D01*
X86717397Y-76571000D01*
X80086545Y-76571000D01*
X79975491Y-76525000D01*
X79704573Y-76525000D01*
X79593519Y-76571000D01*
X78602516Y-76571000D01*
X78405803Y-76374287D01*
X78364601Y-76346757D01*
X78316000Y-76337090D01*
X78216840Y-76337090D01*
X78689358Y-76115183D01*
X79079645Y-75686924D01*
X79137783Y-75546557D01*
X83223000Y-75546557D01*
X83223000Y-75817475D01*
X83326676Y-76067772D01*
X83518244Y-76259340D01*
X83768541Y-76363016D01*
X84039459Y-76363016D01*
X84289756Y-76259340D01*
X84481324Y-76067772D01*
X84585000Y-75817475D01*
X84585000Y-75546557D01*
X84481324Y-75296260D01*
X84289756Y-75104692D01*
X84039459Y-75001016D01*
X83768541Y-75001016D01*
X83518244Y-75104692D01*
X83326676Y-75296260D01*
X83223000Y-75546557D01*
X79137783Y-75546557D01*
X79249476Y-75276890D01*
X79128155Y-75047000D01*
X77935000Y-75047000D01*
X77935000Y-75067000D01*
X77681000Y-75067000D01*
X77681000Y-75047000D01*
X76487845Y-75047000D01*
X76366524Y-75276890D01*
X76536355Y-75686924D01*
X76926642Y-76115183D01*
X77399160Y-76337090D01*
X76102696Y-76337090D01*
X75903000Y-76137394D01*
X75903000Y-74972606D01*
X76404723Y-74470883D01*
X76366524Y-74563110D01*
X76487845Y-74793000D01*
X77681000Y-74793000D01*
X77681000Y-74773000D01*
X77935000Y-74773000D01*
X77935000Y-74793000D01*
X79128155Y-74793000D01*
X79249476Y-74563110D01*
X79079645Y-74153076D01*
X78968393Y-74031000D01*
X81117487Y-74031000D01*
X81228541Y-74077000D01*
G04 #@! TO.N,GND*
G36*
X86472228Y-77516229D02*
X86735248Y-77779249D01*
X87078900Y-77921594D01*
X87450866Y-77921594D01*
X87794518Y-77779249D01*
X88057538Y-77516229D01*
X88133434Y-77333000D01*
X89319942Y-77333000D01*
X89319942Y-77392925D01*
X89462287Y-77736577D01*
X89725307Y-77999597D01*
X90068959Y-78141942D01*
X90440925Y-78141942D01*
X90784577Y-77999597D01*
X91047597Y-77736577D01*
X91189942Y-77392925D01*
X91189942Y-77333000D01*
X91431779Y-77333000D01*
X91351000Y-77528017D01*
X91351000Y-77899983D01*
X91493345Y-78243635D01*
X91756365Y-78506655D01*
X92100017Y-78649000D01*
X92471983Y-78649000D01*
X92815635Y-78506655D01*
X93078655Y-78243635D01*
X93129000Y-78122091D01*
X93129000Y-78407983D01*
X93271345Y-78751635D01*
X93503710Y-78984000D01*
X93271345Y-79216365D01*
X93129000Y-79560017D01*
X93129000Y-79931983D01*
X93271345Y-80275635D01*
X93534365Y-80538655D01*
X93878017Y-80681000D01*
X94249983Y-80681000D01*
X94593635Y-80538655D01*
X94856655Y-80275635D01*
X94999000Y-79931983D01*
X94999000Y-79819160D01*
X95101635Y-79776647D01*
X95364655Y-79513627D01*
X95507000Y-79169975D01*
X95507000Y-78798009D01*
X95364655Y-78454357D01*
X95101635Y-78191337D01*
X94999000Y-78148824D01*
X94999000Y-78036017D01*
X94856655Y-77692365D01*
X94593635Y-77429345D01*
X94361037Y-77333000D01*
X97747000Y-77333000D01*
X97747000Y-78049000D01*
X97434017Y-78049000D01*
X97090365Y-78191345D01*
X96923443Y-78358267D01*
X96789983Y-78302986D01*
X96418017Y-78302986D01*
X96074365Y-78445331D01*
X95811345Y-78708351D01*
X95669000Y-79052003D01*
X95669000Y-79423969D01*
X95811345Y-79767621D01*
X96074365Y-80030641D01*
X96418017Y-80172986D01*
X96789983Y-80172986D01*
X97133635Y-80030641D01*
X97300557Y-79863719D01*
X97434017Y-79919000D01*
X97747000Y-79919000D01*
X97747000Y-85923000D01*
X97688017Y-85923000D01*
X97366000Y-86056384D01*
X97043983Y-85923000D01*
X96672017Y-85923000D01*
X96328365Y-86065345D01*
X96065345Y-86328365D01*
X95923000Y-86672017D01*
X95923000Y-87043983D01*
X96065345Y-87387635D01*
X96136221Y-87458511D01*
X95820365Y-87589343D01*
X95557345Y-87852363D01*
X95415000Y-88196015D01*
X95415000Y-88567981D01*
X95557345Y-88911633D01*
X95820365Y-89174653D01*
X96164017Y-89316998D01*
X96535983Y-89316998D01*
X96879635Y-89174653D01*
X97142655Y-88911633D01*
X97285000Y-88567981D01*
X97285000Y-88196015D01*
X97142655Y-87852363D01*
X97071779Y-87781487D01*
X97366000Y-87659616D01*
X97688017Y-87793000D01*
X97747000Y-87793000D01*
X97747000Y-88084963D01*
X97701000Y-88196017D01*
X97701000Y-88567983D01*
X97747000Y-88679037D01*
X97747000Y-89795000D01*
X94443948Y-89795000D01*
X93881036Y-89418874D01*
X93258279Y-89295000D01*
X86035721Y-89295000D01*
X85412964Y-89418874D01*
X84850052Y-89795000D01*
X83234969Y-89795000D01*
X82758055Y-89889864D01*
X82694156Y-89932560D01*
X82546000Y-89932560D01*
X82298235Y-89981843D01*
X82088191Y-90122191D01*
X81947843Y-90332235D01*
X81927261Y-90435708D01*
X81622924Y-90158355D01*
X81212890Y-89988524D01*
X80983000Y-90109845D01*
X80983000Y-91303000D01*
X81003000Y-91303000D01*
X81003000Y-91557000D01*
X80983000Y-91557000D01*
X80983000Y-92750155D01*
X81212890Y-92871476D01*
X81622924Y-92701645D01*
X81927261Y-92424292D01*
X81947843Y-92527765D01*
X82088191Y-92737809D01*
X82298235Y-92878157D01*
X82546000Y-92927440D01*
X82694156Y-92927440D01*
X82758055Y-92970136D01*
X83234969Y-93065000D01*
X84850052Y-93065000D01*
X85412964Y-93441126D01*
X86035721Y-93565000D01*
X86779000Y-93565000D01*
X86779000Y-93901983D01*
X86921345Y-94245635D01*
X87184365Y-94508655D01*
X87528017Y-94651000D01*
X87899983Y-94651000D01*
X88243635Y-94508655D01*
X88506655Y-94245635D01*
X88649000Y-93901983D01*
X88649000Y-93565000D01*
X93258279Y-93565000D01*
X93881036Y-93441126D01*
X94443948Y-93065000D01*
X98301562Y-93065000D01*
X98382000Y-93081000D01*
X98736762Y-93081000D01*
X98863747Y-93207985D01*
X99192728Y-93427803D01*
X98752611Y-93738847D01*
X97395505Y-94514496D01*
X95970305Y-95156502D01*
X94490133Y-95658953D01*
X92968617Y-96017222D01*
X91419767Y-96228012D01*
X89857845Y-96289380D01*
X88297231Y-96200762D01*
X86752296Y-95962973D01*
X85237265Y-95578204D01*
X83766087Y-95049998D01*
X82352308Y-94383216D01*
X81008947Y-93584000D01*
X79748371Y-92659708D01*
X78770464Y-91786892D01*
X79414514Y-91786892D01*
X79660817Y-92311358D01*
X80089076Y-92701645D01*
X80499110Y-92871476D01*
X80729000Y-92750155D01*
X80729000Y-91557000D01*
X79535181Y-91557000D01*
X79414514Y-91786892D01*
X78770464Y-91786892D01*
X78582188Y-91618850D01*
X78077710Y-91073108D01*
X79414514Y-91073108D01*
X79535181Y-91303000D01*
X80729000Y-91303000D01*
X80729000Y-90109845D01*
X80499110Y-89988524D01*
X80089076Y-90158355D01*
X79660817Y-90548642D01*
X79414514Y-91073108D01*
X78077710Y-91073108D01*
X77521136Y-90471010D01*
X76574984Y-89226758D01*
X75752445Y-87897549D01*
X75061091Y-86495622D01*
X74952458Y-86208890D01*
X75774524Y-86208890D01*
X75944355Y-86618924D01*
X76334642Y-87047183D01*
X76859108Y-87293486D01*
X77089000Y-87172819D01*
X77089000Y-85979000D01*
X77343000Y-85979000D01*
X77343000Y-87172819D01*
X77572892Y-87293486D01*
X77814533Y-87180005D01*
X82461000Y-87180005D01*
X82461000Y-87551971D01*
X82603345Y-87895623D01*
X82866365Y-88158643D01*
X83210017Y-88300988D01*
X83581983Y-88300988D01*
X83925635Y-88158643D01*
X83957200Y-88127078D01*
X84184068Y-88221050D01*
X84556034Y-88221050D01*
X84899686Y-88078705D01*
X85162706Y-87815685D01*
X85305051Y-87472033D01*
X85305051Y-87100067D01*
X85162706Y-86756415D01*
X84899686Y-86493395D01*
X84839000Y-86468258D01*
X84839000Y-86418017D01*
X84696655Y-86074365D01*
X84433635Y-85811345D01*
X84089983Y-85669000D01*
X83718017Y-85669000D01*
X83374365Y-85811345D01*
X83111345Y-86074365D01*
X82969000Y-86418017D01*
X82969000Y-86530820D01*
X82866365Y-86573333D01*
X82603345Y-86836353D01*
X82461000Y-87180005D01*
X77814533Y-87180005D01*
X78097358Y-87047183D01*
X78487645Y-86618924D01*
X78657476Y-86208890D01*
X78536155Y-85979000D01*
X77343000Y-85979000D01*
X77089000Y-85979000D01*
X75895845Y-85979000D01*
X75774524Y-86208890D01*
X74952458Y-86208890D01*
X74836934Y-85903970D01*
X76044849Y-84974804D01*
X75944355Y-85085076D01*
X75774524Y-85495110D01*
X75895845Y-85725000D01*
X77089000Y-85725000D01*
X77089000Y-85705000D01*
X77343000Y-85705000D01*
X77343000Y-85725000D01*
X78536155Y-85725000D01*
X78657476Y-85495110D01*
X78618921Y-85402023D01*
X87795000Y-85402023D01*
X87795000Y-85773989D01*
X87937345Y-86117641D01*
X88200365Y-86380661D01*
X88544017Y-86523006D01*
X88915983Y-86523006D01*
X89259635Y-86380661D01*
X89522655Y-86117641D01*
X89665000Y-85773989D01*
X89665000Y-85402023D01*
X89522655Y-85058371D01*
X89259635Y-84795351D01*
X88915983Y-84653006D01*
X88544017Y-84653006D01*
X88200365Y-84795351D01*
X87937345Y-85058371D01*
X87795000Y-85402023D01*
X78618921Y-85402023D01*
X78487645Y-85085076D01*
X78367280Y-84953000D01*
X79078000Y-84953000D01*
X79113346Y-84947982D01*
X79157336Y-84925170D01*
X80289824Y-84019180D01*
X80317345Y-84085621D01*
X80580365Y-84348641D01*
X80924017Y-84490986D01*
X81295983Y-84490986D01*
X81639635Y-84348641D01*
X81902655Y-84085621D01*
X82045000Y-83741969D01*
X82045000Y-83370003D01*
X81902655Y-83026351D01*
X81639635Y-82763331D01*
X81295983Y-82620986D01*
X80924017Y-82620986D01*
X80580365Y-82763331D01*
X80475000Y-82868696D01*
X80475000Y-80301188D01*
X80539804Y-80365992D01*
X80883456Y-80508337D01*
X81255422Y-80508337D01*
X81599074Y-80365992D01*
X81862094Y-80102972D01*
X81980125Y-79818017D01*
X85001000Y-79818017D01*
X85001000Y-80189983D01*
X85143345Y-80533635D01*
X85406365Y-80796655D01*
X85750017Y-80939000D01*
X86121983Y-80939000D01*
X86448828Y-80803616D01*
X86766017Y-80935000D01*
X87110476Y-80935000D01*
X87033000Y-81122044D01*
X87033000Y-81494010D01*
X87175345Y-81837662D01*
X87438365Y-82100682D01*
X87752060Y-82230619D01*
X87692365Y-82255345D01*
X87451038Y-82496672D01*
X87137983Y-82367000D01*
X86766017Y-82367000D01*
X86422365Y-82509345D01*
X86159345Y-82772365D01*
X86017000Y-83116017D01*
X86017000Y-83264535D01*
X85853416Y-83332294D01*
X85590396Y-83595314D01*
X85448051Y-83938966D01*
X85448051Y-84310932D01*
X85590396Y-84654584D01*
X85853416Y-84917604D01*
X86197068Y-85059949D01*
X86569034Y-85059949D01*
X86912686Y-84917604D01*
X87175706Y-84654584D01*
X87318051Y-84310932D01*
X87318051Y-84162414D01*
X87481635Y-84094655D01*
X87722962Y-83853328D01*
X88036017Y-83983000D01*
X88407983Y-83983000D01*
X88751635Y-83840655D01*
X89014655Y-83577635D01*
X89157000Y-83233983D01*
X89157000Y-82862017D01*
X89014655Y-82518365D01*
X88751635Y-82255345D01*
X88437940Y-82125408D01*
X88497635Y-82100682D01*
X88732312Y-81866005D01*
X89288992Y-81866005D01*
X89288992Y-82237971D01*
X89431337Y-82581623D01*
X89668712Y-82818998D01*
X89461345Y-83026365D01*
X89319000Y-83370017D01*
X89319000Y-83741983D01*
X89461345Y-84085635D01*
X89724365Y-84348655D01*
X90068017Y-84491000D01*
X90353887Y-84491000D01*
X90232343Y-84541345D01*
X89969323Y-84804365D01*
X89826978Y-85148017D01*
X89826978Y-85519983D01*
X89969323Y-85863635D01*
X90232343Y-86126655D01*
X90575995Y-86269000D01*
X90947961Y-86269000D01*
X91291613Y-86126655D01*
X91554633Y-85863635D01*
X91696978Y-85519983D01*
X91696978Y-85148017D01*
X91554633Y-84804365D01*
X91291613Y-84541345D01*
X90947961Y-84399000D01*
X90662091Y-84399000D01*
X90783635Y-84348655D01*
X91046655Y-84085635D01*
X91189000Y-83741983D01*
X91189000Y-83599321D01*
X91352113Y-83531758D01*
X91615133Y-83268738D01*
X91757478Y-82925086D01*
X91757478Y-82553120D01*
X91615133Y-82209468D01*
X91352113Y-81946448D01*
X91158992Y-81866455D01*
X91158992Y-81866005D01*
X91016647Y-81522353D01*
X90753627Y-81259333D01*
X90409975Y-81116988D01*
X90038009Y-81116988D01*
X89694357Y-81259333D01*
X89431337Y-81522353D01*
X89288992Y-81866005D01*
X88732312Y-81866005D01*
X88760655Y-81837662D01*
X88903000Y-81494010D01*
X88903000Y-81122044D01*
X88761735Y-80780999D01*
X88903000Y-80439953D01*
X88903000Y-80067987D01*
X88797803Y-79814017D01*
X89065000Y-79814017D01*
X89065000Y-80185983D01*
X89207345Y-80529635D01*
X89470365Y-80792655D01*
X89814017Y-80935000D01*
X90185983Y-80935000D01*
X90529635Y-80792655D01*
X90792655Y-80529635D01*
X90935000Y-80185983D01*
X90935000Y-79814017D01*
X90792655Y-79470365D01*
X90529635Y-79207345D01*
X90185983Y-79065000D01*
X89814017Y-79065000D01*
X89470365Y-79207345D01*
X89207345Y-79470365D01*
X89065000Y-79814017D01*
X88797803Y-79814017D01*
X88760655Y-79724335D01*
X88497635Y-79461315D01*
X88153983Y-79318970D01*
X87782017Y-79318970D01*
X87648546Y-79374256D01*
X87481635Y-79207345D01*
X87137983Y-79065000D01*
X86766017Y-79065000D01*
X86439172Y-79200384D01*
X86121983Y-79069000D01*
X85750017Y-79069000D01*
X85406365Y-79211345D01*
X85143345Y-79474365D01*
X85001000Y-79818017D01*
X81980125Y-79818017D01*
X82004439Y-79759320D01*
X82004439Y-79387354D01*
X81862094Y-79043702D01*
X81599074Y-78780682D01*
X81255422Y-78638337D01*
X80883456Y-78638337D01*
X80539804Y-78780682D01*
X80475000Y-78845486D01*
X80475000Y-78496090D01*
X80465333Y-78447489D01*
X80437803Y-78406287D01*
X80129607Y-78098091D01*
X80369667Y-77998655D01*
X80632687Y-77735635D01*
X80775032Y-77391983D01*
X80775032Y-77333000D01*
X86396332Y-77333000D01*
X86472228Y-77516229D01*
X86472228Y-77516229D01*
G37*
X86472228Y-77516229D02*
X86735248Y-77779249D01*
X87078900Y-77921594D01*
X87450866Y-77921594D01*
X87794518Y-77779249D01*
X88057538Y-77516229D01*
X88133434Y-77333000D01*
X89319942Y-77333000D01*
X89319942Y-77392925D01*
X89462287Y-77736577D01*
X89725307Y-77999597D01*
X90068959Y-78141942D01*
X90440925Y-78141942D01*
X90784577Y-77999597D01*
X91047597Y-77736577D01*
X91189942Y-77392925D01*
X91189942Y-77333000D01*
X91431779Y-77333000D01*
X91351000Y-77528017D01*
X91351000Y-77899983D01*
X91493345Y-78243635D01*
X91756365Y-78506655D01*
X92100017Y-78649000D01*
X92471983Y-78649000D01*
X92815635Y-78506655D01*
X93078655Y-78243635D01*
X93129000Y-78122091D01*
X93129000Y-78407983D01*
X93271345Y-78751635D01*
X93503710Y-78984000D01*
X93271345Y-79216365D01*
X93129000Y-79560017D01*
X93129000Y-79931983D01*
X93271345Y-80275635D01*
X93534365Y-80538655D01*
X93878017Y-80681000D01*
X94249983Y-80681000D01*
X94593635Y-80538655D01*
X94856655Y-80275635D01*
X94999000Y-79931983D01*
X94999000Y-79819160D01*
X95101635Y-79776647D01*
X95364655Y-79513627D01*
X95507000Y-79169975D01*
X95507000Y-78798009D01*
X95364655Y-78454357D01*
X95101635Y-78191337D01*
X94999000Y-78148824D01*
X94999000Y-78036017D01*
X94856655Y-77692365D01*
X94593635Y-77429345D01*
X94361037Y-77333000D01*
X97747000Y-77333000D01*
X97747000Y-78049000D01*
X97434017Y-78049000D01*
X97090365Y-78191345D01*
X96923443Y-78358267D01*
X96789983Y-78302986D01*
X96418017Y-78302986D01*
X96074365Y-78445331D01*
X95811345Y-78708351D01*
X95669000Y-79052003D01*
X95669000Y-79423969D01*
X95811345Y-79767621D01*
X96074365Y-80030641D01*
X96418017Y-80172986D01*
X96789983Y-80172986D01*
X97133635Y-80030641D01*
X97300557Y-79863719D01*
X97434017Y-79919000D01*
X97747000Y-79919000D01*
X97747000Y-85923000D01*
X97688017Y-85923000D01*
X97366000Y-86056384D01*
X97043983Y-85923000D01*
X96672017Y-85923000D01*
X96328365Y-86065345D01*
X96065345Y-86328365D01*
X95923000Y-86672017D01*
X95923000Y-87043983D01*
X96065345Y-87387635D01*
X96136221Y-87458511D01*
X95820365Y-87589343D01*
X95557345Y-87852363D01*
X95415000Y-88196015D01*
X95415000Y-88567981D01*
X95557345Y-88911633D01*
X95820365Y-89174653D01*
X96164017Y-89316998D01*
X96535983Y-89316998D01*
X96879635Y-89174653D01*
X97142655Y-88911633D01*
X97285000Y-88567981D01*
X97285000Y-88196015D01*
X97142655Y-87852363D01*
X97071779Y-87781487D01*
X97366000Y-87659616D01*
X97688017Y-87793000D01*
X97747000Y-87793000D01*
X97747000Y-88084963D01*
X97701000Y-88196017D01*
X97701000Y-88567983D01*
X97747000Y-88679037D01*
X97747000Y-89795000D01*
X94443948Y-89795000D01*
X93881036Y-89418874D01*
X93258279Y-89295000D01*
X86035721Y-89295000D01*
X85412964Y-89418874D01*
X84850052Y-89795000D01*
X83234969Y-89795000D01*
X82758055Y-89889864D01*
X82694156Y-89932560D01*
X82546000Y-89932560D01*
X82298235Y-89981843D01*
X82088191Y-90122191D01*
X81947843Y-90332235D01*
X81927261Y-90435708D01*
X81622924Y-90158355D01*
X81212890Y-89988524D01*
X80983000Y-90109845D01*
X80983000Y-91303000D01*
X81003000Y-91303000D01*
X81003000Y-91557000D01*
X80983000Y-91557000D01*
X80983000Y-92750155D01*
X81212890Y-92871476D01*
X81622924Y-92701645D01*
X81927261Y-92424292D01*
X81947843Y-92527765D01*
X82088191Y-92737809D01*
X82298235Y-92878157D01*
X82546000Y-92927440D01*
X82694156Y-92927440D01*
X82758055Y-92970136D01*
X83234969Y-93065000D01*
X84850052Y-93065000D01*
X85412964Y-93441126D01*
X86035721Y-93565000D01*
X86779000Y-93565000D01*
X86779000Y-93901983D01*
X86921345Y-94245635D01*
X87184365Y-94508655D01*
X87528017Y-94651000D01*
X87899983Y-94651000D01*
X88243635Y-94508655D01*
X88506655Y-94245635D01*
X88649000Y-93901983D01*
X88649000Y-93565000D01*
X93258279Y-93565000D01*
X93881036Y-93441126D01*
X94443948Y-93065000D01*
X98301562Y-93065000D01*
X98382000Y-93081000D01*
X98736762Y-93081000D01*
X98863747Y-93207985D01*
X99192728Y-93427803D01*
X98752611Y-93738847D01*
X97395505Y-94514496D01*
X95970305Y-95156502D01*
X94490133Y-95658953D01*
X92968617Y-96017222D01*
X91419767Y-96228012D01*
X89857845Y-96289380D01*
X88297231Y-96200762D01*
X86752296Y-95962973D01*
X85237265Y-95578204D01*
X83766087Y-95049998D01*
X82352308Y-94383216D01*
X81008947Y-93584000D01*
X79748371Y-92659708D01*
X78770464Y-91786892D01*
X79414514Y-91786892D01*
X79660817Y-92311358D01*
X80089076Y-92701645D01*
X80499110Y-92871476D01*
X80729000Y-92750155D01*
X80729000Y-91557000D01*
X79535181Y-91557000D01*
X79414514Y-91786892D01*
X78770464Y-91786892D01*
X78582188Y-91618850D01*
X78077710Y-91073108D01*
X79414514Y-91073108D01*
X79535181Y-91303000D01*
X80729000Y-91303000D01*
X80729000Y-90109845D01*
X80499110Y-89988524D01*
X80089076Y-90158355D01*
X79660817Y-90548642D01*
X79414514Y-91073108D01*
X78077710Y-91073108D01*
X77521136Y-90471010D01*
X76574984Y-89226758D01*
X75752445Y-87897549D01*
X75061091Y-86495622D01*
X74952458Y-86208890D01*
X75774524Y-86208890D01*
X75944355Y-86618924D01*
X76334642Y-87047183D01*
X76859108Y-87293486D01*
X77089000Y-87172819D01*
X77089000Y-85979000D01*
X77343000Y-85979000D01*
X77343000Y-87172819D01*
X77572892Y-87293486D01*
X77814533Y-87180005D01*
X82461000Y-87180005D01*
X82461000Y-87551971D01*
X82603345Y-87895623D01*
X82866365Y-88158643D01*
X83210017Y-88300988D01*
X83581983Y-88300988D01*
X83925635Y-88158643D01*
X83957200Y-88127078D01*
X84184068Y-88221050D01*
X84556034Y-88221050D01*
X84899686Y-88078705D01*
X85162706Y-87815685D01*
X85305051Y-87472033D01*
X85305051Y-87100067D01*
X85162706Y-86756415D01*
X84899686Y-86493395D01*
X84839000Y-86468258D01*
X84839000Y-86418017D01*
X84696655Y-86074365D01*
X84433635Y-85811345D01*
X84089983Y-85669000D01*
X83718017Y-85669000D01*
X83374365Y-85811345D01*
X83111345Y-86074365D01*
X82969000Y-86418017D01*
X82969000Y-86530820D01*
X82866365Y-86573333D01*
X82603345Y-86836353D01*
X82461000Y-87180005D01*
X77814533Y-87180005D01*
X78097358Y-87047183D01*
X78487645Y-86618924D01*
X78657476Y-86208890D01*
X78536155Y-85979000D01*
X77343000Y-85979000D01*
X77089000Y-85979000D01*
X75895845Y-85979000D01*
X75774524Y-86208890D01*
X74952458Y-86208890D01*
X74836934Y-85903970D01*
X76044849Y-84974804D01*
X75944355Y-85085076D01*
X75774524Y-85495110D01*
X75895845Y-85725000D01*
X77089000Y-85725000D01*
X77089000Y-85705000D01*
X77343000Y-85705000D01*
X77343000Y-85725000D01*
X78536155Y-85725000D01*
X78657476Y-85495110D01*
X78618921Y-85402023D01*
X87795000Y-85402023D01*
X87795000Y-85773989D01*
X87937345Y-86117641D01*
X88200365Y-86380661D01*
X88544017Y-86523006D01*
X88915983Y-86523006D01*
X89259635Y-86380661D01*
X89522655Y-86117641D01*
X89665000Y-85773989D01*
X89665000Y-85402023D01*
X89522655Y-85058371D01*
X89259635Y-84795351D01*
X88915983Y-84653006D01*
X88544017Y-84653006D01*
X88200365Y-84795351D01*
X87937345Y-85058371D01*
X87795000Y-85402023D01*
X78618921Y-85402023D01*
X78487645Y-85085076D01*
X78367280Y-84953000D01*
X79078000Y-84953000D01*
X79113346Y-84947982D01*
X79157336Y-84925170D01*
X80289824Y-84019180D01*
X80317345Y-84085621D01*
X80580365Y-84348641D01*
X80924017Y-84490986D01*
X81295983Y-84490986D01*
X81639635Y-84348641D01*
X81902655Y-84085621D01*
X82045000Y-83741969D01*
X82045000Y-83370003D01*
X81902655Y-83026351D01*
X81639635Y-82763331D01*
X81295983Y-82620986D01*
X80924017Y-82620986D01*
X80580365Y-82763331D01*
X80475000Y-82868696D01*
X80475000Y-80301188D01*
X80539804Y-80365992D01*
X80883456Y-80508337D01*
X81255422Y-80508337D01*
X81599074Y-80365992D01*
X81862094Y-80102972D01*
X81980125Y-79818017D01*
X85001000Y-79818017D01*
X85001000Y-80189983D01*
X85143345Y-80533635D01*
X85406365Y-80796655D01*
X85750017Y-80939000D01*
X86121983Y-80939000D01*
X86448828Y-80803616D01*
X86766017Y-80935000D01*
X87110476Y-80935000D01*
X87033000Y-81122044D01*
X87033000Y-81494010D01*
X87175345Y-81837662D01*
X87438365Y-82100682D01*
X87752060Y-82230619D01*
X87692365Y-82255345D01*
X87451038Y-82496672D01*
X87137983Y-82367000D01*
X86766017Y-82367000D01*
X86422365Y-82509345D01*
X86159345Y-82772365D01*
X86017000Y-83116017D01*
X86017000Y-83264535D01*
X85853416Y-83332294D01*
X85590396Y-83595314D01*
X85448051Y-83938966D01*
X85448051Y-84310932D01*
X85590396Y-84654584D01*
X85853416Y-84917604D01*
X86197068Y-85059949D01*
X86569034Y-85059949D01*
X86912686Y-84917604D01*
X87175706Y-84654584D01*
X87318051Y-84310932D01*
X87318051Y-84162414D01*
X87481635Y-84094655D01*
X87722962Y-83853328D01*
X88036017Y-83983000D01*
X88407983Y-83983000D01*
X88751635Y-83840655D01*
X89014655Y-83577635D01*
X89157000Y-83233983D01*
X89157000Y-82862017D01*
X89014655Y-82518365D01*
X88751635Y-82255345D01*
X88437940Y-82125408D01*
X88497635Y-82100682D01*
X88732312Y-81866005D01*
X89288992Y-81866005D01*
X89288992Y-82237971D01*
X89431337Y-82581623D01*
X89668712Y-82818998D01*
X89461345Y-83026365D01*
X89319000Y-83370017D01*
X89319000Y-83741983D01*
X89461345Y-84085635D01*
X89724365Y-84348655D01*
X90068017Y-84491000D01*
X90353887Y-84491000D01*
X90232343Y-84541345D01*
X89969323Y-84804365D01*
X89826978Y-85148017D01*
X89826978Y-85519983D01*
X89969323Y-85863635D01*
X90232343Y-86126655D01*
X90575995Y-86269000D01*
X90947961Y-86269000D01*
X91291613Y-86126655D01*
X91554633Y-85863635D01*
X91696978Y-85519983D01*
X91696978Y-85148017D01*
X91554633Y-84804365D01*
X91291613Y-84541345D01*
X90947961Y-84399000D01*
X90662091Y-84399000D01*
X90783635Y-84348655D01*
X91046655Y-84085635D01*
X91189000Y-83741983D01*
X91189000Y-83599321D01*
X91352113Y-83531758D01*
X91615133Y-83268738D01*
X91757478Y-82925086D01*
X91757478Y-82553120D01*
X91615133Y-82209468D01*
X91352113Y-81946448D01*
X91158992Y-81866455D01*
X91158992Y-81866005D01*
X91016647Y-81522353D01*
X90753627Y-81259333D01*
X90409975Y-81116988D01*
X90038009Y-81116988D01*
X89694357Y-81259333D01*
X89431337Y-81522353D01*
X89288992Y-81866005D01*
X88732312Y-81866005D01*
X88760655Y-81837662D01*
X88903000Y-81494010D01*
X88903000Y-81122044D01*
X88761735Y-80780999D01*
X88903000Y-80439953D01*
X88903000Y-80067987D01*
X88797803Y-79814017D01*
X89065000Y-79814017D01*
X89065000Y-80185983D01*
X89207345Y-80529635D01*
X89470365Y-80792655D01*
X89814017Y-80935000D01*
X90185983Y-80935000D01*
X90529635Y-80792655D01*
X90792655Y-80529635D01*
X90935000Y-80185983D01*
X90935000Y-79814017D01*
X90792655Y-79470365D01*
X90529635Y-79207345D01*
X90185983Y-79065000D01*
X89814017Y-79065000D01*
X89470365Y-79207345D01*
X89207345Y-79470365D01*
X89065000Y-79814017D01*
X88797803Y-79814017D01*
X88760655Y-79724335D01*
X88497635Y-79461315D01*
X88153983Y-79318970D01*
X87782017Y-79318970D01*
X87648546Y-79374256D01*
X87481635Y-79207345D01*
X87137983Y-79065000D01*
X86766017Y-79065000D01*
X86439172Y-79200384D01*
X86121983Y-79069000D01*
X85750017Y-79069000D01*
X85406365Y-79211345D01*
X85143345Y-79474365D01*
X85001000Y-79818017D01*
X81980125Y-79818017D01*
X82004439Y-79759320D01*
X82004439Y-79387354D01*
X81862094Y-79043702D01*
X81599074Y-78780682D01*
X81255422Y-78638337D01*
X80883456Y-78638337D01*
X80539804Y-78780682D01*
X80475000Y-78845486D01*
X80475000Y-78496090D01*
X80465333Y-78447489D01*
X80437803Y-78406287D01*
X80129607Y-78098091D01*
X80369667Y-77998655D01*
X80632687Y-77735635D01*
X80775032Y-77391983D01*
X80775032Y-77333000D01*
X86396332Y-77333000D01*
X86472228Y-77516229D01*
G36*
X92126272Y-63849363D02*
X93664453Y-64127512D01*
X95168893Y-64551808D01*
X96625740Y-65118344D01*
X98021580Y-65821906D01*
X99343560Y-66656013D01*
X100579509Y-67612987D01*
X101718045Y-68684015D01*
X102748687Y-69859237D01*
X103661944Y-71127830D01*
X104449406Y-72478115D01*
X105103825Y-73897659D01*
X105619173Y-75373390D01*
X105990707Y-76891721D01*
X106215004Y-78438673D01*
X106290000Y-80000000D01*
X106274496Y-80710560D01*
X106131467Y-82267130D01*
X105839906Y-83802825D01*
X105402498Y-85303505D01*
X104859000Y-86665793D01*
X104859000Y-75174000D01*
X104810664Y-74930996D01*
X104673013Y-74724987D01*
X103403013Y-73454987D01*
X103197004Y-73317336D01*
X102954000Y-73269000D01*
X96219000Y-73269000D01*
X96219000Y-69400017D01*
X96939000Y-69400017D01*
X96939000Y-69771983D01*
X97081345Y-70115635D01*
X97344365Y-70378655D01*
X97688017Y-70521000D01*
X98059983Y-70521000D01*
X98403635Y-70378655D01*
X98666655Y-70115635D01*
X98809000Y-69771983D01*
X98809000Y-69400017D01*
X98666655Y-69056365D01*
X98403635Y-68793345D01*
X98059983Y-68651000D01*
X97688017Y-68651000D01*
X97344365Y-68793345D01*
X97081345Y-69056365D01*
X96939000Y-69400017D01*
X96219000Y-69400017D01*
X96219000Y-67352694D01*
X96269000Y-67231983D01*
X96269000Y-66860017D01*
X96126655Y-66516365D01*
X95863635Y-66253345D01*
X95519983Y-66111000D01*
X95148017Y-66111000D01*
X94804365Y-66253345D01*
X94541345Y-66516365D01*
X94399000Y-66860017D01*
X94399000Y-67231983D01*
X94449000Y-67352694D01*
X94449001Y-73269000D01*
X90854221Y-73269000D01*
X90801616Y-73142000D01*
X90935000Y-72819983D01*
X90935000Y-72448017D01*
X90792655Y-72104365D01*
X90529635Y-71841345D01*
X90427000Y-71798832D01*
X90427000Y-71432033D01*
X90284655Y-71088381D01*
X90021635Y-70825361D01*
X89677983Y-70683016D01*
X89306017Y-70683016D01*
X88962365Y-70825361D01*
X88699345Y-71088381D01*
X88557000Y-71432033D01*
X88557000Y-71803999D01*
X88699345Y-72147651D01*
X88962365Y-72410671D01*
X89065000Y-72453184D01*
X89065000Y-72819983D01*
X89198384Y-73142000D01*
X89145779Y-73269000D01*
X87389461Y-73269000D01*
X87240135Y-73119674D01*
X87124992Y-73071980D01*
X87124992Y-72702017D01*
X86983727Y-72360972D01*
X87124974Y-72019970D01*
X87124974Y-71648004D01*
X86982629Y-71304352D01*
X86719609Y-71041332D01*
X86375957Y-70898987D01*
X86003991Y-70898987D01*
X85660339Y-71041332D01*
X85397319Y-71304352D01*
X85254974Y-71648004D01*
X85254974Y-72019970D01*
X85396239Y-72361015D01*
X85254992Y-72702017D01*
X85254992Y-73073983D01*
X85335771Y-73269000D01*
X82299000Y-73269000D01*
X82299000Y-73210017D01*
X82156655Y-72866365D01*
X81893635Y-72603345D01*
X81549983Y-72461000D01*
X81178017Y-72461000D01*
X80834365Y-72603345D01*
X80766999Y-72670711D01*
X80766999Y-71013782D01*
X80789234Y-70901999D01*
X80701145Y-70459145D01*
X80701145Y-70459144D01*
X80450288Y-70083710D01*
X80355518Y-70020387D01*
X80055523Y-69720392D01*
X79774854Y-69532854D01*
X79332000Y-69444765D01*
X78889146Y-69532854D01*
X78513712Y-69783712D01*
X78262854Y-70159146D01*
X78174765Y-70602000D01*
X78233046Y-70895000D01*
X78093750Y-70895000D01*
X77935000Y-71053750D01*
X77935000Y-72253000D01*
X77955000Y-72253000D01*
X77955000Y-72507000D01*
X77935000Y-72507000D01*
X77935000Y-72527000D01*
X77681000Y-72527000D01*
X77681000Y-72507000D01*
X76481750Y-72507000D01*
X76323000Y-72665750D01*
X76323000Y-73356310D01*
X76359346Y-73444056D01*
X76342987Y-73454987D01*
X75861132Y-73936842D01*
X75797635Y-73873345D01*
X75453983Y-73731000D01*
X75082017Y-73731000D01*
X74962751Y-73780401D01*
X75358645Y-72858934D01*
X76110492Y-71488498D01*
X76168235Y-71403690D01*
X76323000Y-71403690D01*
X76323000Y-72094250D01*
X76481750Y-72253000D01*
X77681000Y-72253000D01*
X77681000Y-71053750D01*
X77522250Y-70895000D01*
X76831691Y-70895000D01*
X76598302Y-70991673D01*
X76419673Y-71170301D01*
X76323000Y-71403690D01*
X76168235Y-71403690D01*
X76990228Y-70196433D01*
X77863849Y-69146017D01*
X80683000Y-69146017D01*
X80683000Y-69517983D01*
X80825345Y-69861635D01*
X81088365Y-70124655D01*
X81432017Y-70267000D01*
X81803983Y-70267000D01*
X82147635Y-70124655D01*
X82410655Y-69861635D01*
X82553000Y-69517983D01*
X82553000Y-69146017D01*
X82969000Y-69146017D01*
X82969000Y-69517983D01*
X83111345Y-69861635D01*
X83374365Y-70124655D01*
X83718017Y-70267000D01*
X84089983Y-70267000D01*
X84433635Y-70124655D01*
X84696655Y-69861635D01*
X84839000Y-69517983D01*
X84839000Y-69146017D01*
X84696655Y-68802365D01*
X84576099Y-68681809D01*
X86779872Y-68681809D01*
X86779872Y-69053775D01*
X86922217Y-69397427D01*
X87185237Y-69660447D01*
X87528889Y-69802792D01*
X87900855Y-69802792D01*
X88244507Y-69660447D01*
X88301572Y-69603382D01*
X88440189Y-69741999D01*
X88783841Y-69884344D01*
X89155807Y-69884344D01*
X89387944Y-69788190D01*
X89470365Y-69870611D01*
X89814017Y-70012956D01*
X90185983Y-70012956D01*
X90507966Y-69879586D01*
X90830017Y-70012984D01*
X91201983Y-70012984D01*
X91545635Y-69870639D01*
X91808655Y-69607619D01*
X91951000Y-69263967D01*
X91951000Y-68892001D01*
X91808655Y-68548349D01*
X91545635Y-68285329D01*
X91229789Y-68154501D01*
X91300655Y-68083635D01*
X91443000Y-67739983D01*
X91443000Y-67368017D01*
X91300655Y-67024365D01*
X91037635Y-66761345D01*
X90693983Y-66619000D01*
X90322017Y-66619000D01*
X89978365Y-66761345D01*
X89715345Y-67024365D01*
X89573000Y-67368017D01*
X89573000Y-67739983D01*
X89715345Y-68083635D01*
X89786192Y-68154482D01*
X89581880Y-68239110D01*
X89499459Y-68156689D01*
X89155807Y-68014344D01*
X88783841Y-68014344D01*
X88440189Y-68156689D01*
X88383124Y-68213754D01*
X88244507Y-68075137D01*
X87900855Y-67932792D01*
X87528889Y-67932792D01*
X87185237Y-68075137D01*
X86922217Y-68338157D01*
X86779872Y-68681809D01*
X84576099Y-68681809D01*
X84433635Y-68539345D01*
X84089983Y-68397000D01*
X83718017Y-68397000D01*
X83374365Y-68539345D01*
X83111345Y-68802365D01*
X82969000Y-69146017D01*
X82553000Y-69146017D01*
X82410655Y-68802365D01*
X82147635Y-68539345D01*
X81803983Y-68397000D01*
X81432017Y-68397000D01*
X81088365Y-68539345D01*
X80825345Y-68802365D01*
X80683000Y-69146017D01*
X77863849Y-69146017D01*
X77989752Y-68994636D01*
X79099862Y-67894171D01*
X80310337Y-66905172D01*
X80377898Y-66860029D01*
X83476992Y-66860029D01*
X83476992Y-67231995D01*
X83619337Y-67575647D01*
X83882357Y-67838667D01*
X84226009Y-67981012D01*
X84597975Y-67981012D01*
X84941627Y-67838667D01*
X85204647Y-67575647D01*
X85346992Y-67231995D01*
X85346992Y-66860029D01*
X85204647Y-66516377D01*
X84941627Y-66253357D01*
X84597975Y-66111012D01*
X84226009Y-66111012D01*
X83882357Y-66253357D01*
X83619337Y-66516377D01*
X83476992Y-66860029D01*
X80377898Y-66860029D01*
X81610030Y-66036745D01*
X82914147Y-65336017D01*
X85001000Y-65336017D01*
X85001000Y-65707983D01*
X85143345Y-66051635D01*
X85406365Y-66314655D01*
X85750017Y-66457000D01*
X86116832Y-66457000D01*
X86159345Y-66559635D01*
X86422365Y-66822655D01*
X86766017Y-66965000D01*
X87137983Y-66965000D01*
X87481635Y-66822655D01*
X87744655Y-66559635D01*
X87887000Y-66215983D01*
X87887000Y-65844017D01*
X87744655Y-65500365D01*
X87481635Y-65237345D01*
X87137983Y-65095000D01*
X86771168Y-65095000D01*
X86728655Y-64992365D01*
X86465635Y-64729345D01*
X86121983Y-64587000D01*
X85750017Y-64587000D01*
X85406365Y-64729345D01*
X85143345Y-64992365D01*
X85001000Y-65336017D01*
X82914147Y-65336017D01*
X82986974Y-65296886D01*
X84428492Y-64692407D01*
X85921310Y-64228875D01*
X87451683Y-63910557D01*
X89005519Y-63740384D01*
X90568513Y-63719923D01*
X92126272Y-63849363D01*
X92126272Y-63849363D01*
G37*
X92126272Y-63849363D02*
X93664453Y-64127512D01*
X95168893Y-64551808D01*
X96625740Y-65118344D01*
X98021580Y-65821906D01*
X99343560Y-66656013D01*
X100579509Y-67612987D01*
X101718045Y-68684015D01*
X102748687Y-69859237D01*
X103661944Y-71127830D01*
X104449406Y-72478115D01*
X105103825Y-73897659D01*
X105619173Y-75373390D01*
X105990707Y-76891721D01*
X106215004Y-78438673D01*
X106290000Y-80000000D01*
X106274496Y-80710560D01*
X106131467Y-82267130D01*
X105839906Y-83802825D01*
X105402498Y-85303505D01*
X104859000Y-86665793D01*
X104859000Y-75174000D01*
X104810664Y-74930996D01*
X104673013Y-74724987D01*
X103403013Y-73454987D01*
X103197004Y-73317336D01*
X102954000Y-73269000D01*
X96219000Y-73269000D01*
X96219000Y-69400017D01*
X96939000Y-69400017D01*
X96939000Y-69771983D01*
X97081345Y-70115635D01*
X97344365Y-70378655D01*
X97688017Y-70521000D01*
X98059983Y-70521000D01*
X98403635Y-70378655D01*
X98666655Y-70115635D01*
X98809000Y-69771983D01*
X98809000Y-69400017D01*
X98666655Y-69056365D01*
X98403635Y-68793345D01*
X98059983Y-68651000D01*
X97688017Y-68651000D01*
X97344365Y-68793345D01*
X97081345Y-69056365D01*
X96939000Y-69400017D01*
X96219000Y-69400017D01*
X96219000Y-67352694D01*
X96269000Y-67231983D01*
X96269000Y-66860017D01*
X96126655Y-66516365D01*
X95863635Y-66253345D01*
X95519983Y-66111000D01*
X95148017Y-66111000D01*
X94804365Y-66253345D01*
X94541345Y-66516365D01*
X94399000Y-66860017D01*
X94399000Y-67231983D01*
X94449000Y-67352694D01*
X94449001Y-73269000D01*
X90854221Y-73269000D01*
X90801616Y-73142000D01*
X90935000Y-72819983D01*
X90935000Y-72448017D01*
X90792655Y-72104365D01*
X90529635Y-71841345D01*
X90427000Y-71798832D01*
X90427000Y-71432033D01*
X90284655Y-71088381D01*
X90021635Y-70825361D01*
X89677983Y-70683016D01*
X89306017Y-70683016D01*
X88962365Y-70825361D01*
X88699345Y-71088381D01*
X88557000Y-71432033D01*
X88557000Y-71803999D01*
X88699345Y-72147651D01*
X88962365Y-72410671D01*
X89065000Y-72453184D01*
X89065000Y-72819983D01*
X89198384Y-73142000D01*
X89145779Y-73269000D01*
X87389461Y-73269000D01*
X87240135Y-73119674D01*
X87124992Y-73071980D01*
X87124992Y-72702017D01*
X86983727Y-72360972D01*
X87124974Y-72019970D01*
X87124974Y-71648004D01*
X86982629Y-71304352D01*
X86719609Y-71041332D01*
X86375957Y-70898987D01*
X86003991Y-70898987D01*
X85660339Y-71041332D01*
X85397319Y-71304352D01*
X85254974Y-71648004D01*
X85254974Y-72019970D01*
X85396239Y-72361015D01*
X85254992Y-72702017D01*
X85254992Y-73073983D01*
X85335771Y-73269000D01*
X82299000Y-73269000D01*
X82299000Y-73210017D01*
X82156655Y-72866365D01*
X81893635Y-72603345D01*
X81549983Y-72461000D01*
X81178017Y-72461000D01*
X80834365Y-72603345D01*
X80766999Y-72670711D01*
X80766999Y-71013782D01*
X80789234Y-70901999D01*
X80701145Y-70459145D01*
X80701145Y-70459144D01*
X80450288Y-70083710D01*
X80355518Y-70020387D01*
X80055523Y-69720392D01*
X79774854Y-69532854D01*
X79332000Y-69444765D01*
X78889146Y-69532854D01*
X78513712Y-69783712D01*
X78262854Y-70159146D01*
X78174765Y-70602000D01*
X78233046Y-70895000D01*
X78093750Y-70895000D01*
X77935000Y-71053750D01*
X77935000Y-72253000D01*
X77955000Y-72253000D01*
X77955000Y-72507000D01*
X77935000Y-72507000D01*
X77935000Y-72527000D01*
X77681000Y-72527000D01*
X77681000Y-72507000D01*
X76481750Y-72507000D01*
X76323000Y-72665750D01*
X76323000Y-73356310D01*
X76359346Y-73444056D01*
X76342987Y-73454987D01*
X75861132Y-73936842D01*
X75797635Y-73873345D01*
X75453983Y-73731000D01*
X75082017Y-73731000D01*
X74962751Y-73780401D01*
X75358645Y-72858934D01*
X76110492Y-71488498D01*
X76168235Y-71403690D01*
X76323000Y-71403690D01*
X76323000Y-72094250D01*
X76481750Y-72253000D01*
X77681000Y-72253000D01*
X77681000Y-71053750D01*
X77522250Y-70895000D01*
X76831691Y-70895000D01*
X76598302Y-70991673D01*
X76419673Y-71170301D01*
X76323000Y-71403690D01*
X76168235Y-71403690D01*
X76990228Y-70196433D01*
X77863849Y-69146017D01*
X80683000Y-69146017D01*
X80683000Y-69517983D01*
X80825345Y-69861635D01*
X81088365Y-70124655D01*
X81432017Y-70267000D01*
X81803983Y-70267000D01*
X82147635Y-70124655D01*
X82410655Y-69861635D01*
X82553000Y-69517983D01*
X82553000Y-69146017D01*
X82969000Y-69146017D01*
X82969000Y-69517983D01*
X83111345Y-69861635D01*
X83374365Y-70124655D01*
X83718017Y-70267000D01*
X84089983Y-70267000D01*
X84433635Y-70124655D01*
X84696655Y-69861635D01*
X84839000Y-69517983D01*
X84839000Y-69146017D01*
X84696655Y-68802365D01*
X84576099Y-68681809D01*
X86779872Y-68681809D01*
X86779872Y-69053775D01*
X86922217Y-69397427D01*
X87185237Y-69660447D01*
X87528889Y-69802792D01*
X87900855Y-69802792D01*
X88244507Y-69660447D01*
X88301572Y-69603382D01*
X88440189Y-69741999D01*
X88783841Y-69884344D01*
X89155807Y-69884344D01*
X89387944Y-69788190D01*
X89470365Y-69870611D01*
X89814017Y-70012956D01*
X90185983Y-70012956D01*
X90507966Y-69879586D01*
X90830017Y-70012984D01*
X91201983Y-70012984D01*
X91545635Y-69870639D01*
X91808655Y-69607619D01*
X91951000Y-69263967D01*
X91951000Y-68892001D01*
X91808655Y-68548349D01*
X91545635Y-68285329D01*
X91229789Y-68154501D01*
X91300655Y-68083635D01*
X91443000Y-67739983D01*
X91443000Y-67368017D01*
X91300655Y-67024365D01*
X91037635Y-66761345D01*
X90693983Y-66619000D01*
X90322017Y-66619000D01*
X89978365Y-66761345D01*
X89715345Y-67024365D01*
X89573000Y-67368017D01*
X89573000Y-67739983D01*
X89715345Y-68083635D01*
X89786192Y-68154482D01*
X89581880Y-68239110D01*
X89499459Y-68156689D01*
X89155807Y-68014344D01*
X88783841Y-68014344D01*
X88440189Y-68156689D01*
X88383124Y-68213754D01*
X88244507Y-68075137D01*
X87900855Y-67932792D01*
X87528889Y-67932792D01*
X87185237Y-68075137D01*
X86922217Y-68338157D01*
X86779872Y-68681809D01*
X84576099Y-68681809D01*
X84433635Y-68539345D01*
X84089983Y-68397000D01*
X83718017Y-68397000D01*
X83374365Y-68539345D01*
X83111345Y-68802365D01*
X82969000Y-69146017D01*
X82553000Y-69146017D01*
X82410655Y-68802365D01*
X82147635Y-68539345D01*
X81803983Y-68397000D01*
X81432017Y-68397000D01*
X81088365Y-68539345D01*
X80825345Y-68802365D01*
X80683000Y-69146017D01*
X77863849Y-69146017D01*
X77989752Y-68994636D01*
X79099862Y-67894171D01*
X80310337Y-66905172D01*
X80377898Y-66860029D01*
X83476992Y-66860029D01*
X83476992Y-67231995D01*
X83619337Y-67575647D01*
X83882357Y-67838667D01*
X84226009Y-67981012D01*
X84597975Y-67981012D01*
X84941627Y-67838667D01*
X85204647Y-67575647D01*
X85346992Y-67231995D01*
X85346992Y-66860029D01*
X85204647Y-66516377D01*
X84941627Y-66253357D01*
X84597975Y-66111012D01*
X84226009Y-66111012D01*
X83882357Y-66253357D01*
X83619337Y-66516377D01*
X83476992Y-66860029D01*
X80377898Y-66860029D01*
X81610030Y-66036745D01*
X82914147Y-65336017D01*
X85001000Y-65336017D01*
X85001000Y-65707983D01*
X85143345Y-66051635D01*
X85406365Y-66314655D01*
X85750017Y-66457000D01*
X86116832Y-66457000D01*
X86159345Y-66559635D01*
X86422365Y-66822655D01*
X86766017Y-66965000D01*
X87137983Y-66965000D01*
X87481635Y-66822655D01*
X87744655Y-66559635D01*
X87887000Y-66215983D01*
X87887000Y-65844017D01*
X87744655Y-65500365D01*
X87481635Y-65237345D01*
X87137983Y-65095000D01*
X86771168Y-65095000D01*
X86728655Y-64992365D01*
X86465635Y-64729345D01*
X86121983Y-64587000D01*
X85750017Y-64587000D01*
X85406365Y-64729345D01*
X85143345Y-64992365D01*
X85001000Y-65336017D01*
X82914147Y-65336017D01*
X82986974Y-65296886D01*
X84428492Y-64692407D01*
X85921310Y-64228875D01*
X87451683Y-63910557D01*
X89005519Y-63740384D01*
X90568513Y-63719923D01*
X92126272Y-63849363D01*
G36*
X93534365Y-77429345D02*
X93271345Y-77692365D01*
X93221000Y-77813909D01*
X93221000Y-77528017D01*
X93140221Y-77333000D01*
X93766963Y-77333000D01*
X93534365Y-77429345D01*
X93534365Y-77429345D01*
G37*
X93534365Y-77429345D02*
X93271345Y-77692365D01*
X93221000Y-77813909D01*
X93221000Y-77528017D01*
X93140221Y-77333000D01*
X93766963Y-77333000D01*
X93534365Y-77429345D01*
G04 #@! TD*
M02*
