G04 #@! TF.GenerationSoftware,KiCad,Pcbnew,(5.0.2)-1*
G04 #@! TF.CreationDate,2019-03-25T12:23:43+09:00*
G04 #@! TF.ProjectId,NixieHourglass,4e697869-6548-46f7-9572-676c6173732e,rev?*
G04 #@! TF.SameCoordinates,Original*
G04 #@! TF.FileFunction,Soldermask,Top*
G04 #@! TF.FilePolarity,Negative*
%FSLAX46Y46*%
G04 Gerber Fmt 4.6, Leading zero omitted, Abs format (unit mm)*
G04 Created by KiCad (PCBNEW (5.0.2)-1) date 25/03/2019 12:23:43*
%MOMM*%
%LPD*%
G01*
G04 APERTURE LIST*
%ADD10C,0.100000*%
G04 APERTURE END LIST*
D10*
G36*
X93173591Y-93003085D02*
X93207569Y-93013393D01*
X93238887Y-93030133D01*
X93266339Y-93052661D01*
X93288867Y-93080113D01*
X93305607Y-93111431D01*
X93315915Y-93145409D01*
X93320000Y-93186890D01*
X93320000Y-93788110D01*
X93315915Y-93829591D01*
X93305607Y-93863569D01*
X93288867Y-93894887D01*
X93266339Y-93922339D01*
X93238887Y-93944867D01*
X93207569Y-93961607D01*
X93173591Y-93971915D01*
X93132110Y-93976000D01*
X92455890Y-93976000D01*
X92414409Y-93971915D01*
X92380431Y-93961607D01*
X92349113Y-93944867D01*
X92321661Y-93922339D01*
X92299133Y-93894887D01*
X92282393Y-93863569D01*
X92272085Y-93829591D01*
X92268000Y-93788110D01*
X92268000Y-93186890D01*
X92272085Y-93145409D01*
X92282393Y-93111431D01*
X92299133Y-93080113D01*
X92321661Y-93052661D01*
X92349113Y-93030133D01*
X92380431Y-93013393D01*
X92414409Y-93003085D01*
X92455890Y-92999000D01*
X93132110Y-92999000D01*
X93173591Y-93003085D01*
X93173591Y-93003085D01*
G37*
G36*
X91395591Y-93003085D02*
X91429569Y-93013393D01*
X91460887Y-93030133D01*
X91488339Y-93052661D01*
X91510867Y-93080113D01*
X91527607Y-93111431D01*
X91537915Y-93145409D01*
X91542000Y-93186890D01*
X91542000Y-93788110D01*
X91537915Y-93829591D01*
X91527607Y-93863569D01*
X91510867Y-93894887D01*
X91488339Y-93922339D01*
X91460887Y-93944867D01*
X91429569Y-93961607D01*
X91395591Y-93971915D01*
X91354110Y-93976000D01*
X90677890Y-93976000D01*
X90636409Y-93971915D01*
X90602431Y-93961607D01*
X90571113Y-93944867D01*
X90543661Y-93922339D01*
X90521133Y-93894887D01*
X90504393Y-93863569D01*
X90494085Y-93829591D01*
X90490000Y-93788110D01*
X90490000Y-93186890D01*
X90494085Y-93145409D01*
X90504393Y-93111431D01*
X90521133Y-93080113D01*
X90543661Y-93052661D01*
X90571113Y-93030133D01*
X90602431Y-93013393D01*
X90636409Y-93003085D01*
X90677890Y-92999000D01*
X91354110Y-92999000D01*
X91395591Y-93003085D01*
X91395591Y-93003085D01*
G37*
G36*
X93173591Y-91428085D02*
X93207569Y-91438393D01*
X93238887Y-91455133D01*
X93266339Y-91477661D01*
X93288867Y-91505113D01*
X93305607Y-91536431D01*
X93315915Y-91570409D01*
X93320000Y-91611890D01*
X93320000Y-92213110D01*
X93315915Y-92254591D01*
X93305607Y-92288569D01*
X93288867Y-92319887D01*
X93266339Y-92347339D01*
X93238887Y-92369867D01*
X93207569Y-92386607D01*
X93173591Y-92396915D01*
X93132110Y-92401000D01*
X92455890Y-92401000D01*
X92414409Y-92396915D01*
X92380431Y-92386607D01*
X92349113Y-92369867D01*
X92321661Y-92347339D01*
X92299133Y-92319887D01*
X92282393Y-92288569D01*
X92272085Y-92254591D01*
X92268000Y-92213110D01*
X92268000Y-91611890D01*
X92272085Y-91570409D01*
X92282393Y-91536431D01*
X92299133Y-91505113D01*
X92321661Y-91477661D01*
X92349113Y-91455133D01*
X92380431Y-91438393D01*
X92414409Y-91428085D01*
X92455890Y-91424000D01*
X93132110Y-91424000D01*
X93173591Y-91428085D01*
X93173591Y-91428085D01*
G37*
G36*
X91395591Y-91428085D02*
X91429569Y-91438393D01*
X91460887Y-91455133D01*
X91488339Y-91477661D01*
X91510867Y-91505113D01*
X91527607Y-91536431D01*
X91537915Y-91570409D01*
X91542000Y-91611890D01*
X91542000Y-92213110D01*
X91537915Y-92254591D01*
X91527607Y-92288569D01*
X91510867Y-92319887D01*
X91488339Y-92347339D01*
X91460887Y-92369867D01*
X91429569Y-92386607D01*
X91395591Y-92396915D01*
X91354110Y-92401000D01*
X90677890Y-92401000D01*
X90636409Y-92396915D01*
X90602431Y-92386607D01*
X90571113Y-92369867D01*
X90543661Y-92347339D01*
X90521133Y-92319887D01*
X90504393Y-92288569D01*
X90494085Y-92254591D01*
X90490000Y-92213110D01*
X90490000Y-91611890D01*
X90494085Y-91570409D01*
X90504393Y-91536431D01*
X90521133Y-91505113D01*
X90543661Y-91477661D01*
X90571113Y-91455133D01*
X90602431Y-91438393D01*
X90636409Y-91428085D01*
X90677890Y-91424000D01*
X91354110Y-91424000D01*
X91395591Y-91428085D01*
X91395591Y-91428085D01*
G37*
G36*
X84297000Y-92331000D02*
X82495000Y-92331000D01*
X82495000Y-90529000D01*
X84297000Y-90529000D01*
X84297000Y-92331000D01*
X84297000Y-92331000D01*
G37*
G36*
X80966442Y-90535518D02*
X81032627Y-90542037D01*
X81145853Y-90576384D01*
X81202467Y-90593557D01*
X81257550Y-90623000D01*
X81358991Y-90677222D01*
X81394729Y-90706552D01*
X81496186Y-90789814D01*
X81579448Y-90891271D01*
X81608778Y-90927009D01*
X81608779Y-90927011D01*
X81692443Y-91083533D01*
X81692443Y-91083534D01*
X81743963Y-91253373D01*
X81761359Y-91430000D01*
X81743963Y-91606627D01*
X81725270Y-91668250D01*
X81692443Y-91776467D01*
X81618348Y-91915087D01*
X81608778Y-91932991D01*
X81591741Y-91953750D01*
X81496186Y-92070186D01*
X81405829Y-92144339D01*
X81358991Y-92182778D01*
X81358989Y-92182779D01*
X81202467Y-92266443D01*
X81145853Y-92283616D01*
X81032627Y-92317963D01*
X80966442Y-92324482D01*
X80900260Y-92331000D01*
X80811740Y-92331000D01*
X80745558Y-92324482D01*
X80679373Y-92317963D01*
X80566147Y-92283616D01*
X80509533Y-92266443D01*
X80353011Y-92182779D01*
X80353009Y-92182778D01*
X80306171Y-92144339D01*
X80215814Y-92070186D01*
X80120259Y-91953750D01*
X80103222Y-91932991D01*
X80093652Y-91915087D01*
X80019557Y-91776467D01*
X79986730Y-91668250D01*
X79968037Y-91606627D01*
X79950641Y-91430000D01*
X79968037Y-91253373D01*
X80019557Y-91083534D01*
X80019557Y-91083533D01*
X80103221Y-90927011D01*
X80103222Y-90927009D01*
X80132552Y-90891271D01*
X80215814Y-90789814D01*
X80317271Y-90706552D01*
X80353009Y-90677222D01*
X80454450Y-90623000D01*
X80509533Y-90593557D01*
X80566147Y-90576384D01*
X80679373Y-90542037D01*
X80745558Y-90535518D01*
X80811740Y-90529000D01*
X80900260Y-90529000D01*
X80966442Y-90535518D01*
X80966442Y-90535518D01*
G37*
G36*
X88601591Y-91225085D02*
X88635569Y-91235393D01*
X88666887Y-91252133D01*
X88694339Y-91274661D01*
X88716867Y-91302113D01*
X88733607Y-91333431D01*
X88743915Y-91367409D01*
X88748000Y-91408890D01*
X88748000Y-92010110D01*
X88743915Y-92051591D01*
X88733607Y-92085569D01*
X88716867Y-92116887D01*
X88694339Y-92144339D01*
X88666887Y-92166867D01*
X88635569Y-92183607D01*
X88601591Y-92193915D01*
X88560110Y-92198000D01*
X87883890Y-92198000D01*
X87842409Y-92193915D01*
X87808431Y-92183607D01*
X87777113Y-92166867D01*
X87749661Y-92144339D01*
X87727133Y-92116887D01*
X87710393Y-92085569D01*
X87700085Y-92051591D01*
X87696000Y-92010110D01*
X87696000Y-91408890D01*
X87700085Y-91367409D01*
X87710393Y-91333431D01*
X87727133Y-91302113D01*
X87749661Y-91274661D01*
X87777113Y-91252133D01*
X87808431Y-91235393D01*
X87842409Y-91225085D01*
X87883890Y-91221000D01*
X88560110Y-91221000D01*
X88601591Y-91225085D01*
X88601591Y-91225085D01*
G37*
G36*
X86823591Y-91225085D02*
X86857569Y-91235393D01*
X86888887Y-91252133D01*
X86916339Y-91274661D01*
X86938867Y-91302113D01*
X86955607Y-91333431D01*
X86965915Y-91367409D01*
X86970000Y-91408890D01*
X86970000Y-92010110D01*
X86965915Y-92051591D01*
X86955607Y-92085569D01*
X86938867Y-92116887D01*
X86916339Y-92144339D01*
X86888887Y-92166867D01*
X86857569Y-92183607D01*
X86823591Y-92193915D01*
X86782110Y-92198000D01*
X86105890Y-92198000D01*
X86064409Y-92193915D01*
X86030431Y-92183607D01*
X85999113Y-92166867D01*
X85971661Y-92144339D01*
X85949133Y-92116887D01*
X85932393Y-92085569D01*
X85922085Y-92051591D01*
X85918000Y-92010110D01*
X85918000Y-91408890D01*
X85922085Y-91367409D01*
X85932393Y-91333431D01*
X85949133Y-91302113D01*
X85971661Y-91274661D01*
X85999113Y-91252133D01*
X86030431Y-91235393D01*
X86064409Y-91225085D01*
X86105890Y-91221000D01*
X86782110Y-91221000D01*
X86823591Y-91225085D01*
X86823591Y-91225085D01*
G37*
G36*
X97200000Y-91306000D02*
X96348000Y-91306000D01*
X96348000Y-89104000D01*
X97200000Y-89104000D01*
X97200000Y-91306000D01*
X97200000Y-91306000D01*
G37*
G36*
X95930000Y-91306000D02*
X95078000Y-91306000D01*
X95078000Y-89104000D01*
X95930000Y-89104000D01*
X95930000Y-91306000D01*
X95930000Y-91306000D01*
G37*
G36*
X98470000Y-91306000D02*
X97618000Y-91306000D01*
X97618000Y-89104000D01*
X98470000Y-89104000D01*
X98470000Y-91306000D01*
X98470000Y-91306000D01*
G37*
G36*
X99740000Y-91306000D02*
X98888000Y-91306000D01*
X98888000Y-89104000D01*
X99740000Y-89104000D01*
X99740000Y-91306000D01*
X99740000Y-91306000D01*
G37*
G36*
X101010000Y-91306000D02*
X100158000Y-91306000D01*
X100158000Y-89104000D01*
X101010000Y-89104000D01*
X101010000Y-91306000D01*
X101010000Y-91306000D01*
G37*
G36*
X86823591Y-89650085D02*
X86857569Y-89660393D01*
X86888887Y-89677133D01*
X86916339Y-89699661D01*
X86938867Y-89727113D01*
X86955607Y-89758431D01*
X86965915Y-89792409D01*
X86970000Y-89833890D01*
X86970000Y-90435110D01*
X86965915Y-90476591D01*
X86955607Y-90510569D01*
X86938867Y-90541887D01*
X86916339Y-90569339D01*
X86888887Y-90591867D01*
X86857569Y-90608607D01*
X86823591Y-90618915D01*
X86782110Y-90623000D01*
X86105890Y-90623000D01*
X86064409Y-90618915D01*
X86030431Y-90608607D01*
X85999113Y-90591867D01*
X85971661Y-90569339D01*
X85949133Y-90541887D01*
X85932393Y-90510569D01*
X85922085Y-90476591D01*
X85918000Y-90435110D01*
X85918000Y-89833890D01*
X85922085Y-89792409D01*
X85932393Y-89758431D01*
X85949133Y-89727113D01*
X85971661Y-89699661D01*
X85999113Y-89677133D01*
X86030431Y-89660393D01*
X86064409Y-89650085D01*
X86105890Y-89646000D01*
X86782110Y-89646000D01*
X86823591Y-89650085D01*
X86823591Y-89650085D01*
G37*
G36*
X88601591Y-89650085D02*
X88635569Y-89660393D01*
X88666887Y-89677133D01*
X88694339Y-89699661D01*
X88716867Y-89727113D01*
X88733607Y-89758431D01*
X88743915Y-89792409D01*
X88748000Y-89833890D01*
X88748000Y-90435110D01*
X88743915Y-90476591D01*
X88733607Y-90510569D01*
X88716867Y-90541887D01*
X88694339Y-90569339D01*
X88666887Y-90591867D01*
X88635569Y-90608607D01*
X88601591Y-90618915D01*
X88560110Y-90623000D01*
X87883890Y-90623000D01*
X87842409Y-90618915D01*
X87808431Y-90608607D01*
X87777113Y-90591867D01*
X87749661Y-90569339D01*
X87727133Y-90541887D01*
X87710393Y-90510569D01*
X87700085Y-90476591D01*
X87696000Y-90435110D01*
X87696000Y-89833890D01*
X87700085Y-89792409D01*
X87710393Y-89758431D01*
X87727133Y-89727113D01*
X87749661Y-89699661D01*
X87777113Y-89677133D01*
X87808431Y-89660393D01*
X87842409Y-89650085D01*
X87883890Y-89646000D01*
X88560110Y-89646000D01*
X88601591Y-89650085D01*
X88601591Y-89650085D01*
G37*
G36*
X91095000Y-90513000D02*
X90393000Y-90513000D01*
X90393000Y-88811000D01*
X91095000Y-88811000D01*
X91095000Y-90513000D01*
X91095000Y-90513000D01*
G37*
G36*
X92995000Y-90513000D02*
X92293000Y-90513000D01*
X92293000Y-88811000D01*
X92995000Y-88811000D01*
X92995000Y-90513000D01*
X92995000Y-90513000D01*
G37*
G36*
X91945000Y-90513000D02*
X91443000Y-90513000D01*
X91443000Y-88811000D01*
X91945000Y-88811000D01*
X91945000Y-90513000D01*
X91945000Y-90513000D01*
G37*
G36*
X82527000Y-89031000D02*
X81525000Y-89031000D01*
X81525000Y-88129000D01*
X82527000Y-88129000D01*
X82527000Y-89031000D01*
X82527000Y-89031000D01*
G37*
G36*
X80527000Y-88081000D02*
X79525000Y-88081000D01*
X79525000Y-87179000D01*
X80527000Y-87179000D01*
X80527000Y-88081000D01*
X80527000Y-88081000D01*
G37*
G36*
X91264000Y-87905000D02*
X85012000Y-87905000D01*
X85012000Y-86203000D01*
X91264000Y-86203000D01*
X91264000Y-87905000D01*
X91264000Y-87905000D01*
G37*
G36*
X82527000Y-87131000D02*
X81525000Y-87131000D01*
X81525000Y-86229000D01*
X82527000Y-86229000D01*
X82527000Y-87131000D01*
X82527000Y-87131000D01*
G37*
G36*
X77326442Y-84957518D02*
X77392627Y-84964037D01*
X77505853Y-84998384D01*
X77562467Y-85015557D01*
X77701087Y-85089652D01*
X77718991Y-85099222D01*
X77754729Y-85128552D01*
X77856186Y-85211814D01*
X77939448Y-85313271D01*
X77968778Y-85349009D01*
X77968779Y-85349011D01*
X78052443Y-85505533D01*
X78052443Y-85505534D01*
X78103963Y-85675373D01*
X78121359Y-85852000D01*
X78103963Y-86028627D01*
X78071392Y-86136000D01*
X78052443Y-86198467D01*
X77978348Y-86337087D01*
X77968778Y-86354991D01*
X77939448Y-86390729D01*
X77856186Y-86492186D01*
X77754729Y-86575448D01*
X77718991Y-86604778D01*
X77718989Y-86604779D01*
X77562467Y-86688443D01*
X77505853Y-86705616D01*
X77392627Y-86739963D01*
X77326443Y-86746481D01*
X77260260Y-86753000D01*
X77171740Y-86753000D01*
X77105557Y-86746481D01*
X77039373Y-86739963D01*
X76926147Y-86705616D01*
X76869533Y-86688443D01*
X76713011Y-86604779D01*
X76713009Y-86604778D01*
X76677271Y-86575448D01*
X76575814Y-86492186D01*
X76492552Y-86390729D01*
X76463222Y-86354991D01*
X76453652Y-86337087D01*
X76379557Y-86198467D01*
X76360608Y-86136000D01*
X76328037Y-86028627D01*
X76310641Y-85852000D01*
X76328037Y-85675373D01*
X76379557Y-85505534D01*
X76379557Y-85505533D01*
X76463221Y-85349011D01*
X76463222Y-85349009D01*
X76492552Y-85313271D01*
X76575814Y-85211814D01*
X76677271Y-85128552D01*
X76713009Y-85099222D01*
X76730913Y-85089652D01*
X76869533Y-85015557D01*
X76926147Y-84998384D01*
X77039373Y-84964037D01*
X77105558Y-84957518D01*
X77171740Y-84951000D01*
X77260260Y-84951000D01*
X77326442Y-84957518D01*
X77326442Y-84957518D01*
G37*
G36*
X97200000Y-86136000D02*
X96348000Y-86136000D01*
X96348000Y-83934000D01*
X97200000Y-83934000D01*
X97200000Y-86136000D01*
X97200000Y-86136000D01*
G37*
G36*
X98470000Y-86136000D02*
X97618000Y-86136000D01*
X97618000Y-83934000D01*
X98470000Y-83934000D01*
X98470000Y-86136000D01*
X98470000Y-86136000D01*
G37*
G36*
X99740000Y-86136000D02*
X98888000Y-86136000D01*
X98888000Y-83934000D01*
X99740000Y-83934000D01*
X99740000Y-86136000D01*
X99740000Y-86136000D01*
G37*
G36*
X101010000Y-86136000D02*
X100158000Y-86136000D01*
X100158000Y-83934000D01*
X101010000Y-83934000D01*
X101010000Y-86136000D01*
X101010000Y-86136000D01*
G37*
G36*
X95930000Y-86136000D02*
X95078000Y-86136000D01*
X95078000Y-83934000D01*
X95930000Y-83934000D01*
X95930000Y-86136000D01*
X95930000Y-86136000D01*
G37*
G36*
X93239000Y-85930000D02*
X91537000Y-85930000D01*
X91537000Y-79678000D01*
X93239000Y-79678000D01*
X93239000Y-85930000D01*
X93239000Y-85930000D01*
G37*
G36*
X84739000Y-85930000D02*
X83037000Y-85930000D01*
X83037000Y-79678000D01*
X84739000Y-79678000D01*
X84739000Y-85930000D01*
X84739000Y-85930000D01*
G37*
G36*
X82527000Y-84967000D02*
X81525000Y-84967000D01*
X81525000Y-84065000D01*
X82527000Y-84065000D01*
X82527000Y-84967000D01*
X82527000Y-84967000D01*
G37*
G36*
X78117000Y-84213000D02*
X76315000Y-84213000D01*
X76315000Y-82411000D01*
X78117000Y-82411000D01*
X78117000Y-84213000D01*
X78117000Y-84213000D01*
G37*
G36*
X80527000Y-84017000D02*
X79525000Y-84017000D01*
X79525000Y-83115000D01*
X80527000Y-83115000D01*
X80527000Y-84017000D01*
X80527000Y-84017000D01*
G37*
G36*
X82527000Y-83067000D02*
X81525000Y-83067000D01*
X81525000Y-82165000D01*
X82527000Y-82165000D01*
X82527000Y-83067000D01*
X82527000Y-83067000D01*
G37*
G36*
X103619500Y-82791500D02*
X102882500Y-82791500D01*
X102882500Y-80784500D01*
X103619500Y-80784500D01*
X103619500Y-82791500D01*
X103619500Y-82791500D01*
G37*
G36*
X94729500Y-82791500D02*
X93992500Y-82791500D01*
X93992500Y-80784500D01*
X94729500Y-80784500D01*
X94729500Y-82791500D01*
X94729500Y-82791500D01*
G37*
G36*
X95999500Y-82791500D02*
X95262500Y-82791500D01*
X95262500Y-80784500D01*
X95999500Y-80784500D01*
X95999500Y-82791500D01*
X95999500Y-82791500D01*
G37*
G36*
X97269500Y-82791500D02*
X96532500Y-82791500D01*
X96532500Y-80784500D01*
X97269500Y-80784500D01*
X97269500Y-82791500D01*
X97269500Y-82791500D01*
G37*
G36*
X98539500Y-82791500D02*
X97802500Y-82791500D01*
X97802500Y-80784500D01*
X98539500Y-80784500D01*
X98539500Y-82791500D01*
X98539500Y-82791500D01*
G37*
G36*
X99809500Y-82791500D02*
X99072500Y-82791500D01*
X99072500Y-80784500D01*
X99809500Y-80784500D01*
X99809500Y-82791500D01*
X99809500Y-82791500D01*
G37*
G36*
X101079500Y-82791500D02*
X100342500Y-82791500D01*
X100342500Y-80784500D01*
X101079500Y-80784500D01*
X101079500Y-82791500D01*
X101079500Y-82791500D01*
G37*
G36*
X102349500Y-82791500D02*
X101612500Y-82791500D01*
X101612500Y-80784500D01*
X102349500Y-80784500D01*
X102349500Y-82791500D01*
X102349500Y-82791500D01*
G37*
G36*
X79445000Y-81003000D02*
X78543000Y-81003000D01*
X78543000Y-80001000D01*
X79445000Y-80001000D01*
X79445000Y-81003000D01*
X79445000Y-81003000D01*
G37*
G36*
X105279591Y-79795085D02*
X105313569Y-79805393D01*
X105344887Y-79822133D01*
X105372339Y-79844661D01*
X105394867Y-79872113D01*
X105411607Y-79903431D01*
X105421915Y-79937409D01*
X105426000Y-79978890D01*
X105426000Y-80580110D01*
X105421915Y-80621591D01*
X105411607Y-80655569D01*
X105394867Y-80686887D01*
X105372339Y-80714339D01*
X105344887Y-80736867D01*
X105313569Y-80753607D01*
X105279591Y-80763915D01*
X105238110Y-80768000D01*
X104561890Y-80768000D01*
X104520409Y-80763915D01*
X104486431Y-80753607D01*
X104455113Y-80736867D01*
X104427661Y-80714339D01*
X104405133Y-80686887D01*
X104388393Y-80655569D01*
X104378085Y-80621591D01*
X104374000Y-80580110D01*
X104374000Y-79978890D01*
X104378085Y-79937409D01*
X104388393Y-79903431D01*
X104405133Y-79872113D01*
X104427661Y-79844661D01*
X104455113Y-79822133D01*
X104486431Y-79805393D01*
X104520409Y-79795085D01*
X104561890Y-79791000D01*
X105238110Y-79791000D01*
X105279591Y-79795085D01*
X105279591Y-79795085D01*
G37*
G36*
X76663591Y-79541085D02*
X76697569Y-79551393D01*
X76728887Y-79568133D01*
X76756339Y-79590661D01*
X76778867Y-79618113D01*
X76795607Y-79649431D01*
X76805915Y-79683409D01*
X76810000Y-79724890D01*
X76810000Y-80326110D01*
X76805915Y-80367591D01*
X76795607Y-80401569D01*
X76778867Y-80432887D01*
X76756339Y-80460339D01*
X76728887Y-80482867D01*
X76697569Y-80499607D01*
X76663591Y-80509915D01*
X76622110Y-80514000D01*
X75945890Y-80514000D01*
X75904409Y-80509915D01*
X75870431Y-80499607D01*
X75839113Y-80482867D01*
X75811661Y-80460339D01*
X75789133Y-80432887D01*
X75772393Y-80401569D01*
X75762085Y-80367591D01*
X75758000Y-80326110D01*
X75758000Y-79724890D01*
X75762085Y-79683409D01*
X75772393Y-79649431D01*
X75789133Y-79618113D01*
X75811661Y-79590661D01*
X75839113Y-79568133D01*
X75870431Y-79551393D01*
X75904409Y-79541085D01*
X75945890Y-79537000D01*
X76622110Y-79537000D01*
X76663591Y-79541085D01*
X76663591Y-79541085D01*
G37*
G36*
X91264000Y-79405000D02*
X85012000Y-79405000D01*
X85012000Y-77703000D01*
X91264000Y-77703000D01*
X91264000Y-79405000D01*
X91264000Y-79405000D01*
G37*
G36*
X105279591Y-78220085D02*
X105313569Y-78230393D01*
X105344887Y-78247133D01*
X105372339Y-78269661D01*
X105394867Y-78297113D01*
X105411607Y-78328431D01*
X105421915Y-78362409D01*
X105426000Y-78403890D01*
X105426000Y-79005110D01*
X105421915Y-79046591D01*
X105411607Y-79080569D01*
X105394867Y-79111887D01*
X105372339Y-79139339D01*
X105344887Y-79161867D01*
X105313569Y-79178607D01*
X105279591Y-79188915D01*
X105238110Y-79193000D01*
X104561890Y-79193000D01*
X104520409Y-79188915D01*
X104486431Y-79178607D01*
X104455113Y-79161867D01*
X104427661Y-79139339D01*
X104405133Y-79111887D01*
X104388393Y-79080569D01*
X104378085Y-79046591D01*
X104374000Y-79005110D01*
X104374000Y-78403890D01*
X104378085Y-78362409D01*
X104388393Y-78328431D01*
X104405133Y-78297113D01*
X104427661Y-78269661D01*
X104455113Y-78247133D01*
X104486431Y-78230393D01*
X104520409Y-78220085D01*
X104561890Y-78216000D01*
X105238110Y-78216000D01*
X105279591Y-78220085D01*
X105279591Y-78220085D01*
G37*
G36*
X80395000Y-79003000D02*
X79493000Y-79003000D01*
X79493000Y-78001000D01*
X80395000Y-78001000D01*
X80395000Y-79003000D01*
X80395000Y-79003000D01*
G37*
G36*
X78495000Y-79003000D02*
X77593000Y-79003000D01*
X77593000Y-78001000D01*
X78495000Y-78001000D01*
X78495000Y-79003000D01*
X78495000Y-79003000D01*
G37*
G36*
X76663591Y-77966085D02*
X76697569Y-77976393D01*
X76728887Y-77993133D01*
X76756339Y-78015661D01*
X76778867Y-78043113D01*
X76795607Y-78074431D01*
X76805915Y-78108409D01*
X76810000Y-78149890D01*
X76810000Y-78751110D01*
X76805915Y-78792591D01*
X76795607Y-78826569D01*
X76778867Y-78857887D01*
X76756339Y-78885339D01*
X76728887Y-78907867D01*
X76697569Y-78924607D01*
X76663591Y-78934915D01*
X76622110Y-78939000D01*
X75945890Y-78939000D01*
X75904409Y-78934915D01*
X75870431Y-78924607D01*
X75839113Y-78907867D01*
X75811661Y-78885339D01*
X75789133Y-78857887D01*
X75772393Y-78826569D01*
X75762085Y-78792591D01*
X75758000Y-78751110D01*
X75758000Y-78149890D01*
X75762085Y-78108409D01*
X75772393Y-78074431D01*
X75789133Y-78043113D01*
X75811661Y-78015661D01*
X75839113Y-77993133D01*
X75870431Y-77976393D01*
X75904409Y-77966085D01*
X75945890Y-77962000D01*
X76622110Y-77962000D01*
X76663591Y-77966085D01*
X76663591Y-77966085D01*
G37*
G36*
X93089591Y-76249085D02*
X93123569Y-76259393D01*
X93154887Y-76276133D01*
X93182339Y-76298661D01*
X93204867Y-76326113D01*
X93221607Y-76357431D01*
X93231915Y-76391409D01*
X93236000Y-76432890D01*
X93236000Y-77034110D01*
X93231915Y-77075591D01*
X93221607Y-77109569D01*
X93204867Y-77140887D01*
X93182339Y-77168339D01*
X93154887Y-77190867D01*
X93123569Y-77207607D01*
X93089591Y-77217915D01*
X93048110Y-77222000D01*
X92371890Y-77222000D01*
X92330409Y-77217915D01*
X92296431Y-77207607D01*
X92265113Y-77190867D01*
X92237661Y-77168339D01*
X92215133Y-77140887D01*
X92198393Y-77109569D01*
X92188085Y-77075591D01*
X92184000Y-77034110D01*
X92184000Y-76432890D01*
X92188085Y-76391409D01*
X92198393Y-76357431D01*
X92215133Y-76326113D01*
X92237661Y-76298661D01*
X92265113Y-76276133D01*
X92296431Y-76259393D01*
X92330409Y-76249085D01*
X92371890Y-76245000D01*
X93048110Y-76245000D01*
X93089591Y-76249085D01*
X93089591Y-76249085D01*
G37*
G36*
X75311000Y-76995000D02*
X74209000Y-76995000D01*
X74209000Y-75893000D01*
X75311000Y-75893000D01*
X75311000Y-76995000D01*
X75311000Y-76995000D01*
G37*
G36*
X80981591Y-75477085D02*
X81015569Y-75487393D01*
X81046887Y-75504133D01*
X81074339Y-75526661D01*
X81096867Y-75554113D01*
X81113607Y-75585431D01*
X81123915Y-75619409D01*
X81128000Y-75660890D01*
X81128000Y-76262110D01*
X81123915Y-76303591D01*
X81113607Y-76337569D01*
X81096867Y-76368887D01*
X81074339Y-76396339D01*
X81046887Y-76418867D01*
X81015569Y-76435607D01*
X80981591Y-76445915D01*
X80940110Y-76450000D01*
X80263890Y-76450000D01*
X80222409Y-76445915D01*
X80188431Y-76435607D01*
X80157113Y-76418867D01*
X80129661Y-76396339D01*
X80107133Y-76368887D01*
X80090393Y-76337569D01*
X80080085Y-76303591D01*
X80076000Y-76262110D01*
X80076000Y-75660890D01*
X80080085Y-75619409D01*
X80090393Y-75585431D01*
X80107133Y-75554113D01*
X80129661Y-75526661D01*
X80157113Y-75504133D01*
X80188431Y-75487393D01*
X80222409Y-75477085D01*
X80263890Y-75473000D01*
X80940110Y-75473000D01*
X80981591Y-75477085D01*
X80981591Y-75477085D01*
G37*
G36*
X82505591Y-75477085D02*
X82539569Y-75487393D01*
X82570887Y-75504133D01*
X82598339Y-75526661D01*
X82620867Y-75554113D01*
X82637607Y-75585431D01*
X82647915Y-75619409D01*
X82652000Y-75660890D01*
X82652000Y-76262110D01*
X82647915Y-76303591D01*
X82637607Y-76337569D01*
X82620867Y-76368887D01*
X82598339Y-76396339D01*
X82570887Y-76418867D01*
X82539569Y-76435607D01*
X82505591Y-76445915D01*
X82464110Y-76450000D01*
X81787890Y-76450000D01*
X81746409Y-76445915D01*
X81712431Y-76435607D01*
X81681113Y-76418867D01*
X81653661Y-76396339D01*
X81631133Y-76368887D01*
X81614393Y-76337569D01*
X81604085Y-76303591D01*
X81600000Y-76262110D01*
X81600000Y-75660890D01*
X81604085Y-75619409D01*
X81614393Y-75585431D01*
X81631133Y-75554113D01*
X81653661Y-75526661D01*
X81681113Y-75504133D01*
X81712431Y-75487393D01*
X81746409Y-75477085D01*
X81787890Y-75473000D01*
X82464110Y-75473000D01*
X82505591Y-75477085D01*
X82505591Y-75477085D01*
G37*
G36*
X90227000Y-76403000D02*
X84525000Y-76403000D01*
X84525000Y-75301000D01*
X90227000Y-75301000D01*
X90227000Y-76403000D01*
X90227000Y-76403000D01*
G37*
G36*
X77918443Y-74025519D02*
X77984627Y-74032037D01*
X78097853Y-74066384D01*
X78154467Y-74083557D01*
X78264272Y-74142250D01*
X78310991Y-74167222D01*
X78346729Y-74196552D01*
X78448186Y-74279814D01*
X78531448Y-74381271D01*
X78560778Y-74417009D01*
X78560779Y-74417011D01*
X78644443Y-74573533D01*
X78644443Y-74573534D01*
X78695963Y-74743373D01*
X78713359Y-74920000D01*
X78695963Y-75096627D01*
X78661616Y-75209853D01*
X78644443Y-75266467D01*
X78625984Y-75301000D01*
X78560778Y-75422991D01*
X78538283Y-75450401D01*
X78448186Y-75560186D01*
X78376021Y-75619409D01*
X78310991Y-75672778D01*
X78310989Y-75672779D01*
X78154467Y-75756443D01*
X78097853Y-75773616D01*
X77984627Y-75807963D01*
X77918442Y-75814482D01*
X77852260Y-75821000D01*
X77763740Y-75821000D01*
X77697558Y-75814482D01*
X77631373Y-75807963D01*
X77518147Y-75773616D01*
X77461533Y-75756443D01*
X77305011Y-75672779D01*
X77305009Y-75672778D01*
X77239979Y-75619409D01*
X77167814Y-75560186D01*
X77077717Y-75450401D01*
X77055222Y-75422991D01*
X76990016Y-75301000D01*
X76971557Y-75266467D01*
X76954384Y-75209853D01*
X76920037Y-75096627D01*
X76902641Y-74920000D01*
X76920037Y-74743373D01*
X76971557Y-74573534D01*
X76971557Y-74573533D01*
X77055221Y-74417011D01*
X77055222Y-74417009D01*
X77084552Y-74381271D01*
X77167814Y-74279814D01*
X77269271Y-74196552D01*
X77305009Y-74167222D01*
X77351728Y-74142250D01*
X77461533Y-74083557D01*
X77518147Y-74066384D01*
X77631373Y-74032037D01*
X77697557Y-74025519D01*
X77763740Y-74019000D01*
X77852260Y-74019000D01*
X77918443Y-74025519D01*
X77918443Y-74025519D01*
G37*
G36*
X93089591Y-74674085D02*
X93123569Y-74684393D01*
X93154887Y-74701133D01*
X93182339Y-74723661D01*
X93204867Y-74751113D01*
X93221607Y-74782431D01*
X93231915Y-74816409D01*
X93236000Y-74857890D01*
X93236000Y-75459110D01*
X93231915Y-75500591D01*
X93221607Y-75534569D01*
X93204867Y-75565887D01*
X93182339Y-75593339D01*
X93154887Y-75615867D01*
X93123569Y-75632607D01*
X93089591Y-75642915D01*
X93048110Y-75647000D01*
X92371890Y-75647000D01*
X92330409Y-75642915D01*
X92296431Y-75632607D01*
X92265113Y-75615867D01*
X92237661Y-75593339D01*
X92215133Y-75565887D01*
X92198393Y-75534569D01*
X92188085Y-75500591D01*
X92184000Y-75459110D01*
X92184000Y-74857890D01*
X92188085Y-74816409D01*
X92198393Y-74782431D01*
X92215133Y-74751113D01*
X92237661Y-74723661D01*
X92265113Y-74701133D01*
X92296431Y-74684393D01*
X92330409Y-74674085D01*
X92371890Y-74670000D01*
X93048110Y-74670000D01*
X93089591Y-74674085D01*
X93089591Y-74674085D01*
G37*
G36*
X80981591Y-73902085D02*
X81015569Y-73912393D01*
X81046887Y-73929133D01*
X81074339Y-73951661D01*
X81096867Y-73979113D01*
X81113607Y-74010431D01*
X81123915Y-74044409D01*
X81128000Y-74085890D01*
X81128000Y-74687110D01*
X81123915Y-74728591D01*
X81113607Y-74762569D01*
X81096867Y-74793887D01*
X81074339Y-74821339D01*
X81046887Y-74843867D01*
X81015569Y-74860607D01*
X80981591Y-74870915D01*
X80940110Y-74875000D01*
X80263890Y-74875000D01*
X80222409Y-74870915D01*
X80188431Y-74860607D01*
X80157113Y-74843867D01*
X80129661Y-74821339D01*
X80107133Y-74793887D01*
X80090393Y-74762569D01*
X80080085Y-74728591D01*
X80076000Y-74687110D01*
X80076000Y-74085890D01*
X80080085Y-74044409D01*
X80090393Y-74010431D01*
X80107133Y-73979113D01*
X80129661Y-73951661D01*
X80157113Y-73929133D01*
X80188431Y-73912393D01*
X80222409Y-73902085D01*
X80263890Y-73898000D01*
X80940110Y-73898000D01*
X80981591Y-73902085D01*
X80981591Y-73902085D01*
G37*
G36*
X82505591Y-73902085D02*
X82539569Y-73912393D01*
X82570887Y-73929133D01*
X82598339Y-73951661D01*
X82620867Y-73979113D01*
X82637607Y-74010431D01*
X82647915Y-74044409D01*
X82652000Y-74085890D01*
X82652000Y-74687110D01*
X82647915Y-74728591D01*
X82637607Y-74762569D01*
X82620867Y-74793887D01*
X82598339Y-74821339D01*
X82570887Y-74843867D01*
X82539569Y-74860607D01*
X82505591Y-74870915D01*
X82464110Y-74875000D01*
X81787890Y-74875000D01*
X81746409Y-74870915D01*
X81712431Y-74860607D01*
X81681113Y-74843867D01*
X81653661Y-74821339D01*
X81631133Y-74793887D01*
X81614393Y-74762569D01*
X81604085Y-74728591D01*
X81600000Y-74687110D01*
X81600000Y-74085890D01*
X81604085Y-74044409D01*
X81614393Y-74010431D01*
X81631133Y-73979113D01*
X81653661Y-73951661D01*
X81681113Y-73929133D01*
X81712431Y-73912393D01*
X81746409Y-73902085D01*
X81787890Y-73898000D01*
X82464110Y-73898000D01*
X82505591Y-73902085D01*
X82505591Y-73902085D01*
G37*
G36*
X92937000Y-74023000D02*
X91635000Y-74023000D01*
X91635000Y-73021000D01*
X92937000Y-73021000D01*
X92937000Y-74023000D01*
X92937000Y-74023000D01*
G37*
G36*
X78709000Y-73281000D02*
X76907000Y-73281000D01*
X76907000Y-71479000D01*
X78709000Y-71479000D01*
X78709000Y-73281000D01*
X78709000Y-73281000D01*
G37*
G36*
X82844000Y-70513000D02*
X82846402Y-70537386D01*
X82853515Y-70560835D01*
X82865066Y-70582446D01*
X82880612Y-70601388D01*
X82899554Y-70616934D01*
X82921165Y-70628485D01*
X82944614Y-70635598D01*
X82969000Y-70638000D01*
X83119000Y-70638000D01*
X83119000Y-72090000D01*
X82969000Y-72090000D01*
X82944614Y-72092402D01*
X82921165Y-72099515D01*
X82899554Y-72111066D01*
X82880612Y-72126612D01*
X82865066Y-72145554D01*
X82853515Y-72167165D01*
X82846402Y-72190614D01*
X82844000Y-72215000D01*
X82844000Y-72865000D01*
X80392000Y-72865000D01*
X80392000Y-72215000D01*
X80389598Y-72190614D01*
X80382485Y-72167165D01*
X80370934Y-72145554D01*
X80355388Y-72126612D01*
X80336446Y-72111066D01*
X80314835Y-72099515D01*
X80291386Y-72092402D01*
X80267000Y-72090000D01*
X80117000Y-72090000D01*
X80117000Y-70690000D01*
X80819000Y-70690000D01*
X80819000Y-72038000D01*
X80821402Y-72062386D01*
X80828515Y-72085835D01*
X80840066Y-72107446D01*
X80855612Y-72126388D01*
X80874554Y-72141934D01*
X80896165Y-72153485D01*
X80919614Y-72160598D01*
X80944000Y-72163000D01*
X82292000Y-72163000D01*
X82316386Y-72160598D01*
X82339835Y-72153485D01*
X82361446Y-72141934D01*
X82380388Y-72126388D01*
X82395934Y-72107446D01*
X82407485Y-72085835D01*
X82414598Y-72062386D01*
X82417000Y-72038000D01*
X82417000Y-70690000D01*
X82414598Y-70665614D01*
X82407485Y-70642165D01*
X82395934Y-70620554D01*
X82380388Y-70601612D01*
X82361446Y-70586066D01*
X82339835Y-70574515D01*
X82316386Y-70567402D01*
X82292000Y-70565000D01*
X80944000Y-70565000D01*
X80919614Y-70567402D01*
X80896165Y-70574515D01*
X80874554Y-70586066D01*
X80855612Y-70601612D01*
X80840066Y-70620554D01*
X80828515Y-70642165D01*
X80821402Y-70665614D01*
X80819000Y-70690000D01*
X80117000Y-70690000D01*
X80117000Y-70638000D01*
X80267000Y-70638000D01*
X80291386Y-70635598D01*
X80314835Y-70628485D01*
X80336446Y-70616934D01*
X80355388Y-70601388D01*
X80370934Y-70582446D01*
X80382485Y-70560835D01*
X80389598Y-70537386D01*
X80392000Y-70513000D01*
X80392000Y-69863000D01*
X82844000Y-69863000D01*
X82844000Y-70513000D01*
X82844000Y-70513000D01*
G37*
G36*
X98539500Y-72631500D02*
X97802500Y-72631500D01*
X97802500Y-70624500D01*
X98539500Y-70624500D01*
X98539500Y-72631500D01*
X98539500Y-72631500D01*
G37*
G36*
X101079500Y-72631500D02*
X100342500Y-72631500D01*
X100342500Y-70624500D01*
X101079500Y-70624500D01*
X101079500Y-72631500D01*
X101079500Y-72631500D01*
G37*
G36*
X95999500Y-72631500D02*
X95262500Y-72631500D01*
X95262500Y-70624500D01*
X95999500Y-70624500D01*
X95999500Y-72631500D01*
X95999500Y-72631500D01*
G37*
G36*
X102349500Y-72631500D02*
X101612500Y-72631500D01*
X101612500Y-70624500D01*
X102349500Y-70624500D01*
X102349500Y-72631500D01*
X102349500Y-72631500D01*
G37*
G36*
X103619500Y-72631500D02*
X102882500Y-72631500D01*
X102882500Y-70624500D01*
X103619500Y-70624500D01*
X103619500Y-72631500D01*
X103619500Y-72631500D01*
G37*
G36*
X97269500Y-72631500D02*
X96532500Y-72631500D01*
X96532500Y-70624500D01*
X97269500Y-70624500D01*
X97269500Y-72631500D01*
X97269500Y-72631500D01*
G37*
G36*
X94729500Y-72631500D02*
X93992500Y-72631500D01*
X93992500Y-70624500D01*
X94729500Y-70624500D01*
X94729500Y-72631500D01*
X94729500Y-72631500D01*
G37*
G36*
X99809500Y-72631500D02*
X99072500Y-72631500D01*
X99072500Y-70624500D01*
X99809500Y-70624500D01*
X99809500Y-72631500D01*
X99809500Y-72631500D01*
G37*
G36*
X90227000Y-71003000D02*
X84525000Y-71003000D01*
X84525000Y-69901000D01*
X90227000Y-69901000D01*
X90227000Y-71003000D01*
X90227000Y-71003000D01*
G37*
G36*
X92937000Y-70723000D02*
X91635000Y-70723000D01*
X91635000Y-69721000D01*
X92937000Y-69721000D01*
X92937000Y-70723000D01*
X92937000Y-70723000D01*
G37*
G36*
X83013591Y-67603085D02*
X83047569Y-67613393D01*
X83078887Y-67630133D01*
X83106339Y-67652661D01*
X83128867Y-67680113D01*
X83145607Y-67711431D01*
X83155915Y-67745409D01*
X83160000Y-67786890D01*
X83160000Y-68388110D01*
X83155915Y-68429591D01*
X83145607Y-68463569D01*
X83128867Y-68494887D01*
X83106339Y-68522339D01*
X83078887Y-68544867D01*
X83047569Y-68561607D01*
X83013591Y-68571915D01*
X82972110Y-68576000D01*
X82295890Y-68576000D01*
X82254409Y-68571915D01*
X82220431Y-68561607D01*
X82189113Y-68544867D01*
X82161661Y-68522339D01*
X82139133Y-68494887D01*
X82122393Y-68463569D01*
X82112085Y-68429591D01*
X82108000Y-68388110D01*
X82108000Y-67786890D01*
X82112085Y-67745409D01*
X82122393Y-67711431D01*
X82139133Y-67680113D01*
X82161661Y-67652661D01*
X82189113Y-67630133D01*
X82220431Y-67613393D01*
X82254409Y-67603085D01*
X82295890Y-67599000D01*
X82972110Y-67599000D01*
X83013591Y-67603085D01*
X83013591Y-67603085D01*
G37*
G36*
X92157591Y-67603085D02*
X92191569Y-67613393D01*
X92222887Y-67630133D01*
X92250339Y-67652661D01*
X92272867Y-67680113D01*
X92289607Y-67711431D01*
X92299915Y-67745409D01*
X92304000Y-67786890D01*
X92304000Y-68388110D01*
X92299915Y-68429591D01*
X92289607Y-68463569D01*
X92272867Y-68494887D01*
X92250339Y-68522339D01*
X92222887Y-68544867D01*
X92191569Y-68561607D01*
X92157591Y-68571915D01*
X92116110Y-68576000D01*
X91439890Y-68576000D01*
X91398409Y-68571915D01*
X91364431Y-68561607D01*
X91333113Y-68544867D01*
X91305661Y-68522339D01*
X91283133Y-68494887D01*
X91266393Y-68463569D01*
X91256085Y-68429591D01*
X91252000Y-68388110D01*
X91252000Y-67786890D01*
X91256085Y-67745409D01*
X91266393Y-67711431D01*
X91283133Y-67680113D01*
X91305661Y-67652661D01*
X91333113Y-67630133D01*
X91364431Y-67613393D01*
X91398409Y-67603085D01*
X91439890Y-67599000D01*
X92116110Y-67599000D01*
X92157591Y-67603085D01*
X92157591Y-67603085D01*
G37*
G36*
X98239000Y-68497000D02*
X97087000Y-68497000D01*
X97087000Y-67745000D01*
X98239000Y-67745000D01*
X98239000Y-68497000D01*
X98239000Y-68497000D01*
G37*
G36*
X89095000Y-68497000D02*
X87943000Y-68497000D01*
X87943000Y-67745000D01*
X89095000Y-67745000D01*
X89095000Y-68497000D01*
X89095000Y-68497000D01*
G37*
G36*
X94089000Y-68497000D02*
X92937000Y-68497000D01*
X92937000Y-67745000D01*
X94089000Y-67745000D01*
X94089000Y-68497000D01*
X94089000Y-68497000D01*
G37*
G36*
X84945000Y-68497000D02*
X83793000Y-68497000D01*
X83793000Y-67745000D01*
X84945000Y-67745000D01*
X84945000Y-68497000D01*
X84945000Y-68497000D01*
G37*
G36*
X92157591Y-66028085D02*
X92191569Y-66038393D01*
X92222887Y-66055133D01*
X92250339Y-66077661D01*
X92272867Y-66105113D01*
X92289607Y-66136431D01*
X92299915Y-66170409D01*
X92304000Y-66211890D01*
X92304000Y-66813110D01*
X92299915Y-66854591D01*
X92289607Y-66888569D01*
X92272867Y-66919887D01*
X92250339Y-66947339D01*
X92222887Y-66969867D01*
X92191569Y-66986607D01*
X92157591Y-66996915D01*
X92116110Y-67001000D01*
X91439890Y-67001000D01*
X91398409Y-66996915D01*
X91364431Y-66986607D01*
X91333113Y-66969867D01*
X91305661Y-66947339D01*
X91283133Y-66919887D01*
X91266393Y-66888569D01*
X91256085Y-66854591D01*
X91252000Y-66813110D01*
X91252000Y-66211890D01*
X91256085Y-66170409D01*
X91266393Y-66136431D01*
X91283133Y-66105113D01*
X91305661Y-66077661D01*
X91333113Y-66055133D01*
X91364431Y-66038393D01*
X91398409Y-66028085D01*
X91439890Y-66024000D01*
X92116110Y-66024000D01*
X92157591Y-66028085D01*
X92157591Y-66028085D01*
G37*
G36*
X83013591Y-66028085D02*
X83047569Y-66038393D01*
X83078887Y-66055133D01*
X83106339Y-66077661D01*
X83128867Y-66105113D01*
X83145607Y-66136431D01*
X83155915Y-66170409D01*
X83160000Y-66211890D01*
X83160000Y-66813110D01*
X83155915Y-66854591D01*
X83145607Y-66888569D01*
X83128867Y-66919887D01*
X83106339Y-66947339D01*
X83078887Y-66969867D01*
X83047569Y-66986607D01*
X83013591Y-66996915D01*
X82972110Y-67001000D01*
X82295890Y-67001000D01*
X82254409Y-66996915D01*
X82220431Y-66986607D01*
X82189113Y-66969867D01*
X82161661Y-66947339D01*
X82139133Y-66919887D01*
X82122393Y-66888569D01*
X82112085Y-66854591D01*
X82108000Y-66813110D01*
X82108000Y-66211890D01*
X82112085Y-66170409D01*
X82122393Y-66136431D01*
X82139133Y-66105113D01*
X82161661Y-66077661D01*
X82189113Y-66055133D01*
X82220431Y-66038393D01*
X82254409Y-66028085D01*
X82295890Y-66024000D01*
X82972110Y-66024000D01*
X83013591Y-66028085D01*
X83013591Y-66028085D01*
G37*
G36*
X84945000Y-66347000D02*
X83793000Y-66347000D01*
X83793000Y-65595000D01*
X84945000Y-65595000D01*
X84945000Y-66347000D01*
X84945000Y-66347000D01*
G37*
G36*
X94089000Y-66347000D02*
X92937000Y-66347000D01*
X92937000Y-65595000D01*
X94089000Y-65595000D01*
X94089000Y-66347000D01*
X94089000Y-66347000D01*
G37*
G36*
X89095000Y-66347000D02*
X87943000Y-66347000D01*
X87943000Y-65595000D01*
X89095000Y-65595000D01*
X89095000Y-66347000D01*
X89095000Y-66347000D01*
G37*
G36*
X98239000Y-66347000D02*
X97087000Y-66347000D01*
X97087000Y-65595000D01*
X98239000Y-65595000D01*
X98239000Y-66347000D01*
X98239000Y-66347000D01*
G37*
M02*
