G04 #@! TF.GenerationSoftware,KiCad,Pcbnew,(5.0.2)-1*
G04 #@! TF.CreationDate,2019-03-25T12:23:43+09:00*
G04 #@! TF.ProjectId,NixieHourglass,4e697869-6548-46f7-9572-676c6173732e,rev?*
G04 #@! TF.SameCoordinates,Original*
G04 #@! TF.FileFunction,Copper,L4,Bot*
G04 #@! TF.FilePolarity,Positive*
%FSLAX46Y46*%
G04 Gerber Fmt 4.6, Leading zero omitted, Abs format (unit mm)*
G04 Created by KiCad (PCBNEW (5.0.2)-1) date 25/03/2019 12:23:43*
%MOMM*%
%LPD*%
G01*
G04 APERTURE LIST*
G04 #@! TA.AperFunction,SMDPad,CuDef*
%ADD10C,1.500000*%
G04 #@! TD*
G04 #@! TA.AperFunction,Conductor*
%ADD11C,0.100000*%
G04 #@! TD*
G04 #@! TA.AperFunction,SMDPad,CuDef*
%ADD12R,1.500000X3.000000*%
G04 #@! TD*
G04 #@! TA.AperFunction,ComponentPad*
%ADD13R,1.700000X1.700000*%
G04 #@! TD*
G04 #@! TA.AperFunction,ComponentPad*
%ADD14O,1.700000X1.700000*%
G04 #@! TD*
G04 #@! TA.AperFunction,ViaPad*
%ADD15C,0.600000*%
G04 #@! TD*
G04 #@! TA.AperFunction,Conductor*
%ADD16C,0.250000*%
G04 #@! TD*
G04 #@! TA.AperFunction,Conductor*
%ADD17C,0.500000*%
G04 #@! TD*
G04 #@! TA.AperFunction,Conductor*
%ADD18C,1.000000*%
G04 #@! TD*
G04 #@! TA.AperFunction,Conductor*
%ADD19C,0.254000*%
G04 #@! TD*
G04 APERTURE END LIST*
D10*
G04 #@! TO.P,N1,RHDP*
G04 #@! TO.N,N/C*
X86530000Y-86640000D03*
D11*
G04 #@! TD*
G04 #@! TO.N,N/C*
G04 #@! TO.C,N1*
G36*
X85170403Y-87621833D02*
X86560291Y-84963223D01*
X87889597Y-85658167D01*
X86499709Y-88316777D01*
X85170403Y-87621833D01*
X85170403Y-87621833D01*
G37*
D10*
G04 #@! TO.P,N1,0*
G04 #@! TO.N,Net-(N1-Pad0)*
X83840000Y-84270000D03*
D11*
G04 #@! TD*
G04 #@! TO.N,Net-(N1-Pad0)*
G04 #@! TO.C,N1*
G36*
X82179824Y-84507311D02*
X84646256Y-82799473D01*
X85500176Y-84032689D01*
X83033744Y-85740527D01*
X82179824Y-84507311D01*
X82179824Y-84507311D01*
G37*
D10*
G04 #@! TO.P,N1,9*
G04 #@! TO.N,Net-(N1-Pad9)*
X82560000Y-80900000D03*
D11*
G04 #@! TD*
G04 #@! TO.N,Net-(N1-Pad9)*
G04 #@! TO.C,N1*
G36*
X80979779Y-80338394D02*
X83957417Y-79972786D01*
X84140221Y-81461606D01*
X81162583Y-81827214D01*
X80979779Y-80338394D01*
X80979779Y-80338394D01*
G37*
D10*
G04 #@! TO.P,N1,8*
G04 #@! TO.N,Net-(N1-Pad8)*
X82990000Y-77350000D03*
D11*
G04 #@! TD*
G04 #@! TO.N,Net-(N1-Pad8)*
G04 #@! TO.C,N1*
G36*
X81851940Y-76118205D02*
X84658272Y-77178629D01*
X84128060Y-78581795D01*
X81321728Y-77521371D01*
X81851940Y-76118205D01*
X81851940Y-76118205D01*
G37*
D10*
G04 #@! TO.P,N1,7*
G04 #@! TO.N,Net-(N1-Pad7)*
X85030000Y-74400000D03*
D11*
G04 #@! TD*
G04 #@! TO.N,Net-(N1-Pad7)*
G04 #@! TO.C,N1*
G36*
X84594959Y-72780358D02*
X86586738Y-75023752D01*
X85465041Y-76019642D01*
X83473262Y-73776248D01*
X84594959Y-72780358D01*
X84594959Y-72780358D01*
G37*
D10*
G04 #@! TO.P,N1,6*
G04 #@! TO.N,Net-(N1-Pad6)*
X88200000Y-72720000D03*
D11*
G04 #@! TD*
G04 #@! TO.N,Net-(N1-Pad6)*
G04 #@! TO.C,N1*
G36*
X88567695Y-71083754D02*
X89288379Y-73995904D01*
X87832305Y-74356246D01*
X87111621Y-71444096D01*
X88567695Y-71083754D01*
X88567695Y-71083754D01*
G37*
D10*
G04 #@! TO.P,N1,5*
G04 #@! TO.N,Net-(N1-Pad5)*
X91780000Y-72720000D03*
D11*
G04 #@! TD*
G04 #@! TO.N,Net-(N1-Pad5)*
G04 #@! TO.C,N1*
G36*
X92866151Y-71442199D02*
X92150551Y-74355602D01*
X90693849Y-73997801D01*
X91409449Y-71084398D01*
X92866151Y-71442199D01*
X92866151Y-71442199D01*
G37*
D10*
G04 #@! TO.P,N1,4*
G04 #@! TO.N,Net-(N1-Pad4)*
X94960000Y-74390000D03*
D11*
G04 #@! TD*
G04 #@! TO.N,Net-(N1-Pad4)*
G04 #@! TO.C,N1*
G36*
X96515647Y-73763531D02*
X94527787Y-76010399D01*
X93404353Y-75016469D01*
X95392213Y-72769601D01*
X96515647Y-73763531D01*
X96515647Y-73763531D01*
G37*
D10*
G04 #@! TO.P,N1,3*
G04 #@! TO.N,Net-(N1-Pad3)*
X97010000Y-77340000D03*
D11*
G04 #@! TD*
G04 #@! TO.N,Net-(N1-Pad3)*
G04 #@! TO.C,N1*
G36*
X98678569Y-77508459D02*
X95874092Y-78573780D01*
X95341431Y-77171541D01*
X98145908Y-76106220D01*
X98678569Y-77508459D01*
X98678569Y-77508459D01*
G37*
D10*
G04 #@! TO.P,N1,2*
G04 #@! TO.N,Net-(N1-Pad2)*
X97440000Y-80900000D03*
D11*
G04 #@! TD*
G04 #@! TO.N,Net-(N1-Pad2)*
G04 #@! TO.C,N1*
G36*
X98839033Y-81824773D02*
X95860761Y-81464363D01*
X96040967Y-79975227D01*
X99019239Y-80335637D01*
X98839033Y-81824773D01*
X98839033Y-81824773D01*
G37*
D10*
G04 #@! TO.P,N1,1*
G04 #@! TO.N,Net-(N1-Pad1)*
X96170000Y-84250000D03*
D11*
G04 #@! TD*
G04 #@! TO.N,Net-(N1-Pad1)*
G04 #@! TO.C,N1*
G36*
X96978822Y-85719118D02*
X94509413Y-84015587D01*
X95361178Y-82780882D01*
X97830587Y-84484413D01*
X96978822Y-85719118D01*
X96978822Y-85719118D01*
G37*
D10*
G04 #@! TO.P,N1,LHDP*
G04 #@! TO.N,N/C*
X93480000Y-86640000D03*
D11*
G04 #@! TD*
G04 #@! TO.N,N/C*
G04 #@! TO.C,N1*
G36*
X93513218Y-88316722D02*
X92118692Y-85660541D01*
X93446782Y-84963278D01*
X94841308Y-87619459D01*
X93513218Y-88316722D01*
X93513218Y-88316722D01*
G37*
D12*
G04 #@! TO.P,N1,A*
G04 #@! TO.N,Net-(N1-PadA)*
X90000000Y-87500000D03*
G04 #@! TD*
D13*
G04 #@! TO.P,J3,1*
G04 #@! TO.N,+BATT*
X83396000Y-91430000D03*
D14*
G04 #@! TO.P,J3,2*
G04 #@! TO.N,GND*
X80856000Y-91430000D03*
G04 #@! TD*
G04 #@! TO.P,J4,2*
G04 #@! TO.N,GND*
X77216000Y-85852000D03*
D13*
G04 #@! TO.P,J4,1*
G04 #@! TO.N,+HV*
X77216000Y-83312000D03*
G04 #@! TD*
G04 #@! TO.P,C5,1*
G04 #@! TO.N,GND*
X77808000Y-72380000D03*
D14*
G04 #@! TO.P,C5,2*
G04 #@! TO.N,+BATT*
X77808000Y-74920000D03*
G04 #@! TD*
D15*
G04 #@! TO.N,GND*
X82888000Y-73396000D03*
X89238000Y-77206000D03*
X87206000Y-88636000D03*
X88593000Y-88636000D03*
X96858000Y-93462000D03*
X100414000Y-79238000D03*
X104900000Y-77628000D03*
X81618000Y-71364000D03*
X84920000Y-65014000D03*
X81872000Y-85588000D03*
X80856000Y-82540000D03*
X91778000Y-88128000D03*
X94064000Y-77206000D03*
X94064000Y-89144000D03*
X95080000Y-88382000D03*
X101176000Y-79238000D03*
X93556000Y-73142000D03*
G04 #@! TO.N,+BATT*
X90254942Y-77206942D03*
X100160000Y-92192000D03*
X101175978Y-74666000D03*
X79332000Y-70602000D03*
X99906000Y-88382000D03*
X95334000Y-67046000D03*
X103716000Y-78222000D03*
X101175986Y-80254000D03*
X90092500Y-91430000D03*
G04 #@! TO.N,Net-(C2-Pad1)*
X90000000Y-80000000D03*
X92286000Y-77714000D03*
G04 #@! TO.N,/MISO*
X94572000Y-78983992D03*
X100584000Y-86858000D03*
G04 #@! TO.N,/SCK*
X94064000Y-78222000D03*
X99314000Y-86858010D03*
G04 #@! TO.N,/MOSI*
X94064000Y-79746000D03*
X98636000Y-88382000D03*
G04 #@! TO.N,/RESET*
X86383051Y-84124949D03*
X97874000Y-86858000D03*
X87714000Y-93716000D03*
G04 #@! TO.N,/RXD*
X96858000Y-86858000D03*
X90761978Y-85334000D03*
G04 #@! TO.N,/TXD*
X96350000Y-88381998D03*
X88730000Y-85588006D03*
G04 #@! TO.N,Net-(N1-Pad1)*
X83904000Y-69332000D03*
G04 #@! TO.N,Net-(N1-Pad2)*
X85936000Y-65522000D03*
G04 #@! TO.N,Net-(N1-Pad3)*
X86952000Y-66030000D03*
G04 #@! TO.N,Net-(N1-Pad4)*
X90508000Y-67554000D03*
G04 #@! TO.N,Net-(N1-Pad5)*
X87714872Y-68867792D03*
G04 #@! TO.N,Net-(N1-Pad6)*
X89492000Y-71618016D03*
G04 #@! TO.N,Net-(N1-Pad7)*
X88969824Y-68949344D03*
G04 #@! TO.N,Net-(N1-Pad8)*
X90000000Y-69077956D03*
G04 #@! TO.N,Net-(N1-Pad9)*
X81069439Y-79573337D03*
G04 #@! TO.N,/NIX_ANODE*
X79840032Y-77206000D03*
X86952000Y-83302000D03*
G04 #@! TO.N,/NIX_0*
X83396000Y-87365988D03*
X90254000Y-83556000D03*
G04 #@! TO.N,/SCL*
X90822478Y-82739103D03*
X81364000Y-73396000D03*
X88222000Y-83048000D03*
X97620000Y-78984000D03*
G04 #@! TO.N,/SDA*
X90223992Y-82051988D03*
X96604000Y-79237986D03*
G04 #@! TO.N,/NIX_8*
X84370051Y-87286050D03*
X91016000Y-75936000D03*
G04 #@! TO.N,/NIX_1*
X83904000Y-75682016D03*
X87968000Y-81308027D03*
G04 #@! TO.N,/NIX_2*
X86189974Y-71833987D03*
X87968000Y-80253970D03*
G04 #@! TO.N,/NIX_3*
X87264883Y-76986594D03*
X86189992Y-72888000D03*
G04 #@! TO.N,/NIX_5*
X85936000Y-80004000D03*
X86710500Y-73912329D03*
G04 #@! TO.N,/NIX_6*
X86952000Y-80000000D03*
X90000000Y-72634000D03*
G04 #@! TO.N,/NIX_7*
X83904000Y-86604000D03*
X90000000Y-73650000D03*
G04 #@! TO.N,Net-(N1-Pad0)*
X81110000Y-83555986D03*
G04 #@! TO.N,Net-(N1-PadA)*
X75522000Y-81524000D03*
G04 #@! TO.N,/SW_0*
X97874000Y-69586000D03*
X102192000Y-84826026D03*
G04 #@! TO.N,/SW_1*
X102192000Y-83810000D03*
X84411992Y-67046012D03*
X91016000Y-69077984D03*
G04 #@! TO.N,/INT_ACCEL*
X81618000Y-69332000D03*
X75268000Y-74666000D03*
G04 #@! TD*
D16*
G04 #@! TO.N,GND*
X101209001Y-89110999D02*
X96858000Y-93462000D01*
X101209001Y-86557999D02*
X101209001Y-89110999D01*
X100114001Y-85462999D02*
X101209001Y-86557999D01*
X100414000Y-79238000D02*
X100114001Y-79537999D01*
X100114001Y-79537999D02*
X100114001Y-85462999D01*
X100414000Y-79238000D02*
X101176000Y-79238000D01*
X100414000Y-78730000D02*
X100414000Y-79238000D01*
X101938000Y-77206000D02*
X100414000Y-78730000D01*
X104900000Y-77628000D02*
X104478000Y-77206000D01*
X104478000Y-77206000D02*
X101938000Y-77206000D01*
G04 #@! TO.N,Net-(C2-Pad1)*
X90000000Y-80000000D02*
X92286000Y-77714000D01*
D17*
G04 #@! TO.N,Net-(N1-Pad1)*
X82888000Y-68316000D02*
X83904000Y-69332000D01*
X82126000Y-79238000D02*
X80613999Y-77725999D01*
X84920000Y-78984000D02*
X84666000Y-79238000D01*
X80613999Y-68812001D02*
X81110000Y-68316000D01*
X80613999Y-77725999D02*
X80613999Y-68812001D01*
X84666000Y-79238000D02*
X82126000Y-79238000D01*
X87968000Y-78984000D02*
X84920000Y-78984000D01*
X81110000Y-68316000D02*
X82888000Y-68316000D01*
X95774000Y-84250000D02*
X92540000Y-81016000D01*
X96170000Y-84250000D02*
X95774000Y-84250000D01*
X92540000Y-81016000D02*
X89238000Y-81016000D01*
X89238000Y-81016000D02*
X88984000Y-80762000D01*
X88984000Y-80762000D02*
X88984000Y-80000000D01*
X88984000Y-80000000D02*
X87968000Y-78984000D01*
G04 #@! TO.N,Net-(N1-Pad2)*
X86235999Y-65222001D02*
X85936000Y-65522000D01*
X91732001Y-65222001D02*
X86235999Y-65222001D01*
X98244000Y-80900000D02*
X98890000Y-80254000D01*
X97440000Y-80900000D02*
X98244000Y-80900000D01*
X98890000Y-80254000D02*
X98890000Y-78904013D01*
X98890000Y-78904013D02*
X99906000Y-77888013D01*
X99906000Y-77888013D02*
X99906000Y-73396000D01*
X99906000Y-73396000D02*
X91732001Y-65222001D01*
G04 #@! TO.N,Net-(N1-Pad3)*
X87376264Y-66030000D02*
X86952000Y-66030000D01*
X91270000Y-66030000D02*
X87376264Y-66030000D01*
X97010000Y-77340000D02*
X97010000Y-71770000D01*
X97010000Y-71770000D02*
X91270000Y-66030000D01*
G04 #@! TO.N,Net-(N1-Pad4)*
X91524000Y-67554000D02*
X90508000Y-67554000D01*
X94960000Y-74390000D02*
X94960000Y-70990000D01*
X94960000Y-70990000D02*
X91524000Y-67554000D01*
G04 #@! TO.N,Net-(N1-Pad5)*
X87714000Y-68866920D02*
X87714872Y-68867792D01*
X87714000Y-68824000D02*
X87714000Y-68866920D01*
X87714000Y-68868664D02*
X87714872Y-68867792D01*
X87714000Y-69586000D02*
X87714000Y-68868664D01*
X88476000Y-70348000D02*
X87714000Y-69586000D01*
X91016000Y-70348000D02*
X88476000Y-70348000D01*
X91780000Y-72720000D02*
X91780000Y-71112000D01*
X91780000Y-71112000D02*
X91016000Y-70348000D01*
G04 #@! TO.N,Net-(N1-Pad6)*
X88200000Y-72720000D02*
X89301984Y-71618016D01*
X89301984Y-71618016D02*
X89492000Y-71618016D01*
G04 #@! TO.N,Net-(N1-Pad7)*
X88669825Y-68649345D02*
X88969824Y-68949344D01*
X87828480Y-67808000D02*
X88669825Y-68649345D01*
X84666000Y-74036000D02*
X84666000Y-72126000D01*
X84666000Y-72126000D02*
X86698000Y-70094000D01*
X86698000Y-70094000D02*
X86698000Y-68316000D01*
X85030000Y-74400000D02*
X84666000Y-74036000D01*
X86698000Y-68316000D02*
X87206000Y-67808000D01*
X87206000Y-67808000D02*
X87828480Y-67808000D01*
G04 #@! TO.N,Net-(N1-Pad8)*
X88476000Y-67046000D02*
X90000000Y-68570000D01*
X86698000Y-67046000D02*
X88476000Y-67046000D01*
X82778000Y-77350000D02*
X82114001Y-76686001D01*
X82990000Y-77350000D02*
X82778000Y-77350000D01*
X90000000Y-68570000D02*
X90000000Y-69077956D01*
X82114001Y-76686001D02*
X82114001Y-72645999D01*
X82114001Y-72645999D02*
X85682000Y-69078000D01*
X85682000Y-69078000D02*
X85682000Y-68062000D01*
X85682000Y-68062000D02*
X86698000Y-67046000D01*
D16*
G04 #@! TO.N,Net-(N1-Pad9)*
X81233337Y-79573337D02*
X81069439Y-79573337D01*
D17*
X81069439Y-80213439D02*
X81069439Y-79573337D01*
X82560000Y-80900000D02*
X81756000Y-80900000D01*
X81756000Y-80900000D02*
X81069439Y-80213439D01*
G04 #@! TO.N,Net-(N1-Pad0)*
X82126014Y-84572000D02*
X81110000Y-83555986D01*
X83650000Y-84572000D02*
X82126014Y-84572000D01*
X83840000Y-84270000D02*
X83840000Y-84382000D01*
X83840000Y-84382000D02*
X83650000Y-84572000D01*
D18*
G04 #@! TO.N,Net-(N1-PadA)*
X75821999Y-81224001D02*
X75522000Y-81524000D01*
X78524001Y-81224001D02*
X75821999Y-81224001D01*
X79586000Y-82286000D02*
X78524001Y-81224001D01*
X90000000Y-90000000D02*
X89586000Y-90414000D01*
X90000000Y-87500000D02*
X90000000Y-90000000D01*
X89586000Y-90414000D02*
X87460000Y-90414000D01*
X79586000Y-87620000D02*
X79586000Y-82286000D01*
X87460000Y-90414000D02*
X86190000Y-89144000D01*
X86190000Y-89144000D02*
X81110000Y-89144000D01*
X81110000Y-89144000D02*
X79586000Y-87620000D01*
G04 #@! TD*
D19*
G04 #@! TO.N,GND*
G36*
X92126272Y-63849363D02*
X93664453Y-64127512D01*
X95168893Y-64551808D01*
X96625740Y-65118344D01*
X98021580Y-65821906D01*
X99343560Y-66656013D01*
X100579509Y-67612987D01*
X101718045Y-68684015D01*
X102748687Y-69859237D01*
X103661944Y-71127830D01*
X104449406Y-72478115D01*
X105103825Y-73897659D01*
X105619173Y-75373390D01*
X105990707Y-76891721D01*
X106215004Y-78438673D01*
X106290000Y-80000000D01*
X106274496Y-80710560D01*
X106131467Y-82267130D01*
X105839906Y-83802825D01*
X105402498Y-85303505D01*
X104823269Y-86755353D01*
X104107554Y-88145000D01*
X103261942Y-89459651D01*
X102294219Y-90687202D01*
X101213296Y-91816349D01*
X101068217Y-91941357D01*
X100952655Y-91662365D01*
X100689635Y-91399345D01*
X100345983Y-91257000D01*
X99974017Y-91257000D01*
X99630365Y-91399345D01*
X99367345Y-91662365D01*
X99225000Y-92006017D01*
X99225000Y-92377983D01*
X99367345Y-92721635D01*
X99630365Y-92984655D01*
X99749779Y-93034118D01*
X98752611Y-93738847D01*
X97395505Y-94514496D01*
X95970305Y-95156502D01*
X94490133Y-95658953D01*
X92968617Y-96017222D01*
X91419767Y-96228012D01*
X89857845Y-96289380D01*
X88297231Y-96200762D01*
X86752296Y-95962973D01*
X85237265Y-95578204D01*
X83766087Y-95049998D01*
X82352308Y-94383216D01*
X81008947Y-93584000D01*
X80935324Y-93530017D01*
X86779000Y-93530017D01*
X86779000Y-93901983D01*
X86921345Y-94245635D01*
X87184365Y-94508655D01*
X87528017Y-94651000D01*
X87899983Y-94651000D01*
X88243635Y-94508655D01*
X88506655Y-94245635D01*
X88649000Y-93901983D01*
X88649000Y-93530017D01*
X88506655Y-93186365D01*
X88243635Y-92923345D01*
X87899983Y-92781000D01*
X87528017Y-92781000D01*
X87184365Y-92923345D01*
X86921345Y-93186365D01*
X86779000Y-93530017D01*
X80935324Y-93530017D01*
X79748371Y-92659708D01*
X78770464Y-91786892D01*
X79414514Y-91786892D01*
X79660817Y-92311358D01*
X80089076Y-92701645D01*
X80499110Y-92871476D01*
X80729000Y-92750155D01*
X80729000Y-91557000D01*
X79535181Y-91557000D01*
X79414514Y-91786892D01*
X78770464Y-91786892D01*
X78582188Y-91618850D01*
X77521136Y-90471010D01*
X76574984Y-89226758D01*
X75752445Y-87897549D01*
X75061091Y-86495622D01*
X74952458Y-86208890D01*
X75774524Y-86208890D01*
X75944355Y-86618924D01*
X76334642Y-87047183D01*
X76859108Y-87293486D01*
X77089000Y-87172819D01*
X77089000Y-85979000D01*
X75895845Y-85979000D01*
X75774524Y-86208890D01*
X74952458Y-86208890D01*
X74836934Y-85903970D01*
X76044849Y-84974804D01*
X75944355Y-85085076D01*
X75774524Y-85495110D01*
X75895845Y-85725000D01*
X77089000Y-85725000D01*
X77089000Y-85705000D01*
X77343000Y-85705000D01*
X77343000Y-85725000D01*
X77363000Y-85725000D01*
X77363000Y-85979000D01*
X77343000Y-85979000D01*
X77343000Y-87172819D01*
X77572892Y-87293486D01*
X78097358Y-87047183D01*
X78451000Y-86659134D01*
X78451000Y-87508217D01*
X78428765Y-87620000D01*
X78451000Y-87731782D01*
X78516854Y-88062854D01*
X78767711Y-88438289D01*
X78862481Y-88501613D01*
X80228390Y-89867523D01*
X80291711Y-89962289D01*
X80395315Y-90031515D01*
X80089076Y-90158355D01*
X79660817Y-90548642D01*
X79414514Y-91073108D01*
X79535181Y-91303000D01*
X80729000Y-91303000D01*
X80729000Y-91283000D01*
X80983000Y-91283000D01*
X80983000Y-91303000D01*
X81003000Y-91303000D01*
X81003000Y-91557000D01*
X80983000Y-91557000D01*
X80983000Y-92750155D01*
X81212890Y-92871476D01*
X81622924Y-92701645D01*
X81927261Y-92424292D01*
X81947843Y-92527765D01*
X82088191Y-92737809D01*
X82298235Y-92878157D01*
X82546000Y-92927440D01*
X84246000Y-92927440D01*
X84493765Y-92878157D01*
X84703809Y-92737809D01*
X84844157Y-92527765D01*
X84893440Y-92280000D01*
X84893440Y-90580000D01*
X84844157Y-90332235D01*
X84808586Y-90279000D01*
X85719869Y-90279000D01*
X86578389Y-91137521D01*
X86641711Y-91232289D01*
X87017145Y-91483146D01*
X87459999Y-91571235D01*
X87571782Y-91549000D01*
X89157500Y-91549000D01*
X89157500Y-91615983D01*
X89299845Y-91959635D01*
X89562865Y-92222655D01*
X89906517Y-92365000D01*
X90278483Y-92365000D01*
X90622135Y-92222655D01*
X90885155Y-91959635D01*
X91027500Y-91615983D01*
X91027500Y-91244017D01*
X90885155Y-90900365D01*
X90809171Y-90824381D01*
X90818289Y-90818289D01*
X91069146Y-90442855D01*
X91135000Y-90111783D01*
X91157235Y-90000001D01*
X91135000Y-89888219D01*
X91135000Y-89506459D01*
X91207809Y-89457809D01*
X91348157Y-89247765D01*
X91397440Y-89000000D01*
X91397440Y-86020828D01*
X91525237Y-85893031D01*
X91545453Y-85961498D01*
X92939979Y-88617679D01*
X93098785Y-88814140D01*
X93320686Y-88934872D01*
X93571897Y-88961497D01*
X93814175Y-88889961D01*
X95142265Y-88192698D01*
X95338725Y-88033892D01*
X95459458Y-87811991D01*
X95486083Y-87560780D01*
X95414547Y-87318502D01*
X94020021Y-84662321D01*
X93861215Y-84465860D01*
X93639314Y-84345128D01*
X93388103Y-84318503D01*
X93145825Y-84390039D01*
X91817735Y-85087302D01*
X91696978Y-85184914D01*
X91696978Y-85148017D01*
X91554633Y-84804365D01*
X91291613Y-84541345D01*
X90947961Y-84399000D01*
X90662091Y-84399000D01*
X90783635Y-84348655D01*
X91046655Y-84085635D01*
X91189000Y-83741983D01*
X91189000Y-83599321D01*
X91352113Y-83531758D01*
X91615133Y-83268738D01*
X91757478Y-82925086D01*
X91757478Y-82553120D01*
X91615133Y-82209468D01*
X91352113Y-81946448D01*
X91242392Y-81901000D01*
X92173422Y-81901000D01*
X93959560Y-83687139D01*
X93876357Y-83879872D01*
X93872609Y-84132462D01*
X93965810Y-84367260D01*
X94141768Y-84548518D01*
X96335969Y-86062195D01*
X96328365Y-86065345D01*
X96065345Y-86328365D01*
X95923000Y-86672017D01*
X95923000Y-87043983D01*
X96065345Y-87387635D01*
X96136221Y-87458511D01*
X95820365Y-87589343D01*
X95557345Y-87852363D01*
X95415000Y-88196015D01*
X95415000Y-88567981D01*
X95557345Y-88911633D01*
X95820365Y-89174653D01*
X96164017Y-89316998D01*
X96535983Y-89316998D01*
X96879635Y-89174653D01*
X97142655Y-88911633D01*
X97285000Y-88567981D01*
X97285000Y-88196015D01*
X97142655Y-87852363D01*
X97071779Y-87781487D01*
X97366000Y-87659616D01*
X97688017Y-87793000D01*
X97902710Y-87793000D01*
X97843345Y-87852365D01*
X97701000Y-88196017D01*
X97701000Y-88567983D01*
X97843345Y-88911635D01*
X98106365Y-89174655D01*
X98450017Y-89317000D01*
X98821983Y-89317000D01*
X99165635Y-89174655D01*
X99271000Y-89069290D01*
X99376365Y-89174655D01*
X99720017Y-89317000D01*
X100091983Y-89317000D01*
X100435635Y-89174655D01*
X100698655Y-88911635D01*
X100841000Y-88567983D01*
X100841000Y-88196017D01*
X100698655Y-87852365D01*
X100639290Y-87793000D01*
X100769983Y-87793000D01*
X101113635Y-87650655D01*
X101376655Y-87387635D01*
X101519000Y-87043983D01*
X101519000Y-86672017D01*
X101376655Y-86328365D01*
X101113635Y-86065345D01*
X100769983Y-85923000D01*
X100398017Y-85923000D01*
X100054365Y-86065345D01*
X99948995Y-86170715D01*
X99843635Y-86065355D01*
X99499983Y-85923010D01*
X99128017Y-85923010D01*
X98784365Y-86065355D01*
X98594005Y-86255715D01*
X98403635Y-86065345D01*
X98059983Y-85923000D01*
X97688017Y-85923000D01*
X97599405Y-85959704D01*
X98363519Y-84852057D01*
X98463643Y-84620128D01*
X98467391Y-84367538D01*
X98374190Y-84132740D01*
X98198232Y-83951482D01*
X97723545Y-83624017D01*
X101257000Y-83624017D01*
X101257000Y-83995983D01*
X101390389Y-84318013D01*
X101257000Y-84640043D01*
X101257000Y-85012009D01*
X101399345Y-85355661D01*
X101662365Y-85618681D01*
X102006017Y-85761026D01*
X102377983Y-85761026D01*
X102721635Y-85618681D01*
X102984655Y-85355661D01*
X103127000Y-85012009D01*
X103127000Y-84640043D01*
X102993611Y-84318013D01*
X103127000Y-83995983D01*
X103127000Y-83624017D01*
X102984655Y-83280365D01*
X102721635Y-83017345D01*
X102377983Y-82875000D01*
X102006017Y-82875000D01*
X101662365Y-83017345D01*
X101399345Y-83280365D01*
X101257000Y-83624017D01*
X97723545Y-83624017D01*
X95728823Y-82247951D01*
X95496893Y-82147826D01*
X95244302Y-82144079D01*
X95011905Y-82236326D01*
X93227424Y-80451846D01*
X93178049Y-80377951D01*
X92885310Y-80182348D01*
X92627165Y-80131000D01*
X92627161Y-80131000D01*
X92540000Y-80113663D01*
X92452839Y-80131000D01*
X90943801Y-80131000D01*
X92425802Y-78649000D01*
X92471983Y-78649000D01*
X92815635Y-78506655D01*
X93078655Y-78243635D01*
X93129000Y-78122091D01*
X93129000Y-78407983D01*
X93271345Y-78751635D01*
X93503710Y-78984000D01*
X93271345Y-79216365D01*
X93129000Y-79560017D01*
X93129000Y-79931983D01*
X93271345Y-80275635D01*
X93534365Y-80538655D01*
X93878017Y-80681000D01*
X94249983Y-80681000D01*
X94593635Y-80538655D01*
X94856655Y-80275635D01*
X94999000Y-79931983D01*
X94999000Y-79819160D01*
X95101635Y-79776647D01*
X95364655Y-79513627D01*
X95507000Y-79169975D01*
X95507000Y-79091921D01*
X95608691Y-79164323D01*
X95669000Y-79178191D01*
X95669000Y-79423969D01*
X95678529Y-79446975D01*
X95641474Y-79465734D01*
X95476908Y-79657396D01*
X95398216Y-79897445D01*
X95218010Y-81386581D01*
X95237171Y-81638473D01*
X95351268Y-81863857D01*
X95542930Y-82028422D01*
X95782980Y-82107114D01*
X98761252Y-82467524D01*
X99013142Y-82448363D01*
X99238526Y-82334266D01*
X99403092Y-82142604D01*
X99481784Y-81902555D01*
X99620882Y-80753116D01*
X99723652Y-80599310D01*
X99735717Y-80538655D01*
X99775000Y-80341165D01*
X99775000Y-80341161D01*
X99792337Y-80254000D01*
X99775000Y-80166839D01*
X99775000Y-80068017D01*
X100240986Y-80068017D01*
X100240986Y-80439983D01*
X100383331Y-80783635D01*
X100646351Y-81046655D01*
X100990003Y-81189000D01*
X101361969Y-81189000D01*
X101705621Y-81046655D01*
X101968641Y-80783635D01*
X102110986Y-80439983D01*
X102110986Y-80068017D01*
X101968641Y-79724365D01*
X101705621Y-79461345D01*
X101361969Y-79319000D01*
X100990003Y-79319000D01*
X100646351Y-79461345D01*
X100383331Y-79724365D01*
X100240986Y-80068017D01*
X99775000Y-80068017D01*
X99775000Y-79270591D01*
X100470156Y-78575436D01*
X100544049Y-78526062D01*
X100622948Y-78407983D01*
X100739652Y-78233323D01*
X100756156Y-78150349D01*
X100778898Y-78036017D01*
X102781000Y-78036017D01*
X102781000Y-78407983D01*
X102923345Y-78751635D01*
X103186365Y-79014655D01*
X103530017Y-79157000D01*
X103901983Y-79157000D01*
X104245635Y-79014655D01*
X104508655Y-78751635D01*
X104651000Y-78407983D01*
X104651000Y-78036017D01*
X104508655Y-77692365D01*
X104245635Y-77429345D01*
X103901983Y-77287000D01*
X103530017Y-77287000D01*
X103186365Y-77429345D01*
X102923345Y-77692365D01*
X102781000Y-78036017D01*
X100778898Y-78036017D01*
X100791000Y-77975178D01*
X100791000Y-77975174D01*
X100808337Y-77888013D01*
X100791000Y-77800852D01*
X100791000Y-75518574D01*
X100989995Y-75601000D01*
X101361961Y-75601000D01*
X101705613Y-75458655D01*
X101968633Y-75195635D01*
X102110978Y-74851983D01*
X102110978Y-74480017D01*
X101968633Y-74136365D01*
X101705613Y-73873345D01*
X101361961Y-73731000D01*
X100989995Y-73731000D01*
X100791000Y-73813426D01*
X100791000Y-73483159D01*
X100808337Y-73395999D01*
X100791000Y-73308839D01*
X100791000Y-73308835D01*
X100739652Y-73050690D01*
X100659129Y-72930179D01*
X100593424Y-72831845D01*
X100593423Y-72831844D01*
X100544049Y-72757951D01*
X100470156Y-72708577D01*
X98217382Y-70455803D01*
X98403635Y-70378655D01*
X98666655Y-70115635D01*
X98809000Y-69771983D01*
X98809000Y-69400017D01*
X98666655Y-69056365D01*
X98403635Y-68793345D01*
X98059983Y-68651000D01*
X97688017Y-68651000D01*
X97344365Y-68793345D01*
X97081345Y-69056365D01*
X97004197Y-69242618D01*
X95677382Y-67915803D01*
X95863635Y-67838655D01*
X96126655Y-67575635D01*
X96269000Y-67231983D01*
X96269000Y-66860017D01*
X96126655Y-66516365D01*
X95863635Y-66253345D01*
X95519983Y-66111000D01*
X95148017Y-66111000D01*
X94804365Y-66253345D01*
X94541345Y-66516365D01*
X94464197Y-66702618D01*
X92419426Y-64657848D01*
X92370050Y-64583952D01*
X92077311Y-64388349D01*
X91819166Y-64337001D01*
X91819162Y-64337001D01*
X91732001Y-64319664D01*
X91644840Y-64337001D01*
X86323160Y-64337001D01*
X86235999Y-64319664D01*
X86148838Y-64337001D01*
X86148834Y-64337001D01*
X85890689Y-64388349D01*
X85597950Y-64583952D01*
X85548574Y-64657848D01*
X85527078Y-64679344D01*
X85406365Y-64729345D01*
X85143345Y-64992365D01*
X85001000Y-65336017D01*
X85001000Y-65707983D01*
X85143345Y-66051635D01*
X85406365Y-66314655D01*
X85750017Y-66457000D01*
X86027177Y-66457000D01*
X86010577Y-66481844D01*
X85346992Y-67145430D01*
X85346992Y-66860029D01*
X85204647Y-66516377D01*
X84941627Y-66253357D01*
X84597975Y-66111012D01*
X84226009Y-66111012D01*
X83882357Y-66253357D01*
X83619337Y-66516377D01*
X83476992Y-66860029D01*
X83476992Y-67231995D01*
X83619337Y-67575647D01*
X83882357Y-67838667D01*
X84226009Y-67981012D01*
X84597975Y-67981012D01*
X84813532Y-67891726D01*
X84779663Y-68062000D01*
X84797001Y-68149165D01*
X84797000Y-68711421D01*
X84699409Y-68809013D01*
X84696655Y-68802365D01*
X84433635Y-68539345D01*
X84312924Y-68489345D01*
X83575424Y-67751846D01*
X83526049Y-67677951D01*
X83233310Y-67482348D01*
X82975165Y-67431000D01*
X82975161Y-67431000D01*
X82888000Y-67413663D01*
X82800839Y-67431000D01*
X81197159Y-67431000D01*
X81109999Y-67413663D01*
X81022839Y-67431000D01*
X81022835Y-67431000D01*
X80764690Y-67482348D01*
X80471951Y-67677951D01*
X80422576Y-67751846D01*
X80049844Y-68124578D01*
X79975951Y-68173952D01*
X79926577Y-68247845D01*
X79926575Y-68247847D01*
X79780347Y-68466692D01*
X79711662Y-68812001D01*
X79729000Y-68899166D01*
X79729000Y-69754406D01*
X79517983Y-69667000D01*
X79146017Y-69667000D01*
X78802365Y-69809345D01*
X78539345Y-70072365D01*
X78397000Y-70416017D01*
X78397000Y-70787983D01*
X78441328Y-70895000D01*
X78093750Y-70895000D01*
X77935000Y-71053750D01*
X77935000Y-72253000D01*
X79134250Y-72253000D01*
X79293000Y-72094250D01*
X79293000Y-71537000D01*
X79517983Y-71537000D01*
X79729000Y-71449594D01*
X79728999Y-76271000D01*
X79654049Y-76271000D01*
X79310397Y-76413345D01*
X79047377Y-76676365D01*
X78947941Y-76916425D01*
X78405803Y-76374287D01*
X78364601Y-76346757D01*
X78316000Y-76337090D01*
X78295664Y-76337090D01*
X78387418Y-76318839D01*
X78878625Y-75990625D01*
X79206839Y-75499418D01*
X79322092Y-74920000D01*
X79206839Y-74340582D01*
X78878625Y-73849375D01*
X78856967Y-73834904D01*
X79017698Y-73768327D01*
X79196327Y-73589699D01*
X79293000Y-73356310D01*
X79293000Y-72665750D01*
X79134250Y-72507000D01*
X77935000Y-72507000D01*
X77935000Y-72527000D01*
X77681000Y-72527000D01*
X77681000Y-72507000D01*
X76481750Y-72507000D01*
X76323000Y-72665750D01*
X76323000Y-73356310D01*
X76419673Y-73589699D01*
X76598302Y-73768327D01*
X76759033Y-73834904D01*
X76737375Y-73849375D01*
X76409161Y-74340582D01*
X76293908Y-74920000D01*
X76409161Y-75499418D01*
X76737375Y-75990625D01*
X77228582Y-76318839D01*
X77320336Y-76337090D01*
X75574872Y-76337090D01*
X74450480Y-75204613D01*
X74462940Y-75165687D01*
X74475345Y-75195635D01*
X74738365Y-75458655D01*
X75082017Y-75601000D01*
X75453983Y-75601000D01*
X75797635Y-75458655D01*
X76060655Y-75195635D01*
X76203000Y-74851983D01*
X76203000Y-74480017D01*
X76060655Y-74136365D01*
X75797635Y-73873345D01*
X75453983Y-73731000D01*
X75082017Y-73731000D01*
X74962751Y-73780401D01*
X75358645Y-72858934D01*
X76110492Y-71488498D01*
X76168235Y-71403690D01*
X76323000Y-71403690D01*
X76323000Y-72094250D01*
X76481750Y-72253000D01*
X77681000Y-72253000D01*
X77681000Y-71053750D01*
X77522250Y-70895000D01*
X76831691Y-70895000D01*
X76598302Y-70991673D01*
X76419673Y-71170301D01*
X76323000Y-71403690D01*
X76168235Y-71403690D01*
X76990228Y-70196433D01*
X77989752Y-68994636D01*
X79099862Y-67894171D01*
X80310337Y-66905172D01*
X81610030Y-66036745D01*
X82986974Y-65296886D01*
X84428492Y-64692407D01*
X85921310Y-64228875D01*
X87451683Y-63910557D01*
X89005519Y-63740384D01*
X90568513Y-63719923D01*
X92126272Y-63849363D01*
X92126272Y-63849363D01*
G37*
X92126272Y-63849363D02*
X93664453Y-64127512D01*
X95168893Y-64551808D01*
X96625740Y-65118344D01*
X98021580Y-65821906D01*
X99343560Y-66656013D01*
X100579509Y-67612987D01*
X101718045Y-68684015D01*
X102748687Y-69859237D01*
X103661944Y-71127830D01*
X104449406Y-72478115D01*
X105103825Y-73897659D01*
X105619173Y-75373390D01*
X105990707Y-76891721D01*
X106215004Y-78438673D01*
X106290000Y-80000000D01*
X106274496Y-80710560D01*
X106131467Y-82267130D01*
X105839906Y-83802825D01*
X105402498Y-85303505D01*
X104823269Y-86755353D01*
X104107554Y-88145000D01*
X103261942Y-89459651D01*
X102294219Y-90687202D01*
X101213296Y-91816349D01*
X101068217Y-91941357D01*
X100952655Y-91662365D01*
X100689635Y-91399345D01*
X100345983Y-91257000D01*
X99974017Y-91257000D01*
X99630365Y-91399345D01*
X99367345Y-91662365D01*
X99225000Y-92006017D01*
X99225000Y-92377983D01*
X99367345Y-92721635D01*
X99630365Y-92984655D01*
X99749779Y-93034118D01*
X98752611Y-93738847D01*
X97395505Y-94514496D01*
X95970305Y-95156502D01*
X94490133Y-95658953D01*
X92968617Y-96017222D01*
X91419767Y-96228012D01*
X89857845Y-96289380D01*
X88297231Y-96200762D01*
X86752296Y-95962973D01*
X85237265Y-95578204D01*
X83766087Y-95049998D01*
X82352308Y-94383216D01*
X81008947Y-93584000D01*
X80935324Y-93530017D01*
X86779000Y-93530017D01*
X86779000Y-93901983D01*
X86921345Y-94245635D01*
X87184365Y-94508655D01*
X87528017Y-94651000D01*
X87899983Y-94651000D01*
X88243635Y-94508655D01*
X88506655Y-94245635D01*
X88649000Y-93901983D01*
X88649000Y-93530017D01*
X88506655Y-93186365D01*
X88243635Y-92923345D01*
X87899983Y-92781000D01*
X87528017Y-92781000D01*
X87184365Y-92923345D01*
X86921345Y-93186365D01*
X86779000Y-93530017D01*
X80935324Y-93530017D01*
X79748371Y-92659708D01*
X78770464Y-91786892D01*
X79414514Y-91786892D01*
X79660817Y-92311358D01*
X80089076Y-92701645D01*
X80499110Y-92871476D01*
X80729000Y-92750155D01*
X80729000Y-91557000D01*
X79535181Y-91557000D01*
X79414514Y-91786892D01*
X78770464Y-91786892D01*
X78582188Y-91618850D01*
X77521136Y-90471010D01*
X76574984Y-89226758D01*
X75752445Y-87897549D01*
X75061091Y-86495622D01*
X74952458Y-86208890D01*
X75774524Y-86208890D01*
X75944355Y-86618924D01*
X76334642Y-87047183D01*
X76859108Y-87293486D01*
X77089000Y-87172819D01*
X77089000Y-85979000D01*
X75895845Y-85979000D01*
X75774524Y-86208890D01*
X74952458Y-86208890D01*
X74836934Y-85903970D01*
X76044849Y-84974804D01*
X75944355Y-85085076D01*
X75774524Y-85495110D01*
X75895845Y-85725000D01*
X77089000Y-85725000D01*
X77089000Y-85705000D01*
X77343000Y-85705000D01*
X77343000Y-85725000D01*
X77363000Y-85725000D01*
X77363000Y-85979000D01*
X77343000Y-85979000D01*
X77343000Y-87172819D01*
X77572892Y-87293486D01*
X78097358Y-87047183D01*
X78451000Y-86659134D01*
X78451000Y-87508217D01*
X78428765Y-87620000D01*
X78451000Y-87731782D01*
X78516854Y-88062854D01*
X78767711Y-88438289D01*
X78862481Y-88501613D01*
X80228390Y-89867523D01*
X80291711Y-89962289D01*
X80395315Y-90031515D01*
X80089076Y-90158355D01*
X79660817Y-90548642D01*
X79414514Y-91073108D01*
X79535181Y-91303000D01*
X80729000Y-91303000D01*
X80729000Y-91283000D01*
X80983000Y-91283000D01*
X80983000Y-91303000D01*
X81003000Y-91303000D01*
X81003000Y-91557000D01*
X80983000Y-91557000D01*
X80983000Y-92750155D01*
X81212890Y-92871476D01*
X81622924Y-92701645D01*
X81927261Y-92424292D01*
X81947843Y-92527765D01*
X82088191Y-92737809D01*
X82298235Y-92878157D01*
X82546000Y-92927440D01*
X84246000Y-92927440D01*
X84493765Y-92878157D01*
X84703809Y-92737809D01*
X84844157Y-92527765D01*
X84893440Y-92280000D01*
X84893440Y-90580000D01*
X84844157Y-90332235D01*
X84808586Y-90279000D01*
X85719869Y-90279000D01*
X86578389Y-91137521D01*
X86641711Y-91232289D01*
X87017145Y-91483146D01*
X87459999Y-91571235D01*
X87571782Y-91549000D01*
X89157500Y-91549000D01*
X89157500Y-91615983D01*
X89299845Y-91959635D01*
X89562865Y-92222655D01*
X89906517Y-92365000D01*
X90278483Y-92365000D01*
X90622135Y-92222655D01*
X90885155Y-91959635D01*
X91027500Y-91615983D01*
X91027500Y-91244017D01*
X90885155Y-90900365D01*
X90809171Y-90824381D01*
X90818289Y-90818289D01*
X91069146Y-90442855D01*
X91135000Y-90111783D01*
X91157235Y-90000001D01*
X91135000Y-89888219D01*
X91135000Y-89506459D01*
X91207809Y-89457809D01*
X91348157Y-89247765D01*
X91397440Y-89000000D01*
X91397440Y-86020828D01*
X91525237Y-85893031D01*
X91545453Y-85961498D01*
X92939979Y-88617679D01*
X93098785Y-88814140D01*
X93320686Y-88934872D01*
X93571897Y-88961497D01*
X93814175Y-88889961D01*
X95142265Y-88192698D01*
X95338725Y-88033892D01*
X95459458Y-87811991D01*
X95486083Y-87560780D01*
X95414547Y-87318502D01*
X94020021Y-84662321D01*
X93861215Y-84465860D01*
X93639314Y-84345128D01*
X93388103Y-84318503D01*
X93145825Y-84390039D01*
X91817735Y-85087302D01*
X91696978Y-85184914D01*
X91696978Y-85148017D01*
X91554633Y-84804365D01*
X91291613Y-84541345D01*
X90947961Y-84399000D01*
X90662091Y-84399000D01*
X90783635Y-84348655D01*
X91046655Y-84085635D01*
X91189000Y-83741983D01*
X91189000Y-83599321D01*
X91352113Y-83531758D01*
X91615133Y-83268738D01*
X91757478Y-82925086D01*
X91757478Y-82553120D01*
X91615133Y-82209468D01*
X91352113Y-81946448D01*
X91242392Y-81901000D01*
X92173422Y-81901000D01*
X93959560Y-83687139D01*
X93876357Y-83879872D01*
X93872609Y-84132462D01*
X93965810Y-84367260D01*
X94141768Y-84548518D01*
X96335969Y-86062195D01*
X96328365Y-86065345D01*
X96065345Y-86328365D01*
X95923000Y-86672017D01*
X95923000Y-87043983D01*
X96065345Y-87387635D01*
X96136221Y-87458511D01*
X95820365Y-87589343D01*
X95557345Y-87852363D01*
X95415000Y-88196015D01*
X95415000Y-88567981D01*
X95557345Y-88911633D01*
X95820365Y-89174653D01*
X96164017Y-89316998D01*
X96535983Y-89316998D01*
X96879635Y-89174653D01*
X97142655Y-88911633D01*
X97285000Y-88567981D01*
X97285000Y-88196015D01*
X97142655Y-87852363D01*
X97071779Y-87781487D01*
X97366000Y-87659616D01*
X97688017Y-87793000D01*
X97902710Y-87793000D01*
X97843345Y-87852365D01*
X97701000Y-88196017D01*
X97701000Y-88567983D01*
X97843345Y-88911635D01*
X98106365Y-89174655D01*
X98450017Y-89317000D01*
X98821983Y-89317000D01*
X99165635Y-89174655D01*
X99271000Y-89069290D01*
X99376365Y-89174655D01*
X99720017Y-89317000D01*
X100091983Y-89317000D01*
X100435635Y-89174655D01*
X100698655Y-88911635D01*
X100841000Y-88567983D01*
X100841000Y-88196017D01*
X100698655Y-87852365D01*
X100639290Y-87793000D01*
X100769983Y-87793000D01*
X101113635Y-87650655D01*
X101376655Y-87387635D01*
X101519000Y-87043983D01*
X101519000Y-86672017D01*
X101376655Y-86328365D01*
X101113635Y-86065345D01*
X100769983Y-85923000D01*
X100398017Y-85923000D01*
X100054365Y-86065345D01*
X99948995Y-86170715D01*
X99843635Y-86065355D01*
X99499983Y-85923010D01*
X99128017Y-85923010D01*
X98784365Y-86065355D01*
X98594005Y-86255715D01*
X98403635Y-86065345D01*
X98059983Y-85923000D01*
X97688017Y-85923000D01*
X97599405Y-85959704D01*
X98363519Y-84852057D01*
X98463643Y-84620128D01*
X98467391Y-84367538D01*
X98374190Y-84132740D01*
X98198232Y-83951482D01*
X97723545Y-83624017D01*
X101257000Y-83624017D01*
X101257000Y-83995983D01*
X101390389Y-84318013D01*
X101257000Y-84640043D01*
X101257000Y-85012009D01*
X101399345Y-85355661D01*
X101662365Y-85618681D01*
X102006017Y-85761026D01*
X102377983Y-85761026D01*
X102721635Y-85618681D01*
X102984655Y-85355661D01*
X103127000Y-85012009D01*
X103127000Y-84640043D01*
X102993611Y-84318013D01*
X103127000Y-83995983D01*
X103127000Y-83624017D01*
X102984655Y-83280365D01*
X102721635Y-83017345D01*
X102377983Y-82875000D01*
X102006017Y-82875000D01*
X101662365Y-83017345D01*
X101399345Y-83280365D01*
X101257000Y-83624017D01*
X97723545Y-83624017D01*
X95728823Y-82247951D01*
X95496893Y-82147826D01*
X95244302Y-82144079D01*
X95011905Y-82236326D01*
X93227424Y-80451846D01*
X93178049Y-80377951D01*
X92885310Y-80182348D01*
X92627165Y-80131000D01*
X92627161Y-80131000D01*
X92540000Y-80113663D01*
X92452839Y-80131000D01*
X90943801Y-80131000D01*
X92425802Y-78649000D01*
X92471983Y-78649000D01*
X92815635Y-78506655D01*
X93078655Y-78243635D01*
X93129000Y-78122091D01*
X93129000Y-78407983D01*
X93271345Y-78751635D01*
X93503710Y-78984000D01*
X93271345Y-79216365D01*
X93129000Y-79560017D01*
X93129000Y-79931983D01*
X93271345Y-80275635D01*
X93534365Y-80538655D01*
X93878017Y-80681000D01*
X94249983Y-80681000D01*
X94593635Y-80538655D01*
X94856655Y-80275635D01*
X94999000Y-79931983D01*
X94999000Y-79819160D01*
X95101635Y-79776647D01*
X95364655Y-79513627D01*
X95507000Y-79169975D01*
X95507000Y-79091921D01*
X95608691Y-79164323D01*
X95669000Y-79178191D01*
X95669000Y-79423969D01*
X95678529Y-79446975D01*
X95641474Y-79465734D01*
X95476908Y-79657396D01*
X95398216Y-79897445D01*
X95218010Y-81386581D01*
X95237171Y-81638473D01*
X95351268Y-81863857D01*
X95542930Y-82028422D01*
X95782980Y-82107114D01*
X98761252Y-82467524D01*
X99013142Y-82448363D01*
X99238526Y-82334266D01*
X99403092Y-82142604D01*
X99481784Y-81902555D01*
X99620882Y-80753116D01*
X99723652Y-80599310D01*
X99735717Y-80538655D01*
X99775000Y-80341165D01*
X99775000Y-80341161D01*
X99792337Y-80254000D01*
X99775000Y-80166839D01*
X99775000Y-80068017D01*
X100240986Y-80068017D01*
X100240986Y-80439983D01*
X100383331Y-80783635D01*
X100646351Y-81046655D01*
X100990003Y-81189000D01*
X101361969Y-81189000D01*
X101705621Y-81046655D01*
X101968641Y-80783635D01*
X102110986Y-80439983D01*
X102110986Y-80068017D01*
X101968641Y-79724365D01*
X101705621Y-79461345D01*
X101361969Y-79319000D01*
X100990003Y-79319000D01*
X100646351Y-79461345D01*
X100383331Y-79724365D01*
X100240986Y-80068017D01*
X99775000Y-80068017D01*
X99775000Y-79270591D01*
X100470156Y-78575436D01*
X100544049Y-78526062D01*
X100622948Y-78407983D01*
X100739652Y-78233323D01*
X100756156Y-78150349D01*
X100778898Y-78036017D01*
X102781000Y-78036017D01*
X102781000Y-78407983D01*
X102923345Y-78751635D01*
X103186365Y-79014655D01*
X103530017Y-79157000D01*
X103901983Y-79157000D01*
X104245635Y-79014655D01*
X104508655Y-78751635D01*
X104651000Y-78407983D01*
X104651000Y-78036017D01*
X104508655Y-77692365D01*
X104245635Y-77429345D01*
X103901983Y-77287000D01*
X103530017Y-77287000D01*
X103186365Y-77429345D01*
X102923345Y-77692365D01*
X102781000Y-78036017D01*
X100778898Y-78036017D01*
X100791000Y-77975178D01*
X100791000Y-77975174D01*
X100808337Y-77888013D01*
X100791000Y-77800852D01*
X100791000Y-75518574D01*
X100989995Y-75601000D01*
X101361961Y-75601000D01*
X101705613Y-75458655D01*
X101968633Y-75195635D01*
X102110978Y-74851983D01*
X102110978Y-74480017D01*
X101968633Y-74136365D01*
X101705613Y-73873345D01*
X101361961Y-73731000D01*
X100989995Y-73731000D01*
X100791000Y-73813426D01*
X100791000Y-73483159D01*
X100808337Y-73395999D01*
X100791000Y-73308839D01*
X100791000Y-73308835D01*
X100739652Y-73050690D01*
X100659129Y-72930179D01*
X100593424Y-72831845D01*
X100593423Y-72831844D01*
X100544049Y-72757951D01*
X100470156Y-72708577D01*
X98217382Y-70455803D01*
X98403635Y-70378655D01*
X98666655Y-70115635D01*
X98809000Y-69771983D01*
X98809000Y-69400017D01*
X98666655Y-69056365D01*
X98403635Y-68793345D01*
X98059983Y-68651000D01*
X97688017Y-68651000D01*
X97344365Y-68793345D01*
X97081345Y-69056365D01*
X97004197Y-69242618D01*
X95677382Y-67915803D01*
X95863635Y-67838655D01*
X96126655Y-67575635D01*
X96269000Y-67231983D01*
X96269000Y-66860017D01*
X96126655Y-66516365D01*
X95863635Y-66253345D01*
X95519983Y-66111000D01*
X95148017Y-66111000D01*
X94804365Y-66253345D01*
X94541345Y-66516365D01*
X94464197Y-66702618D01*
X92419426Y-64657848D01*
X92370050Y-64583952D01*
X92077311Y-64388349D01*
X91819166Y-64337001D01*
X91819162Y-64337001D01*
X91732001Y-64319664D01*
X91644840Y-64337001D01*
X86323160Y-64337001D01*
X86235999Y-64319664D01*
X86148838Y-64337001D01*
X86148834Y-64337001D01*
X85890689Y-64388349D01*
X85597950Y-64583952D01*
X85548574Y-64657848D01*
X85527078Y-64679344D01*
X85406365Y-64729345D01*
X85143345Y-64992365D01*
X85001000Y-65336017D01*
X85001000Y-65707983D01*
X85143345Y-66051635D01*
X85406365Y-66314655D01*
X85750017Y-66457000D01*
X86027177Y-66457000D01*
X86010577Y-66481844D01*
X85346992Y-67145430D01*
X85346992Y-66860029D01*
X85204647Y-66516377D01*
X84941627Y-66253357D01*
X84597975Y-66111012D01*
X84226009Y-66111012D01*
X83882357Y-66253357D01*
X83619337Y-66516377D01*
X83476992Y-66860029D01*
X83476992Y-67231995D01*
X83619337Y-67575647D01*
X83882357Y-67838667D01*
X84226009Y-67981012D01*
X84597975Y-67981012D01*
X84813532Y-67891726D01*
X84779663Y-68062000D01*
X84797001Y-68149165D01*
X84797000Y-68711421D01*
X84699409Y-68809013D01*
X84696655Y-68802365D01*
X84433635Y-68539345D01*
X84312924Y-68489345D01*
X83575424Y-67751846D01*
X83526049Y-67677951D01*
X83233310Y-67482348D01*
X82975165Y-67431000D01*
X82975161Y-67431000D01*
X82888000Y-67413663D01*
X82800839Y-67431000D01*
X81197159Y-67431000D01*
X81109999Y-67413663D01*
X81022839Y-67431000D01*
X81022835Y-67431000D01*
X80764690Y-67482348D01*
X80471951Y-67677951D01*
X80422576Y-67751846D01*
X80049844Y-68124578D01*
X79975951Y-68173952D01*
X79926577Y-68247845D01*
X79926575Y-68247847D01*
X79780347Y-68466692D01*
X79711662Y-68812001D01*
X79729000Y-68899166D01*
X79729000Y-69754406D01*
X79517983Y-69667000D01*
X79146017Y-69667000D01*
X78802365Y-69809345D01*
X78539345Y-70072365D01*
X78397000Y-70416017D01*
X78397000Y-70787983D01*
X78441328Y-70895000D01*
X78093750Y-70895000D01*
X77935000Y-71053750D01*
X77935000Y-72253000D01*
X79134250Y-72253000D01*
X79293000Y-72094250D01*
X79293000Y-71537000D01*
X79517983Y-71537000D01*
X79729000Y-71449594D01*
X79728999Y-76271000D01*
X79654049Y-76271000D01*
X79310397Y-76413345D01*
X79047377Y-76676365D01*
X78947941Y-76916425D01*
X78405803Y-76374287D01*
X78364601Y-76346757D01*
X78316000Y-76337090D01*
X78295664Y-76337090D01*
X78387418Y-76318839D01*
X78878625Y-75990625D01*
X79206839Y-75499418D01*
X79322092Y-74920000D01*
X79206839Y-74340582D01*
X78878625Y-73849375D01*
X78856967Y-73834904D01*
X79017698Y-73768327D01*
X79196327Y-73589699D01*
X79293000Y-73356310D01*
X79293000Y-72665750D01*
X79134250Y-72507000D01*
X77935000Y-72507000D01*
X77935000Y-72527000D01*
X77681000Y-72527000D01*
X77681000Y-72507000D01*
X76481750Y-72507000D01*
X76323000Y-72665750D01*
X76323000Y-73356310D01*
X76419673Y-73589699D01*
X76598302Y-73768327D01*
X76759033Y-73834904D01*
X76737375Y-73849375D01*
X76409161Y-74340582D01*
X76293908Y-74920000D01*
X76409161Y-75499418D01*
X76737375Y-75990625D01*
X77228582Y-76318839D01*
X77320336Y-76337090D01*
X75574872Y-76337090D01*
X74450480Y-75204613D01*
X74462940Y-75165687D01*
X74475345Y-75195635D01*
X74738365Y-75458655D01*
X75082017Y-75601000D01*
X75453983Y-75601000D01*
X75797635Y-75458655D01*
X76060655Y-75195635D01*
X76203000Y-74851983D01*
X76203000Y-74480017D01*
X76060655Y-74136365D01*
X75797635Y-73873345D01*
X75453983Y-73731000D01*
X75082017Y-73731000D01*
X74962751Y-73780401D01*
X75358645Y-72858934D01*
X76110492Y-71488498D01*
X76168235Y-71403690D01*
X76323000Y-71403690D01*
X76323000Y-72094250D01*
X76481750Y-72253000D01*
X77681000Y-72253000D01*
X77681000Y-71053750D01*
X77522250Y-70895000D01*
X76831691Y-70895000D01*
X76598302Y-70991673D01*
X76419673Y-71170301D01*
X76323000Y-71403690D01*
X76168235Y-71403690D01*
X76990228Y-70196433D01*
X77989752Y-68994636D01*
X79099862Y-67894171D01*
X80310337Y-66905172D01*
X81610030Y-66036745D01*
X82986974Y-65296886D01*
X84428492Y-64692407D01*
X85921310Y-64228875D01*
X87451683Y-63910557D01*
X89005519Y-63740384D01*
X90568513Y-63719923D01*
X92126272Y-63849363D01*
G36*
X88544017Y-86523006D02*
X88602560Y-86523006D01*
X88602560Y-89000000D01*
X88651843Y-89247765D01*
X88672714Y-89279000D01*
X87930132Y-89279000D01*
X87140209Y-88489078D01*
X88234970Y-86394995D01*
X88544017Y-86523006D01*
X88544017Y-86523006D01*
G37*
X88544017Y-86523006D02*
X88602560Y-86523006D01*
X88602560Y-89000000D01*
X88651843Y-89247765D01*
X88672714Y-89279000D01*
X87930132Y-89279000D01*
X87140209Y-88489078D01*
X88234970Y-86394995D01*
X88544017Y-86523006D01*
G36*
X81438591Y-85136156D02*
X81487965Y-85210049D01*
X81561858Y-85259423D01*
X81561859Y-85259424D01*
X81775003Y-85401843D01*
X81780704Y-85405652D01*
X82038849Y-85457000D01*
X82038853Y-85457000D01*
X82051685Y-85459552D01*
X82501455Y-86109102D01*
X82683020Y-86284743D01*
X82917980Y-86377534D01*
X82986237Y-86376402D01*
X82969000Y-86418017D01*
X82969000Y-86530820D01*
X82866365Y-86573333D01*
X82603345Y-86836353D01*
X82461000Y-87180005D01*
X82461000Y-87551971D01*
X82603345Y-87895623D01*
X82716722Y-88009000D01*
X81580133Y-88009000D01*
X80721000Y-87149869D01*
X80721000Y-84418564D01*
X81438591Y-85136156D01*
X81438591Y-85136156D01*
G37*
X81438591Y-85136156D02*
X81487965Y-85210049D01*
X81561858Y-85259423D01*
X81561859Y-85259424D01*
X81775003Y-85401843D01*
X81780704Y-85405652D01*
X82038849Y-85457000D01*
X82038853Y-85457000D01*
X82051685Y-85459552D01*
X82501455Y-86109102D01*
X82683020Y-86284743D01*
X82917980Y-86377534D01*
X82986237Y-86376402D01*
X82969000Y-86418017D01*
X82969000Y-86530820D01*
X82866365Y-86573333D01*
X82603345Y-86836353D01*
X82461000Y-87180005D01*
X82461000Y-87551971D01*
X82603345Y-87895623D01*
X82716722Y-88009000D01*
X81580133Y-88009000D01*
X80721000Y-87149869D01*
X80721000Y-84418564D01*
X81438591Y-85136156D01*
G36*
X85001000Y-80189983D02*
X85143345Y-80533635D01*
X85406365Y-80796655D01*
X85750017Y-80939000D01*
X86121983Y-80939000D01*
X86448828Y-80803616D01*
X86766017Y-80935000D01*
X87110476Y-80935000D01*
X87033000Y-81122044D01*
X87033000Y-81494010D01*
X87175345Y-81837662D01*
X87438365Y-82100682D01*
X87752060Y-82230619D01*
X87692365Y-82255345D01*
X87451038Y-82496672D01*
X87137983Y-82367000D01*
X86766017Y-82367000D01*
X86422365Y-82509345D01*
X86159345Y-82772365D01*
X86017000Y-83116017D01*
X86017000Y-83264535D01*
X85853416Y-83332294D01*
X85823451Y-83362259D01*
X85178545Y-82430898D01*
X84996980Y-82255257D01*
X84762020Y-82162466D01*
X84509436Y-82166655D01*
X84277682Y-82267184D01*
X82384014Y-83578421D01*
X81952656Y-83147063D01*
X81902655Y-83026351D01*
X81639635Y-82763331D01*
X81295983Y-82620986D01*
X80924017Y-82620986D01*
X80721000Y-82705078D01*
X80721000Y-82397781D01*
X80738818Y-82308203D01*
X80763979Y-82337404D01*
X80989562Y-82451107D01*
X81241486Y-82469828D01*
X84219124Y-82104220D01*
X84459036Y-82025109D01*
X84650411Y-81860210D01*
X84764114Y-81634627D01*
X84782835Y-81382703D01*
X84629398Y-80133056D01*
X84666000Y-80140337D01*
X84753161Y-80123000D01*
X84753165Y-80123000D01*
X85001000Y-80073703D01*
X85001000Y-80189983D01*
X85001000Y-80189983D01*
G37*
X85001000Y-80189983D02*
X85143345Y-80533635D01*
X85406365Y-80796655D01*
X85750017Y-80939000D01*
X86121983Y-80939000D01*
X86448828Y-80803616D01*
X86766017Y-80935000D01*
X87110476Y-80935000D01*
X87033000Y-81122044D01*
X87033000Y-81494010D01*
X87175345Y-81837662D01*
X87438365Y-82100682D01*
X87752060Y-82230619D01*
X87692365Y-82255345D01*
X87451038Y-82496672D01*
X87137983Y-82367000D01*
X86766017Y-82367000D01*
X86422365Y-82509345D01*
X86159345Y-82772365D01*
X86017000Y-83116017D01*
X86017000Y-83264535D01*
X85853416Y-83332294D01*
X85823451Y-83362259D01*
X85178545Y-82430898D01*
X84996980Y-82255257D01*
X84762020Y-82162466D01*
X84509436Y-82166655D01*
X84277682Y-82267184D01*
X82384014Y-83578421D01*
X81952656Y-83147063D01*
X81902655Y-83026351D01*
X81639635Y-82763331D01*
X81295983Y-82620986D01*
X80924017Y-82620986D01*
X80721000Y-82705078D01*
X80721000Y-82397781D01*
X80738818Y-82308203D01*
X80763979Y-82337404D01*
X80989562Y-82451107D01*
X81241486Y-82469828D01*
X84219124Y-82104220D01*
X84459036Y-82025109D01*
X84650411Y-81860210D01*
X84764114Y-81634627D01*
X84782835Y-81382703D01*
X84629398Y-80133056D01*
X84666000Y-80140337D01*
X84753161Y-80123000D01*
X84753165Y-80123000D01*
X85001000Y-80073703D01*
X85001000Y-80189983D01*
G36*
X94075001Y-71356580D02*
X94075000Y-73281348D01*
X92919449Y-74587462D01*
X92792186Y-74805683D01*
X92758121Y-75055994D01*
X92822438Y-75300288D01*
X92975346Y-75501373D01*
X94098780Y-76495303D01*
X94317001Y-76622566D01*
X94567312Y-76656631D01*
X94811606Y-76592314D01*
X95012691Y-76439406D01*
X96125000Y-75182168D01*
X96125000Y-76181312D01*
X95111521Y-76566297D01*
X94897405Y-76700352D01*
X94750888Y-76906141D01*
X94694276Y-77152334D01*
X94736188Y-77401452D01*
X94840595Y-77676305D01*
X94593635Y-77429345D01*
X94249983Y-77287000D01*
X93878017Y-77287000D01*
X93534365Y-77429345D01*
X93271345Y-77692365D01*
X93221000Y-77813909D01*
X93221000Y-77528017D01*
X93078655Y-77184365D01*
X92815635Y-76921345D01*
X92471983Y-76779000D01*
X92100017Y-76779000D01*
X91756365Y-76921345D01*
X91493345Y-77184365D01*
X91351000Y-77528017D01*
X91351000Y-77574198D01*
X89860199Y-79065000D01*
X89814017Y-79065000D01*
X89470365Y-79207345D01*
X89456644Y-79221066D01*
X88655425Y-78419847D01*
X88606049Y-78345951D01*
X88313310Y-78150348D01*
X88055165Y-78099000D01*
X88055161Y-78099000D01*
X87968000Y-78081663D01*
X87880839Y-78099000D01*
X85007159Y-78099000D01*
X85002931Y-78098159D01*
X85263916Y-77407483D01*
X85305393Y-77158292D01*
X85248351Y-76912198D01*
X85168610Y-76800611D01*
X86329883Y-76800611D01*
X86329883Y-77172577D01*
X86472228Y-77516229D01*
X86735248Y-77779249D01*
X87078900Y-77921594D01*
X87450866Y-77921594D01*
X87794518Y-77779249D01*
X88057538Y-77516229D01*
X88199883Y-77172577D01*
X88199883Y-77020959D01*
X89319942Y-77020959D01*
X89319942Y-77392925D01*
X89462287Y-77736577D01*
X89725307Y-77999597D01*
X90068959Y-78141942D01*
X90440925Y-78141942D01*
X90784577Y-77999597D01*
X91047597Y-77736577D01*
X91189942Y-77392925D01*
X91189942Y-77020959D01*
X91127827Y-76871000D01*
X91201983Y-76871000D01*
X91545635Y-76728655D01*
X91808655Y-76465635D01*
X91951000Y-76121983D01*
X91951000Y-75750017D01*
X91808655Y-75406365D01*
X91545635Y-75143345D01*
X91201983Y-75001000D01*
X90830017Y-75001000D01*
X90486365Y-75143345D01*
X90223345Y-75406365D01*
X90081000Y-75750017D01*
X90081000Y-76121983D01*
X90143115Y-76271942D01*
X90068959Y-76271942D01*
X89725307Y-76414287D01*
X89462287Y-76677307D01*
X89319942Y-77020959D01*
X88199883Y-77020959D01*
X88199883Y-76800611D01*
X88057538Y-76456959D01*
X87794518Y-76193939D01*
X87450866Y-76051594D01*
X87078900Y-76051594D01*
X86735248Y-76193939D01*
X86472228Y-76456959D01*
X86329883Y-76800611D01*
X85168610Y-76800611D01*
X85101475Y-76706665D01*
X84887126Y-76572985D01*
X84486649Y-76421657D01*
X84696655Y-76211651D01*
X84719899Y-76155536D01*
X84980887Y-76449494D01*
X85182238Y-76602052D01*
X85426644Y-76665942D01*
X85676895Y-76631440D01*
X85894894Y-76503796D01*
X87016591Y-75507906D01*
X87169148Y-75306555D01*
X87233038Y-75062149D01*
X87198536Y-74811898D01*
X87156274Y-74739720D01*
X87240135Y-74704984D01*
X87277154Y-74667965D01*
X87311185Y-74740449D01*
X87497881Y-74910628D01*
X87735490Y-74996406D01*
X87987838Y-74984727D01*
X89443912Y-74624385D01*
X89661954Y-74522014D01*
X89814017Y-74585000D01*
X90185983Y-74585000D01*
X90326220Y-74526912D01*
X90539413Y-74626552D01*
X91996115Y-74984353D01*
X92248483Y-74995592D01*
X92485942Y-74909399D01*
X92672341Y-74738895D01*
X92779302Y-74510038D01*
X93494902Y-71596635D01*
X93506142Y-71344267D01*
X93419948Y-71106808D01*
X93249444Y-70920409D01*
X93020587Y-70813448D01*
X92571129Y-70703050D01*
X92418049Y-70473951D01*
X92344156Y-70424577D01*
X91703425Y-69783847D01*
X91674987Y-69741287D01*
X91808655Y-69607619D01*
X91951000Y-69263967D01*
X91951000Y-69232578D01*
X94075001Y-71356580D01*
X94075001Y-71356580D01*
G37*
X94075001Y-71356580D02*
X94075000Y-73281348D01*
X92919449Y-74587462D01*
X92792186Y-74805683D01*
X92758121Y-75055994D01*
X92822438Y-75300288D01*
X92975346Y-75501373D01*
X94098780Y-76495303D01*
X94317001Y-76622566D01*
X94567312Y-76656631D01*
X94811606Y-76592314D01*
X95012691Y-76439406D01*
X96125000Y-75182168D01*
X96125000Y-76181312D01*
X95111521Y-76566297D01*
X94897405Y-76700352D01*
X94750888Y-76906141D01*
X94694276Y-77152334D01*
X94736188Y-77401452D01*
X94840595Y-77676305D01*
X94593635Y-77429345D01*
X94249983Y-77287000D01*
X93878017Y-77287000D01*
X93534365Y-77429345D01*
X93271345Y-77692365D01*
X93221000Y-77813909D01*
X93221000Y-77528017D01*
X93078655Y-77184365D01*
X92815635Y-76921345D01*
X92471983Y-76779000D01*
X92100017Y-76779000D01*
X91756365Y-76921345D01*
X91493345Y-77184365D01*
X91351000Y-77528017D01*
X91351000Y-77574198D01*
X89860199Y-79065000D01*
X89814017Y-79065000D01*
X89470365Y-79207345D01*
X89456644Y-79221066D01*
X88655425Y-78419847D01*
X88606049Y-78345951D01*
X88313310Y-78150348D01*
X88055165Y-78099000D01*
X88055161Y-78099000D01*
X87968000Y-78081663D01*
X87880839Y-78099000D01*
X85007159Y-78099000D01*
X85002931Y-78098159D01*
X85263916Y-77407483D01*
X85305393Y-77158292D01*
X85248351Y-76912198D01*
X85168610Y-76800611D01*
X86329883Y-76800611D01*
X86329883Y-77172577D01*
X86472228Y-77516229D01*
X86735248Y-77779249D01*
X87078900Y-77921594D01*
X87450866Y-77921594D01*
X87794518Y-77779249D01*
X88057538Y-77516229D01*
X88199883Y-77172577D01*
X88199883Y-77020959D01*
X89319942Y-77020959D01*
X89319942Y-77392925D01*
X89462287Y-77736577D01*
X89725307Y-77999597D01*
X90068959Y-78141942D01*
X90440925Y-78141942D01*
X90784577Y-77999597D01*
X91047597Y-77736577D01*
X91189942Y-77392925D01*
X91189942Y-77020959D01*
X91127827Y-76871000D01*
X91201983Y-76871000D01*
X91545635Y-76728655D01*
X91808655Y-76465635D01*
X91951000Y-76121983D01*
X91951000Y-75750017D01*
X91808655Y-75406365D01*
X91545635Y-75143345D01*
X91201983Y-75001000D01*
X90830017Y-75001000D01*
X90486365Y-75143345D01*
X90223345Y-75406365D01*
X90081000Y-75750017D01*
X90081000Y-76121983D01*
X90143115Y-76271942D01*
X90068959Y-76271942D01*
X89725307Y-76414287D01*
X89462287Y-76677307D01*
X89319942Y-77020959D01*
X88199883Y-77020959D01*
X88199883Y-76800611D01*
X88057538Y-76456959D01*
X87794518Y-76193939D01*
X87450866Y-76051594D01*
X87078900Y-76051594D01*
X86735248Y-76193939D01*
X86472228Y-76456959D01*
X86329883Y-76800611D01*
X85168610Y-76800611D01*
X85101475Y-76706665D01*
X84887126Y-76572985D01*
X84486649Y-76421657D01*
X84696655Y-76211651D01*
X84719899Y-76155536D01*
X84980887Y-76449494D01*
X85182238Y-76602052D01*
X85426644Y-76665942D01*
X85676895Y-76631440D01*
X85894894Y-76503796D01*
X87016591Y-75507906D01*
X87169148Y-75306555D01*
X87233038Y-75062149D01*
X87198536Y-74811898D01*
X87156274Y-74739720D01*
X87240135Y-74704984D01*
X87277154Y-74667965D01*
X87311185Y-74740449D01*
X87497881Y-74910628D01*
X87735490Y-74996406D01*
X87987838Y-74984727D01*
X89443912Y-74624385D01*
X89661954Y-74522014D01*
X89814017Y-74585000D01*
X90185983Y-74585000D01*
X90326220Y-74526912D01*
X90539413Y-74626552D01*
X91996115Y-74984353D01*
X92248483Y-74995592D01*
X92485942Y-74909399D01*
X92672341Y-74738895D01*
X92779302Y-74510038D01*
X93494902Y-71596635D01*
X93506142Y-71344267D01*
X93419948Y-71106808D01*
X93249444Y-70920409D01*
X93020587Y-70813448D01*
X92571129Y-70703050D01*
X92418049Y-70473951D01*
X92344156Y-70424577D01*
X91703425Y-69783847D01*
X91674987Y-69741287D01*
X91808655Y-69607619D01*
X91951000Y-69263967D01*
X91951000Y-69232578D01*
X94075001Y-71356580D01*
G36*
X83781001Y-72637229D02*
X83043409Y-73292094D01*
X82999001Y-73350706D01*
X82999001Y-73012577D01*
X83781001Y-72230577D01*
X83781001Y-72637229D01*
X83781001Y-72637229D01*
G37*
X83781001Y-72637229D02*
X83043409Y-73292094D01*
X82999001Y-73350706D01*
X82999001Y-73012577D01*
X83781001Y-72230577D01*
X83781001Y-72637229D01*
G36*
X83061345Y-69740924D02*
X83111345Y-69861635D01*
X83374365Y-70124655D01*
X83381013Y-70127409D01*
X81549846Y-71958576D01*
X81498999Y-71992551D01*
X81498999Y-70267000D01*
X81803983Y-70267000D01*
X82147635Y-70124655D01*
X82410655Y-69861635D01*
X82553000Y-69517983D01*
X82553000Y-69232578D01*
X83061345Y-69740924D01*
X83061345Y-69740924D01*
G37*
X83061345Y-69740924D02*
X83111345Y-69861635D01*
X83374365Y-70124655D01*
X83381013Y-70127409D01*
X81549846Y-71958576D01*
X81498999Y-71992551D01*
X81498999Y-70267000D01*
X81803983Y-70267000D01*
X82147635Y-70124655D01*
X82410655Y-69861635D01*
X82553000Y-69517983D01*
X82553000Y-69232578D01*
X83061345Y-69740924D01*
G04 #@! TD*
M02*
