M48
;DRILL file {KiCad (5.0.2)-1} date 25/03/2019 12:25:59
;FORMAT={-:-/ absolute / metric / decimal}
FMAT,2
METRIC,TZ
T1C0.300
T2C1.000
%
G90
G05
T1
X75.268Y-74.666
X75.522Y-81.524
X79.332Y-70.602
X79.84Y-77.206
X80.856Y-82.54
X81.069Y-79.573
X81.11Y-83.556
X81.364Y-73.396
X81.618Y-69.332
X81.618Y-71.364
X81.872Y-85.588
X82.888Y-73.396
X83.396Y-87.366
X83.904Y-69.332
X83.904Y-75.682
X83.904Y-86.604
X84.37Y-87.286
X84.412Y-67.046
X84.92Y-65.014
X85.936Y-65.522
X85.936Y-80.004
X86.19Y-71.834
X86.19Y-72.888
X86.383Y-84.125
X86.71Y-73.912
X86.952Y-66.03
X86.952Y-80.
X86.952Y-83.302
X87.206Y-88.636
X87.265Y-76.987
X87.714Y-93.716
X87.715Y-68.868
X87.968Y-80.254
X87.968Y-81.308
X88.222Y-83.048
X88.593Y-88.636
X88.73Y-85.588
X88.97Y-68.949
X89.238Y-77.206
X89.492Y-71.618
X90.Y-69.078
X90.Y-72.634
X90.Y-73.65
X90.Y-80.
X90.093Y-91.43
X90.224Y-82.052
X90.254Y-83.556
X90.255Y-77.207
X90.508Y-67.554
X90.762Y-85.334
X90.822Y-82.739
X91.016Y-69.078
X91.016Y-75.936
X91.778Y-88.128
X92.286Y-77.714
X93.556Y-73.142
X94.064Y-77.206
X94.064Y-78.222
X94.064Y-79.746
X94.064Y-89.144
X94.572Y-78.984
X95.08Y-88.382
X95.334Y-67.046
X96.35Y-88.382
X96.604Y-79.238
X96.858Y-86.858
X96.858Y-93.462
X97.62Y-78.984
X97.874Y-69.586
X97.874Y-86.858
X98.636Y-88.382
X99.314Y-86.858
X99.906Y-88.382
X100.16Y-92.192
X100.414Y-79.238
X100.584Y-86.858
X101.176Y-74.666
X101.176Y-80.254
X101.176Y-79.238
X102.192Y-83.81
X102.192Y-84.826
X103.716Y-78.222
X104.9Y-77.628
T2
X77.216Y-83.312
X77.216Y-85.852
X77.808Y-72.38
X77.808Y-74.92
X80.856Y-91.43
X83.396Y-91.43
T0
M30
