G04 #@! TF.GenerationSoftware,KiCad,Pcbnew,(5.0.2)-1*
G04 #@! TF.CreationDate,2019-03-25T12:23:43+09:00*
G04 #@! TF.ProjectId,NixieHourglass,4e697869-6548-46f7-9572-676c6173732e,rev?*
G04 #@! TF.SameCoordinates,Original*
G04 #@! TF.FileFunction,Paste,Top*
G04 #@! TF.FilePolarity,Positive*
%FSLAX46Y46*%
G04 Gerber Fmt 4.6, Leading zero omitted, Abs format (unit mm)*
G04 Created by KiCad (PCBNEW (5.0.2)-1) date 25/03/2019 12:23:43*
%MOMM*%
%LPD*%
G01*
G04 APERTURE LIST*
%ADD10R,0.350000X0.600000*%
%ADD11R,0.600000X0.350000*%
%ADD12R,0.800000X0.900000*%
%ADD13R,0.900000X0.800000*%
%ADD14R,1.050000X0.650000*%
%ADD15R,0.550000X1.600000*%
%ADD16R,1.600000X0.550000*%
%ADD17R,0.635000X1.905000*%
%ADD18R,0.400000X1.000000*%
%ADD19R,0.600000X1.600000*%
%ADD20R,0.400000X1.600000*%
%ADD21C,0.100000*%
%ADD22C,0.875000*%
%ADD23R,1.200000X0.900000*%
G04 APERTURE END LIST*
D10*
G04 #@! TO.C,U3*
X80618000Y-72514000D03*
X81118000Y-72514000D03*
X81618000Y-72514000D03*
X82118000Y-72514000D03*
X82618000Y-72514000D03*
D11*
X82768000Y-71864000D03*
X82768000Y-71364000D03*
X82768000Y-70864000D03*
D10*
X82618000Y-70214000D03*
X82118000Y-70214000D03*
X81618000Y-70214000D03*
X81118000Y-70214000D03*
X80618000Y-70214000D03*
D11*
X80468000Y-70864000D03*
X80468000Y-71364000D03*
X80468000Y-71864000D03*
G04 #@! TD*
D12*
G04 #@! TO.C,Q1*
X79944000Y-78502000D03*
X78044000Y-78502000D03*
X78994000Y-80502000D03*
G04 #@! TD*
D13*
G04 #@! TO.C,Q2*
X80026000Y-83566000D03*
X82026000Y-82616000D03*
X82026000Y-84516000D03*
G04 #@! TD*
G04 #@! TO.C,Q3*
X82026000Y-88580000D03*
X82026000Y-86680000D03*
X80026000Y-87630000D03*
G04 #@! TD*
D14*
G04 #@! TO.C,SW1*
X93513000Y-65971000D03*
X97663000Y-65971000D03*
X93513000Y-68121000D03*
X97663000Y-68121000D03*
G04 #@! TD*
G04 #@! TO.C,SW2*
X88519000Y-68121000D03*
X84369000Y-68121000D03*
X88519000Y-65971000D03*
X84369000Y-65971000D03*
G04 #@! TD*
D15*
G04 #@! TO.C,U1*
X85338000Y-87054000D03*
X86138000Y-87054000D03*
X86938000Y-87054000D03*
X87738000Y-87054000D03*
X88538000Y-87054000D03*
X89338000Y-87054000D03*
X90138000Y-87054000D03*
X90938000Y-87054000D03*
D16*
X92388000Y-85604000D03*
X92388000Y-84804000D03*
X92388000Y-84004000D03*
X92388000Y-83204000D03*
X92388000Y-82404000D03*
X92388000Y-81604000D03*
X92388000Y-80804000D03*
X92388000Y-80004000D03*
D15*
X90938000Y-78554000D03*
X90138000Y-78554000D03*
X89338000Y-78554000D03*
X88538000Y-78554000D03*
X87738000Y-78554000D03*
X86938000Y-78554000D03*
X86138000Y-78554000D03*
X85338000Y-78554000D03*
D16*
X83888000Y-80004000D03*
X83888000Y-80804000D03*
X83888000Y-81604000D03*
X83888000Y-82404000D03*
X83888000Y-83204000D03*
X83888000Y-84004000D03*
X83888000Y-84804000D03*
X83888000Y-85604000D03*
G04 #@! TD*
D17*
G04 #@! TO.C,U2*
X103251000Y-71628000D03*
X101981000Y-71628000D03*
X100711000Y-71628000D03*
X99441000Y-71628000D03*
X98171000Y-71628000D03*
X96901000Y-71628000D03*
X95631000Y-71628000D03*
X94361000Y-71628000D03*
X94361000Y-81788000D03*
X95631000Y-81788000D03*
X96901000Y-81788000D03*
X98171000Y-81788000D03*
X99441000Y-81788000D03*
X100711000Y-81788000D03*
X101981000Y-81788000D03*
X103251000Y-81788000D03*
G04 #@! TD*
D18*
G04 #@! TO.C,U4*
X89976000Y-70452000D03*
X89326000Y-70452000D03*
X88676000Y-70452000D03*
X88026000Y-70452000D03*
X87376000Y-70452000D03*
X86726000Y-70452000D03*
X86076000Y-70452000D03*
X85426000Y-70452000D03*
X84776000Y-70452000D03*
X89976000Y-75852000D03*
X89326000Y-75852000D03*
X88676000Y-75852000D03*
X88026000Y-75852000D03*
X87376000Y-75852000D03*
X86726000Y-75852000D03*
X86076000Y-75852000D03*
X85426000Y-75852000D03*
X84776000Y-75852000D03*
G04 #@! TD*
D19*
G04 #@! TO.C,Y1*
X92644000Y-89662000D03*
D20*
X91694000Y-89662000D03*
D19*
X90744000Y-89662000D03*
G04 #@! TD*
D21*
G04 #@! TO.C,C1*
G36*
X93071691Y-91476053D02*
X93092926Y-91479203D01*
X93113750Y-91484419D01*
X93133962Y-91491651D01*
X93153368Y-91500830D01*
X93171781Y-91511866D01*
X93189024Y-91524654D01*
X93204930Y-91539070D01*
X93219346Y-91554976D01*
X93232134Y-91572219D01*
X93243170Y-91590632D01*
X93252349Y-91610038D01*
X93259581Y-91630250D01*
X93264797Y-91651074D01*
X93267947Y-91672309D01*
X93269000Y-91693750D01*
X93269000Y-92131250D01*
X93267947Y-92152691D01*
X93264797Y-92173926D01*
X93259581Y-92194750D01*
X93252349Y-92214962D01*
X93243170Y-92234368D01*
X93232134Y-92252781D01*
X93219346Y-92270024D01*
X93204930Y-92285930D01*
X93189024Y-92300346D01*
X93171781Y-92313134D01*
X93153368Y-92324170D01*
X93133962Y-92333349D01*
X93113750Y-92340581D01*
X93092926Y-92345797D01*
X93071691Y-92348947D01*
X93050250Y-92350000D01*
X92537750Y-92350000D01*
X92516309Y-92348947D01*
X92495074Y-92345797D01*
X92474250Y-92340581D01*
X92454038Y-92333349D01*
X92434632Y-92324170D01*
X92416219Y-92313134D01*
X92398976Y-92300346D01*
X92383070Y-92285930D01*
X92368654Y-92270024D01*
X92355866Y-92252781D01*
X92344830Y-92234368D01*
X92335651Y-92214962D01*
X92328419Y-92194750D01*
X92323203Y-92173926D01*
X92320053Y-92152691D01*
X92319000Y-92131250D01*
X92319000Y-91693750D01*
X92320053Y-91672309D01*
X92323203Y-91651074D01*
X92328419Y-91630250D01*
X92335651Y-91610038D01*
X92344830Y-91590632D01*
X92355866Y-91572219D01*
X92368654Y-91554976D01*
X92383070Y-91539070D01*
X92398976Y-91524654D01*
X92416219Y-91511866D01*
X92434632Y-91500830D01*
X92454038Y-91491651D01*
X92474250Y-91484419D01*
X92495074Y-91479203D01*
X92516309Y-91476053D01*
X92537750Y-91475000D01*
X93050250Y-91475000D01*
X93071691Y-91476053D01*
X93071691Y-91476053D01*
G37*
D22*
X92794000Y-91912500D03*
D21*
G36*
X93071691Y-93051053D02*
X93092926Y-93054203D01*
X93113750Y-93059419D01*
X93133962Y-93066651D01*
X93153368Y-93075830D01*
X93171781Y-93086866D01*
X93189024Y-93099654D01*
X93204930Y-93114070D01*
X93219346Y-93129976D01*
X93232134Y-93147219D01*
X93243170Y-93165632D01*
X93252349Y-93185038D01*
X93259581Y-93205250D01*
X93264797Y-93226074D01*
X93267947Y-93247309D01*
X93269000Y-93268750D01*
X93269000Y-93706250D01*
X93267947Y-93727691D01*
X93264797Y-93748926D01*
X93259581Y-93769750D01*
X93252349Y-93789962D01*
X93243170Y-93809368D01*
X93232134Y-93827781D01*
X93219346Y-93845024D01*
X93204930Y-93860930D01*
X93189024Y-93875346D01*
X93171781Y-93888134D01*
X93153368Y-93899170D01*
X93133962Y-93908349D01*
X93113750Y-93915581D01*
X93092926Y-93920797D01*
X93071691Y-93923947D01*
X93050250Y-93925000D01*
X92537750Y-93925000D01*
X92516309Y-93923947D01*
X92495074Y-93920797D01*
X92474250Y-93915581D01*
X92454038Y-93908349D01*
X92434632Y-93899170D01*
X92416219Y-93888134D01*
X92398976Y-93875346D01*
X92383070Y-93860930D01*
X92368654Y-93845024D01*
X92355866Y-93827781D01*
X92344830Y-93809368D01*
X92335651Y-93789962D01*
X92328419Y-93769750D01*
X92323203Y-93748926D01*
X92320053Y-93727691D01*
X92319000Y-93706250D01*
X92319000Y-93268750D01*
X92320053Y-93247309D01*
X92323203Y-93226074D01*
X92328419Y-93205250D01*
X92335651Y-93185038D01*
X92344830Y-93165632D01*
X92355866Y-93147219D01*
X92368654Y-93129976D01*
X92383070Y-93114070D01*
X92398976Y-93099654D01*
X92416219Y-93086866D01*
X92434632Y-93075830D01*
X92454038Y-93066651D01*
X92474250Y-93059419D01*
X92495074Y-93054203D01*
X92516309Y-93051053D01*
X92537750Y-93050000D01*
X93050250Y-93050000D01*
X93071691Y-93051053D01*
X93071691Y-93051053D01*
G37*
D22*
X92794000Y-93487500D03*
G04 #@! TD*
D21*
G04 #@! TO.C,C2*
G36*
X92987691Y-74722053D02*
X93008926Y-74725203D01*
X93029750Y-74730419D01*
X93049962Y-74737651D01*
X93069368Y-74746830D01*
X93087781Y-74757866D01*
X93105024Y-74770654D01*
X93120930Y-74785070D01*
X93135346Y-74800976D01*
X93148134Y-74818219D01*
X93159170Y-74836632D01*
X93168349Y-74856038D01*
X93175581Y-74876250D01*
X93180797Y-74897074D01*
X93183947Y-74918309D01*
X93185000Y-74939750D01*
X93185000Y-75377250D01*
X93183947Y-75398691D01*
X93180797Y-75419926D01*
X93175581Y-75440750D01*
X93168349Y-75460962D01*
X93159170Y-75480368D01*
X93148134Y-75498781D01*
X93135346Y-75516024D01*
X93120930Y-75531930D01*
X93105024Y-75546346D01*
X93087781Y-75559134D01*
X93069368Y-75570170D01*
X93049962Y-75579349D01*
X93029750Y-75586581D01*
X93008926Y-75591797D01*
X92987691Y-75594947D01*
X92966250Y-75596000D01*
X92453750Y-75596000D01*
X92432309Y-75594947D01*
X92411074Y-75591797D01*
X92390250Y-75586581D01*
X92370038Y-75579349D01*
X92350632Y-75570170D01*
X92332219Y-75559134D01*
X92314976Y-75546346D01*
X92299070Y-75531930D01*
X92284654Y-75516024D01*
X92271866Y-75498781D01*
X92260830Y-75480368D01*
X92251651Y-75460962D01*
X92244419Y-75440750D01*
X92239203Y-75419926D01*
X92236053Y-75398691D01*
X92235000Y-75377250D01*
X92235000Y-74939750D01*
X92236053Y-74918309D01*
X92239203Y-74897074D01*
X92244419Y-74876250D01*
X92251651Y-74856038D01*
X92260830Y-74836632D01*
X92271866Y-74818219D01*
X92284654Y-74800976D01*
X92299070Y-74785070D01*
X92314976Y-74770654D01*
X92332219Y-74757866D01*
X92350632Y-74746830D01*
X92370038Y-74737651D01*
X92390250Y-74730419D01*
X92411074Y-74725203D01*
X92432309Y-74722053D01*
X92453750Y-74721000D01*
X92966250Y-74721000D01*
X92987691Y-74722053D01*
X92987691Y-74722053D01*
G37*
D22*
X92710000Y-75158500D03*
D21*
G36*
X92987691Y-76297053D02*
X93008926Y-76300203D01*
X93029750Y-76305419D01*
X93049962Y-76312651D01*
X93069368Y-76321830D01*
X93087781Y-76332866D01*
X93105024Y-76345654D01*
X93120930Y-76360070D01*
X93135346Y-76375976D01*
X93148134Y-76393219D01*
X93159170Y-76411632D01*
X93168349Y-76431038D01*
X93175581Y-76451250D01*
X93180797Y-76472074D01*
X93183947Y-76493309D01*
X93185000Y-76514750D01*
X93185000Y-76952250D01*
X93183947Y-76973691D01*
X93180797Y-76994926D01*
X93175581Y-77015750D01*
X93168349Y-77035962D01*
X93159170Y-77055368D01*
X93148134Y-77073781D01*
X93135346Y-77091024D01*
X93120930Y-77106930D01*
X93105024Y-77121346D01*
X93087781Y-77134134D01*
X93069368Y-77145170D01*
X93049962Y-77154349D01*
X93029750Y-77161581D01*
X93008926Y-77166797D01*
X92987691Y-77169947D01*
X92966250Y-77171000D01*
X92453750Y-77171000D01*
X92432309Y-77169947D01*
X92411074Y-77166797D01*
X92390250Y-77161581D01*
X92370038Y-77154349D01*
X92350632Y-77145170D01*
X92332219Y-77134134D01*
X92314976Y-77121346D01*
X92299070Y-77106930D01*
X92284654Y-77091024D01*
X92271866Y-77073781D01*
X92260830Y-77055368D01*
X92251651Y-77035962D01*
X92244419Y-77015750D01*
X92239203Y-76994926D01*
X92236053Y-76973691D01*
X92235000Y-76952250D01*
X92235000Y-76514750D01*
X92236053Y-76493309D01*
X92239203Y-76472074D01*
X92244419Y-76451250D01*
X92251651Y-76431038D01*
X92260830Y-76411632D01*
X92271866Y-76393219D01*
X92284654Y-76375976D01*
X92299070Y-76360070D01*
X92314976Y-76345654D01*
X92332219Y-76332866D01*
X92350632Y-76321830D01*
X92370038Y-76312651D01*
X92390250Y-76305419D01*
X92411074Y-76300203D01*
X92432309Y-76297053D01*
X92453750Y-76296000D01*
X92966250Y-76296000D01*
X92987691Y-76297053D01*
X92987691Y-76297053D01*
G37*
D22*
X92710000Y-76733500D03*
G04 #@! TD*
D21*
G04 #@! TO.C,C3*
G36*
X91293691Y-93051053D02*
X91314926Y-93054203D01*
X91335750Y-93059419D01*
X91355962Y-93066651D01*
X91375368Y-93075830D01*
X91393781Y-93086866D01*
X91411024Y-93099654D01*
X91426930Y-93114070D01*
X91441346Y-93129976D01*
X91454134Y-93147219D01*
X91465170Y-93165632D01*
X91474349Y-93185038D01*
X91481581Y-93205250D01*
X91486797Y-93226074D01*
X91489947Y-93247309D01*
X91491000Y-93268750D01*
X91491000Y-93706250D01*
X91489947Y-93727691D01*
X91486797Y-93748926D01*
X91481581Y-93769750D01*
X91474349Y-93789962D01*
X91465170Y-93809368D01*
X91454134Y-93827781D01*
X91441346Y-93845024D01*
X91426930Y-93860930D01*
X91411024Y-93875346D01*
X91393781Y-93888134D01*
X91375368Y-93899170D01*
X91355962Y-93908349D01*
X91335750Y-93915581D01*
X91314926Y-93920797D01*
X91293691Y-93923947D01*
X91272250Y-93925000D01*
X90759750Y-93925000D01*
X90738309Y-93923947D01*
X90717074Y-93920797D01*
X90696250Y-93915581D01*
X90676038Y-93908349D01*
X90656632Y-93899170D01*
X90638219Y-93888134D01*
X90620976Y-93875346D01*
X90605070Y-93860930D01*
X90590654Y-93845024D01*
X90577866Y-93827781D01*
X90566830Y-93809368D01*
X90557651Y-93789962D01*
X90550419Y-93769750D01*
X90545203Y-93748926D01*
X90542053Y-93727691D01*
X90541000Y-93706250D01*
X90541000Y-93268750D01*
X90542053Y-93247309D01*
X90545203Y-93226074D01*
X90550419Y-93205250D01*
X90557651Y-93185038D01*
X90566830Y-93165632D01*
X90577866Y-93147219D01*
X90590654Y-93129976D01*
X90605070Y-93114070D01*
X90620976Y-93099654D01*
X90638219Y-93086866D01*
X90656632Y-93075830D01*
X90676038Y-93066651D01*
X90696250Y-93059419D01*
X90717074Y-93054203D01*
X90738309Y-93051053D01*
X90759750Y-93050000D01*
X91272250Y-93050000D01*
X91293691Y-93051053D01*
X91293691Y-93051053D01*
G37*
D22*
X91016000Y-93487500D03*
D21*
G36*
X91293691Y-91476053D02*
X91314926Y-91479203D01*
X91335750Y-91484419D01*
X91355962Y-91491651D01*
X91375368Y-91500830D01*
X91393781Y-91511866D01*
X91411024Y-91524654D01*
X91426930Y-91539070D01*
X91441346Y-91554976D01*
X91454134Y-91572219D01*
X91465170Y-91590632D01*
X91474349Y-91610038D01*
X91481581Y-91630250D01*
X91486797Y-91651074D01*
X91489947Y-91672309D01*
X91491000Y-91693750D01*
X91491000Y-92131250D01*
X91489947Y-92152691D01*
X91486797Y-92173926D01*
X91481581Y-92194750D01*
X91474349Y-92214962D01*
X91465170Y-92234368D01*
X91454134Y-92252781D01*
X91441346Y-92270024D01*
X91426930Y-92285930D01*
X91411024Y-92300346D01*
X91393781Y-92313134D01*
X91375368Y-92324170D01*
X91355962Y-92333349D01*
X91335750Y-92340581D01*
X91314926Y-92345797D01*
X91293691Y-92348947D01*
X91272250Y-92350000D01*
X90759750Y-92350000D01*
X90738309Y-92348947D01*
X90717074Y-92345797D01*
X90696250Y-92340581D01*
X90676038Y-92333349D01*
X90656632Y-92324170D01*
X90638219Y-92313134D01*
X90620976Y-92300346D01*
X90605070Y-92285930D01*
X90590654Y-92270024D01*
X90577866Y-92252781D01*
X90566830Y-92234368D01*
X90557651Y-92214962D01*
X90550419Y-92194750D01*
X90545203Y-92173926D01*
X90542053Y-92152691D01*
X90541000Y-92131250D01*
X90541000Y-91693750D01*
X90542053Y-91672309D01*
X90545203Y-91651074D01*
X90550419Y-91630250D01*
X90557651Y-91610038D01*
X90566830Y-91590632D01*
X90577866Y-91572219D01*
X90590654Y-91554976D01*
X90605070Y-91539070D01*
X90620976Y-91524654D01*
X90638219Y-91511866D01*
X90656632Y-91500830D01*
X90676038Y-91491651D01*
X90696250Y-91484419D01*
X90717074Y-91479203D01*
X90738309Y-91476053D01*
X90759750Y-91475000D01*
X91272250Y-91475000D01*
X91293691Y-91476053D01*
X91293691Y-91476053D01*
G37*
D22*
X91016000Y-91912500D03*
G04 #@! TD*
D21*
G04 #@! TO.C,C4*
G36*
X88499691Y-89698053D02*
X88520926Y-89701203D01*
X88541750Y-89706419D01*
X88561962Y-89713651D01*
X88581368Y-89722830D01*
X88599781Y-89733866D01*
X88617024Y-89746654D01*
X88632930Y-89761070D01*
X88647346Y-89776976D01*
X88660134Y-89794219D01*
X88671170Y-89812632D01*
X88680349Y-89832038D01*
X88687581Y-89852250D01*
X88692797Y-89873074D01*
X88695947Y-89894309D01*
X88697000Y-89915750D01*
X88697000Y-90353250D01*
X88695947Y-90374691D01*
X88692797Y-90395926D01*
X88687581Y-90416750D01*
X88680349Y-90436962D01*
X88671170Y-90456368D01*
X88660134Y-90474781D01*
X88647346Y-90492024D01*
X88632930Y-90507930D01*
X88617024Y-90522346D01*
X88599781Y-90535134D01*
X88581368Y-90546170D01*
X88561962Y-90555349D01*
X88541750Y-90562581D01*
X88520926Y-90567797D01*
X88499691Y-90570947D01*
X88478250Y-90572000D01*
X87965750Y-90572000D01*
X87944309Y-90570947D01*
X87923074Y-90567797D01*
X87902250Y-90562581D01*
X87882038Y-90555349D01*
X87862632Y-90546170D01*
X87844219Y-90535134D01*
X87826976Y-90522346D01*
X87811070Y-90507930D01*
X87796654Y-90492024D01*
X87783866Y-90474781D01*
X87772830Y-90456368D01*
X87763651Y-90436962D01*
X87756419Y-90416750D01*
X87751203Y-90395926D01*
X87748053Y-90374691D01*
X87747000Y-90353250D01*
X87747000Y-89915750D01*
X87748053Y-89894309D01*
X87751203Y-89873074D01*
X87756419Y-89852250D01*
X87763651Y-89832038D01*
X87772830Y-89812632D01*
X87783866Y-89794219D01*
X87796654Y-89776976D01*
X87811070Y-89761070D01*
X87826976Y-89746654D01*
X87844219Y-89733866D01*
X87862632Y-89722830D01*
X87882038Y-89713651D01*
X87902250Y-89706419D01*
X87923074Y-89701203D01*
X87944309Y-89698053D01*
X87965750Y-89697000D01*
X88478250Y-89697000D01*
X88499691Y-89698053D01*
X88499691Y-89698053D01*
G37*
D22*
X88222000Y-90134500D03*
D21*
G36*
X88499691Y-91273053D02*
X88520926Y-91276203D01*
X88541750Y-91281419D01*
X88561962Y-91288651D01*
X88581368Y-91297830D01*
X88599781Y-91308866D01*
X88617024Y-91321654D01*
X88632930Y-91336070D01*
X88647346Y-91351976D01*
X88660134Y-91369219D01*
X88671170Y-91387632D01*
X88680349Y-91407038D01*
X88687581Y-91427250D01*
X88692797Y-91448074D01*
X88695947Y-91469309D01*
X88697000Y-91490750D01*
X88697000Y-91928250D01*
X88695947Y-91949691D01*
X88692797Y-91970926D01*
X88687581Y-91991750D01*
X88680349Y-92011962D01*
X88671170Y-92031368D01*
X88660134Y-92049781D01*
X88647346Y-92067024D01*
X88632930Y-92082930D01*
X88617024Y-92097346D01*
X88599781Y-92110134D01*
X88581368Y-92121170D01*
X88561962Y-92130349D01*
X88541750Y-92137581D01*
X88520926Y-92142797D01*
X88499691Y-92145947D01*
X88478250Y-92147000D01*
X87965750Y-92147000D01*
X87944309Y-92145947D01*
X87923074Y-92142797D01*
X87902250Y-92137581D01*
X87882038Y-92130349D01*
X87862632Y-92121170D01*
X87844219Y-92110134D01*
X87826976Y-92097346D01*
X87811070Y-92082930D01*
X87796654Y-92067024D01*
X87783866Y-92049781D01*
X87772830Y-92031368D01*
X87763651Y-92011962D01*
X87756419Y-91991750D01*
X87751203Y-91970926D01*
X87748053Y-91949691D01*
X87747000Y-91928250D01*
X87747000Y-91490750D01*
X87748053Y-91469309D01*
X87751203Y-91448074D01*
X87756419Y-91427250D01*
X87763651Y-91407038D01*
X87772830Y-91387632D01*
X87783866Y-91369219D01*
X87796654Y-91351976D01*
X87811070Y-91336070D01*
X87826976Y-91321654D01*
X87844219Y-91308866D01*
X87862632Y-91297830D01*
X87882038Y-91288651D01*
X87902250Y-91281419D01*
X87923074Y-91276203D01*
X87944309Y-91273053D01*
X87965750Y-91272000D01*
X88478250Y-91272000D01*
X88499691Y-91273053D01*
X88499691Y-91273053D01*
G37*
D22*
X88222000Y-91709500D03*
G04 #@! TD*
D21*
G04 #@! TO.C,C6*
G36*
X105177691Y-79843053D02*
X105198926Y-79846203D01*
X105219750Y-79851419D01*
X105239962Y-79858651D01*
X105259368Y-79867830D01*
X105277781Y-79878866D01*
X105295024Y-79891654D01*
X105310930Y-79906070D01*
X105325346Y-79921976D01*
X105338134Y-79939219D01*
X105349170Y-79957632D01*
X105358349Y-79977038D01*
X105365581Y-79997250D01*
X105370797Y-80018074D01*
X105373947Y-80039309D01*
X105375000Y-80060750D01*
X105375000Y-80498250D01*
X105373947Y-80519691D01*
X105370797Y-80540926D01*
X105365581Y-80561750D01*
X105358349Y-80581962D01*
X105349170Y-80601368D01*
X105338134Y-80619781D01*
X105325346Y-80637024D01*
X105310930Y-80652930D01*
X105295024Y-80667346D01*
X105277781Y-80680134D01*
X105259368Y-80691170D01*
X105239962Y-80700349D01*
X105219750Y-80707581D01*
X105198926Y-80712797D01*
X105177691Y-80715947D01*
X105156250Y-80717000D01*
X104643750Y-80717000D01*
X104622309Y-80715947D01*
X104601074Y-80712797D01*
X104580250Y-80707581D01*
X104560038Y-80700349D01*
X104540632Y-80691170D01*
X104522219Y-80680134D01*
X104504976Y-80667346D01*
X104489070Y-80652930D01*
X104474654Y-80637024D01*
X104461866Y-80619781D01*
X104450830Y-80601368D01*
X104441651Y-80581962D01*
X104434419Y-80561750D01*
X104429203Y-80540926D01*
X104426053Y-80519691D01*
X104425000Y-80498250D01*
X104425000Y-80060750D01*
X104426053Y-80039309D01*
X104429203Y-80018074D01*
X104434419Y-79997250D01*
X104441651Y-79977038D01*
X104450830Y-79957632D01*
X104461866Y-79939219D01*
X104474654Y-79921976D01*
X104489070Y-79906070D01*
X104504976Y-79891654D01*
X104522219Y-79878866D01*
X104540632Y-79867830D01*
X104560038Y-79858651D01*
X104580250Y-79851419D01*
X104601074Y-79846203D01*
X104622309Y-79843053D01*
X104643750Y-79842000D01*
X105156250Y-79842000D01*
X105177691Y-79843053D01*
X105177691Y-79843053D01*
G37*
D22*
X104900000Y-80279500D03*
D21*
G36*
X105177691Y-78268053D02*
X105198926Y-78271203D01*
X105219750Y-78276419D01*
X105239962Y-78283651D01*
X105259368Y-78292830D01*
X105277781Y-78303866D01*
X105295024Y-78316654D01*
X105310930Y-78331070D01*
X105325346Y-78346976D01*
X105338134Y-78364219D01*
X105349170Y-78382632D01*
X105358349Y-78402038D01*
X105365581Y-78422250D01*
X105370797Y-78443074D01*
X105373947Y-78464309D01*
X105375000Y-78485750D01*
X105375000Y-78923250D01*
X105373947Y-78944691D01*
X105370797Y-78965926D01*
X105365581Y-78986750D01*
X105358349Y-79006962D01*
X105349170Y-79026368D01*
X105338134Y-79044781D01*
X105325346Y-79062024D01*
X105310930Y-79077930D01*
X105295024Y-79092346D01*
X105277781Y-79105134D01*
X105259368Y-79116170D01*
X105239962Y-79125349D01*
X105219750Y-79132581D01*
X105198926Y-79137797D01*
X105177691Y-79140947D01*
X105156250Y-79142000D01*
X104643750Y-79142000D01*
X104622309Y-79140947D01*
X104601074Y-79137797D01*
X104580250Y-79132581D01*
X104560038Y-79125349D01*
X104540632Y-79116170D01*
X104522219Y-79105134D01*
X104504976Y-79092346D01*
X104489070Y-79077930D01*
X104474654Y-79062024D01*
X104461866Y-79044781D01*
X104450830Y-79026368D01*
X104441651Y-79006962D01*
X104434419Y-78986750D01*
X104429203Y-78965926D01*
X104426053Y-78944691D01*
X104425000Y-78923250D01*
X104425000Y-78485750D01*
X104426053Y-78464309D01*
X104429203Y-78443074D01*
X104434419Y-78422250D01*
X104441651Y-78402038D01*
X104450830Y-78382632D01*
X104461866Y-78364219D01*
X104474654Y-78346976D01*
X104489070Y-78331070D01*
X104504976Y-78316654D01*
X104522219Y-78303866D01*
X104540632Y-78292830D01*
X104560038Y-78283651D01*
X104580250Y-78276419D01*
X104601074Y-78271203D01*
X104622309Y-78268053D01*
X104643750Y-78267000D01*
X105156250Y-78267000D01*
X105177691Y-78268053D01*
X105177691Y-78268053D01*
G37*
D22*
X104900000Y-78704500D03*
G04 #@! TD*
D21*
G04 #@! TO.C,R1*
G36*
X80879691Y-75525053D02*
X80900926Y-75528203D01*
X80921750Y-75533419D01*
X80941962Y-75540651D01*
X80961368Y-75549830D01*
X80979781Y-75560866D01*
X80997024Y-75573654D01*
X81012930Y-75588070D01*
X81027346Y-75603976D01*
X81040134Y-75621219D01*
X81051170Y-75639632D01*
X81060349Y-75659038D01*
X81067581Y-75679250D01*
X81072797Y-75700074D01*
X81075947Y-75721309D01*
X81077000Y-75742750D01*
X81077000Y-76180250D01*
X81075947Y-76201691D01*
X81072797Y-76222926D01*
X81067581Y-76243750D01*
X81060349Y-76263962D01*
X81051170Y-76283368D01*
X81040134Y-76301781D01*
X81027346Y-76319024D01*
X81012930Y-76334930D01*
X80997024Y-76349346D01*
X80979781Y-76362134D01*
X80961368Y-76373170D01*
X80941962Y-76382349D01*
X80921750Y-76389581D01*
X80900926Y-76394797D01*
X80879691Y-76397947D01*
X80858250Y-76399000D01*
X80345750Y-76399000D01*
X80324309Y-76397947D01*
X80303074Y-76394797D01*
X80282250Y-76389581D01*
X80262038Y-76382349D01*
X80242632Y-76373170D01*
X80224219Y-76362134D01*
X80206976Y-76349346D01*
X80191070Y-76334930D01*
X80176654Y-76319024D01*
X80163866Y-76301781D01*
X80152830Y-76283368D01*
X80143651Y-76263962D01*
X80136419Y-76243750D01*
X80131203Y-76222926D01*
X80128053Y-76201691D01*
X80127000Y-76180250D01*
X80127000Y-75742750D01*
X80128053Y-75721309D01*
X80131203Y-75700074D01*
X80136419Y-75679250D01*
X80143651Y-75659038D01*
X80152830Y-75639632D01*
X80163866Y-75621219D01*
X80176654Y-75603976D01*
X80191070Y-75588070D01*
X80206976Y-75573654D01*
X80224219Y-75560866D01*
X80242632Y-75549830D01*
X80262038Y-75540651D01*
X80282250Y-75533419D01*
X80303074Y-75528203D01*
X80324309Y-75525053D01*
X80345750Y-75524000D01*
X80858250Y-75524000D01*
X80879691Y-75525053D01*
X80879691Y-75525053D01*
G37*
D22*
X80602000Y-75961500D03*
D21*
G36*
X80879691Y-73950053D02*
X80900926Y-73953203D01*
X80921750Y-73958419D01*
X80941962Y-73965651D01*
X80961368Y-73974830D01*
X80979781Y-73985866D01*
X80997024Y-73998654D01*
X81012930Y-74013070D01*
X81027346Y-74028976D01*
X81040134Y-74046219D01*
X81051170Y-74064632D01*
X81060349Y-74084038D01*
X81067581Y-74104250D01*
X81072797Y-74125074D01*
X81075947Y-74146309D01*
X81077000Y-74167750D01*
X81077000Y-74605250D01*
X81075947Y-74626691D01*
X81072797Y-74647926D01*
X81067581Y-74668750D01*
X81060349Y-74688962D01*
X81051170Y-74708368D01*
X81040134Y-74726781D01*
X81027346Y-74744024D01*
X81012930Y-74759930D01*
X80997024Y-74774346D01*
X80979781Y-74787134D01*
X80961368Y-74798170D01*
X80941962Y-74807349D01*
X80921750Y-74814581D01*
X80900926Y-74819797D01*
X80879691Y-74822947D01*
X80858250Y-74824000D01*
X80345750Y-74824000D01*
X80324309Y-74822947D01*
X80303074Y-74819797D01*
X80282250Y-74814581D01*
X80262038Y-74807349D01*
X80242632Y-74798170D01*
X80224219Y-74787134D01*
X80206976Y-74774346D01*
X80191070Y-74759930D01*
X80176654Y-74744024D01*
X80163866Y-74726781D01*
X80152830Y-74708368D01*
X80143651Y-74688962D01*
X80136419Y-74668750D01*
X80131203Y-74647926D01*
X80128053Y-74626691D01*
X80127000Y-74605250D01*
X80127000Y-74167750D01*
X80128053Y-74146309D01*
X80131203Y-74125074D01*
X80136419Y-74104250D01*
X80143651Y-74084038D01*
X80152830Y-74064632D01*
X80163866Y-74046219D01*
X80176654Y-74028976D01*
X80191070Y-74013070D01*
X80206976Y-73998654D01*
X80224219Y-73985866D01*
X80242632Y-73974830D01*
X80262038Y-73965651D01*
X80282250Y-73958419D01*
X80303074Y-73953203D01*
X80324309Y-73950053D01*
X80345750Y-73949000D01*
X80858250Y-73949000D01*
X80879691Y-73950053D01*
X80879691Y-73950053D01*
G37*
D22*
X80602000Y-74386500D03*
G04 #@! TD*
D21*
G04 #@! TO.C,R2*
G36*
X82403691Y-73950053D02*
X82424926Y-73953203D01*
X82445750Y-73958419D01*
X82465962Y-73965651D01*
X82485368Y-73974830D01*
X82503781Y-73985866D01*
X82521024Y-73998654D01*
X82536930Y-74013070D01*
X82551346Y-74028976D01*
X82564134Y-74046219D01*
X82575170Y-74064632D01*
X82584349Y-74084038D01*
X82591581Y-74104250D01*
X82596797Y-74125074D01*
X82599947Y-74146309D01*
X82601000Y-74167750D01*
X82601000Y-74605250D01*
X82599947Y-74626691D01*
X82596797Y-74647926D01*
X82591581Y-74668750D01*
X82584349Y-74688962D01*
X82575170Y-74708368D01*
X82564134Y-74726781D01*
X82551346Y-74744024D01*
X82536930Y-74759930D01*
X82521024Y-74774346D01*
X82503781Y-74787134D01*
X82485368Y-74798170D01*
X82465962Y-74807349D01*
X82445750Y-74814581D01*
X82424926Y-74819797D01*
X82403691Y-74822947D01*
X82382250Y-74824000D01*
X81869750Y-74824000D01*
X81848309Y-74822947D01*
X81827074Y-74819797D01*
X81806250Y-74814581D01*
X81786038Y-74807349D01*
X81766632Y-74798170D01*
X81748219Y-74787134D01*
X81730976Y-74774346D01*
X81715070Y-74759930D01*
X81700654Y-74744024D01*
X81687866Y-74726781D01*
X81676830Y-74708368D01*
X81667651Y-74688962D01*
X81660419Y-74668750D01*
X81655203Y-74647926D01*
X81652053Y-74626691D01*
X81651000Y-74605250D01*
X81651000Y-74167750D01*
X81652053Y-74146309D01*
X81655203Y-74125074D01*
X81660419Y-74104250D01*
X81667651Y-74084038D01*
X81676830Y-74064632D01*
X81687866Y-74046219D01*
X81700654Y-74028976D01*
X81715070Y-74013070D01*
X81730976Y-73998654D01*
X81748219Y-73985866D01*
X81766632Y-73974830D01*
X81786038Y-73965651D01*
X81806250Y-73958419D01*
X81827074Y-73953203D01*
X81848309Y-73950053D01*
X81869750Y-73949000D01*
X82382250Y-73949000D01*
X82403691Y-73950053D01*
X82403691Y-73950053D01*
G37*
D22*
X82126000Y-74386500D03*
D21*
G36*
X82403691Y-75525053D02*
X82424926Y-75528203D01*
X82445750Y-75533419D01*
X82465962Y-75540651D01*
X82485368Y-75549830D01*
X82503781Y-75560866D01*
X82521024Y-75573654D01*
X82536930Y-75588070D01*
X82551346Y-75603976D01*
X82564134Y-75621219D01*
X82575170Y-75639632D01*
X82584349Y-75659038D01*
X82591581Y-75679250D01*
X82596797Y-75700074D01*
X82599947Y-75721309D01*
X82601000Y-75742750D01*
X82601000Y-76180250D01*
X82599947Y-76201691D01*
X82596797Y-76222926D01*
X82591581Y-76243750D01*
X82584349Y-76263962D01*
X82575170Y-76283368D01*
X82564134Y-76301781D01*
X82551346Y-76319024D01*
X82536930Y-76334930D01*
X82521024Y-76349346D01*
X82503781Y-76362134D01*
X82485368Y-76373170D01*
X82465962Y-76382349D01*
X82445750Y-76389581D01*
X82424926Y-76394797D01*
X82403691Y-76397947D01*
X82382250Y-76399000D01*
X81869750Y-76399000D01*
X81848309Y-76397947D01*
X81827074Y-76394797D01*
X81806250Y-76389581D01*
X81786038Y-76382349D01*
X81766632Y-76373170D01*
X81748219Y-76362134D01*
X81730976Y-76349346D01*
X81715070Y-76334930D01*
X81700654Y-76319024D01*
X81687866Y-76301781D01*
X81676830Y-76283368D01*
X81667651Y-76263962D01*
X81660419Y-76243750D01*
X81655203Y-76222926D01*
X81652053Y-76201691D01*
X81651000Y-76180250D01*
X81651000Y-75742750D01*
X81652053Y-75721309D01*
X81655203Y-75700074D01*
X81660419Y-75679250D01*
X81667651Y-75659038D01*
X81676830Y-75639632D01*
X81687866Y-75621219D01*
X81700654Y-75603976D01*
X81715070Y-75588070D01*
X81730976Y-75573654D01*
X81748219Y-75560866D01*
X81766632Y-75549830D01*
X81786038Y-75540651D01*
X81806250Y-75533419D01*
X81827074Y-75528203D01*
X81848309Y-75525053D01*
X81869750Y-75524000D01*
X82382250Y-75524000D01*
X82403691Y-75525053D01*
X82403691Y-75525053D01*
G37*
D22*
X82126000Y-75961500D03*
G04 #@! TD*
D21*
G04 #@! TO.C,R3*
G36*
X86721691Y-89698053D02*
X86742926Y-89701203D01*
X86763750Y-89706419D01*
X86783962Y-89713651D01*
X86803368Y-89722830D01*
X86821781Y-89733866D01*
X86839024Y-89746654D01*
X86854930Y-89761070D01*
X86869346Y-89776976D01*
X86882134Y-89794219D01*
X86893170Y-89812632D01*
X86902349Y-89832038D01*
X86909581Y-89852250D01*
X86914797Y-89873074D01*
X86917947Y-89894309D01*
X86919000Y-89915750D01*
X86919000Y-90353250D01*
X86917947Y-90374691D01*
X86914797Y-90395926D01*
X86909581Y-90416750D01*
X86902349Y-90436962D01*
X86893170Y-90456368D01*
X86882134Y-90474781D01*
X86869346Y-90492024D01*
X86854930Y-90507930D01*
X86839024Y-90522346D01*
X86821781Y-90535134D01*
X86803368Y-90546170D01*
X86783962Y-90555349D01*
X86763750Y-90562581D01*
X86742926Y-90567797D01*
X86721691Y-90570947D01*
X86700250Y-90572000D01*
X86187750Y-90572000D01*
X86166309Y-90570947D01*
X86145074Y-90567797D01*
X86124250Y-90562581D01*
X86104038Y-90555349D01*
X86084632Y-90546170D01*
X86066219Y-90535134D01*
X86048976Y-90522346D01*
X86033070Y-90507930D01*
X86018654Y-90492024D01*
X86005866Y-90474781D01*
X85994830Y-90456368D01*
X85985651Y-90436962D01*
X85978419Y-90416750D01*
X85973203Y-90395926D01*
X85970053Y-90374691D01*
X85969000Y-90353250D01*
X85969000Y-89915750D01*
X85970053Y-89894309D01*
X85973203Y-89873074D01*
X85978419Y-89852250D01*
X85985651Y-89832038D01*
X85994830Y-89812632D01*
X86005866Y-89794219D01*
X86018654Y-89776976D01*
X86033070Y-89761070D01*
X86048976Y-89746654D01*
X86066219Y-89733866D01*
X86084632Y-89722830D01*
X86104038Y-89713651D01*
X86124250Y-89706419D01*
X86145074Y-89701203D01*
X86166309Y-89698053D01*
X86187750Y-89697000D01*
X86700250Y-89697000D01*
X86721691Y-89698053D01*
X86721691Y-89698053D01*
G37*
D22*
X86444000Y-90134500D03*
D21*
G36*
X86721691Y-91273053D02*
X86742926Y-91276203D01*
X86763750Y-91281419D01*
X86783962Y-91288651D01*
X86803368Y-91297830D01*
X86821781Y-91308866D01*
X86839024Y-91321654D01*
X86854930Y-91336070D01*
X86869346Y-91351976D01*
X86882134Y-91369219D01*
X86893170Y-91387632D01*
X86902349Y-91407038D01*
X86909581Y-91427250D01*
X86914797Y-91448074D01*
X86917947Y-91469309D01*
X86919000Y-91490750D01*
X86919000Y-91928250D01*
X86917947Y-91949691D01*
X86914797Y-91970926D01*
X86909581Y-91991750D01*
X86902349Y-92011962D01*
X86893170Y-92031368D01*
X86882134Y-92049781D01*
X86869346Y-92067024D01*
X86854930Y-92082930D01*
X86839024Y-92097346D01*
X86821781Y-92110134D01*
X86803368Y-92121170D01*
X86783962Y-92130349D01*
X86763750Y-92137581D01*
X86742926Y-92142797D01*
X86721691Y-92145947D01*
X86700250Y-92147000D01*
X86187750Y-92147000D01*
X86166309Y-92145947D01*
X86145074Y-92142797D01*
X86124250Y-92137581D01*
X86104038Y-92130349D01*
X86084632Y-92121170D01*
X86066219Y-92110134D01*
X86048976Y-92097346D01*
X86033070Y-92082930D01*
X86018654Y-92067024D01*
X86005866Y-92049781D01*
X85994830Y-92031368D01*
X85985651Y-92011962D01*
X85978419Y-91991750D01*
X85973203Y-91970926D01*
X85970053Y-91949691D01*
X85969000Y-91928250D01*
X85969000Y-91490750D01*
X85970053Y-91469309D01*
X85973203Y-91448074D01*
X85978419Y-91427250D01*
X85985651Y-91407038D01*
X85994830Y-91387632D01*
X86005866Y-91369219D01*
X86018654Y-91351976D01*
X86033070Y-91336070D01*
X86048976Y-91321654D01*
X86066219Y-91308866D01*
X86084632Y-91297830D01*
X86104038Y-91288651D01*
X86124250Y-91281419D01*
X86145074Y-91276203D01*
X86166309Y-91273053D01*
X86187750Y-91272000D01*
X86700250Y-91272000D01*
X86721691Y-91273053D01*
X86721691Y-91273053D01*
G37*
D22*
X86444000Y-91709500D03*
G04 #@! TD*
D21*
G04 #@! TO.C,R4*
G36*
X92055691Y-67651053D02*
X92076926Y-67654203D01*
X92097750Y-67659419D01*
X92117962Y-67666651D01*
X92137368Y-67675830D01*
X92155781Y-67686866D01*
X92173024Y-67699654D01*
X92188930Y-67714070D01*
X92203346Y-67729976D01*
X92216134Y-67747219D01*
X92227170Y-67765632D01*
X92236349Y-67785038D01*
X92243581Y-67805250D01*
X92248797Y-67826074D01*
X92251947Y-67847309D01*
X92253000Y-67868750D01*
X92253000Y-68306250D01*
X92251947Y-68327691D01*
X92248797Y-68348926D01*
X92243581Y-68369750D01*
X92236349Y-68389962D01*
X92227170Y-68409368D01*
X92216134Y-68427781D01*
X92203346Y-68445024D01*
X92188930Y-68460930D01*
X92173024Y-68475346D01*
X92155781Y-68488134D01*
X92137368Y-68499170D01*
X92117962Y-68508349D01*
X92097750Y-68515581D01*
X92076926Y-68520797D01*
X92055691Y-68523947D01*
X92034250Y-68525000D01*
X91521750Y-68525000D01*
X91500309Y-68523947D01*
X91479074Y-68520797D01*
X91458250Y-68515581D01*
X91438038Y-68508349D01*
X91418632Y-68499170D01*
X91400219Y-68488134D01*
X91382976Y-68475346D01*
X91367070Y-68460930D01*
X91352654Y-68445024D01*
X91339866Y-68427781D01*
X91328830Y-68409368D01*
X91319651Y-68389962D01*
X91312419Y-68369750D01*
X91307203Y-68348926D01*
X91304053Y-68327691D01*
X91303000Y-68306250D01*
X91303000Y-67868750D01*
X91304053Y-67847309D01*
X91307203Y-67826074D01*
X91312419Y-67805250D01*
X91319651Y-67785038D01*
X91328830Y-67765632D01*
X91339866Y-67747219D01*
X91352654Y-67729976D01*
X91367070Y-67714070D01*
X91382976Y-67699654D01*
X91400219Y-67686866D01*
X91418632Y-67675830D01*
X91438038Y-67666651D01*
X91458250Y-67659419D01*
X91479074Y-67654203D01*
X91500309Y-67651053D01*
X91521750Y-67650000D01*
X92034250Y-67650000D01*
X92055691Y-67651053D01*
X92055691Y-67651053D01*
G37*
D22*
X91778000Y-68087500D03*
D21*
G36*
X92055691Y-66076053D02*
X92076926Y-66079203D01*
X92097750Y-66084419D01*
X92117962Y-66091651D01*
X92137368Y-66100830D01*
X92155781Y-66111866D01*
X92173024Y-66124654D01*
X92188930Y-66139070D01*
X92203346Y-66154976D01*
X92216134Y-66172219D01*
X92227170Y-66190632D01*
X92236349Y-66210038D01*
X92243581Y-66230250D01*
X92248797Y-66251074D01*
X92251947Y-66272309D01*
X92253000Y-66293750D01*
X92253000Y-66731250D01*
X92251947Y-66752691D01*
X92248797Y-66773926D01*
X92243581Y-66794750D01*
X92236349Y-66814962D01*
X92227170Y-66834368D01*
X92216134Y-66852781D01*
X92203346Y-66870024D01*
X92188930Y-66885930D01*
X92173024Y-66900346D01*
X92155781Y-66913134D01*
X92137368Y-66924170D01*
X92117962Y-66933349D01*
X92097750Y-66940581D01*
X92076926Y-66945797D01*
X92055691Y-66948947D01*
X92034250Y-66950000D01*
X91521750Y-66950000D01*
X91500309Y-66948947D01*
X91479074Y-66945797D01*
X91458250Y-66940581D01*
X91438038Y-66933349D01*
X91418632Y-66924170D01*
X91400219Y-66913134D01*
X91382976Y-66900346D01*
X91367070Y-66885930D01*
X91352654Y-66870024D01*
X91339866Y-66852781D01*
X91328830Y-66834368D01*
X91319651Y-66814962D01*
X91312419Y-66794750D01*
X91307203Y-66773926D01*
X91304053Y-66752691D01*
X91303000Y-66731250D01*
X91303000Y-66293750D01*
X91304053Y-66272309D01*
X91307203Y-66251074D01*
X91312419Y-66230250D01*
X91319651Y-66210038D01*
X91328830Y-66190632D01*
X91339866Y-66172219D01*
X91352654Y-66154976D01*
X91367070Y-66139070D01*
X91382976Y-66124654D01*
X91400219Y-66111866D01*
X91418632Y-66100830D01*
X91438038Y-66091651D01*
X91458250Y-66084419D01*
X91479074Y-66079203D01*
X91500309Y-66076053D01*
X91521750Y-66075000D01*
X92034250Y-66075000D01*
X92055691Y-66076053D01*
X92055691Y-66076053D01*
G37*
D22*
X91778000Y-66512500D03*
G04 #@! TD*
D21*
G04 #@! TO.C,R5*
G36*
X82911691Y-66076053D02*
X82932926Y-66079203D01*
X82953750Y-66084419D01*
X82973962Y-66091651D01*
X82993368Y-66100830D01*
X83011781Y-66111866D01*
X83029024Y-66124654D01*
X83044930Y-66139070D01*
X83059346Y-66154976D01*
X83072134Y-66172219D01*
X83083170Y-66190632D01*
X83092349Y-66210038D01*
X83099581Y-66230250D01*
X83104797Y-66251074D01*
X83107947Y-66272309D01*
X83109000Y-66293750D01*
X83109000Y-66731250D01*
X83107947Y-66752691D01*
X83104797Y-66773926D01*
X83099581Y-66794750D01*
X83092349Y-66814962D01*
X83083170Y-66834368D01*
X83072134Y-66852781D01*
X83059346Y-66870024D01*
X83044930Y-66885930D01*
X83029024Y-66900346D01*
X83011781Y-66913134D01*
X82993368Y-66924170D01*
X82973962Y-66933349D01*
X82953750Y-66940581D01*
X82932926Y-66945797D01*
X82911691Y-66948947D01*
X82890250Y-66950000D01*
X82377750Y-66950000D01*
X82356309Y-66948947D01*
X82335074Y-66945797D01*
X82314250Y-66940581D01*
X82294038Y-66933349D01*
X82274632Y-66924170D01*
X82256219Y-66913134D01*
X82238976Y-66900346D01*
X82223070Y-66885930D01*
X82208654Y-66870024D01*
X82195866Y-66852781D01*
X82184830Y-66834368D01*
X82175651Y-66814962D01*
X82168419Y-66794750D01*
X82163203Y-66773926D01*
X82160053Y-66752691D01*
X82159000Y-66731250D01*
X82159000Y-66293750D01*
X82160053Y-66272309D01*
X82163203Y-66251074D01*
X82168419Y-66230250D01*
X82175651Y-66210038D01*
X82184830Y-66190632D01*
X82195866Y-66172219D01*
X82208654Y-66154976D01*
X82223070Y-66139070D01*
X82238976Y-66124654D01*
X82256219Y-66111866D01*
X82274632Y-66100830D01*
X82294038Y-66091651D01*
X82314250Y-66084419D01*
X82335074Y-66079203D01*
X82356309Y-66076053D01*
X82377750Y-66075000D01*
X82890250Y-66075000D01*
X82911691Y-66076053D01*
X82911691Y-66076053D01*
G37*
D22*
X82634000Y-66512500D03*
D21*
G36*
X82911691Y-67651053D02*
X82932926Y-67654203D01*
X82953750Y-67659419D01*
X82973962Y-67666651D01*
X82993368Y-67675830D01*
X83011781Y-67686866D01*
X83029024Y-67699654D01*
X83044930Y-67714070D01*
X83059346Y-67729976D01*
X83072134Y-67747219D01*
X83083170Y-67765632D01*
X83092349Y-67785038D01*
X83099581Y-67805250D01*
X83104797Y-67826074D01*
X83107947Y-67847309D01*
X83109000Y-67868750D01*
X83109000Y-68306250D01*
X83107947Y-68327691D01*
X83104797Y-68348926D01*
X83099581Y-68369750D01*
X83092349Y-68389962D01*
X83083170Y-68409368D01*
X83072134Y-68427781D01*
X83059346Y-68445024D01*
X83044930Y-68460930D01*
X83029024Y-68475346D01*
X83011781Y-68488134D01*
X82993368Y-68499170D01*
X82973962Y-68508349D01*
X82953750Y-68515581D01*
X82932926Y-68520797D01*
X82911691Y-68523947D01*
X82890250Y-68525000D01*
X82377750Y-68525000D01*
X82356309Y-68523947D01*
X82335074Y-68520797D01*
X82314250Y-68515581D01*
X82294038Y-68508349D01*
X82274632Y-68499170D01*
X82256219Y-68488134D01*
X82238976Y-68475346D01*
X82223070Y-68460930D01*
X82208654Y-68445024D01*
X82195866Y-68427781D01*
X82184830Y-68409368D01*
X82175651Y-68389962D01*
X82168419Y-68369750D01*
X82163203Y-68348926D01*
X82160053Y-68327691D01*
X82159000Y-68306250D01*
X82159000Y-67868750D01*
X82160053Y-67847309D01*
X82163203Y-67826074D01*
X82168419Y-67805250D01*
X82175651Y-67785038D01*
X82184830Y-67765632D01*
X82195866Y-67747219D01*
X82208654Y-67729976D01*
X82223070Y-67714070D01*
X82238976Y-67699654D01*
X82256219Y-67686866D01*
X82274632Y-67675830D01*
X82294038Y-67666651D01*
X82314250Y-67659419D01*
X82335074Y-67654203D01*
X82356309Y-67651053D01*
X82377750Y-67650000D01*
X82890250Y-67650000D01*
X82911691Y-67651053D01*
X82911691Y-67651053D01*
G37*
D22*
X82634000Y-68087500D03*
G04 #@! TD*
D21*
G04 #@! TO.C,R6*
G36*
X76561691Y-79589053D02*
X76582926Y-79592203D01*
X76603750Y-79597419D01*
X76623962Y-79604651D01*
X76643368Y-79613830D01*
X76661781Y-79624866D01*
X76679024Y-79637654D01*
X76694930Y-79652070D01*
X76709346Y-79667976D01*
X76722134Y-79685219D01*
X76733170Y-79703632D01*
X76742349Y-79723038D01*
X76749581Y-79743250D01*
X76754797Y-79764074D01*
X76757947Y-79785309D01*
X76759000Y-79806750D01*
X76759000Y-80244250D01*
X76757947Y-80265691D01*
X76754797Y-80286926D01*
X76749581Y-80307750D01*
X76742349Y-80327962D01*
X76733170Y-80347368D01*
X76722134Y-80365781D01*
X76709346Y-80383024D01*
X76694930Y-80398930D01*
X76679024Y-80413346D01*
X76661781Y-80426134D01*
X76643368Y-80437170D01*
X76623962Y-80446349D01*
X76603750Y-80453581D01*
X76582926Y-80458797D01*
X76561691Y-80461947D01*
X76540250Y-80463000D01*
X76027750Y-80463000D01*
X76006309Y-80461947D01*
X75985074Y-80458797D01*
X75964250Y-80453581D01*
X75944038Y-80446349D01*
X75924632Y-80437170D01*
X75906219Y-80426134D01*
X75888976Y-80413346D01*
X75873070Y-80398930D01*
X75858654Y-80383024D01*
X75845866Y-80365781D01*
X75834830Y-80347368D01*
X75825651Y-80327962D01*
X75818419Y-80307750D01*
X75813203Y-80286926D01*
X75810053Y-80265691D01*
X75809000Y-80244250D01*
X75809000Y-79806750D01*
X75810053Y-79785309D01*
X75813203Y-79764074D01*
X75818419Y-79743250D01*
X75825651Y-79723038D01*
X75834830Y-79703632D01*
X75845866Y-79685219D01*
X75858654Y-79667976D01*
X75873070Y-79652070D01*
X75888976Y-79637654D01*
X75906219Y-79624866D01*
X75924632Y-79613830D01*
X75944038Y-79604651D01*
X75964250Y-79597419D01*
X75985074Y-79592203D01*
X76006309Y-79589053D01*
X76027750Y-79588000D01*
X76540250Y-79588000D01*
X76561691Y-79589053D01*
X76561691Y-79589053D01*
G37*
D22*
X76284000Y-80025500D03*
D21*
G36*
X76561691Y-78014053D02*
X76582926Y-78017203D01*
X76603750Y-78022419D01*
X76623962Y-78029651D01*
X76643368Y-78038830D01*
X76661781Y-78049866D01*
X76679024Y-78062654D01*
X76694930Y-78077070D01*
X76709346Y-78092976D01*
X76722134Y-78110219D01*
X76733170Y-78128632D01*
X76742349Y-78148038D01*
X76749581Y-78168250D01*
X76754797Y-78189074D01*
X76757947Y-78210309D01*
X76759000Y-78231750D01*
X76759000Y-78669250D01*
X76757947Y-78690691D01*
X76754797Y-78711926D01*
X76749581Y-78732750D01*
X76742349Y-78752962D01*
X76733170Y-78772368D01*
X76722134Y-78790781D01*
X76709346Y-78808024D01*
X76694930Y-78823930D01*
X76679024Y-78838346D01*
X76661781Y-78851134D01*
X76643368Y-78862170D01*
X76623962Y-78871349D01*
X76603750Y-78878581D01*
X76582926Y-78883797D01*
X76561691Y-78886947D01*
X76540250Y-78888000D01*
X76027750Y-78888000D01*
X76006309Y-78886947D01*
X75985074Y-78883797D01*
X75964250Y-78878581D01*
X75944038Y-78871349D01*
X75924632Y-78862170D01*
X75906219Y-78851134D01*
X75888976Y-78838346D01*
X75873070Y-78823930D01*
X75858654Y-78808024D01*
X75845866Y-78790781D01*
X75834830Y-78772368D01*
X75825651Y-78752962D01*
X75818419Y-78732750D01*
X75813203Y-78711926D01*
X75810053Y-78690691D01*
X75809000Y-78669250D01*
X75809000Y-78231750D01*
X75810053Y-78210309D01*
X75813203Y-78189074D01*
X75818419Y-78168250D01*
X75825651Y-78148038D01*
X75834830Y-78128632D01*
X75845866Y-78110219D01*
X75858654Y-78092976D01*
X75873070Y-78077070D01*
X75888976Y-78062654D01*
X75906219Y-78049866D01*
X75924632Y-78038830D01*
X75944038Y-78029651D01*
X75964250Y-78022419D01*
X75985074Y-78017203D01*
X76006309Y-78014053D01*
X76027750Y-78013000D01*
X76540250Y-78013000D01*
X76561691Y-78014053D01*
X76561691Y-78014053D01*
G37*
D22*
X76284000Y-78450500D03*
G04 #@! TD*
D23*
G04 #@! TO.C,D1*
X92286000Y-70222000D03*
X92286000Y-73522000D03*
G04 #@! TD*
M02*
