G04 #@! TF.GenerationSoftware,KiCad,Pcbnew,(5.0.2)-1*
G04 #@! TF.CreationDate,2019-03-25T12:23:43+09:00*
G04 #@! TF.ProjectId,NixieHourglass,4e697869-6548-46f7-9572-676c6173732e,rev?*
G04 #@! TF.SameCoordinates,Original*
G04 #@! TF.FileFunction,Legend,Bot*
G04 #@! TF.FilePolarity,Positive*
%FSLAX46Y46*%
G04 Gerber Fmt 4.6, Leading zero omitted, Abs format (unit mm)*
G04 Created by KiCad (PCBNEW (5.0.2)-1) date 25/03/2019 12:23:43*
%MOMM*%
%LPD*%
G01*
G04 APERTURE LIST*
%ADD10C,0.100000*%
%ADD11C,0.300000*%
%ADD12C,0.150000*%
G04 APERTURE END LIST*
D10*
X78562095Y-90676000D02*
X78657333Y-90628380D01*
X78800190Y-90628380D01*
X78943047Y-90676000D01*
X79038285Y-90771238D01*
X79085904Y-90866476D01*
X79133523Y-91056952D01*
X79133523Y-91199809D01*
X79085904Y-91390285D01*
X79038285Y-91485523D01*
X78943047Y-91580761D01*
X78800190Y-91628380D01*
X78704952Y-91628380D01*
X78562095Y-91580761D01*
X78514476Y-91533142D01*
X78514476Y-91199809D01*
X78704952Y-91199809D01*
X85213523Y-93787428D02*
X84451619Y-93787428D01*
X84832571Y-94168380D02*
X84832571Y-93406476D01*
X84118285Y-93168380D02*
X83784952Y-94168380D01*
X83451619Y-93168380D01*
X82784952Y-93644571D02*
X82642095Y-93692190D01*
X82594476Y-93739809D01*
X82546857Y-93835047D01*
X82546857Y-93977904D01*
X82594476Y-94073142D01*
X82642095Y-94120761D01*
X82737333Y-94168380D01*
X83118285Y-94168380D01*
X83118285Y-93168380D01*
X82784952Y-93168380D01*
X82689714Y-93216000D01*
X82642095Y-93263619D01*
X82594476Y-93358857D01*
X82594476Y-93454095D01*
X82642095Y-93549333D01*
X82689714Y-93596952D01*
X82784952Y-93644571D01*
X83118285Y-93644571D01*
X76800000Y-88135904D02*
X76752380Y-88040666D01*
X76752380Y-87897809D01*
X76800000Y-87754952D01*
X76895238Y-87659714D01*
X76990476Y-87612095D01*
X77180952Y-87564476D01*
X77323809Y-87564476D01*
X77514285Y-87612095D01*
X77609523Y-87659714D01*
X77704761Y-87754952D01*
X77752380Y-87897809D01*
X77752380Y-87993047D01*
X77704761Y-88135904D01*
X77657142Y-88183523D01*
X77323809Y-88183523D01*
X77323809Y-87993047D01*
X75085428Y-82222666D02*
X75085428Y-82984571D01*
X75466380Y-82603619D02*
X74704476Y-82603619D01*
X75466380Y-83460761D02*
X74466380Y-83460761D01*
X74942571Y-83460761D02*
X74942571Y-84032190D01*
X75466380Y-84032190D02*
X74466380Y-84032190D01*
X74466380Y-84365523D02*
X75466380Y-84698857D01*
X74466380Y-85032190D01*
X77308000Y-70609904D02*
X77260380Y-70514666D01*
X77260380Y-70371809D01*
X77308000Y-70228952D01*
X77403238Y-70133714D01*
X77498476Y-70086095D01*
X77688952Y-70038476D01*
X77831809Y-70038476D01*
X78022285Y-70086095D01*
X78117523Y-70133714D01*
X78212761Y-70228952D01*
X78260380Y-70371809D01*
X78260380Y-70467047D01*
X78212761Y-70609904D01*
X78165142Y-70657523D01*
X77831809Y-70657523D01*
X77831809Y-70467047D01*
X78863523Y-77277428D02*
X78101619Y-77277428D01*
X78482571Y-77658380D02*
X78482571Y-76896476D01*
X77768285Y-76658380D02*
X77434952Y-77658380D01*
X77101619Y-76658380D01*
X76434952Y-77134571D02*
X76292095Y-77182190D01*
X76244476Y-77229809D01*
X76196857Y-77325047D01*
X76196857Y-77467904D01*
X76244476Y-77563142D01*
X76292095Y-77610761D01*
X76387333Y-77658380D01*
X76768285Y-77658380D01*
X76768285Y-76658380D01*
X76434952Y-76658380D01*
X76339714Y-76706000D01*
X76292095Y-76753619D01*
X76244476Y-76848857D01*
X76244476Y-76944095D01*
X76292095Y-77039333D01*
X76339714Y-77086952D01*
X76434952Y-77134571D01*
X76768285Y-77134571D01*
D11*
X96968857Y-69264571D02*
X96611714Y-70264571D01*
X96254571Y-69264571D01*
X95397428Y-68764571D02*
X95254571Y-68764571D01*
X95111714Y-68836000D01*
X95040285Y-68907428D01*
X94968857Y-69050285D01*
X94897428Y-69336000D01*
X94897428Y-69693142D01*
X94968857Y-69978857D01*
X95040285Y-70121714D01*
X95111714Y-70193142D01*
X95254571Y-70264571D01*
X95397428Y-70264571D01*
X95540285Y-70193142D01*
X95611714Y-70121714D01*
X95683142Y-69978857D01*
X95754571Y-69693142D01*
X95754571Y-69336000D01*
X95683142Y-69050285D01*
X95611714Y-68907428D01*
X95540285Y-68836000D01*
X95397428Y-68764571D01*
X94254571Y-70121714D02*
X94183142Y-70193142D01*
X94254571Y-70264571D01*
X94326000Y-70193142D01*
X94254571Y-70121714D01*
X94254571Y-70264571D01*
X92754571Y-70264571D02*
X93611714Y-70264571D01*
X93183142Y-70264571D02*
X93183142Y-68764571D01*
X93326000Y-68978857D01*
X93468857Y-69121714D01*
X93611714Y-69193142D01*
X98770285Y-67724571D02*
X98770285Y-66224571D01*
X98770285Y-66938857D02*
X97913142Y-66938857D01*
X97913142Y-67724571D02*
X97913142Y-66224571D01*
X96984571Y-67724571D02*
X97127428Y-67653142D01*
X97198857Y-67581714D01*
X97270285Y-67438857D01*
X97270285Y-67010285D01*
X97198857Y-66867428D01*
X97127428Y-66796000D01*
X96984571Y-66724571D01*
X96770285Y-66724571D01*
X96627428Y-66796000D01*
X96556000Y-66867428D01*
X96484571Y-67010285D01*
X96484571Y-67438857D01*
X96556000Y-67581714D01*
X96627428Y-67653142D01*
X96770285Y-67724571D01*
X96984571Y-67724571D01*
X95198857Y-66724571D02*
X95198857Y-67724571D01*
X95841714Y-66724571D02*
X95841714Y-67510285D01*
X95770285Y-67653142D01*
X95627428Y-67724571D01*
X95413142Y-67724571D01*
X95270285Y-67653142D01*
X95198857Y-67581714D01*
X94484571Y-67724571D02*
X94484571Y-66724571D01*
X94484571Y-67010285D02*
X94413142Y-66867428D01*
X94341714Y-66796000D01*
X94198857Y-66724571D01*
X94056000Y-66724571D01*
X92913142Y-66724571D02*
X92913142Y-67938857D01*
X92984571Y-68081714D01*
X93056000Y-68153142D01*
X93198857Y-68224571D01*
X93413142Y-68224571D01*
X93556000Y-68153142D01*
X92913142Y-67653142D02*
X93056000Y-67724571D01*
X93341714Y-67724571D01*
X93484571Y-67653142D01*
X93556000Y-67581714D01*
X93627428Y-67438857D01*
X93627428Y-67010285D01*
X93556000Y-66867428D01*
X93484571Y-66796000D01*
X93341714Y-66724571D01*
X93056000Y-66724571D01*
X92913142Y-66796000D01*
X91984571Y-67724571D02*
X92127428Y-67653142D01*
X92198857Y-67510285D01*
X92198857Y-66224571D01*
X90770285Y-67724571D02*
X90770285Y-66938857D01*
X90841714Y-66796000D01*
X90984571Y-66724571D01*
X91270285Y-66724571D01*
X91413142Y-66796000D01*
X90770285Y-67653142D02*
X90913142Y-67724571D01*
X91270285Y-67724571D01*
X91413142Y-67653142D01*
X91484571Y-67510285D01*
X91484571Y-67367428D01*
X91413142Y-67224571D01*
X91270285Y-67153142D01*
X90913142Y-67153142D01*
X90770285Y-67081714D01*
X90127428Y-67653142D02*
X89984571Y-67724571D01*
X89698857Y-67724571D01*
X89556000Y-67653142D01*
X89484571Y-67510285D01*
X89484571Y-67438857D01*
X89556000Y-67296000D01*
X89698857Y-67224571D01*
X89913142Y-67224571D01*
X90056000Y-67153142D01*
X90127428Y-67010285D01*
X90127428Y-66938857D01*
X90056000Y-66796000D01*
X89913142Y-66724571D01*
X89698857Y-66724571D01*
X89556000Y-66796000D01*
X88913142Y-67653142D02*
X88770285Y-67724571D01*
X88484571Y-67724571D01*
X88341714Y-67653142D01*
X88270285Y-67510285D01*
X88270285Y-67438857D01*
X88341714Y-67296000D01*
X88484571Y-67224571D01*
X88698857Y-67224571D01*
X88841714Y-67153142D01*
X88913142Y-67010285D01*
X88913142Y-66938857D01*
X88841714Y-66796000D01*
X88698857Y-66724571D01*
X88484571Y-66724571D01*
X88341714Y-66796000D01*
D12*
G04 #@! TO.C,N1*
X99500000Y-80000000D02*
G75*
G03X99500000Y-80000000I-9500000J0D01*
G01*
X90000000Y-83000000D02*
X90000000Y-82500000D01*
X90500000Y-84500000D02*
X91000000Y-84000000D01*
X89500000Y-84500000D02*
X89000000Y-84000000D01*
X90000000Y-85000000D02*
X90500000Y-84500000D01*
X90000000Y-85000000D02*
X89500000Y-84500000D01*
X90000000Y-83000000D02*
X90000000Y-85000000D01*
X95500000Y-80000000D02*
G75*
G03X95500000Y-80000000I-5500000J0D01*
G01*
X90761904Y-79182380D02*
X90761904Y-78182380D01*
X90190476Y-79182380D01*
X90190476Y-78182380D01*
X89190476Y-79182380D02*
X89761904Y-79182380D01*
X89476190Y-79182380D02*
X89476190Y-78182380D01*
X89571428Y-78325238D01*
X89666666Y-78420476D01*
X89761904Y-78468095D01*
G04 #@! TD*
M02*
