G04 #@! TF.GenerationSoftware,KiCad,Pcbnew,(5.0.2)-1*
G04 #@! TF.CreationDate,2019-03-25T12:23:43+09:00*
G04 #@! TF.ProjectId,NixieHourglass,4e697869-6548-46f7-9572-676c6173732e,rev?*
G04 #@! TF.SameCoordinates,Original*
G04 #@! TF.FileFunction,Copper,L1,Top*
G04 #@! TF.FilePolarity,Positive*
%FSLAX46Y46*%
G04 Gerber Fmt 4.6, Leading zero omitted, Abs format (unit mm)*
G04 Created by KiCad (PCBNEW (5.0.2)-1) date 25/03/2019 12:23:43*
%MOMM*%
%LPD*%
G01*
G04 APERTURE LIST*
G04 #@! TA.AperFunction,SMDPad,CuDef*
%ADD10R,0.350000X0.600000*%
G04 #@! TD*
G04 #@! TA.AperFunction,SMDPad,CuDef*
%ADD11R,0.600000X0.350000*%
G04 #@! TD*
G04 #@! TA.AperFunction,SMDPad,CuDef*
%ADD12R,0.750000X2.100000*%
G04 #@! TD*
G04 #@! TA.AperFunction,ComponentPad*
%ADD13R,1.700000X1.700000*%
G04 #@! TD*
G04 #@! TA.AperFunction,ComponentPad*
%ADD14O,1.700000X1.700000*%
G04 #@! TD*
G04 #@! TA.AperFunction,SMDPad,CuDef*
%ADD15R,0.800000X0.900000*%
G04 #@! TD*
G04 #@! TA.AperFunction,SMDPad,CuDef*
%ADD16R,0.900000X0.800000*%
G04 #@! TD*
G04 #@! TA.AperFunction,SMDPad,CuDef*
%ADD17R,1.050000X0.650000*%
G04 #@! TD*
G04 #@! TA.AperFunction,SMDPad,CuDef*
%ADD18R,0.550000X1.600000*%
G04 #@! TD*
G04 #@! TA.AperFunction,SMDPad,CuDef*
%ADD19R,1.600000X0.550000*%
G04 #@! TD*
G04 #@! TA.AperFunction,SMDPad,CuDef*
%ADD20R,0.635000X1.905000*%
G04 #@! TD*
G04 #@! TA.AperFunction,SMDPad,CuDef*
%ADD21R,0.400000X1.000000*%
G04 #@! TD*
G04 #@! TA.AperFunction,SMDPad,CuDef*
%ADD22R,0.600000X1.600000*%
G04 #@! TD*
G04 #@! TA.AperFunction,SMDPad,CuDef*
%ADD23R,0.400000X1.600000*%
G04 #@! TD*
G04 #@! TA.AperFunction,Conductor*
%ADD24C,0.100000*%
G04 #@! TD*
G04 #@! TA.AperFunction,SMDPad,CuDef*
%ADD25C,0.875000*%
G04 #@! TD*
G04 #@! TA.AperFunction,SMDPad,CuDef*
%ADD26R,1.200000X0.900000*%
G04 #@! TD*
G04 #@! TA.AperFunction,SMDPad,CuDef*
%ADD27R,1.000000X1.000000*%
G04 #@! TD*
G04 #@! TA.AperFunction,ViaPad*
%ADD28C,0.600000*%
G04 #@! TD*
G04 #@! TA.AperFunction,Conductor*
%ADD29C,0.250000*%
G04 #@! TD*
G04 #@! TA.AperFunction,Conductor*
%ADD30C,0.500000*%
G04 #@! TD*
G04 #@! TA.AperFunction,Conductor*
%ADD31C,1.000000*%
G04 #@! TD*
G04 #@! TA.AperFunction,Conductor*
%ADD32C,0.254000*%
G04 #@! TD*
G04 APERTURE END LIST*
D10*
G04 #@! TO.P,U3,1*
G04 #@! TO.N,+BATT*
X80618000Y-72514000D03*
G04 #@! TO.P,U3,2*
G04 #@! TO.N,N/C*
X81118000Y-72514000D03*
G04 #@! TO.P,U3,3*
X81618000Y-72514000D03*
G04 #@! TO.P,U3,4*
G04 #@! TO.N,/SCL*
X82118000Y-72514000D03*
G04 #@! TO.P,U3,5*
G04 #@! TO.N,GND*
X82618000Y-72514000D03*
D11*
G04 #@! TO.P,U3,6*
G04 #@! TO.N,/SDA*
X82768000Y-71864000D03*
G04 #@! TO.P,U3,7*
G04 #@! TO.N,N/C*
X82768000Y-71364000D03*
G04 #@! TO.P,U3,8*
X82768000Y-70864000D03*
D10*
G04 #@! TO.P,U3,9*
X82618000Y-70214000D03*
G04 #@! TO.P,U3,10*
G04 #@! TO.N,GND*
X82118000Y-70214000D03*
G04 #@! TO.P,U3,11*
G04 #@! TO.N,/INT_ACCEL*
X81618000Y-70214000D03*
G04 #@! TO.P,U3,12*
G04 #@! TO.N,GND*
X81118000Y-70214000D03*
G04 #@! TO.P,U3,13*
G04 #@! TO.N,N/C*
X80618000Y-70214000D03*
D11*
G04 #@! TO.P,U3,14*
G04 #@! TO.N,+BATT*
X80468000Y-70864000D03*
G04 #@! TO.P,U3,15*
G04 #@! TO.N,N/C*
X80468000Y-71364000D03*
G04 #@! TO.P,U3,16*
X80468000Y-71864000D03*
G04 #@! TD*
D12*
G04 #@! TO.P,J1,1*
G04 #@! TO.N,/MISO*
X100584000Y-85035000D03*
G04 #@! TO.P,J1,2*
G04 #@! TO.N,+BATT*
X100584000Y-90205000D03*
G04 #@! TO.P,J1,3*
G04 #@! TO.N,/SCK*
X99314000Y-85035000D03*
G04 #@! TO.P,J1,4*
G04 #@! TO.N,/MOSI*
X99314000Y-90205000D03*
G04 #@! TO.P,J1,5*
G04 #@! TO.N,/RESET*
X98044000Y-85035000D03*
G04 #@! TO.P,J1,6*
G04 #@! TO.N,GND*
X98044000Y-90205000D03*
G04 #@! TO.P,J1,7*
G04 #@! TO.N,/RXD*
X96774000Y-85035000D03*
G04 #@! TO.P,J1,8*
G04 #@! TO.N,/TXD*
X96774000Y-90205000D03*
G04 #@! TO.P,J1,9*
G04 #@! TO.N,N/C*
X95504000Y-85035000D03*
G04 #@! TO.P,J1,10*
X95504000Y-90205000D03*
G04 #@! TD*
D13*
G04 #@! TO.P,J3,1*
G04 #@! TO.N,+BATT*
X83396000Y-91430000D03*
D14*
G04 #@! TO.P,J3,2*
G04 #@! TO.N,GND*
X80856000Y-91430000D03*
G04 #@! TD*
G04 #@! TO.P,J4,2*
G04 #@! TO.N,GND*
X77216000Y-85852000D03*
D13*
G04 #@! TO.P,J4,1*
G04 #@! TO.N,+HV*
X77216000Y-83312000D03*
G04 #@! TD*
D15*
G04 #@! TO.P,Q1,1*
G04 #@! TO.N,/NIX_ANODE*
X79944000Y-78502000D03*
G04 #@! TO.P,Q1,2*
G04 #@! TO.N,Net-(Q1-Pad2)*
X78044000Y-78502000D03*
G04 #@! TO.P,Q1,3*
G04 #@! TO.N,+HV*
X78994000Y-80502000D03*
G04 #@! TD*
D16*
G04 #@! TO.P,Q2,3*
G04 #@! TO.N,Net-(N1-Pad9)*
X80026000Y-83566000D03*
G04 #@! TO.P,Q2,2*
G04 #@! TO.N,GND*
X82026000Y-82616000D03*
G04 #@! TO.P,Q2,1*
G04 #@! TO.N,/NIX_9*
X82026000Y-84516000D03*
G04 #@! TD*
G04 #@! TO.P,Q3,1*
G04 #@! TO.N,/NIX_0*
X82026000Y-88580000D03*
G04 #@! TO.P,Q3,2*
G04 #@! TO.N,GND*
X82026000Y-86680000D03*
G04 #@! TO.P,Q3,3*
G04 #@! TO.N,Net-(N1-Pad0)*
X80026000Y-87630000D03*
G04 #@! TD*
D17*
G04 #@! TO.P,SW1,1*
G04 #@! TO.N,GND*
X93513000Y-65971000D03*
G04 #@! TO.P,SW1,2*
X97663000Y-65971000D03*
G04 #@! TO.P,SW1,3*
G04 #@! TO.N,/SW_0*
X93513000Y-68121000D03*
G04 #@! TO.P,SW1,4*
X97663000Y-68121000D03*
G04 #@! TD*
G04 #@! TO.P,SW2,4*
G04 #@! TO.N,/SW_1*
X88519000Y-68121000D03*
G04 #@! TO.P,SW2,3*
X84369000Y-68121000D03*
G04 #@! TO.P,SW2,2*
G04 #@! TO.N,GND*
X88519000Y-65971000D03*
G04 #@! TO.P,SW2,1*
X84369000Y-65971000D03*
G04 #@! TD*
D18*
G04 #@! TO.P,U1,1*
G04 #@! TO.N,/NIX_8*
X85338000Y-87054000D03*
G04 #@! TO.P,U1,2*
G04 #@! TO.N,/NIX_9*
X86138000Y-87054000D03*
G04 #@! TO.P,U1,3*
G04 #@! TO.N,GND*
X86938000Y-87054000D03*
G04 #@! TO.P,U1,4*
G04 #@! TO.N,+BATT*
X87738000Y-87054000D03*
G04 #@! TO.P,U1,5*
G04 #@! TO.N,GND*
X88538000Y-87054000D03*
G04 #@! TO.P,U1,6*
G04 #@! TO.N,+BATT*
X89338000Y-87054000D03*
G04 #@! TO.P,U1,7*
G04 #@! TO.N,Net-(U1-Pad7)*
X90138000Y-87054000D03*
G04 #@! TO.P,U1,8*
G04 #@! TO.N,Net-(U1-Pad8)*
X90938000Y-87054000D03*
D19*
G04 #@! TO.P,U1,9*
G04 #@! TO.N,/SW_0*
X92388000Y-85604000D03*
G04 #@! TO.P,U1,10*
G04 #@! TO.N,/NIX_ANODE*
X92388000Y-84804000D03*
G04 #@! TO.P,U1,11*
G04 #@! TO.N,/SW_1*
X92388000Y-84004000D03*
G04 #@! TO.P,U1,12*
G04 #@! TO.N,/NIX_0*
X92388000Y-83204000D03*
G04 #@! TO.P,U1,13*
G04 #@! TO.N,/NIX_1*
X92388000Y-82404000D03*
G04 #@! TO.P,U1,14*
G04 #@! TO.N,/NIX_2*
X92388000Y-81604000D03*
G04 #@! TO.P,U1,15*
G04 #@! TO.N,/MOSI*
X92388000Y-80804000D03*
G04 #@! TO.P,U1,16*
G04 #@! TO.N,/MISO*
X92388000Y-80004000D03*
D18*
G04 #@! TO.P,U1,17*
G04 #@! TO.N,/SCK*
X90938000Y-78554000D03*
G04 #@! TO.P,U1,18*
G04 #@! TO.N,+BATT*
X90138000Y-78554000D03*
G04 #@! TO.P,U1,19*
G04 #@! TO.N,N/C*
X89338000Y-78554000D03*
G04 #@! TO.P,U1,20*
G04 #@! TO.N,Net-(C2-Pad1)*
X88538000Y-78554000D03*
G04 #@! TO.P,U1,21*
G04 #@! TO.N,GND*
X87738000Y-78554000D03*
G04 #@! TO.P,U1,22*
G04 #@! TO.N,N/C*
X86938000Y-78554000D03*
G04 #@! TO.P,U1,23*
G04 #@! TO.N,/NIX_3*
X86138000Y-78554000D03*
G04 #@! TO.P,U1,24*
G04 #@! TO.N,/NIX_4*
X85338000Y-78554000D03*
D19*
G04 #@! TO.P,U1,25*
G04 #@! TO.N,/NIX_5*
X83888000Y-80004000D03*
G04 #@! TO.P,U1,26*
G04 #@! TO.N,/NIX_6*
X83888000Y-80804000D03*
G04 #@! TO.P,U1,27*
G04 #@! TO.N,/SDA*
X83888000Y-81604000D03*
G04 #@! TO.P,U1,28*
G04 #@! TO.N,/SCL*
X83888000Y-82404000D03*
G04 #@! TO.P,U1,29*
G04 #@! TO.N,/RESET*
X83888000Y-83204000D03*
G04 #@! TO.P,U1,30*
G04 #@! TO.N,/RXD*
X83888000Y-84004000D03*
G04 #@! TO.P,U1,31*
G04 #@! TO.N,/TXD*
X83888000Y-84804000D03*
G04 #@! TO.P,U1,32*
G04 #@! TO.N,/NIX_7*
X83888000Y-85604000D03*
G04 #@! TD*
D20*
G04 #@! TO.P,U2,1*
G04 #@! TO.N,N/C*
X103251000Y-71628000D03*
G04 #@! TO.P,U2,2*
G04 #@! TO.N,+BATT*
X101981000Y-71628000D03*
G04 #@! TO.P,U2,3*
G04 #@! TO.N,N/C*
X100711000Y-71628000D03*
G04 #@! TO.P,U2,4*
G04 #@! TO.N,+BATT*
X99441000Y-71628000D03*
G04 #@! TO.P,U2,5*
G04 #@! TO.N,N/C*
X98171000Y-71628000D03*
G04 #@! TO.P,U2,6*
X96901000Y-71628000D03*
G04 #@! TO.P,U2,7*
X95631000Y-71628000D03*
G04 #@! TO.P,U2,8*
X94361000Y-71628000D03*
G04 #@! TO.P,U2,9*
X94361000Y-81788000D03*
G04 #@! TO.P,U2,10*
X95631000Y-81788000D03*
G04 #@! TO.P,U2,11*
X96901000Y-81788000D03*
G04 #@! TO.P,U2,12*
X98171000Y-81788000D03*
G04 #@! TO.P,U2,13*
G04 #@! TO.N,GND*
X99441000Y-81788000D03*
G04 #@! TO.P,U2,14*
G04 #@! TO.N,+BATT*
X100711000Y-81788000D03*
G04 #@! TO.P,U2,15*
G04 #@! TO.N,/SDA*
X101981000Y-81788000D03*
G04 #@! TO.P,U2,16*
G04 #@! TO.N,/SCL*
X103251000Y-81788000D03*
G04 #@! TD*
D21*
G04 #@! TO.P,U4,10*
G04 #@! TO.N,Net-(D1-Pad1)*
X89976000Y-70452000D03*
G04 #@! TO.P,U4,11*
G04 #@! TO.N,Net-(N1-Pad8)*
X89326000Y-70452000D03*
G04 #@! TO.P,U4,12*
G04 #@! TO.N,Net-(N1-Pad7)*
X88676000Y-70452000D03*
G04 #@! TO.P,U4,13*
G04 #@! TO.N,Net-(N1-Pad6)*
X88026000Y-70452000D03*
G04 #@! TO.P,U4,14*
G04 #@! TO.N,Net-(N1-Pad5)*
X87376000Y-70452000D03*
G04 #@! TO.P,U4,15*
G04 #@! TO.N,Net-(N1-Pad4)*
X86726000Y-70452000D03*
G04 #@! TO.P,U4,16*
G04 #@! TO.N,Net-(N1-Pad3)*
X86076000Y-70452000D03*
G04 #@! TO.P,U4,17*
G04 #@! TO.N,Net-(N1-Pad2)*
X85426000Y-70452000D03*
G04 #@! TO.P,U4,18*
G04 #@! TO.N,Net-(N1-Pad1)*
X84776000Y-70452000D03*
G04 #@! TO.P,U4,9*
G04 #@! TO.N,GND*
X89976000Y-75852000D03*
G04 #@! TO.P,U4,8*
G04 #@! TO.N,/NIX_8*
X89326000Y-75852000D03*
G04 #@! TO.P,U4,7*
G04 #@! TO.N,/NIX_7*
X88676000Y-75852000D03*
G04 #@! TO.P,U4,6*
G04 #@! TO.N,/NIX_6*
X88026000Y-75852000D03*
G04 #@! TO.P,U4,5*
G04 #@! TO.N,/NIX_5*
X87376000Y-75852000D03*
G04 #@! TO.P,U4,4*
G04 #@! TO.N,/NIX_4*
X86726000Y-75852000D03*
G04 #@! TO.P,U4,3*
G04 #@! TO.N,/NIX_3*
X86076000Y-75852000D03*
G04 #@! TO.P,U4,2*
G04 #@! TO.N,/NIX_2*
X85426000Y-75852000D03*
G04 #@! TO.P,U4,1*
G04 #@! TO.N,/NIX_1*
X84776000Y-75852000D03*
G04 #@! TD*
D22*
G04 #@! TO.P,Y1,1*
G04 #@! TO.N,Net-(U1-Pad8)*
X92644000Y-89662000D03*
D23*
G04 #@! TO.P,Y1,2*
G04 #@! TO.N,GND*
X91694000Y-89662000D03*
D22*
G04 #@! TO.P,Y1,3*
G04 #@! TO.N,Net-(U1-Pad7)*
X90744000Y-89662000D03*
G04 #@! TD*
D24*
G04 #@! TO.N,+BATT*
G04 #@! TO.C,C1*
G36*
X93071691Y-91476053D02*
X93092926Y-91479203D01*
X93113750Y-91484419D01*
X93133962Y-91491651D01*
X93153368Y-91500830D01*
X93171781Y-91511866D01*
X93189024Y-91524654D01*
X93204930Y-91539070D01*
X93219346Y-91554976D01*
X93232134Y-91572219D01*
X93243170Y-91590632D01*
X93252349Y-91610038D01*
X93259581Y-91630250D01*
X93264797Y-91651074D01*
X93267947Y-91672309D01*
X93269000Y-91693750D01*
X93269000Y-92131250D01*
X93267947Y-92152691D01*
X93264797Y-92173926D01*
X93259581Y-92194750D01*
X93252349Y-92214962D01*
X93243170Y-92234368D01*
X93232134Y-92252781D01*
X93219346Y-92270024D01*
X93204930Y-92285930D01*
X93189024Y-92300346D01*
X93171781Y-92313134D01*
X93153368Y-92324170D01*
X93133962Y-92333349D01*
X93113750Y-92340581D01*
X93092926Y-92345797D01*
X93071691Y-92348947D01*
X93050250Y-92350000D01*
X92537750Y-92350000D01*
X92516309Y-92348947D01*
X92495074Y-92345797D01*
X92474250Y-92340581D01*
X92454038Y-92333349D01*
X92434632Y-92324170D01*
X92416219Y-92313134D01*
X92398976Y-92300346D01*
X92383070Y-92285930D01*
X92368654Y-92270024D01*
X92355866Y-92252781D01*
X92344830Y-92234368D01*
X92335651Y-92214962D01*
X92328419Y-92194750D01*
X92323203Y-92173926D01*
X92320053Y-92152691D01*
X92319000Y-92131250D01*
X92319000Y-91693750D01*
X92320053Y-91672309D01*
X92323203Y-91651074D01*
X92328419Y-91630250D01*
X92335651Y-91610038D01*
X92344830Y-91590632D01*
X92355866Y-91572219D01*
X92368654Y-91554976D01*
X92383070Y-91539070D01*
X92398976Y-91524654D01*
X92416219Y-91511866D01*
X92434632Y-91500830D01*
X92454038Y-91491651D01*
X92474250Y-91484419D01*
X92495074Y-91479203D01*
X92516309Y-91476053D01*
X92537750Y-91475000D01*
X93050250Y-91475000D01*
X93071691Y-91476053D01*
X93071691Y-91476053D01*
G37*
D25*
G04 #@! TD*
G04 #@! TO.P,C1,1*
G04 #@! TO.N,+BATT*
X92794000Y-91912500D03*
D24*
G04 #@! TO.N,GND*
G04 #@! TO.C,C1*
G36*
X93071691Y-93051053D02*
X93092926Y-93054203D01*
X93113750Y-93059419D01*
X93133962Y-93066651D01*
X93153368Y-93075830D01*
X93171781Y-93086866D01*
X93189024Y-93099654D01*
X93204930Y-93114070D01*
X93219346Y-93129976D01*
X93232134Y-93147219D01*
X93243170Y-93165632D01*
X93252349Y-93185038D01*
X93259581Y-93205250D01*
X93264797Y-93226074D01*
X93267947Y-93247309D01*
X93269000Y-93268750D01*
X93269000Y-93706250D01*
X93267947Y-93727691D01*
X93264797Y-93748926D01*
X93259581Y-93769750D01*
X93252349Y-93789962D01*
X93243170Y-93809368D01*
X93232134Y-93827781D01*
X93219346Y-93845024D01*
X93204930Y-93860930D01*
X93189024Y-93875346D01*
X93171781Y-93888134D01*
X93153368Y-93899170D01*
X93133962Y-93908349D01*
X93113750Y-93915581D01*
X93092926Y-93920797D01*
X93071691Y-93923947D01*
X93050250Y-93925000D01*
X92537750Y-93925000D01*
X92516309Y-93923947D01*
X92495074Y-93920797D01*
X92474250Y-93915581D01*
X92454038Y-93908349D01*
X92434632Y-93899170D01*
X92416219Y-93888134D01*
X92398976Y-93875346D01*
X92383070Y-93860930D01*
X92368654Y-93845024D01*
X92355866Y-93827781D01*
X92344830Y-93809368D01*
X92335651Y-93789962D01*
X92328419Y-93769750D01*
X92323203Y-93748926D01*
X92320053Y-93727691D01*
X92319000Y-93706250D01*
X92319000Y-93268750D01*
X92320053Y-93247309D01*
X92323203Y-93226074D01*
X92328419Y-93205250D01*
X92335651Y-93185038D01*
X92344830Y-93165632D01*
X92355866Y-93147219D01*
X92368654Y-93129976D01*
X92383070Y-93114070D01*
X92398976Y-93099654D01*
X92416219Y-93086866D01*
X92434632Y-93075830D01*
X92454038Y-93066651D01*
X92474250Y-93059419D01*
X92495074Y-93054203D01*
X92516309Y-93051053D01*
X92537750Y-93050000D01*
X93050250Y-93050000D01*
X93071691Y-93051053D01*
X93071691Y-93051053D01*
G37*
D25*
G04 #@! TD*
G04 #@! TO.P,C1,2*
G04 #@! TO.N,GND*
X92794000Y-93487500D03*
D24*
G04 #@! TO.N,GND*
G04 #@! TO.C,C2*
G36*
X92987691Y-74722053D02*
X93008926Y-74725203D01*
X93029750Y-74730419D01*
X93049962Y-74737651D01*
X93069368Y-74746830D01*
X93087781Y-74757866D01*
X93105024Y-74770654D01*
X93120930Y-74785070D01*
X93135346Y-74800976D01*
X93148134Y-74818219D01*
X93159170Y-74836632D01*
X93168349Y-74856038D01*
X93175581Y-74876250D01*
X93180797Y-74897074D01*
X93183947Y-74918309D01*
X93185000Y-74939750D01*
X93185000Y-75377250D01*
X93183947Y-75398691D01*
X93180797Y-75419926D01*
X93175581Y-75440750D01*
X93168349Y-75460962D01*
X93159170Y-75480368D01*
X93148134Y-75498781D01*
X93135346Y-75516024D01*
X93120930Y-75531930D01*
X93105024Y-75546346D01*
X93087781Y-75559134D01*
X93069368Y-75570170D01*
X93049962Y-75579349D01*
X93029750Y-75586581D01*
X93008926Y-75591797D01*
X92987691Y-75594947D01*
X92966250Y-75596000D01*
X92453750Y-75596000D01*
X92432309Y-75594947D01*
X92411074Y-75591797D01*
X92390250Y-75586581D01*
X92370038Y-75579349D01*
X92350632Y-75570170D01*
X92332219Y-75559134D01*
X92314976Y-75546346D01*
X92299070Y-75531930D01*
X92284654Y-75516024D01*
X92271866Y-75498781D01*
X92260830Y-75480368D01*
X92251651Y-75460962D01*
X92244419Y-75440750D01*
X92239203Y-75419926D01*
X92236053Y-75398691D01*
X92235000Y-75377250D01*
X92235000Y-74939750D01*
X92236053Y-74918309D01*
X92239203Y-74897074D01*
X92244419Y-74876250D01*
X92251651Y-74856038D01*
X92260830Y-74836632D01*
X92271866Y-74818219D01*
X92284654Y-74800976D01*
X92299070Y-74785070D01*
X92314976Y-74770654D01*
X92332219Y-74757866D01*
X92350632Y-74746830D01*
X92370038Y-74737651D01*
X92390250Y-74730419D01*
X92411074Y-74725203D01*
X92432309Y-74722053D01*
X92453750Y-74721000D01*
X92966250Y-74721000D01*
X92987691Y-74722053D01*
X92987691Y-74722053D01*
G37*
D25*
G04 #@! TD*
G04 #@! TO.P,C2,2*
G04 #@! TO.N,GND*
X92710000Y-75158500D03*
D24*
G04 #@! TO.N,Net-(C2-Pad1)*
G04 #@! TO.C,C2*
G36*
X92987691Y-76297053D02*
X93008926Y-76300203D01*
X93029750Y-76305419D01*
X93049962Y-76312651D01*
X93069368Y-76321830D01*
X93087781Y-76332866D01*
X93105024Y-76345654D01*
X93120930Y-76360070D01*
X93135346Y-76375976D01*
X93148134Y-76393219D01*
X93159170Y-76411632D01*
X93168349Y-76431038D01*
X93175581Y-76451250D01*
X93180797Y-76472074D01*
X93183947Y-76493309D01*
X93185000Y-76514750D01*
X93185000Y-76952250D01*
X93183947Y-76973691D01*
X93180797Y-76994926D01*
X93175581Y-77015750D01*
X93168349Y-77035962D01*
X93159170Y-77055368D01*
X93148134Y-77073781D01*
X93135346Y-77091024D01*
X93120930Y-77106930D01*
X93105024Y-77121346D01*
X93087781Y-77134134D01*
X93069368Y-77145170D01*
X93049962Y-77154349D01*
X93029750Y-77161581D01*
X93008926Y-77166797D01*
X92987691Y-77169947D01*
X92966250Y-77171000D01*
X92453750Y-77171000D01*
X92432309Y-77169947D01*
X92411074Y-77166797D01*
X92390250Y-77161581D01*
X92370038Y-77154349D01*
X92350632Y-77145170D01*
X92332219Y-77134134D01*
X92314976Y-77121346D01*
X92299070Y-77106930D01*
X92284654Y-77091024D01*
X92271866Y-77073781D01*
X92260830Y-77055368D01*
X92251651Y-77035962D01*
X92244419Y-77015750D01*
X92239203Y-76994926D01*
X92236053Y-76973691D01*
X92235000Y-76952250D01*
X92235000Y-76514750D01*
X92236053Y-76493309D01*
X92239203Y-76472074D01*
X92244419Y-76451250D01*
X92251651Y-76431038D01*
X92260830Y-76411632D01*
X92271866Y-76393219D01*
X92284654Y-76375976D01*
X92299070Y-76360070D01*
X92314976Y-76345654D01*
X92332219Y-76332866D01*
X92350632Y-76321830D01*
X92370038Y-76312651D01*
X92390250Y-76305419D01*
X92411074Y-76300203D01*
X92432309Y-76297053D01*
X92453750Y-76296000D01*
X92966250Y-76296000D01*
X92987691Y-76297053D01*
X92987691Y-76297053D01*
G37*
D25*
G04 #@! TD*
G04 #@! TO.P,C2,1*
G04 #@! TO.N,Net-(C2-Pad1)*
X92710000Y-76733500D03*
D24*
G04 #@! TO.N,GND*
G04 #@! TO.C,C3*
G36*
X91293691Y-93051053D02*
X91314926Y-93054203D01*
X91335750Y-93059419D01*
X91355962Y-93066651D01*
X91375368Y-93075830D01*
X91393781Y-93086866D01*
X91411024Y-93099654D01*
X91426930Y-93114070D01*
X91441346Y-93129976D01*
X91454134Y-93147219D01*
X91465170Y-93165632D01*
X91474349Y-93185038D01*
X91481581Y-93205250D01*
X91486797Y-93226074D01*
X91489947Y-93247309D01*
X91491000Y-93268750D01*
X91491000Y-93706250D01*
X91489947Y-93727691D01*
X91486797Y-93748926D01*
X91481581Y-93769750D01*
X91474349Y-93789962D01*
X91465170Y-93809368D01*
X91454134Y-93827781D01*
X91441346Y-93845024D01*
X91426930Y-93860930D01*
X91411024Y-93875346D01*
X91393781Y-93888134D01*
X91375368Y-93899170D01*
X91355962Y-93908349D01*
X91335750Y-93915581D01*
X91314926Y-93920797D01*
X91293691Y-93923947D01*
X91272250Y-93925000D01*
X90759750Y-93925000D01*
X90738309Y-93923947D01*
X90717074Y-93920797D01*
X90696250Y-93915581D01*
X90676038Y-93908349D01*
X90656632Y-93899170D01*
X90638219Y-93888134D01*
X90620976Y-93875346D01*
X90605070Y-93860930D01*
X90590654Y-93845024D01*
X90577866Y-93827781D01*
X90566830Y-93809368D01*
X90557651Y-93789962D01*
X90550419Y-93769750D01*
X90545203Y-93748926D01*
X90542053Y-93727691D01*
X90541000Y-93706250D01*
X90541000Y-93268750D01*
X90542053Y-93247309D01*
X90545203Y-93226074D01*
X90550419Y-93205250D01*
X90557651Y-93185038D01*
X90566830Y-93165632D01*
X90577866Y-93147219D01*
X90590654Y-93129976D01*
X90605070Y-93114070D01*
X90620976Y-93099654D01*
X90638219Y-93086866D01*
X90656632Y-93075830D01*
X90676038Y-93066651D01*
X90696250Y-93059419D01*
X90717074Y-93054203D01*
X90738309Y-93051053D01*
X90759750Y-93050000D01*
X91272250Y-93050000D01*
X91293691Y-93051053D01*
X91293691Y-93051053D01*
G37*
D25*
G04 #@! TD*
G04 #@! TO.P,C3,2*
G04 #@! TO.N,GND*
X91016000Y-93487500D03*
D24*
G04 #@! TO.N,+BATT*
G04 #@! TO.C,C3*
G36*
X91293691Y-91476053D02*
X91314926Y-91479203D01*
X91335750Y-91484419D01*
X91355962Y-91491651D01*
X91375368Y-91500830D01*
X91393781Y-91511866D01*
X91411024Y-91524654D01*
X91426930Y-91539070D01*
X91441346Y-91554976D01*
X91454134Y-91572219D01*
X91465170Y-91590632D01*
X91474349Y-91610038D01*
X91481581Y-91630250D01*
X91486797Y-91651074D01*
X91489947Y-91672309D01*
X91491000Y-91693750D01*
X91491000Y-92131250D01*
X91489947Y-92152691D01*
X91486797Y-92173926D01*
X91481581Y-92194750D01*
X91474349Y-92214962D01*
X91465170Y-92234368D01*
X91454134Y-92252781D01*
X91441346Y-92270024D01*
X91426930Y-92285930D01*
X91411024Y-92300346D01*
X91393781Y-92313134D01*
X91375368Y-92324170D01*
X91355962Y-92333349D01*
X91335750Y-92340581D01*
X91314926Y-92345797D01*
X91293691Y-92348947D01*
X91272250Y-92350000D01*
X90759750Y-92350000D01*
X90738309Y-92348947D01*
X90717074Y-92345797D01*
X90696250Y-92340581D01*
X90676038Y-92333349D01*
X90656632Y-92324170D01*
X90638219Y-92313134D01*
X90620976Y-92300346D01*
X90605070Y-92285930D01*
X90590654Y-92270024D01*
X90577866Y-92252781D01*
X90566830Y-92234368D01*
X90557651Y-92214962D01*
X90550419Y-92194750D01*
X90545203Y-92173926D01*
X90542053Y-92152691D01*
X90541000Y-92131250D01*
X90541000Y-91693750D01*
X90542053Y-91672309D01*
X90545203Y-91651074D01*
X90550419Y-91630250D01*
X90557651Y-91610038D01*
X90566830Y-91590632D01*
X90577866Y-91572219D01*
X90590654Y-91554976D01*
X90605070Y-91539070D01*
X90620976Y-91524654D01*
X90638219Y-91511866D01*
X90656632Y-91500830D01*
X90676038Y-91491651D01*
X90696250Y-91484419D01*
X90717074Y-91479203D01*
X90738309Y-91476053D01*
X90759750Y-91475000D01*
X91272250Y-91475000D01*
X91293691Y-91476053D01*
X91293691Y-91476053D01*
G37*
D25*
G04 #@! TD*
G04 #@! TO.P,C3,1*
G04 #@! TO.N,+BATT*
X91016000Y-91912500D03*
D24*
G04 #@! TO.N,+BATT*
G04 #@! TO.C,C4*
G36*
X88499691Y-89698053D02*
X88520926Y-89701203D01*
X88541750Y-89706419D01*
X88561962Y-89713651D01*
X88581368Y-89722830D01*
X88599781Y-89733866D01*
X88617024Y-89746654D01*
X88632930Y-89761070D01*
X88647346Y-89776976D01*
X88660134Y-89794219D01*
X88671170Y-89812632D01*
X88680349Y-89832038D01*
X88687581Y-89852250D01*
X88692797Y-89873074D01*
X88695947Y-89894309D01*
X88697000Y-89915750D01*
X88697000Y-90353250D01*
X88695947Y-90374691D01*
X88692797Y-90395926D01*
X88687581Y-90416750D01*
X88680349Y-90436962D01*
X88671170Y-90456368D01*
X88660134Y-90474781D01*
X88647346Y-90492024D01*
X88632930Y-90507930D01*
X88617024Y-90522346D01*
X88599781Y-90535134D01*
X88581368Y-90546170D01*
X88561962Y-90555349D01*
X88541750Y-90562581D01*
X88520926Y-90567797D01*
X88499691Y-90570947D01*
X88478250Y-90572000D01*
X87965750Y-90572000D01*
X87944309Y-90570947D01*
X87923074Y-90567797D01*
X87902250Y-90562581D01*
X87882038Y-90555349D01*
X87862632Y-90546170D01*
X87844219Y-90535134D01*
X87826976Y-90522346D01*
X87811070Y-90507930D01*
X87796654Y-90492024D01*
X87783866Y-90474781D01*
X87772830Y-90456368D01*
X87763651Y-90436962D01*
X87756419Y-90416750D01*
X87751203Y-90395926D01*
X87748053Y-90374691D01*
X87747000Y-90353250D01*
X87747000Y-89915750D01*
X87748053Y-89894309D01*
X87751203Y-89873074D01*
X87756419Y-89852250D01*
X87763651Y-89832038D01*
X87772830Y-89812632D01*
X87783866Y-89794219D01*
X87796654Y-89776976D01*
X87811070Y-89761070D01*
X87826976Y-89746654D01*
X87844219Y-89733866D01*
X87862632Y-89722830D01*
X87882038Y-89713651D01*
X87902250Y-89706419D01*
X87923074Y-89701203D01*
X87944309Y-89698053D01*
X87965750Y-89697000D01*
X88478250Y-89697000D01*
X88499691Y-89698053D01*
X88499691Y-89698053D01*
G37*
D25*
G04 #@! TD*
G04 #@! TO.P,C4,1*
G04 #@! TO.N,+BATT*
X88222000Y-90134500D03*
D24*
G04 #@! TO.N,GND*
G04 #@! TO.C,C4*
G36*
X88499691Y-91273053D02*
X88520926Y-91276203D01*
X88541750Y-91281419D01*
X88561962Y-91288651D01*
X88581368Y-91297830D01*
X88599781Y-91308866D01*
X88617024Y-91321654D01*
X88632930Y-91336070D01*
X88647346Y-91351976D01*
X88660134Y-91369219D01*
X88671170Y-91387632D01*
X88680349Y-91407038D01*
X88687581Y-91427250D01*
X88692797Y-91448074D01*
X88695947Y-91469309D01*
X88697000Y-91490750D01*
X88697000Y-91928250D01*
X88695947Y-91949691D01*
X88692797Y-91970926D01*
X88687581Y-91991750D01*
X88680349Y-92011962D01*
X88671170Y-92031368D01*
X88660134Y-92049781D01*
X88647346Y-92067024D01*
X88632930Y-92082930D01*
X88617024Y-92097346D01*
X88599781Y-92110134D01*
X88581368Y-92121170D01*
X88561962Y-92130349D01*
X88541750Y-92137581D01*
X88520926Y-92142797D01*
X88499691Y-92145947D01*
X88478250Y-92147000D01*
X87965750Y-92147000D01*
X87944309Y-92145947D01*
X87923074Y-92142797D01*
X87902250Y-92137581D01*
X87882038Y-92130349D01*
X87862632Y-92121170D01*
X87844219Y-92110134D01*
X87826976Y-92097346D01*
X87811070Y-92082930D01*
X87796654Y-92067024D01*
X87783866Y-92049781D01*
X87772830Y-92031368D01*
X87763651Y-92011962D01*
X87756419Y-91991750D01*
X87751203Y-91970926D01*
X87748053Y-91949691D01*
X87747000Y-91928250D01*
X87747000Y-91490750D01*
X87748053Y-91469309D01*
X87751203Y-91448074D01*
X87756419Y-91427250D01*
X87763651Y-91407038D01*
X87772830Y-91387632D01*
X87783866Y-91369219D01*
X87796654Y-91351976D01*
X87811070Y-91336070D01*
X87826976Y-91321654D01*
X87844219Y-91308866D01*
X87862632Y-91297830D01*
X87882038Y-91288651D01*
X87902250Y-91281419D01*
X87923074Y-91276203D01*
X87944309Y-91273053D01*
X87965750Y-91272000D01*
X88478250Y-91272000D01*
X88499691Y-91273053D01*
X88499691Y-91273053D01*
G37*
D25*
G04 #@! TD*
G04 #@! TO.P,C4,2*
G04 #@! TO.N,GND*
X88222000Y-91709500D03*
D24*
G04 #@! TO.N,+BATT*
G04 #@! TO.C,C6*
G36*
X105177691Y-79843053D02*
X105198926Y-79846203D01*
X105219750Y-79851419D01*
X105239962Y-79858651D01*
X105259368Y-79867830D01*
X105277781Y-79878866D01*
X105295024Y-79891654D01*
X105310930Y-79906070D01*
X105325346Y-79921976D01*
X105338134Y-79939219D01*
X105349170Y-79957632D01*
X105358349Y-79977038D01*
X105365581Y-79997250D01*
X105370797Y-80018074D01*
X105373947Y-80039309D01*
X105375000Y-80060750D01*
X105375000Y-80498250D01*
X105373947Y-80519691D01*
X105370797Y-80540926D01*
X105365581Y-80561750D01*
X105358349Y-80581962D01*
X105349170Y-80601368D01*
X105338134Y-80619781D01*
X105325346Y-80637024D01*
X105310930Y-80652930D01*
X105295024Y-80667346D01*
X105277781Y-80680134D01*
X105259368Y-80691170D01*
X105239962Y-80700349D01*
X105219750Y-80707581D01*
X105198926Y-80712797D01*
X105177691Y-80715947D01*
X105156250Y-80717000D01*
X104643750Y-80717000D01*
X104622309Y-80715947D01*
X104601074Y-80712797D01*
X104580250Y-80707581D01*
X104560038Y-80700349D01*
X104540632Y-80691170D01*
X104522219Y-80680134D01*
X104504976Y-80667346D01*
X104489070Y-80652930D01*
X104474654Y-80637024D01*
X104461866Y-80619781D01*
X104450830Y-80601368D01*
X104441651Y-80581962D01*
X104434419Y-80561750D01*
X104429203Y-80540926D01*
X104426053Y-80519691D01*
X104425000Y-80498250D01*
X104425000Y-80060750D01*
X104426053Y-80039309D01*
X104429203Y-80018074D01*
X104434419Y-79997250D01*
X104441651Y-79977038D01*
X104450830Y-79957632D01*
X104461866Y-79939219D01*
X104474654Y-79921976D01*
X104489070Y-79906070D01*
X104504976Y-79891654D01*
X104522219Y-79878866D01*
X104540632Y-79867830D01*
X104560038Y-79858651D01*
X104580250Y-79851419D01*
X104601074Y-79846203D01*
X104622309Y-79843053D01*
X104643750Y-79842000D01*
X105156250Y-79842000D01*
X105177691Y-79843053D01*
X105177691Y-79843053D01*
G37*
D25*
G04 #@! TD*
G04 #@! TO.P,C6,1*
G04 #@! TO.N,+BATT*
X104900000Y-80279500D03*
D24*
G04 #@! TO.N,GND*
G04 #@! TO.C,C6*
G36*
X105177691Y-78268053D02*
X105198926Y-78271203D01*
X105219750Y-78276419D01*
X105239962Y-78283651D01*
X105259368Y-78292830D01*
X105277781Y-78303866D01*
X105295024Y-78316654D01*
X105310930Y-78331070D01*
X105325346Y-78346976D01*
X105338134Y-78364219D01*
X105349170Y-78382632D01*
X105358349Y-78402038D01*
X105365581Y-78422250D01*
X105370797Y-78443074D01*
X105373947Y-78464309D01*
X105375000Y-78485750D01*
X105375000Y-78923250D01*
X105373947Y-78944691D01*
X105370797Y-78965926D01*
X105365581Y-78986750D01*
X105358349Y-79006962D01*
X105349170Y-79026368D01*
X105338134Y-79044781D01*
X105325346Y-79062024D01*
X105310930Y-79077930D01*
X105295024Y-79092346D01*
X105277781Y-79105134D01*
X105259368Y-79116170D01*
X105239962Y-79125349D01*
X105219750Y-79132581D01*
X105198926Y-79137797D01*
X105177691Y-79140947D01*
X105156250Y-79142000D01*
X104643750Y-79142000D01*
X104622309Y-79140947D01*
X104601074Y-79137797D01*
X104580250Y-79132581D01*
X104560038Y-79125349D01*
X104540632Y-79116170D01*
X104522219Y-79105134D01*
X104504976Y-79092346D01*
X104489070Y-79077930D01*
X104474654Y-79062024D01*
X104461866Y-79044781D01*
X104450830Y-79026368D01*
X104441651Y-79006962D01*
X104434419Y-78986750D01*
X104429203Y-78965926D01*
X104426053Y-78944691D01*
X104425000Y-78923250D01*
X104425000Y-78485750D01*
X104426053Y-78464309D01*
X104429203Y-78443074D01*
X104434419Y-78422250D01*
X104441651Y-78402038D01*
X104450830Y-78382632D01*
X104461866Y-78364219D01*
X104474654Y-78346976D01*
X104489070Y-78331070D01*
X104504976Y-78316654D01*
X104522219Y-78303866D01*
X104540632Y-78292830D01*
X104560038Y-78283651D01*
X104580250Y-78276419D01*
X104601074Y-78271203D01*
X104622309Y-78268053D01*
X104643750Y-78267000D01*
X105156250Y-78267000D01*
X105177691Y-78268053D01*
X105177691Y-78268053D01*
G37*
D25*
G04 #@! TD*
G04 #@! TO.P,C6,2*
G04 #@! TO.N,GND*
X104900000Y-78704500D03*
D24*
G04 #@! TO.N,+BATT*
G04 #@! TO.C,R1*
G36*
X80879691Y-75525053D02*
X80900926Y-75528203D01*
X80921750Y-75533419D01*
X80941962Y-75540651D01*
X80961368Y-75549830D01*
X80979781Y-75560866D01*
X80997024Y-75573654D01*
X81012930Y-75588070D01*
X81027346Y-75603976D01*
X81040134Y-75621219D01*
X81051170Y-75639632D01*
X81060349Y-75659038D01*
X81067581Y-75679250D01*
X81072797Y-75700074D01*
X81075947Y-75721309D01*
X81077000Y-75742750D01*
X81077000Y-76180250D01*
X81075947Y-76201691D01*
X81072797Y-76222926D01*
X81067581Y-76243750D01*
X81060349Y-76263962D01*
X81051170Y-76283368D01*
X81040134Y-76301781D01*
X81027346Y-76319024D01*
X81012930Y-76334930D01*
X80997024Y-76349346D01*
X80979781Y-76362134D01*
X80961368Y-76373170D01*
X80941962Y-76382349D01*
X80921750Y-76389581D01*
X80900926Y-76394797D01*
X80879691Y-76397947D01*
X80858250Y-76399000D01*
X80345750Y-76399000D01*
X80324309Y-76397947D01*
X80303074Y-76394797D01*
X80282250Y-76389581D01*
X80262038Y-76382349D01*
X80242632Y-76373170D01*
X80224219Y-76362134D01*
X80206976Y-76349346D01*
X80191070Y-76334930D01*
X80176654Y-76319024D01*
X80163866Y-76301781D01*
X80152830Y-76283368D01*
X80143651Y-76263962D01*
X80136419Y-76243750D01*
X80131203Y-76222926D01*
X80128053Y-76201691D01*
X80127000Y-76180250D01*
X80127000Y-75742750D01*
X80128053Y-75721309D01*
X80131203Y-75700074D01*
X80136419Y-75679250D01*
X80143651Y-75659038D01*
X80152830Y-75639632D01*
X80163866Y-75621219D01*
X80176654Y-75603976D01*
X80191070Y-75588070D01*
X80206976Y-75573654D01*
X80224219Y-75560866D01*
X80242632Y-75549830D01*
X80262038Y-75540651D01*
X80282250Y-75533419D01*
X80303074Y-75528203D01*
X80324309Y-75525053D01*
X80345750Y-75524000D01*
X80858250Y-75524000D01*
X80879691Y-75525053D01*
X80879691Y-75525053D01*
G37*
D25*
G04 #@! TD*
G04 #@! TO.P,R1,1*
G04 #@! TO.N,+BATT*
X80602000Y-75961500D03*
D24*
G04 #@! TO.N,/SCL*
G04 #@! TO.C,R1*
G36*
X80879691Y-73950053D02*
X80900926Y-73953203D01*
X80921750Y-73958419D01*
X80941962Y-73965651D01*
X80961368Y-73974830D01*
X80979781Y-73985866D01*
X80997024Y-73998654D01*
X81012930Y-74013070D01*
X81027346Y-74028976D01*
X81040134Y-74046219D01*
X81051170Y-74064632D01*
X81060349Y-74084038D01*
X81067581Y-74104250D01*
X81072797Y-74125074D01*
X81075947Y-74146309D01*
X81077000Y-74167750D01*
X81077000Y-74605250D01*
X81075947Y-74626691D01*
X81072797Y-74647926D01*
X81067581Y-74668750D01*
X81060349Y-74688962D01*
X81051170Y-74708368D01*
X81040134Y-74726781D01*
X81027346Y-74744024D01*
X81012930Y-74759930D01*
X80997024Y-74774346D01*
X80979781Y-74787134D01*
X80961368Y-74798170D01*
X80941962Y-74807349D01*
X80921750Y-74814581D01*
X80900926Y-74819797D01*
X80879691Y-74822947D01*
X80858250Y-74824000D01*
X80345750Y-74824000D01*
X80324309Y-74822947D01*
X80303074Y-74819797D01*
X80282250Y-74814581D01*
X80262038Y-74807349D01*
X80242632Y-74798170D01*
X80224219Y-74787134D01*
X80206976Y-74774346D01*
X80191070Y-74759930D01*
X80176654Y-74744024D01*
X80163866Y-74726781D01*
X80152830Y-74708368D01*
X80143651Y-74688962D01*
X80136419Y-74668750D01*
X80131203Y-74647926D01*
X80128053Y-74626691D01*
X80127000Y-74605250D01*
X80127000Y-74167750D01*
X80128053Y-74146309D01*
X80131203Y-74125074D01*
X80136419Y-74104250D01*
X80143651Y-74084038D01*
X80152830Y-74064632D01*
X80163866Y-74046219D01*
X80176654Y-74028976D01*
X80191070Y-74013070D01*
X80206976Y-73998654D01*
X80224219Y-73985866D01*
X80242632Y-73974830D01*
X80262038Y-73965651D01*
X80282250Y-73958419D01*
X80303074Y-73953203D01*
X80324309Y-73950053D01*
X80345750Y-73949000D01*
X80858250Y-73949000D01*
X80879691Y-73950053D01*
X80879691Y-73950053D01*
G37*
D25*
G04 #@! TD*
G04 #@! TO.P,R1,2*
G04 #@! TO.N,/SCL*
X80602000Y-74386500D03*
D24*
G04 #@! TO.N,/SDA*
G04 #@! TO.C,R2*
G36*
X82403691Y-73950053D02*
X82424926Y-73953203D01*
X82445750Y-73958419D01*
X82465962Y-73965651D01*
X82485368Y-73974830D01*
X82503781Y-73985866D01*
X82521024Y-73998654D01*
X82536930Y-74013070D01*
X82551346Y-74028976D01*
X82564134Y-74046219D01*
X82575170Y-74064632D01*
X82584349Y-74084038D01*
X82591581Y-74104250D01*
X82596797Y-74125074D01*
X82599947Y-74146309D01*
X82601000Y-74167750D01*
X82601000Y-74605250D01*
X82599947Y-74626691D01*
X82596797Y-74647926D01*
X82591581Y-74668750D01*
X82584349Y-74688962D01*
X82575170Y-74708368D01*
X82564134Y-74726781D01*
X82551346Y-74744024D01*
X82536930Y-74759930D01*
X82521024Y-74774346D01*
X82503781Y-74787134D01*
X82485368Y-74798170D01*
X82465962Y-74807349D01*
X82445750Y-74814581D01*
X82424926Y-74819797D01*
X82403691Y-74822947D01*
X82382250Y-74824000D01*
X81869750Y-74824000D01*
X81848309Y-74822947D01*
X81827074Y-74819797D01*
X81806250Y-74814581D01*
X81786038Y-74807349D01*
X81766632Y-74798170D01*
X81748219Y-74787134D01*
X81730976Y-74774346D01*
X81715070Y-74759930D01*
X81700654Y-74744024D01*
X81687866Y-74726781D01*
X81676830Y-74708368D01*
X81667651Y-74688962D01*
X81660419Y-74668750D01*
X81655203Y-74647926D01*
X81652053Y-74626691D01*
X81651000Y-74605250D01*
X81651000Y-74167750D01*
X81652053Y-74146309D01*
X81655203Y-74125074D01*
X81660419Y-74104250D01*
X81667651Y-74084038D01*
X81676830Y-74064632D01*
X81687866Y-74046219D01*
X81700654Y-74028976D01*
X81715070Y-74013070D01*
X81730976Y-73998654D01*
X81748219Y-73985866D01*
X81766632Y-73974830D01*
X81786038Y-73965651D01*
X81806250Y-73958419D01*
X81827074Y-73953203D01*
X81848309Y-73950053D01*
X81869750Y-73949000D01*
X82382250Y-73949000D01*
X82403691Y-73950053D01*
X82403691Y-73950053D01*
G37*
D25*
G04 #@! TD*
G04 #@! TO.P,R2,2*
G04 #@! TO.N,/SDA*
X82126000Y-74386500D03*
D24*
G04 #@! TO.N,+BATT*
G04 #@! TO.C,R2*
G36*
X82403691Y-75525053D02*
X82424926Y-75528203D01*
X82445750Y-75533419D01*
X82465962Y-75540651D01*
X82485368Y-75549830D01*
X82503781Y-75560866D01*
X82521024Y-75573654D01*
X82536930Y-75588070D01*
X82551346Y-75603976D01*
X82564134Y-75621219D01*
X82575170Y-75639632D01*
X82584349Y-75659038D01*
X82591581Y-75679250D01*
X82596797Y-75700074D01*
X82599947Y-75721309D01*
X82601000Y-75742750D01*
X82601000Y-76180250D01*
X82599947Y-76201691D01*
X82596797Y-76222926D01*
X82591581Y-76243750D01*
X82584349Y-76263962D01*
X82575170Y-76283368D01*
X82564134Y-76301781D01*
X82551346Y-76319024D01*
X82536930Y-76334930D01*
X82521024Y-76349346D01*
X82503781Y-76362134D01*
X82485368Y-76373170D01*
X82465962Y-76382349D01*
X82445750Y-76389581D01*
X82424926Y-76394797D01*
X82403691Y-76397947D01*
X82382250Y-76399000D01*
X81869750Y-76399000D01*
X81848309Y-76397947D01*
X81827074Y-76394797D01*
X81806250Y-76389581D01*
X81786038Y-76382349D01*
X81766632Y-76373170D01*
X81748219Y-76362134D01*
X81730976Y-76349346D01*
X81715070Y-76334930D01*
X81700654Y-76319024D01*
X81687866Y-76301781D01*
X81676830Y-76283368D01*
X81667651Y-76263962D01*
X81660419Y-76243750D01*
X81655203Y-76222926D01*
X81652053Y-76201691D01*
X81651000Y-76180250D01*
X81651000Y-75742750D01*
X81652053Y-75721309D01*
X81655203Y-75700074D01*
X81660419Y-75679250D01*
X81667651Y-75659038D01*
X81676830Y-75639632D01*
X81687866Y-75621219D01*
X81700654Y-75603976D01*
X81715070Y-75588070D01*
X81730976Y-75573654D01*
X81748219Y-75560866D01*
X81766632Y-75549830D01*
X81786038Y-75540651D01*
X81806250Y-75533419D01*
X81827074Y-75528203D01*
X81848309Y-75525053D01*
X81869750Y-75524000D01*
X82382250Y-75524000D01*
X82403691Y-75525053D01*
X82403691Y-75525053D01*
G37*
D25*
G04 #@! TD*
G04 #@! TO.P,R2,1*
G04 #@! TO.N,+BATT*
X82126000Y-75961500D03*
D24*
G04 #@! TO.N,+BATT*
G04 #@! TO.C,R3*
G36*
X86721691Y-89698053D02*
X86742926Y-89701203D01*
X86763750Y-89706419D01*
X86783962Y-89713651D01*
X86803368Y-89722830D01*
X86821781Y-89733866D01*
X86839024Y-89746654D01*
X86854930Y-89761070D01*
X86869346Y-89776976D01*
X86882134Y-89794219D01*
X86893170Y-89812632D01*
X86902349Y-89832038D01*
X86909581Y-89852250D01*
X86914797Y-89873074D01*
X86917947Y-89894309D01*
X86919000Y-89915750D01*
X86919000Y-90353250D01*
X86917947Y-90374691D01*
X86914797Y-90395926D01*
X86909581Y-90416750D01*
X86902349Y-90436962D01*
X86893170Y-90456368D01*
X86882134Y-90474781D01*
X86869346Y-90492024D01*
X86854930Y-90507930D01*
X86839024Y-90522346D01*
X86821781Y-90535134D01*
X86803368Y-90546170D01*
X86783962Y-90555349D01*
X86763750Y-90562581D01*
X86742926Y-90567797D01*
X86721691Y-90570947D01*
X86700250Y-90572000D01*
X86187750Y-90572000D01*
X86166309Y-90570947D01*
X86145074Y-90567797D01*
X86124250Y-90562581D01*
X86104038Y-90555349D01*
X86084632Y-90546170D01*
X86066219Y-90535134D01*
X86048976Y-90522346D01*
X86033070Y-90507930D01*
X86018654Y-90492024D01*
X86005866Y-90474781D01*
X85994830Y-90456368D01*
X85985651Y-90436962D01*
X85978419Y-90416750D01*
X85973203Y-90395926D01*
X85970053Y-90374691D01*
X85969000Y-90353250D01*
X85969000Y-89915750D01*
X85970053Y-89894309D01*
X85973203Y-89873074D01*
X85978419Y-89852250D01*
X85985651Y-89832038D01*
X85994830Y-89812632D01*
X86005866Y-89794219D01*
X86018654Y-89776976D01*
X86033070Y-89761070D01*
X86048976Y-89746654D01*
X86066219Y-89733866D01*
X86084632Y-89722830D01*
X86104038Y-89713651D01*
X86124250Y-89706419D01*
X86145074Y-89701203D01*
X86166309Y-89698053D01*
X86187750Y-89697000D01*
X86700250Y-89697000D01*
X86721691Y-89698053D01*
X86721691Y-89698053D01*
G37*
D25*
G04 #@! TD*
G04 #@! TO.P,R3,1*
G04 #@! TO.N,+BATT*
X86444000Y-90134500D03*
D24*
G04 #@! TO.N,/RESET*
G04 #@! TO.C,R3*
G36*
X86721691Y-91273053D02*
X86742926Y-91276203D01*
X86763750Y-91281419D01*
X86783962Y-91288651D01*
X86803368Y-91297830D01*
X86821781Y-91308866D01*
X86839024Y-91321654D01*
X86854930Y-91336070D01*
X86869346Y-91351976D01*
X86882134Y-91369219D01*
X86893170Y-91387632D01*
X86902349Y-91407038D01*
X86909581Y-91427250D01*
X86914797Y-91448074D01*
X86917947Y-91469309D01*
X86919000Y-91490750D01*
X86919000Y-91928250D01*
X86917947Y-91949691D01*
X86914797Y-91970926D01*
X86909581Y-91991750D01*
X86902349Y-92011962D01*
X86893170Y-92031368D01*
X86882134Y-92049781D01*
X86869346Y-92067024D01*
X86854930Y-92082930D01*
X86839024Y-92097346D01*
X86821781Y-92110134D01*
X86803368Y-92121170D01*
X86783962Y-92130349D01*
X86763750Y-92137581D01*
X86742926Y-92142797D01*
X86721691Y-92145947D01*
X86700250Y-92147000D01*
X86187750Y-92147000D01*
X86166309Y-92145947D01*
X86145074Y-92142797D01*
X86124250Y-92137581D01*
X86104038Y-92130349D01*
X86084632Y-92121170D01*
X86066219Y-92110134D01*
X86048976Y-92097346D01*
X86033070Y-92082930D01*
X86018654Y-92067024D01*
X86005866Y-92049781D01*
X85994830Y-92031368D01*
X85985651Y-92011962D01*
X85978419Y-91991750D01*
X85973203Y-91970926D01*
X85970053Y-91949691D01*
X85969000Y-91928250D01*
X85969000Y-91490750D01*
X85970053Y-91469309D01*
X85973203Y-91448074D01*
X85978419Y-91427250D01*
X85985651Y-91407038D01*
X85994830Y-91387632D01*
X86005866Y-91369219D01*
X86018654Y-91351976D01*
X86033070Y-91336070D01*
X86048976Y-91321654D01*
X86066219Y-91308866D01*
X86084632Y-91297830D01*
X86104038Y-91288651D01*
X86124250Y-91281419D01*
X86145074Y-91276203D01*
X86166309Y-91273053D01*
X86187750Y-91272000D01*
X86700250Y-91272000D01*
X86721691Y-91273053D01*
X86721691Y-91273053D01*
G37*
D25*
G04 #@! TD*
G04 #@! TO.P,R3,2*
G04 #@! TO.N,/RESET*
X86444000Y-91709500D03*
D24*
G04 #@! TO.N,/SW_0*
G04 #@! TO.C,R4*
G36*
X92055691Y-67651053D02*
X92076926Y-67654203D01*
X92097750Y-67659419D01*
X92117962Y-67666651D01*
X92137368Y-67675830D01*
X92155781Y-67686866D01*
X92173024Y-67699654D01*
X92188930Y-67714070D01*
X92203346Y-67729976D01*
X92216134Y-67747219D01*
X92227170Y-67765632D01*
X92236349Y-67785038D01*
X92243581Y-67805250D01*
X92248797Y-67826074D01*
X92251947Y-67847309D01*
X92253000Y-67868750D01*
X92253000Y-68306250D01*
X92251947Y-68327691D01*
X92248797Y-68348926D01*
X92243581Y-68369750D01*
X92236349Y-68389962D01*
X92227170Y-68409368D01*
X92216134Y-68427781D01*
X92203346Y-68445024D01*
X92188930Y-68460930D01*
X92173024Y-68475346D01*
X92155781Y-68488134D01*
X92137368Y-68499170D01*
X92117962Y-68508349D01*
X92097750Y-68515581D01*
X92076926Y-68520797D01*
X92055691Y-68523947D01*
X92034250Y-68525000D01*
X91521750Y-68525000D01*
X91500309Y-68523947D01*
X91479074Y-68520797D01*
X91458250Y-68515581D01*
X91438038Y-68508349D01*
X91418632Y-68499170D01*
X91400219Y-68488134D01*
X91382976Y-68475346D01*
X91367070Y-68460930D01*
X91352654Y-68445024D01*
X91339866Y-68427781D01*
X91328830Y-68409368D01*
X91319651Y-68389962D01*
X91312419Y-68369750D01*
X91307203Y-68348926D01*
X91304053Y-68327691D01*
X91303000Y-68306250D01*
X91303000Y-67868750D01*
X91304053Y-67847309D01*
X91307203Y-67826074D01*
X91312419Y-67805250D01*
X91319651Y-67785038D01*
X91328830Y-67765632D01*
X91339866Y-67747219D01*
X91352654Y-67729976D01*
X91367070Y-67714070D01*
X91382976Y-67699654D01*
X91400219Y-67686866D01*
X91418632Y-67675830D01*
X91438038Y-67666651D01*
X91458250Y-67659419D01*
X91479074Y-67654203D01*
X91500309Y-67651053D01*
X91521750Y-67650000D01*
X92034250Y-67650000D01*
X92055691Y-67651053D01*
X92055691Y-67651053D01*
G37*
D25*
G04 #@! TD*
G04 #@! TO.P,R4,2*
G04 #@! TO.N,/SW_0*
X91778000Y-68087500D03*
D24*
G04 #@! TO.N,+BATT*
G04 #@! TO.C,R4*
G36*
X92055691Y-66076053D02*
X92076926Y-66079203D01*
X92097750Y-66084419D01*
X92117962Y-66091651D01*
X92137368Y-66100830D01*
X92155781Y-66111866D01*
X92173024Y-66124654D01*
X92188930Y-66139070D01*
X92203346Y-66154976D01*
X92216134Y-66172219D01*
X92227170Y-66190632D01*
X92236349Y-66210038D01*
X92243581Y-66230250D01*
X92248797Y-66251074D01*
X92251947Y-66272309D01*
X92253000Y-66293750D01*
X92253000Y-66731250D01*
X92251947Y-66752691D01*
X92248797Y-66773926D01*
X92243581Y-66794750D01*
X92236349Y-66814962D01*
X92227170Y-66834368D01*
X92216134Y-66852781D01*
X92203346Y-66870024D01*
X92188930Y-66885930D01*
X92173024Y-66900346D01*
X92155781Y-66913134D01*
X92137368Y-66924170D01*
X92117962Y-66933349D01*
X92097750Y-66940581D01*
X92076926Y-66945797D01*
X92055691Y-66948947D01*
X92034250Y-66950000D01*
X91521750Y-66950000D01*
X91500309Y-66948947D01*
X91479074Y-66945797D01*
X91458250Y-66940581D01*
X91438038Y-66933349D01*
X91418632Y-66924170D01*
X91400219Y-66913134D01*
X91382976Y-66900346D01*
X91367070Y-66885930D01*
X91352654Y-66870024D01*
X91339866Y-66852781D01*
X91328830Y-66834368D01*
X91319651Y-66814962D01*
X91312419Y-66794750D01*
X91307203Y-66773926D01*
X91304053Y-66752691D01*
X91303000Y-66731250D01*
X91303000Y-66293750D01*
X91304053Y-66272309D01*
X91307203Y-66251074D01*
X91312419Y-66230250D01*
X91319651Y-66210038D01*
X91328830Y-66190632D01*
X91339866Y-66172219D01*
X91352654Y-66154976D01*
X91367070Y-66139070D01*
X91382976Y-66124654D01*
X91400219Y-66111866D01*
X91418632Y-66100830D01*
X91438038Y-66091651D01*
X91458250Y-66084419D01*
X91479074Y-66079203D01*
X91500309Y-66076053D01*
X91521750Y-66075000D01*
X92034250Y-66075000D01*
X92055691Y-66076053D01*
X92055691Y-66076053D01*
G37*
D25*
G04 #@! TD*
G04 #@! TO.P,R4,1*
G04 #@! TO.N,+BATT*
X91778000Y-66512500D03*
D24*
G04 #@! TO.N,+BATT*
G04 #@! TO.C,R5*
G36*
X82911691Y-66076053D02*
X82932926Y-66079203D01*
X82953750Y-66084419D01*
X82973962Y-66091651D01*
X82993368Y-66100830D01*
X83011781Y-66111866D01*
X83029024Y-66124654D01*
X83044930Y-66139070D01*
X83059346Y-66154976D01*
X83072134Y-66172219D01*
X83083170Y-66190632D01*
X83092349Y-66210038D01*
X83099581Y-66230250D01*
X83104797Y-66251074D01*
X83107947Y-66272309D01*
X83109000Y-66293750D01*
X83109000Y-66731250D01*
X83107947Y-66752691D01*
X83104797Y-66773926D01*
X83099581Y-66794750D01*
X83092349Y-66814962D01*
X83083170Y-66834368D01*
X83072134Y-66852781D01*
X83059346Y-66870024D01*
X83044930Y-66885930D01*
X83029024Y-66900346D01*
X83011781Y-66913134D01*
X82993368Y-66924170D01*
X82973962Y-66933349D01*
X82953750Y-66940581D01*
X82932926Y-66945797D01*
X82911691Y-66948947D01*
X82890250Y-66950000D01*
X82377750Y-66950000D01*
X82356309Y-66948947D01*
X82335074Y-66945797D01*
X82314250Y-66940581D01*
X82294038Y-66933349D01*
X82274632Y-66924170D01*
X82256219Y-66913134D01*
X82238976Y-66900346D01*
X82223070Y-66885930D01*
X82208654Y-66870024D01*
X82195866Y-66852781D01*
X82184830Y-66834368D01*
X82175651Y-66814962D01*
X82168419Y-66794750D01*
X82163203Y-66773926D01*
X82160053Y-66752691D01*
X82159000Y-66731250D01*
X82159000Y-66293750D01*
X82160053Y-66272309D01*
X82163203Y-66251074D01*
X82168419Y-66230250D01*
X82175651Y-66210038D01*
X82184830Y-66190632D01*
X82195866Y-66172219D01*
X82208654Y-66154976D01*
X82223070Y-66139070D01*
X82238976Y-66124654D01*
X82256219Y-66111866D01*
X82274632Y-66100830D01*
X82294038Y-66091651D01*
X82314250Y-66084419D01*
X82335074Y-66079203D01*
X82356309Y-66076053D01*
X82377750Y-66075000D01*
X82890250Y-66075000D01*
X82911691Y-66076053D01*
X82911691Y-66076053D01*
G37*
D25*
G04 #@! TD*
G04 #@! TO.P,R5,1*
G04 #@! TO.N,+BATT*
X82634000Y-66512500D03*
D24*
G04 #@! TO.N,/SW_1*
G04 #@! TO.C,R5*
G36*
X82911691Y-67651053D02*
X82932926Y-67654203D01*
X82953750Y-67659419D01*
X82973962Y-67666651D01*
X82993368Y-67675830D01*
X83011781Y-67686866D01*
X83029024Y-67699654D01*
X83044930Y-67714070D01*
X83059346Y-67729976D01*
X83072134Y-67747219D01*
X83083170Y-67765632D01*
X83092349Y-67785038D01*
X83099581Y-67805250D01*
X83104797Y-67826074D01*
X83107947Y-67847309D01*
X83109000Y-67868750D01*
X83109000Y-68306250D01*
X83107947Y-68327691D01*
X83104797Y-68348926D01*
X83099581Y-68369750D01*
X83092349Y-68389962D01*
X83083170Y-68409368D01*
X83072134Y-68427781D01*
X83059346Y-68445024D01*
X83044930Y-68460930D01*
X83029024Y-68475346D01*
X83011781Y-68488134D01*
X82993368Y-68499170D01*
X82973962Y-68508349D01*
X82953750Y-68515581D01*
X82932926Y-68520797D01*
X82911691Y-68523947D01*
X82890250Y-68525000D01*
X82377750Y-68525000D01*
X82356309Y-68523947D01*
X82335074Y-68520797D01*
X82314250Y-68515581D01*
X82294038Y-68508349D01*
X82274632Y-68499170D01*
X82256219Y-68488134D01*
X82238976Y-68475346D01*
X82223070Y-68460930D01*
X82208654Y-68445024D01*
X82195866Y-68427781D01*
X82184830Y-68409368D01*
X82175651Y-68389962D01*
X82168419Y-68369750D01*
X82163203Y-68348926D01*
X82160053Y-68327691D01*
X82159000Y-68306250D01*
X82159000Y-67868750D01*
X82160053Y-67847309D01*
X82163203Y-67826074D01*
X82168419Y-67805250D01*
X82175651Y-67785038D01*
X82184830Y-67765632D01*
X82195866Y-67747219D01*
X82208654Y-67729976D01*
X82223070Y-67714070D01*
X82238976Y-67699654D01*
X82256219Y-67686866D01*
X82274632Y-67675830D01*
X82294038Y-67666651D01*
X82314250Y-67659419D01*
X82335074Y-67654203D01*
X82356309Y-67651053D01*
X82377750Y-67650000D01*
X82890250Y-67650000D01*
X82911691Y-67651053D01*
X82911691Y-67651053D01*
G37*
D25*
G04 #@! TD*
G04 #@! TO.P,R5,2*
G04 #@! TO.N,/SW_1*
X82634000Y-68087500D03*
D24*
G04 #@! TO.N,Net-(N1-PadA)*
G04 #@! TO.C,R6*
G36*
X76561691Y-79589053D02*
X76582926Y-79592203D01*
X76603750Y-79597419D01*
X76623962Y-79604651D01*
X76643368Y-79613830D01*
X76661781Y-79624866D01*
X76679024Y-79637654D01*
X76694930Y-79652070D01*
X76709346Y-79667976D01*
X76722134Y-79685219D01*
X76733170Y-79703632D01*
X76742349Y-79723038D01*
X76749581Y-79743250D01*
X76754797Y-79764074D01*
X76757947Y-79785309D01*
X76759000Y-79806750D01*
X76759000Y-80244250D01*
X76757947Y-80265691D01*
X76754797Y-80286926D01*
X76749581Y-80307750D01*
X76742349Y-80327962D01*
X76733170Y-80347368D01*
X76722134Y-80365781D01*
X76709346Y-80383024D01*
X76694930Y-80398930D01*
X76679024Y-80413346D01*
X76661781Y-80426134D01*
X76643368Y-80437170D01*
X76623962Y-80446349D01*
X76603750Y-80453581D01*
X76582926Y-80458797D01*
X76561691Y-80461947D01*
X76540250Y-80463000D01*
X76027750Y-80463000D01*
X76006309Y-80461947D01*
X75985074Y-80458797D01*
X75964250Y-80453581D01*
X75944038Y-80446349D01*
X75924632Y-80437170D01*
X75906219Y-80426134D01*
X75888976Y-80413346D01*
X75873070Y-80398930D01*
X75858654Y-80383024D01*
X75845866Y-80365781D01*
X75834830Y-80347368D01*
X75825651Y-80327962D01*
X75818419Y-80307750D01*
X75813203Y-80286926D01*
X75810053Y-80265691D01*
X75809000Y-80244250D01*
X75809000Y-79806750D01*
X75810053Y-79785309D01*
X75813203Y-79764074D01*
X75818419Y-79743250D01*
X75825651Y-79723038D01*
X75834830Y-79703632D01*
X75845866Y-79685219D01*
X75858654Y-79667976D01*
X75873070Y-79652070D01*
X75888976Y-79637654D01*
X75906219Y-79624866D01*
X75924632Y-79613830D01*
X75944038Y-79604651D01*
X75964250Y-79597419D01*
X75985074Y-79592203D01*
X76006309Y-79589053D01*
X76027750Y-79588000D01*
X76540250Y-79588000D01*
X76561691Y-79589053D01*
X76561691Y-79589053D01*
G37*
D25*
G04 #@! TD*
G04 #@! TO.P,R6,2*
G04 #@! TO.N,Net-(N1-PadA)*
X76284000Y-80025500D03*
D24*
G04 #@! TO.N,Net-(Q1-Pad2)*
G04 #@! TO.C,R6*
G36*
X76561691Y-78014053D02*
X76582926Y-78017203D01*
X76603750Y-78022419D01*
X76623962Y-78029651D01*
X76643368Y-78038830D01*
X76661781Y-78049866D01*
X76679024Y-78062654D01*
X76694930Y-78077070D01*
X76709346Y-78092976D01*
X76722134Y-78110219D01*
X76733170Y-78128632D01*
X76742349Y-78148038D01*
X76749581Y-78168250D01*
X76754797Y-78189074D01*
X76757947Y-78210309D01*
X76759000Y-78231750D01*
X76759000Y-78669250D01*
X76757947Y-78690691D01*
X76754797Y-78711926D01*
X76749581Y-78732750D01*
X76742349Y-78752962D01*
X76733170Y-78772368D01*
X76722134Y-78790781D01*
X76709346Y-78808024D01*
X76694930Y-78823930D01*
X76679024Y-78838346D01*
X76661781Y-78851134D01*
X76643368Y-78862170D01*
X76623962Y-78871349D01*
X76603750Y-78878581D01*
X76582926Y-78883797D01*
X76561691Y-78886947D01*
X76540250Y-78888000D01*
X76027750Y-78888000D01*
X76006309Y-78886947D01*
X75985074Y-78883797D01*
X75964250Y-78878581D01*
X75944038Y-78871349D01*
X75924632Y-78862170D01*
X75906219Y-78851134D01*
X75888976Y-78838346D01*
X75873070Y-78823930D01*
X75858654Y-78808024D01*
X75845866Y-78790781D01*
X75834830Y-78772368D01*
X75825651Y-78752962D01*
X75818419Y-78732750D01*
X75813203Y-78711926D01*
X75810053Y-78690691D01*
X75809000Y-78669250D01*
X75809000Y-78231750D01*
X75810053Y-78210309D01*
X75813203Y-78189074D01*
X75818419Y-78168250D01*
X75825651Y-78148038D01*
X75834830Y-78128632D01*
X75845866Y-78110219D01*
X75858654Y-78092976D01*
X75873070Y-78077070D01*
X75888976Y-78062654D01*
X75906219Y-78049866D01*
X75924632Y-78038830D01*
X75944038Y-78029651D01*
X75964250Y-78022419D01*
X75985074Y-78017203D01*
X76006309Y-78014053D01*
X76027750Y-78013000D01*
X76540250Y-78013000D01*
X76561691Y-78014053D01*
X76561691Y-78014053D01*
G37*
D25*
G04 #@! TD*
G04 #@! TO.P,R6,1*
G04 #@! TO.N,Net-(Q1-Pad2)*
X76284000Y-78450500D03*
D13*
G04 #@! TO.P,C5,1*
G04 #@! TO.N,GND*
X77808000Y-72380000D03*
D14*
G04 #@! TO.P,C5,2*
G04 #@! TO.N,+BATT*
X77808000Y-74920000D03*
G04 #@! TD*
D26*
G04 #@! TO.P,D1,1*
G04 #@! TO.N,Net-(D1-Pad1)*
X92286000Y-70222000D03*
G04 #@! TO.P,D1,2*
G04 #@! TO.N,GND*
X92286000Y-73522000D03*
G04 #@! TD*
D27*
G04 #@! TO.P,TP_INT,1*
G04 #@! TO.N,/INT_ACCEL*
X74760000Y-76444000D03*
G04 #@! TD*
D28*
G04 #@! TO.N,GND*
X82888000Y-73396000D03*
X89238000Y-77206000D03*
X87206000Y-88636000D03*
X88593000Y-88636000D03*
X96858000Y-93462000D03*
X100414000Y-79238000D03*
X104900000Y-77628000D03*
X81618000Y-71364000D03*
X84920000Y-65014000D03*
X81872000Y-85588000D03*
X80856000Y-82540000D03*
X91778000Y-88128000D03*
X94064000Y-77206000D03*
X94064000Y-89144000D03*
X95080000Y-88382000D03*
X101176000Y-79238000D03*
X93556000Y-73142000D03*
G04 #@! TO.N,+BATT*
X90254942Y-77206942D03*
X100160000Y-92192000D03*
X101175978Y-74666000D03*
X79332000Y-70602000D03*
X99906000Y-88382000D03*
X95334000Y-67046000D03*
X103716000Y-78222000D03*
X101175986Y-80254000D03*
X90092500Y-91430000D03*
G04 #@! TO.N,Net-(C2-Pad1)*
X90000000Y-80000000D03*
X92286000Y-77714000D03*
G04 #@! TO.N,/MISO*
X94572000Y-78983992D03*
X100584000Y-86858000D03*
G04 #@! TO.N,/SCK*
X94064000Y-78222000D03*
X99314000Y-86858010D03*
G04 #@! TO.N,/MOSI*
X94064000Y-79746000D03*
X98636000Y-88382000D03*
G04 #@! TO.N,/RESET*
X86383051Y-84124949D03*
X97874000Y-86858000D03*
X87714000Y-93716000D03*
G04 #@! TO.N,/RXD*
X96858000Y-86858000D03*
X90761978Y-85334000D03*
G04 #@! TO.N,/TXD*
X96350000Y-88381998D03*
X88730000Y-85588006D03*
G04 #@! TO.N,Net-(N1-Pad1)*
X83904000Y-69332000D03*
G04 #@! TO.N,Net-(N1-Pad2)*
X85936000Y-65522000D03*
G04 #@! TO.N,Net-(N1-Pad3)*
X86952000Y-66030000D03*
G04 #@! TO.N,Net-(N1-Pad4)*
X90508000Y-67554000D03*
G04 #@! TO.N,Net-(N1-Pad5)*
X87714872Y-68867792D03*
G04 #@! TO.N,Net-(N1-Pad6)*
X89492000Y-71618016D03*
G04 #@! TO.N,Net-(N1-Pad7)*
X88969824Y-68949344D03*
G04 #@! TO.N,Net-(N1-Pad8)*
X90000000Y-69077956D03*
G04 #@! TO.N,Net-(N1-Pad9)*
X81069439Y-79573337D03*
G04 #@! TO.N,/NIX_ANODE*
X79840032Y-77206000D03*
X86952000Y-83302000D03*
G04 #@! TO.N,/NIX_0*
X83396000Y-87365988D03*
X90254000Y-83556000D03*
G04 #@! TO.N,/SCL*
X90822478Y-82739103D03*
X81364000Y-73396000D03*
X88222000Y-83048000D03*
X97620000Y-78984000D03*
G04 #@! TO.N,/SDA*
X90223992Y-82051988D03*
X96604000Y-79237986D03*
G04 #@! TO.N,/NIX_8*
X84370051Y-87286050D03*
X91016000Y-75936000D03*
G04 #@! TO.N,/NIX_1*
X83904000Y-75682016D03*
X87968000Y-81308027D03*
G04 #@! TO.N,/NIX_2*
X86189974Y-71833987D03*
X87968000Y-80253970D03*
G04 #@! TO.N,/NIX_3*
X87264883Y-76986594D03*
X86189992Y-72888000D03*
G04 #@! TO.N,/NIX_5*
X85936000Y-80004000D03*
X86710500Y-73912329D03*
G04 #@! TO.N,/NIX_6*
X86952000Y-80000000D03*
X90000000Y-72634000D03*
G04 #@! TO.N,/NIX_7*
X83904000Y-86604000D03*
X90000000Y-73650000D03*
G04 #@! TO.N,Net-(N1-Pad0)*
X81110000Y-83555986D03*
G04 #@! TO.N,Net-(N1-PadA)*
X75522000Y-81524000D03*
G04 #@! TO.N,/SW_0*
X97874000Y-69586000D03*
X102192000Y-84826026D03*
G04 #@! TO.N,/SW_1*
X102192000Y-83810000D03*
X84411992Y-67046012D03*
X91016000Y-69077984D03*
G04 #@! TO.N,/INT_ACCEL*
X81618000Y-69332000D03*
X75268000Y-74666000D03*
G04 #@! TD*
D29*
G04 #@! TO.N,GND*
X82618000Y-72639000D02*
X82888000Y-72909000D01*
X82618000Y-72514000D02*
X82618000Y-72639000D01*
X82888000Y-72909000D02*
X82888000Y-73396000D01*
D30*
X91016000Y-93487500D02*
X92794000Y-93487500D01*
X90787500Y-93716000D02*
X91016000Y-93487500D01*
X88222000Y-91709500D02*
X88222000Y-92700000D01*
X88222000Y-92700000D02*
X89238000Y-93716000D01*
D29*
X89372000Y-77206000D02*
X89238000Y-77206000D01*
X87738000Y-78554000D02*
X87738000Y-77504000D01*
X89976000Y-76602000D02*
X89372000Y-77206000D01*
X89976000Y-75852000D02*
X89976000Y-76602000D01*
X88036000Y-77206000D02*
X88813736Y-77206000D01*
X88813736Y-77206000D02*
X89238000Y-77206000D01*
X87738000Y-77504000D02*
X88036000Y-77206000D01*
X86938000Y-87054000D02*
X86938000Y-88368000D01*
X86938000Y-88368000D02*
X87206000Y-88636000D01*
X88538000Y-88104000D02*
X88476000Y-88166000D01*
X88538000Y-87054000D02*
X88538000Y-88104000D01*
X88476000Y-88166000D02*
X88476000Y-88519000D01*
X88476000Y-88519000D02*
X88593000Y-88636000D01*
X92819500Y-93462000D02*
X92794000Y-93487500D01*
X96858000Y-93462000D02*
X92819500Y-93462000D01*
X98044000Y-90205000D02*
X98044000Y-92276000D01*
X98044000Y-92276000D02*
X96858000Y-93462000D01*
X99441000Y-80585500D02*
X99398000Y-80542500D01*
X99441000Y-81788000D02*
X99441000Y-80585500D01*
X99398000Y-80542500D02*
X99398000Y-79746000D01*
X99398000Y-79746000D02*
X99906000Y-79238000D01*
X99906000Y-79238000D02*
X100414000Y-79238000D01*
X104900000Y-78704500D02*
X104900000Y-77628000D01*
X81118000Y-70214000D02*
X81118000Y-70864000D01*
X81118000Y-70864000D02*
X81318001Y-71064001D01*
X82118000Y-70864000D02*
X81917999Y-71064001D01*
X82118000Y-70214000D02*
X82118000Y-70864000D01*
X81917999Y-71064001D02*
X81618000Y-71364000D01*
X81318001Y-71064001D02*
X81618000Y-71364000D01*
X84369000Y-65396000D02*
X84751000Y-65014000D01*
X84369000Y-65971000D02*
X84369000Y-65396000D01*
X84751000Y-65014000D02*
X84920000Y-65014000D01*
X88319000Y-65971000D02*
X86854000Y-64506000D01*
X88519000Y-65971000D02*
X88319000Y-65971000D01*
X85428000Y-64506000D02*
X84920000Y-65014000D01*
X86854000Y-64506000D02*
X85428000Y-64506000D01*
X94288000Y-65971000D02*
X97663000Y-65971000D01*
X93513000Y-65971000D02*
X94288000Y-65971000D01*
X92738000Y-65971000D02*
X92289000Y-65522000D01*
X93513000Y-65971000D02*
X92738000Y-65971000D01*
X89294000Y-65971000D02*
X88519000Y-65971000D01*
X89743000Y-65522000D02*
X89294000Y-65971000D01*
X92289000Y-65522000D02*
X89743000Y-65522000D01*
X82026000Y-86680000D02*
X82026000Y-85742000D01*
X82026000Y-85742000D02*
X81872000Y-85588000D01*
X82026000Y-82616000D02*
X80932000Y-82616000D01*
X80932000Y-82616000D02*
X80856000Y-82540000D01*
X80856000Y-92632081D02*
X82955919Y-94732000D01*
X80856000Y-91430000D02*
X80856000Y-92632081D01*
X88730000Y-94732000D02*
X89746000Y-93716000D01*
X82955919Y-94732000D02*
X88730000Y-94732000D01*
D30*
X89238000Y-93716000D02*
X89746000Y-93716000D01*
X89746000Y-93716000D02*
X90787500Y-93716000D01*
D29*
X91694000Y-88612000D02*
X91778000Y-88528000D01*
X91694000Y-89662000D02*
X91694000Y-88612000D01*
X91778000Y-88528000D02*
X91778000Y-88128000D01*
X93176000Y-73522000D02*
X93556000Y-73142000D01*
X92286000Y-73522000D02*
X93176000Y-73522000D01*
D30*
X92710000Y-75090000D02*
X92710000Y-75158500D01*
X92286000Y-73522000D02*
X92286000Y-74666000D01*
X92286000Y-74666000D02*
X92710000Y-75090000D01*
G04 #@! TO.N,+BATT*
X86444000Y-90134500D02*
X88222000Y-90134500D01*
D29*
X90138000Y-77504000D02*
X90254000Y-77388000D01*
X90138000Y-78554000D02*
X90138000Y-77504000D01*
X90254000Y-77388000D02*
X90254000Y-77207884D01*
X90254000Y-77207884D02*
X90254942Y-77206942D01*
D31*
X80602000Y-75961500D02*
X82126000Y-75961500D01*
X78849500Y-75961500D02*
X77808000Y-74920000D01*
X80602000Y-75961500D02*
X78849500Y-75961500D01*
D29*
X87968000Y-89880500D02*
X88222000Y-90134500D01*
X87968000Y-88144002D02*
X87968000Y-89880500D01*
X87937999Y-88114001D02*
X87968000Y-88144002D01*
X87738000Y-87054000D02*
X87937999Y-87253999D01*
X87937999Y-87253999D02*
X87937999Y-88114001D01*
X89338000Y-89806000D02*
X89338000Y-87054000D01*
X88222000Y-90134500D02*
X89009500Y-90134500D01*
X89009500Y-90134500D02*
X89338000Y-89806000D01*
D31*
X88797000Y-90134500D02*
X88222000Y-90134500D01*
X91016000Y-91912500D02*
X90092500Y-91430000D01*
X90575000Y-91912500D02*
X88797000Y-90134500D01*
X91016000Y-91912500D02*
X92794000Y-91912500D01*
D29*
X100584000Y-91768000D02*
X100160000Y-92192000D01*
X100584000Y-90205000D02*
X100584000Y-91768000D01*
X101981000Y-71628000D02*
X101981000Y-73860978D01*
X101475977Y-74366001D02*
X101175978Y-74666000D01*
X101981000Y-73860978D02*
X101475977Y-74366001D01*
D31*
X82059000Y-66512500D02*
X80602000Y-67969500D01*
X82634000Y-66512500D02*
X82059000Y-66512500D01*
X80602000Y-67969500D02*
X80602000Y-68062000D01*
X80602000Y-68062000D02*
X79332000Y-69332000D01*
X79332000Y-69332000D02*
X79332000Y-70602000D01*
D29*
X79594000Y-70864000D02*
X79332000Y-70602000D01*
X80468000Y-70864000D02*
X79594000Y-70864000D01*
X100414000Y-74666000D02*
X101175978Y-74666000D01*
X99441000Y-71628000D02*
X99441000Y-73693000D01*
X99441000Y-73693000D02*
X100414000Y-74666000D01*
X91778000Y-66512500D02*
X92311500Y-67046000D01*
X92311500Y-67046000D02*
X95334000Y-67046000D01*
X103716000Y-79095500D02*
X103716000Y-78646264D01*
X103716000Y-78646264D02*
X103716000Y-78222000D01*
X104900000Y-80279500D02*
X103716000Y-79095500D01*
X100711000Y-81788000D02*
X100711000Y-80585500D01*
X100711000Y-80585500D02*
X101042500Y-80254000D01*
X101042500Y-80254000D02*
X101175986Y-80254000D01*
X80618000Y-72514000D02*
X79720000Y-72514000D01*
X79332000Y-72126000D02*
X79332000Y-70602000D01*
X79720000Y-72514000D02*
X79332000Y-72126000D01*
D31*
X90092500Y-91430000D02*
X90575000Y-91912500D01*
D29*
G04 #@! TO.N,Net-(C2-Pad1)*
X88538000Y-79604000D02*
X88934000Y-80000000D01*
X88538000Y-78554000D02*
X88538000Y-79604000D01*
X88934000Y-80000000D02*
X90000000Y-80000000D01*
X92710000Y-76733500D02*
X92710000Y-77290000D01*
X92710000Y-77290000D02*
X92585999Y-77414001D01*
X92585999Y-77414001D02*
X92286000Y-77714000D01*
G04 #@! TO.N,/MISO*
X100584000Y-85035000D02*
X100584000Y-86858000D01*
X93938418Y-78983992D02*
X94147736Y-78983992D01*
X94147736Y-78983992D02*
X94572000Y-78983992D01*
X93438000Y-79479000D02*
X93443410Y-79479000D01*
X92913000Y-80004000D02*
X93438000Y-79479000D01*
X93443410Y-79479000D02*
X93938418Y-78983992D01*
X92388000Y-80004000D02*
X92913000Y-80004000D01*
G04 #@! TO.N,/SCK*
X99314000Y-85035000D02*
X99314000Y-86858010D01*
X93764001Y-78521999D02*
X94064000Y-78222000D01*
X93510001Y-78521999D02*
X93764001Y-78521999D01*
X93302000Y-78730000D02*
X93510001Y-78521999D01*
X90938000Y-78554000D02*
X91114000Y-78730000D01*
X91114000Y-78730000D02*
X93302000Y-78730000D01*
G04 #@! TO.N,/MOSI*
X94064000Y-80178000D02*
X94064000Y-80170264D01*
X94064000Y-80170264D02*
X94064000Y-79746000D01*
X93438000Y-80804000D02*
X94064000Y-80178000D01*
X92388000Y-80804000D02*
X93438000Y-80804000D01*
X99314000Y-90205000D02*
X99314000Y-89530000D01*
X98636000Y-88852000D02*
X98636000Y-88806264D01*
X98636000Y-88806264D02*
X98636000Y-88382000D01*
X99314000Y-89530000D02*
X98636000Y-88852000D01*
G04 #@! TO.N,/RESET*
X86041932Y-83824950D02*
X86083052Y-83824950D01*
X83888000Y-83204000D02*
X85420982Y-83204000D01*
X86083052Y-83824950D02*
X86383051Y-84124949D01*
X85420982Y-83204000D02*
X86041932Y-83824950D01*
X97874000Y-85205000D02*
X98044000Y-85035000D01*
X97874000Y-86858000D02*
X97874000Y-85205000D01*
X86444000Y-91709500D02*
X86444000Y-92446000D01*
X86444000Y-92446000D02*
X87414001Y-93416001D01*
X87414001Y-93416001D02*
X87714000Y-93716000D01*
G04 #@! TO.N,/RXD*
X96774000Y-86774000D02*
X96858000Y-86858000D01*
X96774000Y-85035000D02*
X96774000Y-86774000D01*
X89492000Y-85334000D02*
X90761978Y-85334000D01*
X88984000Y-84826000D02*
X89492000Y-85334000D01*
X85760000Y-84826000D02*
X88984000Y-84826000D01*
X83888000Y-84004000D02*
X84938000Y-84004000D01*
X84938000Y-84004000D02*
X85760000Y-84826000D01*
G04 #@! TO.N,/TXD*
X96649999Y-88681997D02*
X96350000Y-88381998D01*
X96774000Y-88805998D02*
X96649999Y-88681997D01*
X96774000Y-90205000D02*
X96774000Y-88805998D01*
X88305736Y-85588006D02*
X88730000Y-85588006D01*
X85722006Y-85588006D02*
X88305736Y-85588006D01*
X83888000Y-84804000D02*
X84938000Y-84804000D01*
X84938000Y-84804000D02*
X85722006Y-85588006D01*
D31*
G04 #@! TO.N,+HV*
X77216000Y-81462000D02*
X77216000Y-83312000D01*
X78176000Y-80502000D02*
X77216000Y-81462000D01*
X78994000Y-80502000D02*
X78176000Y-80502000D01*
D30*
G04 #@! TO.N,Net-(N1-Pad1)*
X83904000Y-69332000D02*
X84412000Y-69332000D01*
X84412000Y-69332000D02*
X84666000Y-69586000D01*
D29*
X84776000Y-69696000D02*
X84776000Y-70452000D01*
X84666000Y-69586000D02*
X84776000Y-69696000D01*
G04 #@! TO.N,Net-(N1-Pad2)*
X85426000Y-69080000D02*
X85426000Y-70452000D01*
X85428000Y-69078000D02*
X85426000Y-69080000D01*
D30*
X85428000Y-69078000D02*
X85428000Y-66030000D01*
X85636001Y-65821999D02*
X85936000Y-65522000D01*
X85428000Y-66030000D02*
X85636001Y-65821999D01*
D29*
G04 #@! TO.N,Net-(N1-Pad3)*
X86076000Y-68176000D02*
X86076000Y-70452000D01*
X86190000Y-68062000D02*
X86076000Y-68176000D01*
D30*
X86652001Y-66329999D02*
X86952000Y-66030000D01*
X86190000Y-66792000D02*
X86652001Y-66329999D01*
X86190000Y-68062000D02*
X86190000Y-66792000D01*
D29*
G04 #@! TO.N,Net-(N1-Pad4)*
X86726000Y-69106000D02*
X86726000Y-70452000D01*
X86652001Y-69032001D02*
X86726000Y-69106000D01*
D30*
X86652001Y-68615999D02*
X86652001Y-69032001D01*
X87206000Y-68062000D02*
X86652001Y-68615999D01*
X87206000Y-67554000D02*
X87206000Y-68062000D01*
X87714000Y-67046000D02*
X87206000Y-67554000D01*
X90508000Y-67554000D02*
X90000000Y-67046000D01*
X90000000Y-67046000D02*
X87714000Y-67046000D01*
G04 #@! TO.N,Net-(N1-Pad5)*
X87714872Y-68867792D02*
X87670208Y-68867792D01*
X87670208Y-68867792D02*
X87460000Y-69078000D01*
D29*
X87376000Y-69162000D02*
X87376000Y-70452000D01*
X87460000Y-69078000D02*
X87376000Y-69162000D01*
G04 #@! TO.N,Net-(N1-Pad6)*
X87968000Y-70510000D02*
X87968000Y-71618000D01*
X88026000Y-70452000D02*
X87968000Y-70510000D01*
D30*
X88984016Y-72126000D02*
X89492000Y-71618016D01*
X87968000Y-71618000D02*
X88476000Y-72126000D01*
X88476000Y-72126000D02*
X88984016Y-72126000D01*
D29*
G04 #@! TO.N,Net-(N1-Pad7)*
X88676000Y-70452000D02*
X88676000Y-69243168D01*
X88676000Y-69243168D02*
X88969824Y-68949344D01*
G04 #@! TO.N,Net-(N1-Pad8)*
X89950000Y-69078000D02*
X90000000Y-69078000D01*
X89326000Y-70452000D02*
X89326000Y-69702000D01*
X89326000Y-69702000D02*
X89950000Y-69078000D01*
D30*
X90000000Y-69078000D02*
X90000000Y-69077956D01*
D29*
G04 #@! TO.N,Net-(N1-Pad9)*
X81110000Y-79613898D02*
X81069439Y-79573337D01*
X81110000Y-81270000D02*
X81110000Y-79613898D01*
X80026000Y-83566000D02*
X80026000Y-82354000D01*
X80026000Y-82354000D02*
X81110000Y-81270000D01*
G04 #@! TO.N,/NIX_ANODE*
X79944000Y-77309968D02*
X79840032Y-77206000D01*
X79944000Y-78502000D02*
X79944000Y-77309968D01*
X90762000Y-84318000D02*
X87968000Y-84318000D01*
X92388000Y-84804000D02*
X91248000Y-84804000D01*
X91248000Y-84804000D02*
X90762000Y-84318000D01*
X87251999Y-83601999D02*
X86952000Y-83302000D01*
X87968000Y-84318000D02*
X87251999Y-83601999D01*
D31*
G04 #@! TO.N,Net-(Q1-Pad2)*
X77992500Y-78450500D02*
X78044000Y-78502000D01*
X76284000Y-78450500D02*
X77992500Y-78450500D01*
D29*
G04 #@! TO.N,/NIX_9*
X86138000Y-88688000D02*
X86138000Y-87054000D01*
X81976000Y-84516000D02*
X81110000Y-85382000D01*
X82026000Y-84516000D02*
X81976000Y-84516000D01*
X81110000Y-85382000D02*
X81110000Y-89398000D01*
X81110000Y-89398000D02*
X81364000Y-89652000D01*
X81364000Y-89652000D02*
X85174000Y-89652000D01*
X85174000Y-89652000D02*
X86138000Y-88688000D01*
G04 #@! TO.N,/NIX_0*
X83396000Y-88128000D02*
X83396000Y-87365988D01*
X82026000Y-88580000D02*
X82944000Y-88580000D01*
X82944000Y-88580000D02*
X83396000Y-88128000D01*
X92388000Y-83204000D02*
X91338000Y-83204000D01*
X90986000Y-83556000D02*
X90678264Y-83556000D01*
X90678264Y-83556000D02*
X90254000Y-83556000D01*
X91338000Y-83204000D02*
X90986000Y-83556000D01*
G04 #@! TO.N,/SCL*
X82118000Y-72514000D02*
X82118000Y-73134000D01*
X82118000Y-73134000D02*
X81856000Y-73396000D01*
X80856000Y-73396000D02*
X80602000Y-73650000D01*
X80602000Y-73650000D02*
X80602000Y-74386500D01*
X81856000Y-73396000D02*
X81364000Y-73396000D01*
X81364000Y-73396000D02*
X80856000Y-73396000D01*
X90822478Y-82739103D02*
X88530897Y-82739103D01*
X88530897Y-82739103D02*
X88521999Y-82748001D01*
X88521999Y-82748001D02*
X88222000Y-83048000D01*
X87922001Y-82748001D02*
X88222000Y-83048000D01*
X87714000Y-82540000D02*
X87922001Y-82748001D01*
X83888000Y-82404000D02*
X84024000Y-82540000D01*
X84024000Y-82540000D02*
X87714000Y-82540000D01*
X97919999Y-78684001D02*
X97620000Y-78984000D01*
X98636000Y-77968000D02*
X97919999Y-78684001D01*
X101684000Y-77968000D02*
X98636000Y-77968000D01*
X103251000Y-81788000D02*
X103251000Y-79535000D01*
X103251000Y-79535000D02*
X101684000Y-77968000D01*
G04 #@! TO.N,/SDA*
X83421500Y-74386500D02*
X84158000Y-73650000D01*
X84158000Y-73650000D02*
X84158000Y-72380000D01*
X83642000Y-71864000D02*
X82768000Y-71864000D01*
X84158000Y-72380000D02*
X83642000Y-71864000D01*
X82126000Y-74386500D02*
X83142000Y-74386500D01*
X83142000Y-74386500D02*
X83421500Y-74386500D01*
X83142000Y-78222000D02*
X83142000Y-74386500D01*
X82380000Y-78984000D02*
X83142000Y-78222000D01*
X82380000Y-81146000D02*
X82380000Y-78984000D01*
X83888000Y-81604000D02*
X82838000Y-81604000D01*
X82838000Y-81604000D02*
X82380000Y-81146000D01*
X90204004Y-82032000D02*
X90223992Y-82051988D01*
X87460000Y-82032000D02*
X90204004Y-82032000D01*
X83888000Y-81604000D02*
X87032000Y-81604000D01*
X87032000Y-81604000D02*
X87460000Y-82032000D01*
X96903999Y-79537985D02*
X96604000Y-79237986D01*
X101981000Y-79027000D02*
X101430000Y-78476000D01*
X101981000Y-81788000D02*
X101981000Y-79027000D01*
X101430000Y-78476000D02*
X99398000Y-78476000D01*
X99398000Y-78476000D02*
X98128000Y-79746000D01*
X98128000Y-79746000D02*
X97112014Y-79746000D01*
X97112014Y-79746000D02*
X96903999Y-79537985D01*
G04 #@! TO.N,/NIX_8*
X85338000Y-87054000D02*
X84602101Y-87054000D01*
X84602101Y-87054000D02*
X84370051Y-87286050D01*
X89326000Y-75086000D02*
X89326000Y-75852000D01*
X89492000Y-74920000D02*
X89326000Y-75086000D01*
X90508000Y-74920000D02*
X89492000Y-74920000D01*
X91016000Y-75936000D02*
X91016000Y-75428000D01*
X91016000Y-75428000D02*
X90508000Y-74920000D01*
G04 #@! TO.N,Net-(U1-Pad7)*
X90744000Y-89162000D02*
X90744000Y-89662000D01*
X90138000Y-88556000D02*
X90744000Y-89162000D01*
X90138000Y-87054000D02*
X90138000Y-88556000D01*
G04 #@! TO.N,Net-(U1-Pad8)*
X92644000Y-89662000D02*
X92644000Y-87724000D01*
X91974000Y-87054000D02*
X90938000Y-87054000D01*
X92644000Y-87724000D02*
X91974000Y-87054000D01*
G04 #@! TO.N,/NIX_1*
X84073984Y-75852000D02*
X83904000Y-75682016D01*
X84776000Y-75852000D02*
X84073984Y-75852000D01*
X92388000Y-82404000D02*
X91551004Y-82404000D01*
X91551004Y-82404000D02*
X90455031Y-81308027D01*
X88392264Y-81308027D02*
X87968000Y-81308027D01*
X90455031Y-81308027D02*
X88392264Y-81308027D01*
G04 #@! TO.N,/NIX_2*
X85426000Y-75852000D02*
X85426000Y-72597961D01*
X85426000Y-72597961D02*
X85889975Y-72133986D01*
X85889975Y-72133986D02*
X86189974Y-71833987D01*
X88221970Y-80253970D02*
X87968000Y-80253970D01*
X88730000Y-80762000D02*
X88221970Y-80253970D01*
X90545415Y-80762000D02*
X88730000Y-80762000D01*
X92388000Y-81604000D02*
X91387415Y-81604000D01*
X91387415Y-81604000D02*
X90545415Y-80762000D01*
G04 #@! TO.N,/NIX_3*
X86138000Y-77504000D02*
X86182000Y-77460000D01*
X86138000Y-78554000D02*
X86138000Y-77504000D01*
X86213001Y-77428999D02*
X86729001Y-77428999D01*
X86182000Y-77460000D02*
X86213001Y-77428999D01*
X87240594Y-76986594D02*
X87264883Y-76986594D01*
X87206000Y-76952000D02*
X87240594Y-76986594D01*
X86729001Y-77428999D02*
X87264883Y-76986594D01*
X86076000Y-75852000D02*
X86076000Y-73001992D01*
X86076000Y-73001992D02*
X86189992Y-72888000D01*
G04 #@! TO.N,/NIX_4*
X85338000Y-77504000D02*
X85890000Y-76952000D01*
X85338000Y-78554000D02*
X85338000Y-77504000D01*
X85890000Y-76952000D02*
X86444000Y-76952000D01*
X86726000Y-76670000D02*
X86726000Y-75852000D01*
X86444000Y-76952000D02*
X86726000Y-76670000D01*
G04 #@! TO.N,/NIX_5*
X83888000Y-80004000D02*
X85936000Y-80004000D01*
X87376000Y-74577829D02*
X87010499Y-74212328D01*
X87376000Y-75852000D02*
X87376000Y-74577829D01*
X87010499Y-74212328D02*
X86710500Y-73912329D01*
G04 #@! TO.N,/NIX_6*
X86652001Y-80299999D02*
X86952000Y-80000000D01*
X86190000Y-80762000D02*
X86652001Y-80299999D01*
X83888000Y-80804000D02*
X83930000Y-80762000D01*
X83930000Y-80762000D02*
X86190000Y-80762000D01*
X88026000Y-74608000D02*
X89700001Y-72933999D01*
X89700001Y-72933999D02*
X90000000Y-72634000D01*
X88026000Y-75852000D02*
X88026000Y-74608000D01*
G04 #@! TO.N,/NIX_7*
X83888000Y-85604000D02*
X83888000Y-86588000D01*
X83888000Y-86588000D02*
X83904000Y-86604000D01*
X89700001Y-73949999D02*
X90000000Y-73650000D01*
X88676000Y-74974000D02*
X89700001Y-73949999D01*
X88676000Y-75852000D02*
X88676000Y-74974000D01*
G04 #@! TO.N,Net-(N1-Pad0)*
X81110000Y-84572000D02*
X81110000Y-83555986D01*
X80026000Y-87630000D02*
X80026000Y-85656000D01*
X80026000Y-85656000D02*
X81110000Y-84572000D01*
D31*
G04 #@! TO.N,Net-(N1-PadA)*
X75522000Y-81099736D02*
X75522000Y-81524000D01*
X76284000Y-80025500D02*
X75522000Y-80787500D01*
X75522000Y-80787500D02*
X75522000Y-81099736D01*
D29*
G04 #@! TO.N,/SW_0*
X93479500Y-68087500D02*
X93513000Y-68121000D01*
X91778000Y-68087500D02*
X93479500Y-68087500D01*
X94288000Y-68121000D02*
X97663000Y-68121000D01*
X93513000Y-68121000D02*
X94288000Y-68121000D01*
X97874000Y-68332000D02*
X97663000Y-68121000D01*
X97874000Y-69586000D02*
X97874000Y-68332000D01*
X102191974Y-84826026D02*
X102192000Y-84826026D01*
X93438000Y-85604000D02*
X95454000Y-87620000D01*
X92388000Y-85604000D02*
X93438000Y-85604000D01*
X95454000Y-87620000D02*
X100838264Y-87620000D01*
X100838264Y-87620000D02*
X101430000Y-87028264D01*
X101430000Y-87028264D02*
X101430000Y-85588000D01*
X101430000Y-85588000D02*
X102191974Y-84826026D01*
G04 #@! TO.N,/SW_1*
X94363999Y-83510001D02*
X101892001Y-83510001D01*
X101892001Y-83510001D02*
X102192000Y-83810000D01*
X93870000Y-84004000D02*
X94363999Y-83510001D01*
X92388000Y-84004000D02*
X93870000Y-84004000D01*
X84369000Y-67089004D02*
X84411992Y-67046012D01*
X84369000Y-68121000D02*
X84369000Y-67089004D01*
X84335500Y-68087500D02*
X84369000Y-68121000D01*
X82634000Y-68087500D02*
X84335500Y-68087500D01*
X90716001Y-68777985D02*
X91016000Y-69077984D01*
X90059016Y-68121000D02*
X90716001Y-68777985D01*
X88519000Y-68121000D02*
X90059016Y-68121000D01*
G04 #@! TO.N,/INT_ACCEL*
X81618000Y-70214000D02*
X81618000Y-69332000D01*
X75268000Y-75936000D02*
X74760000Y-76444000D01*
X75268000Y-74666000D02*
X75268000Y-75936000D01*
D30*
G04 #@! TO.N,Net-(D1-Pad1)*
X92056000Y-70452000D02*
X92286000Y-70222000D01*
X89976000Y-70452000D02*
X92056000Y-70452000D01*
G04 #@! TD*
D32*
G04 #@! TO.N,GND*
G36*
X79576000Y-84613440D02*
X79993759Y-84613440D01*
X79541528Y-85065671D01*
X79478072Y-85108071D01*
X79435672Y-85171527D01*
X79435671Y-85171528D01*
X79310097Y-85359463D01*
X79251112Y-85656000D01*
X79266001Y-85730852D01*
X79266000Y-86673427D01*
X79118191Y-86772191D01*
X78977843Y-86982235D01*
X78928560Y-87230000D01*
X78928560Y-88030000D01*
X78977843Y-88277765D01*
X79118191Y-88487809D01*
X79328235Y-88628157D01*
X79576000Y-88677440D01*
X80350001Y-88677440D01*
X80350001Y-89323148D01*
X80335112Y-89398000D01*
X80394097Y-89694537D01*
X80518354Y-89880500D01*
X80562072Y-89945929D01*
X80625528Y-89988329D01*
X80728998Y-90091799D01*
X80728998Y-90109844D01*
X80499110Y-89988524D01*
X80089076Y-90158355D01*
X79660817Y-90548642D01*
X79414514Y-91073108D01*
X79535181Y-91303000D01*
X80729000Y-91303000D01*
X80729000Y-91283000D01*
X80983000Y-91283000D01*
X80983000Y-91303000D01*
X81003000Y-91303000D01*
X81003000Y-91557000D01*
X80983000Y-91557000D01*
X80983000Y-92750155D01*
X81212890Y-92871476D01*
X81622924Y-92701645D01*
X81927261Y-92424292D01*
X81947843Y-92527765D01*
X82088191Y-92737809D01*
X82298235Y-92878157D01*
X82546000Y-92927440D01*
X84246000Y-92927440D01*
X84493765Y-92878157D01*
X84703809Y-92737809D01*
X84844157Y-92527765D01*
X84893440Y-92280000D01*
X84893440Y-90580000D01*
X84860023Y-90412000D01*
X85099153Y-90412000D01*
X85174000Y-90426888D01*
X85248847Y-90412000D01*
X85248852Y-90412000D01*
X85330034Y-90395852D01*
X85387495Y-90684727D01*
X85546036Y-90922000D01*
X85387495Y-91159273D01*
X85321560Y-91490750D01*
X85321560Y-91928250D01*
X85387495Y-92259727D01*
X85575261Y-92540739D01*
X85705231Y-92627582D01*
X85728097Y-92742537D01*
X85818716Y-92878157D01*
X85896072Y-92993929D01*
X85959528Y-93036329D01*
X86779000Y-93855802D01*
X86779000Y-93901983D01*
X86921345Y-94245635D01*
X87184365Y-94508655D01*
X87528017Y-94651000D01*
X87899983Y-94651000D01*
X88243635Y-94508655D01*
X88506655Y-94245635D01*
X88649000Y-93901983D01*
X88649000Y-93773250D01*
X89906000Y-93773250D01*
X89906000Y-94051309D01*
X90002673Y-94284698D01*
X90181301Y-94463327D01*
X90414690Y-94560000D01*
X90730250Y-94560000D01*
X90889000Y-94401250D01*
X90889000Y-93614500D01*
X91143000Y-93614500D01*
X91143000Y-94401250D01*
X91301750Y-94560000D01*
X91617310Y-94560000D01*
X91850699Y-94463327D01*
X91905000Y-94409026D01*
X91959301Y-94463327D01*
X92192690Y-94560000D01*
X92508250Y-94560000D01*
X92667000Y-94401250D01*
X92667000Y-93614500D01*
X92921000Y-93614500D01*
X92921000Y-94401250D01*
X93079750Y-94560000D01*
X93395310Y-94560000D01*
X93628699Y-94463327D01*
X93807327Y-94284698D01*
X93904000Y-94051309D01*
X93904000Y-93773250D01*
X93745250Y-93614500D01*
X92921000Y-93614500D01*
X92667000Y-93614500D01*
X91143000Y-93614500D01*
X90889000Y-93614500D01*
X90064750Y-93614500D01*
X89906000Y-93773250D01*
X88649000Y-93773250D01*
X88649000Y-93530017D01*
X88506655Y-93186365D01*
X88243635Y-92923345D01*
X87902397Y-92782000D01*
X87936250Y-92782000D01*
X88095000Y-92623250D01*
X88095000Y-91836500D01*
X88075000Y-91836500D01*
X88075000Y-91582500D01*
X88095000Y-91582500D01*
X88095000Y-91562500D01*
X88349000Y-91562500D01*
X88349000Y-91582500D01*
X88369000Y-91582500D01*
X88369000Y-91836500D01*
X88349000Y-91836500D01*
X88349000Y-92623250D01*
X88507750Y-92782000D01*
X88823310Y-92782000D01*
X89056699Y-92685327D01*
X89235327Y-92506698D01*
X89331520Y-92274468D01*
X89333143Y-92275775D01*
X89851476Y-92794108D01*
X89936220Y-92850733D01*
X89906000Y-92923691D01*
X89906000Y-93201750D01*
X90064750Y-93360500D01*
X90889000Y-93360500D01*
X90889000Y-93340500D01*
X91143000Y-93340500D01*
X91143000Y-93360500D01*
X92667000Y-93360500D01*
X92667000Y-93340500D01*
X92921000Y-93340500D01*
X92921000Y-93360500D01*
X93745250Y-93360500D01*
X93904000Y-93201750D01*
X93904000Y-92923691D01*
X93807327Y-92690302D01*
X93742057Y-92625031D01*
X93850505Y-92462727D01*
X93916440Y-92131250D01*
X93916440Y-92087427D01*
X93951235Y-91912500D01*
X93916440Y-91737573D01*
X93916440Y-91693750D01*
X93850505Y-91362273D01*
X93662739Y-91081261D01*
X93407766Y-90910894D01*
X93542157Y-90709765D01*
X93591440Y-90462000D01*
X93591440Y-88862000D01*
X93542157Y-88614235D01*
X93404000Y-88407470D01*
X93404000Y-87798846D01*
X93418888Y-87723999D01*
X93404000Y-87649152D01*
X93404000Y-87649148D01*
X93359904Y-87427463D01*
X93191929Y-87176071D01*
X93128473Y-87133671D01*
X92564331Y-86569530D01*
X92535539Y-86526440D01*
X93188000Y-86526440D01*
X93269440Y-86510241D01*
X94863671Y-88104473D01*
X94906071Y-88167929D01*
X95157463Y-88335904D01*
X95379148Y-88380000D01*
X95379152Y-88380000D01*
X95415000Y-88387131D01*
X95415000Y-88507560D01*
X95129000Y-88507560D01*
X94881235Y-88556843D01*
X94671191Y-88697191D01*
X94530843Y-88907235D01*
X94481560Y-89155000D01*
X94481560Y-91255000D01*
X94530843Y-91502765D01*
X94671191Y-91712809D01*
X94881235Y-91853157D01*
X95129000Y-91902440D01*
X95879000Y-91902440D01*
X96126765Y-91853157D01*
X96139000Y-91844982D01*
X96151235Y-91853157D01*
X96399000Y-91902440D01*
X97149000Y-91902440D01*
X97396765Y-91853157D01*
X97418570Y-91838588D01*
X97542690Y-91890000D01*
X97758250Y-91890000D01*
X97917000Y-91731250D01*
X97917000Y-90332000D01*
X97897000Y-90332000D01*
X97897000Y-90078000D01*
X97917000Y-90078000D01*
X97917000Y-90058000D01*
X98171000Y-90058000D01*
X98171000Y-90078000D01*
X98191000Y-90078000D01*
X98191000Y-90332000D01*
X98171000Y-90332000D01*
X98171000Y-91731250D01*
X98329750Y-91890000D01*
X98545310Y-91890000D01*
X98669430Y-91838588D01*
X98691235Y-91853157D01*
X98939000Y-91902440D01*
X99267903Y-91902440D01*
X99225000Y-92006017D01*
X99225000Y-92377983D01*
X99367345Y-92721635D01*
X99630365Y-92984655D01*
X99749779Y-93034118D01*
X98752611Y-93738847D01*
X97395505Y-94514496D01*
X95970305Y-95156502D01*
X94490133Y-95658953D01*
X92968617Y-96017222D01*
X91419767Y-96228012D01*
X89857845Y-96289380D01*
X88297231Y-96200762D01*
X86752296Y-95962973D01*
X85237265Y-95578204D01*
X83766087Y-95049998D01*
X82352308Y-94383216D01*
X81008947Y-93584000D01*
X79748371Y-92659708D01*
X78770464Y-91786892D01*
X79414514Y-91786892D01*
X79660817Y-92311358D01*
X80089076Y-92701645D01*
X80499110Y-92871476D01*
X80729000Y-92750155D01*
X80729000Y-91557000D01*
X79535181Y-91557000D01*
X79414514Y-91786892D01*
X78770464Y-91786892D01*
X78582188Y-91618850D01*
X77521136Y-90471010D01*
X76574984Y-89226758D01*
X75752445Y-87897549D01*
X75061091Y-86495622D01*
X74952458Y-86208890D01*
X75774524Y-86208890D01*
X75944355Y-86618924D01*
X76334642Y-87047183D01*
X76859108Y-87293486D01*
X77089000Y-87172819D01*
X77089000Y-85979000D01*
X77343000Y-85979000D01*
X77343000Y-87172819D01*
X77572892Y-87293486D01*
X78097358Y-87047183D01*
X78487645Y-86618924D01*
X78657476Y-86208890D01*
X78536155Y-85979000D01*
X77343000Y-85979000D01*
X77089000Y-85979000D01*
X75895845Y-85979000D01*
X75774524Y-86208890D01*
X74952458Y-86208890D01*
X74836934Y-85903970D01*
X76044849Y-84974804D01*
X75944355Y-85085076D01*
X75774524Y-85495110D01*
X75895845Y-85725000D01*
X77089000Y-85725000D01*
X77089000Y-85705000D01*
X77343000Y-85705000D01*
X77343000Y-85725000D01*
X78536155Y-85725000D01*
X78657476Y-85495110D01*
X78487645Y-85085076D01*
X78367280Y-84953000D01*
X79078000Y-84953000D01*
X79113346Y-84947982D01*
X79157336Y-84925170D01*
X79552773Y-84608820D01*
X79576000Y-84613440D01*
X79576000Y-84613440D01*
G37*
X79576000Y-84613440D02*
X79993759Y-84613440D01*
X79541528Y-85065671D01*
X79478072Y-85108071D01*
X79435672Y-85171527D01*
X79435671Y-85171528D01*
X79310097Y-85359463D01*
X79251112Y-85656000D01*
X79266001Y-85730852D01*
X79266000Y-86673427D01*
X79118191Y-86772191D01*
X78977843Y-86982235D01*
X78928560Y-87230000D01*
X78928560Y-88030000D01*
X78977843Y-88277765D01*
X79118191Y-88487809D01*
X79328235Y-88628157D01*
X79576000Y-88677440D01*
X80350001Y-88677440D01*
X80350001Y-89323148D01*
X80335112Y-89398000D01*
X80394097Y-89694537D01*
X80518354Y-89880500D01*
X80562072Y-89945929D01*
X80625528Y-89988329D01*
X80728998Y-90091799D01*
X80728998Y-90109844D01*
X80499110Y-89988524D01*
X80089076Y-90158355D01*
X79660817Y-90548642D01*
X79414514Y-91073108D01*
X79535181Y-91303000D01*
X80729000Y-91303000D01*
X80729000Y-91283000D01*
X80983000Y-91283000D01*
X80983000Y-91303000D01*
X81003000Y-91303000D01*
X81003000Y-91557000D01*
X80983000Y-91557000D01*
X80983000Y-92750155D01*
X81212890Y-92871476D01*
X81622924Y-92701645D01*
X81927261Y-92424292D01*
X81947843Y-92527765D01*
X82088191Y-92737809D01*
X82298235Y-92878157D01*
X82546000Y-92927440D01*
X84246000Y-92927440D01*
X84493765Y-92878157D01*
X84703809Y-92737809D01*
X84844157Y-92527765D01*
X84893440Y-92280000D01*
X84893440Y-90580000D01*
X84860023Y-90412000D01*
X85099153Y-90412000D01*
X85174000Y-90426888D01*
X85248847Y-90412000D01*
X85248852Y-90412000D01*
X85330034Y-90395852D01*
X85387495Y-90684727D01*
X85546036Y-90922000D01*
X85387495Y-91159273D01*
X85321560Y-91490750D01*
X85321560Y-91928250D01*
X85387495Y-92259727D01*
X85575261Y-92540739D01*
X85705231Y-92627582D01*
X85728097Y-92742537D01*
X85818716Y-92878157D01*
X85896072Y-92993929D01*
X85959528Y-93036329D01*
X86779000Y-93855802D01*
X86779000Y-93901983D01*
X86921345Y-94245635D01*
X87184365Y-94508655D01*
X87528017Y-94651000D01*
X87899983Y-94651000D01*
X88243635Y-94508655D01*
X88506655Y-94245635D01*
X88649000Y-93901983D01*
X88649000Y-93773250D01*
X89906000Y-93773250D01*
X89906000Y-94051309D01*
X90002673Y-94284698D01*
X90181301Y-94463327D01*
X90414690Y-94560000D01*
X90730250Y-94560000D01*
X90889000Y-94401250D01*
X90889000Y-93614500D01*
X91143000Y-93614500D01*
X91143000Y-94401250D01*
X91301750Y-94560000D01*
X91617310Y-94560000D01*
X91850699Y-94463327D01*
X91905000Y-94409026D01*
X91959301Y-94463327D01*
X92192690Y-94560000D01*
X92508250Y-94560000D01*
X92667000Y-94401250D01*
X92667000Y-93614500D01*
X92921000Y-93614500D01*
X92921000Y-94401250D01*
X93079750Y-94560000D01*
X93395310Y-94560000D01*
X93628699Y-94463327D01*
X93807327Y-94284698D01*
X93904000Y-94051309D01*
X93904000Y-93773250D01*
X93745250Y-93614500D01*
X92921000Y-93614500D01*
X92667000Y-93614500D01*
X91143000Y-93614500D01*
X90889000Y-93614500D01*
X90064750Y-93614500D01*
X89906000Y-93773250D01*
X88649000Y-93773250D01*
X88649000Y-93530017D01*
X88506655Y-93186365D01*
X88243635Y-92923345D01*
X87902397Y-92782000D01*
X87936250Y-92782000D01*
X88095000Y-92623250D01*
X88095000Y-91836500D01*
X88075000Y-91836500D01*
X88075000Y-91582500D01*
X88095000Y-91582500D01*
X88095000Y-91562500D01*
X88349000Y-91562500D01*
X88349000Y-91582500D01*
X88369000Y-91582500D01*
X88369000Y-91836500D01*
X88349000Y-91836500D01*
X88349000Y-92623250D01*
X88507750Y-92782000D01*
X88823310Y-92782000D01*
X89056699Y-92685327D01*
X89235327Y-92506698D01*
X89331520Y-92274468D01*
X89333143Y-92275775D01*
X89851476Y-92794108D01*
X89936220Y-92850733D01*
X89906000Y-92923691D01*
X89906000Y-93201750D01*
X90064750Y-93360500D01*
X90889000Y-93360500D01*
X90889000Y-93340500D01*
X91143000Y-93340500D01*
X91143000Y-93360500D01*
X92667000Y-93360500D01*
X92667000Y-93340500D01*
X92921000Y-93340500D01*
X92921000Y-93360500D01*
X93745250Y-93360500D01*
X93904000Y-93201750D01*
X93904000Y-92923691D01*
X93807327Y-92690302D01*
X93742057Y-92625031D01*
X93850505Y-92462727D01*
X93916440Y-92131250D01*
X93916440Y-92087427D01*
X93951235Y-91912500D01*
X93916440Y-91737573D01*
X93916440Y-91693750D01*
X93850505Y-91362273D01*
X93662739Y-91081261D01*
X93407766Y-90910894D01*
X93542157Y-90709765D01*
X93591440Y-90462000D01*
X93591440Y-88862000D01*
X93542157Y-88614235D01*
X93404000Y-88407470D01*
X93404000Y-87798846D01*
X93418888Y-87723999D01*
X93404000Y-87649152D01*
X93404000Y-87649148D01*
X93359904Y-87427463D01*
X93191929Y-87176071D01*
X93128473Y-87133671D01*
X92564331Y-86569530D01*
X92535539Y-86526440D01*
X93188000Y-86526440D01*
X93269440Y-86510241D01*
X94863671Y-88104473D01*
X94906071Y-88167929D01*
X95157463Y-88335904D01*
X95379148Y-88380000D01*
X95379152Y-88380000D01*
X95415000Y-88387131D01*
X95415000Y-88507560D01*
X95129000Y-88507560D01*
X94881235Y-88556843D01*
X94671191Y-88697191D01*
X94530843Y-88907235D01*
X94481560Y-89155000D01*
X94481560Y-91255000D01*
X94530843Y-91502765D01*
X94671191Y-91712809D01*
X94881235Y-91853157D01*
X95129000Y-91902440D01*
X95879000Y-91902440D01*
X96126765Y-91853157D01*
X96139000Y-91844982D01*
X96151235Y-91853157D01*
X96399000Y-91902440D01*
X97149000Y-91902440D01*
X97396765Y-91853157D01*
X97418570Y-91838588D01*
X97542690Y-91890000D01*
X97758250Y-91890000D01*
X97917000Y-91731250D01*
X97917000Y-90332000D01*
X97897000Y-90332000D01*
X97897000Y-90078000D01*
X97917000Y-90078000D01*
X97917000Y-90058000D01*
X98171000Y-90058000D01*
X98171000Y-90078000D01*
X98191000Y-90078000D01*
X98191000Y-90332000D01*
X98171000Y-90332000D01*
X98171000Y-91731250D01*
X98329750Y-91890000D01*
X98545310Y-91890000D01*
X98669430Y-91838588D01*
X98691235Y-91853157D01*
X98939000Y-91902440D01*
X99267903Y-91902440D01*
X99225000Y-92006017D01*
X99225000Y-92377983D01*
X99367345Y-92721635D01*
X99630365Y-92984655D01*
X99749779Y-93034118D01*
X98752611Y-93738847D01*
X97395505Y-94514496D01*
X95970305Y-95156502D01*
X94490133Y-95658953D01*
X92968617Y-96017222D01*
X91419767Y-96228012D01*
X89857845Y-96289380D01*
X88297231Y-96200762D01*
X86752296Y-95962973D01*
X85237265Y-95578204D01*
X83766087Y-95049998D01*
X82352308Y-94383216D01*
X81008947Y-93584000D01*
X79748371Y-92659708D01*
X78770464Y-91786892D01*
X79414514Y-91786892D01*
X79660817Y-92311358D01*
X80089076Y-92701645D01*
X80499110Y-92871476D01*
X80729000Y-92750155D01*
X80729000Y-91557000D01*
X79535181Y-91557000D01*
X79414514Y-91786892D01*
X78770464Y-91786892D01*
X78582188Y-91618850D01*
X77521136Y-90471010D01*
X76574984Y-89226758D01*
X75752445Y-87897549D01*
X75061091Y-86495622D01*
X74952458Y-86208890D01*
X75774524Y-86208890D01*
X75944355Y-86618924D01*
X76334642Y-87047183D01*
X76859108Y-87293486D01*
X77089000Y-87172819D01*
X77089000Y-85979000D01*
X77343000Y-85979000D01*
X77343000Y-87172819D01*
X77572892Y-87293486D01*
X78097358Y-87047183D01*
X78487645Y-86618924D01*
X78657476Y-86208890D01*
X78536155Y-85979000D01*
X77343000Y-85979000D01*
X77089000Y-85979000D01*
X75895845Y-85979000D01*
X75774524Y-86208890D01*
X74952458Y-86208890D01*
X74836934Y-85903970D01*
X76044849Y-84974804D01*
X75944355Y-85085076D01*
X75774524Y-85495110D01*
X75895845Y-85725000D01*
X77089000Y-85725000D01*
X77089000Y-85705000D01*
X77343000Y-85705000D01*
X77343000Y-85725000D01*
X78536155Y-85725000D01*
X78657476Y-85495110D01*
X78487645Y-85085076D01*
X78367280Y-84953000D01*
X79078000Y-84953000D01*
X79113346Y-84947982D01*
X79157336Y-84925170D01*
X79552773Y-84608820D01*
X79576000Y-84613440D01*
G36*
X93396060Y-72580500D02*
X93421768Y-72709743D01*
X93245699Y-72533673D01*
X93012310Y-72437000D01*
X92571750Y-72437000D01*
X92413000Y-72595750D01*
X92413000Y-73395000D01*
X93362250Y-73395000D01*
X93521000Y-73236250D01*
X93521000Y-72945691D01*
X93516425Y-72934646D01*
X93585691Y-73038309D01*
X93795735Y-73178657D01*
X94043500Y-73227940D01*
X94678500Y-73227940D01*
X94926265Y-73178657D01*
X94996000Y-73132061D01*
X95065735Y-73178657D01*
X95313500Y-73227940D01*
X95948500Y-73227940D01*
X96196265Y-73178657D01*
X96266000Y-73132061D01*
X96335735Y-73178657D01*
X96583500Y-73227940D01*
X97218500Y-73227940D01*
X97466265Y-73178657D01*
X97536000Y-73132061D01*
X97605735Y-73178657D01*
X97853500Y-73227940D01*
X98488500Y-73227940D01*
X98681001Y-73189650D01*
X98681001Y-73618148D01*
X98666112Y-73693000D01*
X98681001Y-73767852D01*
X98682797Y-73776880D01*
X98725097Y-73989537D01*
X98821940Y-74134472D01*
X98893072Y-74240929D01*
X98956528Y-74283329D01*
X99823671Y-75150473D01*
X99866071Y-75213929D01*
X99929527Y-75256329D01*
X100117462Y-75381904D01*
X100165605Y-75391480D01*
X100339148Y-75426000D01*
X100339152Y-75426000D01*
X100414000Y-75440888D01*
X100488848Y-75426000D01*
X100613688Y-75426000D01*
X100646343Y-75458655D01*
X100989995Y-75601000D01*
X101361961Y-75601000D01*
X101705613Y-75458655D01*
X101968633Y-75195635D01*
X102110978Y-74851983D01*
X102110978Y-74805801D01*
X102465475Y-74451306D01*
X102528929Y-74408907D01*
X102571327Y-74345454D01*
X102571329Y-74345452D01*
X102665779Y-74204097D01*
X102696904Y-74157515D01*
X102741000Y-73935830D01*
X102741000Y-73935826D01*
X102755888Y-73860979D01*
X102741000Y-73786132D01*
X102741000Y-73189650D01*
X102933500Y-73227940D01*
X103568500Y-73227940D01*
X103816265Y-73178657D01*
X104026309Y-73038309D01*
X104166657Y-72828265D01*
X104215940Y-72580500D01*
X104215940Y-72077784D01*
X104449406Y-72478115D01*
X105103825Y-73897659D01*
X105619173Y-75373390D01*
X105990707Y-76891721D01*
X106215004Y-78438673D01*
X106290000Y-80000000D01*
X106274496Y-80710560D01*
X106131467Y-82267130D01*
X105839906Y-83802825D01*
X105402498Y-85303505D01*
X104823269Y-86755353D01*
X104107554Y-88145000D01*
X103261942Y-89459651D01*
X102294219Y-90687202D01*
X101568611Y-91445182D01*
X101606440Y-91255000D01*
X101606440Y-89155000D01*
X101557157Y-88907235D01*
X101416809Y-88697191D01*
X101206765Y-88556843D01*
X100959000Y-88507560D01*
X100841000Y-88507560D01*
X100841000Y-88394344D01*
X100913111Y-88380000D01*
X100913116Y-88380000D01*
X101134801Y-88335904D01*
X101386193Y-88167929D01*
X101428595Y-88104470D01*
X101914473Y-87618593D01*
X101977929Y-87576193D01*
X102145904Y-87324801D01*
X102190000Y-87103116D01*
X102190000Y-87103112D01*
X102204888Y-87028265D01*
X102190000Y-86953418D01*
X102190000Y-85902801D01*
X102331775Y-85761026D01*
X102377983Y-85761026D01*
X102721635Y-85618681D01*
X102984655Y-85355661D01*
X103127000Y-85012009D01*
X103127000Y-84640043D01*
X102993611Y-84318013D01*
X103127000Y-83995983D01*
X103127000Y-83624017D01*
X103029214Y-83387940D01*
X103568500Y-83387940D01*
X103816265Y-83338657D01*
X104026309Y-83198309D01*
X104166657Y-82988265D01*
X104215940Y-82740500D01*
X104215940Y-81234137D01*
X104312273Y-81298505D01*
X104643750Y-81364440D01*
X105156250Y-81364440D01*
X105487727Y-81298505D01*
X105768739Y-81110739D01*
X105956505Y-80829727D01*
X106022440Y-80498250D01*
X106022440Y-80060750D01*
X105956505Y-79729273D01*
X105848057Y-79566969D01*
X105913327Y-79501698D01*
X106010000Y-79268309D01*
X106010000Y-78990250D01*
X105851250Y-78831500D01*
X105027000Y-78831500D01*
X105027000Y-78851500D01*
X104773000Y-78851500D01*
X104773000Y-78831500D01*
X104753000Y-78831500D01*
X104753000Y-78577500D01*
X104773000Y-78577500D01*
X104773000Y-77790750D01*
X105027000Y-77790750D01*
X105027000Y-78577500D01*
X105851250Y-78577500D01*
X106010000Y-78418750D01*
X106010000Y-78140691D01*
X105913327Y-77907302D01*
X105734699Y-77728673D01*
X105501310Y-77632000D01*
X105185750Y-77632000D01*
X105027000Y-77790750D01*
X104773000Y-77790750D01*
X104614250Y-77632000D01*
X104448290Y-77632000D01*
X104245635Y-77429345D01*
X103901983Y-77287000D01*
X103530017Y-77287000D01*
X103186365Y-77429345D01*
X102923345Y-77692365D01*
X102794420Y-78003618D01*
X102274331Y-77483530D01*
X102231929Y-77420071D01*
X101980537Y-77252096D01*
X101758852Y-77208000D01*
X101758847Y-77208000D01*
X101684000Y-77193112D01*
X101609153Y-77208000D01*
X98710846Y-77208000D01*
X98635999Y-77193112D01*
X98561152Y-77208000D01*
X98561148Y-77208000D01*
X98339463Y-77252096D01*
X98339461Y-77252097D01*
X98339462Y-77252097D01*
X98151526Y-77377671D01*
X98151524Y-77377673D01*
X98088071Y-77420071D01*
X98045672Y-77483525D01*
X97480199Y-78049000D01*
X97434017Y-78049000D01*
X97090365Y-78191345D01*
X96923443Y-78358267D01*
X96789983Y-78302986D01*
X96418017Y-78302986D01*
X96074365Y-78445331D01*
X95811345Y-78708351D01*
X95669000Y-79052003D01*
X95669000Y-79423969D01*
X95811345Y-79767621D01*
X96074365Y-80030641D01*
X96418017Y-80172986D01*
X96464199Y-80172986D01*
X96496565Y-80205352D01*
X96335735Y-80237343D01*
X96266000Y-80283939D01*
X96196265Y-80237343D01*
X95948500Y-80188060D01*
X95313500Y-80188060D01*
X95065735Y-80237343D01*
X94996000Y-80283939D01*
X94926265Y-80237343D01*
X94876607Y-80227466D01*
X94999000Y-79931983D01*
X94999000Y-79819160D01*
X95101635Y-79776647D01*
X95364655Y-79513627D01*
X95507000Y-79169975D01*
X95507000Y-78798009D01*
X95364655Y-78454357D01*
X95101635Y-78191337D01*
X94999000Y-78148824D01*
X94999000Y-78036017D01*
X94856655Y-77692365D01*
X94593635Y-77429345D01*
X94249983Y-77287000D01*
X93878017Y-77287000D01*
X93720808Y-77352118D01*
X93766505Y-77283727D01*
X93832440Y-76952250D01*
X93832440Y-76514750D01*
X93766505Y-76183273D01*
X93658057Y-76020969D01*
X93723327Y-75955698D01*
X93820000Y-75722309D01*
X93820000Y-75444250D01*
X93661250Y-75285500D01*
X92837000Y-75285500D01*
X92837000Y-75305500D01*
X92583000Y-75305500D01*
X92583000Y-75285500D01*
X92563000Y-75285500D01*
X92563000Y-75031500D01*
X92583000Y-75031500D01*
X92583000Y-75011500D01*
X92837000Y-75011500D01*
X92837000Y-75031500D01*
X93661250Y-75031500D01*
X93820000Y-74872750D01*
X93820000Y-74594691D01*
X93723327Y-74361302D01*
X93544699Y-74182673D01*
X93494643Y-74161939D01*
X93521000Y-74098309D01*
X93521000Y-73807750D01*
X93362250Y-73649000D01*
X92413000Y-73649000D01*
X92413000Y-73669000D01*
X92159000Y-73669000D01*
X92159000Y-73649000D01*
X91209750Y-73649000D01*
X91051000Y-73807750D01*
X91051000Y-74098309D01*
X91147673Y-74331698D01*
X91326301Y-74510327D01*
X91559690Y-74607000D01*
X91600000Y-74607000D01*
X91600000Y-74872750D01*
X91758748Y-75031498D01*
X91665109Y-75031498D01*
X91651512Y-75011148D01*
X91606329Y-74943526D01*
X91606327Y-74943524D01*
X91563929Y-74880071D01*
X91500475Y-74837672D01*
X91098330Y-74435529D01*
X91055929Y-74372071D01*
X90804537Y-74204096D01*
X90774224Y-74198066D01*
X90792655Y-74179635D01*
X90935000Y-73835983D01*
X90935000Y-73464017D01*
X90801616Y-73142000D01*
X90882929Y-72945691D01*
X91051000Y-72945691D01*
X91051000Y-73236250D01*
X91209750Y-73395000D01*
X92159000Y-73395000D01*
X92159000Y-72595750D01*
X92000250Y-72437000D01*
X91559690Y-72437000D01*
X91326301Y-72533673D01*
X91147673Y-72712302D01*
X91051000Y-72945691D01*
X90882929Y-72945691D01*
X90935000Y-72819983D01*
X90935000Y-72448017D01*
X90792655Y-72104365D01*
X90529635Y-71841345D01*
X90427000Y-71798832D01*
X90427000Y-71547995D01*
X90633809Y-71409809D01*
X90682459Y-71337000D01*
X91968839Y-71337000D01*
X92056000Y-71354337D01*
X92143161Y-71337000D01*
X92143165Y-71337000D01*
X92231445Y-71319440D01*
X92886000Y-71319440D01*
X93133765Y-71270157D01*
X93343809Y-71129809D01*
X93396060Y-71051610D01*
X93396060Y-72580500D01*
X93396060Y-72580500D01*
G37*
X93396060Y-72580500D02*
X93421768Y-72709743D01*
X93245699Y-72533673D01*
X93012310Y-72437000D01*
X92571750Y-72437000D01*
X92413000Y-72595750D01*
X92413000Y-73395000D01*
X93362250Y-73395000D01*
X93521000Y-73236250D01*
X93521000Y-72945691D01*
X93516425Y-72934646D01*
X93585691Y-73038309D01*
X93795735Y-73178657D01*
X94043500Y-73227940D01*
X94678500Y-73227940D01*
X94926265Y-73178657D01*
X94996000Y-73132061D01*
X95065735Y-73178657D01*
X95313500Y-73227940D01*
X95948500Y-73227940D01*
X96196265Y-73178657D01*
X96266000Y-73132061D01*
X96335735Y-73178657D01*
X96583500Y-73227940D01*
X97218500Y-73227940D01*
X97466265Y-73178657D01*
X97536000Y-73132061D01*
X97605735Y-73178657D01*
X97853500Y-73227940D01*
X98488500Y-73227940D01*
X98681001Y-73189650D01*
X98681001Y-73618148D01*
X98666112Y-73693000D01*
X98681001Y-73767852D01*
X98682797Y-73776880D01*
X98725097Y-73989537D01*
X98821940Y-74134472D01*
X98893072Y-74240929D01*
X98956528Y-74283329D01*
X99823671Y-75150473D01*
X99866071Y-75213929D01*
X99929527Y-75256329D01*
X100117462Y-75381904D01*
X100165605Y-75391480D01*
X100339148Y-75426000D01*
X100339152Y-75426000D01*
X100414000Y-75440888D01*
X100488848Y-75426000D01*
X100613688Y-75426000D01*
X100646343Y-75458655D01*
X100989995Y-75601000D01*
X101361961Y-75601000D01*
X101705613Y-75458655D01*
X101968633Y-75195635D01*
X102110978Y-74851983D01*
X102110978Y-74805801D01*
X102465475Y-74451306D01*
X102528929Y-74408907D01*
X102571327Y-74345454D01*
X102571329Y-74345452D01*
X102665779Y-74204097D01*
X102696904Y-74157515D01*
X102741000Y-73935830D01*
X102741000Y-73935826D01*
X102755888Y-73860979D01*
X102741000Y-73786132D01*
X102741000Y-73189650D01*
X102933500Y-73227940D01*
X103568500Y-73227940D01*
X103816265Y-73178657D01*
X104026309Y-73038309D01*
X104166657Y-72828265D01*
X104215940Y-72580500D01*
X104215940Y-72077784D01*
X104449406Y-72478115D01*
X105103825Y-73897659D01*
X105619173Y-75373390D01*
X105990707Y-76891721D01*
X106215004Y-78438673D01*
X106290000Y-80000000D01*
X106274496Y-80710560D01*
X106131467Y-82267130D01*
X105839906Y-83802825D01*
X105402498Y-85303505D01*
X104823269Y-86755353D01*
X104107554Y-88145000D01*
X103261942Y-89459651D01*
X102294219Y-90687202D01*
X101568611Y-91445182D01*
X101606440Y-91255000D01*
X101606440Y-89155000D01*
X101557157Y-88907235D01*
X101416809Y-88697191D01*
X101206765Y-88556843D01*
X100959000Y-88507560D01*
X100841000Y-88507560D01*
X100841000Y-88394344D01*
X100913111Y-88380000D01*
X100913116Y-88380000D01*
X101134801Y-88335904D01*
X101386193Y-88167929D01*
X101428595Y-88104470D01*
X101914473Y-87618593D01*
X101977929Y-87576193D01*
X102145904Y-87324801D01*
X102190000Y-87103116D01*
X102190000Y-87103112D01*
X102204888Y-87028265D01*
X102190000Y-86953418D01*
X102190000Y-85902801D01*
X102331775Y-85761026D01*
X102377983Y-85761026D01*
X102721635Y-85618681D01*
X102984655Y-85355661D01*
X103127000Y-85012009D01*
X103127000Y-84640043D01*
X102993611Y-84318013D01*
X103127000Y-83995983D01*
X103127000Y-83624017D01*
X103029214Y-83387940D01*
X103568500Y-83387940D01*
X103816265Y-83338657D01*
X104026309Y-83198309D01*
X104166657Y-82988265D01*
X104215940Y-82740500D01*
X104215940Y-81234137D01*
X104312273Y-81298505D01*
X104643750Y-81364440D01*
X105156250Y-81364440D01*
X105487727Y-81298505D01*
X105768739Y-81110739D01*
X105956505Y-80829727D01*
X106022440Y-80498250D01*
X106022440Y-80060750D01*
X105956505Y-79729273D01*
X105848057Y-79566969D01*
X105913327Y-79501698D01*
X106010000Y-79268309D01*
X106010000Y-78990250D01*
X105851250Y-78831500D01*
X105027000Y-78831500D01*
X105027000Y-78851500D01*
X104773000Y-78851500D01*
X104773000Y-78831500D01*
X104753000Y-78831500D01*
X104753000Y-78577500D01*
X104773000Y-78577500D01*
X104773000Y-77790750D01*
X105027000Y-77790750D01*
X105027000Y-78577500D01*
X105851250Y-78577500D01*
X106010000Y-78418750D01*
X106010000Y-78140691D01*
X105913327Y-77907302D01*
X105734699Y-77728673D01*
X105501310Y-77632000D01*
X105185750Y-77632000D01*
X105027000Y-77790750D01*
X104773000Y-77790750D01*
X104614250Y-77632000D01*
X104448290Y-77632000D01*
X104245635Y-77429345D01*
X103901983Y-77287000D01*
X103530017Y-77287000D01*
X103186365Y-77429345D01*
X102923345Y-77692365D01*
X102794420Y-78003618D01*
X102274331Y-77483530D01*
X102231929Y-77420071D01*
X101980537Y-77252096D01*
X101758852Y-77208000D01*
X101758847Y-77208000D01*
X101684000Y-77193112D01*
X101609153Y-77208000D01*
X98710846Y-77208000D01*
X98635999Y-77193112D01*
X98561152Y-77208000D01*
X98561148Y-77208000D01*
X98339463Y-77252096D01*
X98339461Y-77252097D01*
X98339462Y-77252097D01*
X98151526Y-77377671D01*
X98151524Y-77377673D01*
X98088071Y-77420071D01*
X98045672Y-77483525D01*
X97480199Y-78049000D01*
X97434017Y-78049000D01*
X97090365Y-78191345D01*
X96923443Y-78358267D01*
X96789983Y-78302986D01*
X96418017Y-78302986D01*
X96074365Y-78445331D01*
X95811345Y-78708351D01*
X95669000Y-79052003D01*
X95669000Y-79423969D01*
X95811345Y-79767621D01*
X96074365Y-80030641D01*
X96418017Y-80172986D01*
X96464199Y-80172986D01*
X96496565Y-80205352D01*
X96335735Y-80237343D01*
X96266000Y-80283939D01*
X96196265Y-80237343D01*
X95948500Y-80188060D01*
X95313500Y-80188060D01*
X95065735Y-80237343D01*
X94996000Y-80283939D01*
X94926265Y-80237343D01*
X94876607Y-80227466D01*
X94999000Y-79931983D01*
X94999000Y-79819160D01*
X95101635Y-79776647D01*
X95364655Y-79513627D01*
X95507000Y-79169975D01*
X95507000Y-78798009D01*
X95364655Y-78454357D01*
X95101635Y-78191337D01*
X94999000Y-78148824D01*
X94999000Y-78036017D01*
X94856655Y-77692365D01*
X94593635Y-77429345D01*
X94249983Y-77287000D01*
X93878017Y-77287000D01*
X93720808Y-77352118D01*
X93766505Y-77283727D01*
X93832440Y-76952250D01*
X93832440Y-76514750D01*
X93766505Y-76183273D01*
X93658057Y-76020969D01*
X93723327Y-75955698D01*
X93820000Y-75722309D01*
X93820000Y-75444250D01*
X93661250Y-75285500D01*
X92837000Y-75285500D01*
X92837000Y-75305500D01*
X92583000Y-75305500D01*
X92583000Y-75285500D01*
X92563000Y-75285500D01*
X92563000Y-75031500D01*
X92583000Y-75031500D01*
X92583000Y-75011500D01*
X92837000Y-75011500D01*
X92837000Y-75031500D01*
X93661250Y-75031500D01*
X93820000Y-74872750D01*
X93820000Y-74594691D01*
X93723327Y-74361302D01*
X93544699Y-74182673D01*
X93494643Y-74161939D01*
X93521000Y-74098309D01*
X93521000Y-73807750D01*
X93362250Y-73649000D01*
X92413000Y-73649000D01*
X92413000Y-73669000D01*
X92159000Y-73669000D01*
X92159000Y-73649000D01*
X91209750Y-73649000D01*
X91051000Y-73807750D01*
X91051000Y-74098309D01*
X91147673Y-74331698D01*
X91326301Y-74510327D01*
X91559690Y-74607000D01*
X91600000Y-74607000D01*
X91600000Y-74872750D01*
X91758748Y-75031498D01*
X91665109Y-75031498D01*
X91651512Y-75011148D01*
X91606329Y-74943526D01*
X91606327Y-74943524D01*
X91563929Y-74880071D01*
X91500475Y-74837672D01*
X91098330Y-74435529D01*
X91055929Y-74372071D01*
X90804537Y-74204096D01*
X90774224Y-74198066D01*
X90792655Y-74179635D01*
X90935000Y-73835983D01*
X90935000Y-73464017D01*
X90801616Y-73142000D01*
X90882929Y-72945691D01*
X91051000Y-72945691D01*
X91051000Y-73236250D01*
X91209750Y-73395000D01*
X92159000Y-73395000D01*
X92159000Y-72595750D01*
X92000250Y-72437000D01*
X91559690Y-72437000D01*
X91326301Y-72533673D01*
X91147673Y-72712302D01*
X91051000Y-72945691D01*
X90882929Y-72945691D01*
X90935000Y-72819983D01*
X90935000Y-72448017D01*
X90792655Y-72104365D01*
X90529635Y-71841345D01*
X90427000Y-71798832D01*
X90427000Y-71547995D01*
X90633809Y-71409809D01*
X90682459Y-71337000D01*
X91968839Y-71337000D01*
X92056000Y-71354337D01*
X92143161Y-71337000D01*
X92143165Y-71337000D01*
X92231445Y-71319440D01*
X92886000Y-71319440D01*
X93133765Y-71270157D01*
X93343809Y-71129809D01*
X93396060Y-71051610D01*
X93396060Y-72580500D01*
G36*
X91696560Y-89809000D02*
X91691440Y-89809000D01*
X91691440Y-89515000D01*
X91696560Y-89515000D01*
X91696560Y-89809000D01*
X91696560Y-89809000D01*
G37*
X91696560Y-89809000D02*
X91691440Y-89809000D01*
X91691440Y-89515000D01*
X91696560Y-89515000D01*
X91696560Y-89809000D01*
G36*
X87005191Y-88311809D02*
X87129862Y-88395112D01*
X87208000Y-88473250D01*
X87208001Y-89233277D01*
X87031727Y-89115495D01*
X86797528Y-89068910D01*
X86853904Y-88984537D01*
X86898000Y-88762852D01*
X86898000Y-88762847D01*
X86912888Y-88688000D01*
X86898000Y-88613153D01*
X86898000Y-88271115D01*
X86938000Y-88211251D01*
X87005191Y-88311809D01*
X87005191Y-88311809D01*
G37*
X87005191Y-88311809D02*
X87129862Y-88395112D01*
X87208000Y-88473250D01*
X87208001Y-89233277D01*
X87031727Y-89115495D01*
X86797528Y-89068910D01*
X86853904Y-88984537D01*
X86898000Y-88762852D01*
X86898000Y-88762847D01*
X86912888Y-88688000D01*
X86898000Y-88613153D01*
X86898000Y-88271115D01*
X86938000Y-88211251D01*
X87005191Y-88311809D01*
G36*
X91884001Y-88038802D02*
X91884001Y-88295749D01*
X91821002Y-88358748D01*
X91821002Y-88227000D01*
X91727477Y-88227000D01*
X91811157Y-88101765D01*
X91833689Y-87988490D01*
X91884001Y-88038802D01*
X91884001Y-88038802D01*
G37*
X91884001Y-88038802D02*
X91884001Y-88295749D01*
X91821002Y-88358748D01*
X91821002Y-88227000D01*
X91727477Y-88227000D01*
X91811157Y-88101765D01*
X91833689Y-87988490D01*
X91884001Y-88038802D01*
G36*
X82440560Y-85645000D02*
X82311750Y-85645000D01*
X82153000Y-85803750D01*
X82153000Y-86553000D01*
X82173000Y-86553000D01*
X82173000Y-86807000D01*
X82153000Y-86807000D01*
X82153000Y-86827000D01*
X81899000Y-86827000D01*
X81899000Y-86807000D01*
X81879000Y-86807000D01*
X81879000Y-86553000D01*
X81899000Y-86553000D01*
X81899000Y-85803750D01*
X81870000Y-85774750D01*
X81870000Y-85696801D01*
X82003361Y-85563440D01*
X82440560Y-85563440D01*
X82440560Y-85645000D01*
X82440560Y-85645000D01*
G37*
X82440560Y-85645000D02*
X82311750Y-85645000D01*
X82153000Y-85803750D01*
X82153000Y-86553000D01*
X82173000Y-86553000D01*
X82173000Y-86807000D01*
X82153000Y-86807000D01*
X82153000Y-86827000D01*
X81899000Y-86827000D01*
X81899000Y-86807000D01*
X81879000Y-86807000D01*
X81879000Y-86553000D01*
X81899000Y-86553000D01*
X81899000Y-85803750D01*
X81870000Y-85774750D01*
X81870000Y-85696801D01*
X82003361Y-85563440D01*
X82440560Y-85563440D01*
X82440560Y-85645000D01*
G36*
X81099750Y-82489000D02*
X81899000Y-82489000D01*
X81899000Y-82469000D01*
X82153000Y-82469000D01*
X82153000Y-82489000D01*
X82173000Y-82489000D01*
X82173000Y-82743000D01*
X82153000Y-82743000D01*
X82153000Y-82763000D01*
X81899000Y-82763000D01*
X81899000Y-82743000D01*
X81590552Y-82743000D01*
X81295983Y-82620986D01*
X80924017Y-82620986D01*
X80849495Y-82651854D01*
X80821592Y-82633209D01*
X81032776Y-82422026D01*
X81099750Y-82489000D01*
X81099750Y-82489000D01*
G37*
X81099750Y-82489000D02*
X81899000Y-82489000D01*
X81899000Y-82469000D01*
X82153000Y-82469000D01*
X82153000Y-82489000D01*
X82173000Y-82489000D01*
X82173000Y-82743000D01*
X82153000Y-82743000D01*
X82153000Y-82763000D01*
X81899000Y-82763000D01*
X81899000Y-82743000D01*
X81590552Y-82743000D01*
X81295983Y-82620986D01*
X80924017Y-82620986D01*
X80849495Y-82651854D01*
X80821592Y-82633209D01*
X81032776Y-82422026D01*
X81099750Y-82489000D01*
G36*
X101198198Y-79319000D02*
X100990003Y-79319000D01*
X100646351Y-79461345D01*
X100383331Y-79724365D01*
X100302719Y-79918980D01*
X100226528Y-79995171D01*
X100163072Y-80037571D01*
X100120672Y-80101027D01*
X100120671Y-80101028D01*
X100017485Y-80255456D01*
X99884809Y-80200500D01*
X99726750Y-80200500D01*
X99568000Y-80359250D01*
X99568000Y-81661000D01*
X99588000Y-81661000D01*
X99588000Y-81915000D01*
X99568000Y-81915000D01*
X99568000Y-81935000D01*
X99314000Y-81935000D01*
X99314000Y-81915000D01*
X99294000Y-81915000D01*
X99294000Y-81661000D01*
X99314000Y-81661000D01*
X99314000Y-80359250D01*
X99155250Y-80200500D01*
X98997191Y-80200500D01*
X98802078Y-80281318D01*
X98736265Y-80237343D01*
X98716381Y-80233388D01*
X98718331Y-80230470D01*
X99712802Y-79236000D01*
X101115199Y-79236000D01*
X101198198Y-79319000D01*
X101198198Y-79319000D01*
G37*
X101198198Y-79319000D02*
X100990003Y-79319000D01*
X100646351Y-79461345D01*
X100383331Y-79724365D01*
X100302719Y-79918980D01*
X100226528Y-79995171D01*
X100163072Y-80037571D01*
X100120672Y-80101027D01*
X100120671Y-80101028D01*
X100017485Y-80255456D01*
X99884809Y-80200500D01*
X99726750Y-80200500D01*
X99568000Y-80359250D01*
X99568000Y-81661000D01*
X99588000Y-81661000D01*
X99588000Y-81915000D01*
X99568000Y-81915000D01*
X99568000Y-81935000D01*
X99314000Y-81935000D01*
X99314000Y-81915000D01*
X99294000Y-81915000D01*
X99294000Y-81661000D01*
X99314000Y-81661000D01*
X99314000Y-80359250D01*
X99155250Y-80200500D01*
X98997191Y-80200500D01*
X98802078Y-80281318D01*
X98736265Y-80237343D01*
X98716381Y-80233388D01*
X98718331Y-80230470D01*
X99712802Y-79236000D01*
X101115199Y-79236000D01*
X101198198Y-79319000D01*
G36*
X89126000Y-76999440D02*
X89328855Y-76999440D01*
X89319942Y-77020959D01*
X89319942Y-77106560D01*
X89063000Y-77106560D01*
X88938000Y-77131424D01*
X88813000Y-77106560D01*
X88263000Y-77106560D01*
X88199883Y-77119115D01*
X88199883Y-76999440D01*
X88226000Y-76999440D01*
X88351000Y-76974576D01*
X88476000Y-76999440D01*
X88876000Y-76999440D01*
X89001000Y-76974576D01*
X89126000Y-76999440D01*
X89126000Y-76999440D01*
G37*
X89126000Y-76999440D02*
X89328855Y-76999440D01*
X89319942Y-77020959D01*
X89319942Y-77106560D01*
X89063000Y-77106560D01*
X88938000Y-77131424D01*
X88813000Y-77106560D01*
X88263000Y-77106560D01*
X88199883Y-77119115D01*
X88199883Y-76999440D01*
X88226000Y-76999440D01*
X88351000Y-76974576D01*
X88476000Y-76999440D01*
X88876000Y-76999440D01*
X89001000Y-76974576D01*
X89126000Y-76999440D01*
G36*
X78608482Y-68450387D02*
X78513711Y-68513711D01*
X78278678Y-68865464D01*
X78262854Y-68889146D01*
X78174765Y-69332000D01*
X78197000Y-69443783D01*
X78197000Y-70713783D01*
X78233046Y-70895000D01*
X78093750Y-70895000D01*
X77935000Y-71053750D01*
X77935000Y-72253000D01*
X77955000Y-72253000D01*
X77955000Y-72507000D01*
X77935000Y-72507000D01*
X77935000Y-72527000D01*
X77681000Y-72527000D01*
X77681000Y-72507000D01*
X76481750Y-72507000D01*
X76323000Y-72665750D01*
X76323000Y-73356310D01*
X76419673Y-73589699D01*
X76598302Y-73768327D01*
X76759033Y-73834904D01*
X76737375Y-73849375D01*
X76409161Y-74340582D01*
X76293908Y-74920000D01*
X76409161Y-75499418D01*
X76737375Y-75990625D01*
X77228582Y-76318839D01*
X77320336Y-76337090D01*
X75914044Y-76337090D01*
X75958411Y-76270690D01*
X75983904Y-76232537D01*
X76028000Y-76010852D01*
X76028000Y-76010848D01*
X76042888Y-75936001D01*
X76028000Y-75861154D01*
X76028000Y-75228290D01*
X76060655Y-75195635D01*
X76203000Y-74851983D01*
X76203000Y-74480017D01*
X76060655Y-74136365D01*
X75797635Y-73873345D01*
X75453983Y-73731000D01*
X75082017Y-73731000D01*
X74962751Y-73780401D01*
X75358645Y-72858934D01*
X76110492Y-71488498D01*
X76168235Y-71403690D01*
X76323000Y-71403690D01*
X76323000Y-72094250D01*
X76481750Y-72253000D01*
X77681000Y-72253000D01*
X77681000Y-71053750D01*
X77522250Y-70895000D01*
X76831691Y-70895000D01*
X76598302Y-70991673D01*
X76419673Y-71170301D01*
X76323000Y-71403690D01*
X76168235Y-71403690D01*
X76990228Y-70196433D01*
X77989752Y-68994636D01*
X79099862Y-67894171D01*
X79454219Y-67604650D01*
X78608482Y-68450387D01*
X78608482Y-68450387D01*
G37*
X78608482Y-68450387D02*
X78513711Y-68513711D01*
X78278678Y-68865464D01*
X78262854Y-68889146D01*
X78174765Y-69332000D01*
X78197000Y-69443783D01*
X78197000Y-70713783D01*
X78233046Y-70895000D01*
X78093750Y-70895000D01*
X77935000Y-71053750D01*
X77935000Y-72253000D01*
X77955000Y-72253000D01*
X77955000Y-72507000D01*
X77935000Y-72507000D01*
X77935000Y-72527000D01*
X77681000Y-72527000D01*
X77681000Y-72507000D01*
X76481750Y-72507000D01*
X76323000Y-72665750D01*
X76323000Y-73356310D01*
X76419673Y-73589699D01*
X76598302Y-73768327D01*
X76759033Y-73834904D01*
X76737375Y-73849375D01*
X76409161Y-74340582D01*
X76293908Y-74920000D01*
X76409161Y-75499418D01*
X76737375Y-75990625D01*
X77228582Y-76318839D01*
X77320336Y-76337090D01*
X75914044Y-76337090D01*
X75958411Y-76270690D01*
X75983904Y-76232537D01*
X76028000Y-76010852D01*
X76028000Y-76010848D01*
X76042888Y-75936001D01*
X76028000Y-75861154D01*
X76028000Y-75228290D01*
X76060655Y-75195635D01*
X76203000Y-74851983D01*
X76203000Y-74480017D01*
X76060655Y-74136365D01*
X75797635Y-73873345D01*
X75453983Y-73731000D01*
X75082017Y-73731000D01*
X74962751Y-73780401D01*
X75358645Y-72858934D01*
X76110492Y-71488498D01*
X76168235Y-71403690D01*
X76323000Y-71403690D01*
X76323000Y-72094250D01*
X76481750Y-72253000D01*
X77681000Y-72253000D01*
X77681000Y-71053750D01*
X77522250Y-70895000D01*
X76831691Y-70895000D01*
X76598302Y-70991673D01*
X76419673Y-71170301D01*
X76323000Y-71403690D01*
X76168235Y-71403690D01*
X76990228Y-70196433D01*
X77989752Y-68994636D01*
X79099862Y-67894171D01*
X79454219Y-67604650D01*
X78608482Y-68450387D01*
G36*
X83398000Y-73335197D02*
X83116519Y-73616680D01*
X83067148Y-73626500D01*
X83042339Y-73626500D01*
X82994739Y-73555261D01*
X82825932Y-73442468D01*
X82833904Y-73430537D01*
X82835876Y-73420626D01*
X82864250Y-73449000D01*
X82919310Y-73449000D01*
X83152699Y-73352327D01*
X83331327Y-73173698D01*
X83398001Y-73012734D01*
X83398000Y-73335197D01*
X83398000Y-73335197D01*
G37*
X83398000Y-73335197D02*
X83116519Y-73616680D01*
X83067148Y-73626500D01*
X83042339Y-73626500D01*
X82994739Y-73555261D01*
X82825932Y-73442468D01*
X82833904Y-73430537D01*
X82835876Y-73420626D01*
X82864250Y-73449000D01*
X82919310Y-73449000D01*
X83152699Y-73352327D01*
X83331327Y-73173698D01*
X83398001Y-73012734D01*
X83398000Y-73335197D01*
G36*
X81820560Y-71189000D02*
X81820560Y-71539000D01*
X81827403Y-71573403D01*
X81793000Y-71566560D01*
X81443000Y-71566560D01*
X81408597Y-71573403D01*
X81415440Y-71539000D01*
X81415440Y-71189000D01*
X81408597Y-71154597D01*
X81443000Y-71161440D01*
X81793000Y-71161440D01*
X81827403Y-71154597D01*
X81820560Y-71189000D01*
X81820560Y-71189000D01*
G37*
X81820560Y-71189000D02*
X81820560Y-71539000D01*
X81827403Y-71573403D01*
X81793000Y-71566560D01*
X81443000Y-71566560D01*
X81408597Y-71573403D01*
X81415440Y-71539000D01*
X81415440Y-71189000D01*
X81408597Y-71154597D01*
X81443000Y-71161440D01*
X81793000Y-71161440D01*
X81827403Y-71154597D01*
X81820560Y-71189000D01*
G36*
X92126272Y-63849363D02*
X93664453Y-64127512D01*
X95168893Y-64551808D01*
X96625740Y-65118344D01*
X96720080Y-65165895D01*
X96599673Y-65286301D01*
X96503000Y-65519690D01*
X96503000Y-65685250D01*
X96661750Y-65844000D01*
X97536000Y-65844000D01*
X97536000Y-65824000D01*
X97790000Y-65824000D01*
X97790000Y-65844000D01*
X97810000Y-65844000D01*
X97810000Y-66098000D01*
X97790000Y-66098000D01*
X97790000Y-66772250D01*
X97948750Y-66931000D01*
X98314309Y-66931000D01*
X98547698Y-66834327D01*
X98726327Y-66655699D01*
X98823000Y-66422310D01*
X98823000Y-66327564D01*
X99343560Y-66656013D01*
X100579509Y-67612987D01*
X101718045Y-68684015D01*
X102748687Y-69859237D01*
X102878148Y-70039070D01*
X102685735Y-70077343D01*
X102616000Y-70123939D01*
X102546265Y-70077343D01*
X102298500Y-70028060D01*
X101663500Y-70028060D01*
X101415735Y-70077343D01*
X101346000Y-70123939D01*
X101276265Y-70077343D01*
X101028500Y-70028060D01*
X100393500Y-70028060D01*
X100145735Y-70077343D01*
X100076000Y-70123939D01*
X100006265Y-70077343D01*
X99758500Y-70028060D01*
X99123500Y-70028060D01*
X98875735Y-70077343D01*
X98806000Y-70123939D01*
X98736265Y-70077343D01*
X98686607Y-70067466D01*
X98809000Y-69771983D01*
X98809000Y-69400017D01*
X98666655Y-69056365D01*
X98634000Y-69023710D01*
X98634000Y-68911700D01*
X98645809Y-68903809D01*
X98786157Y-68693765D01*
X98835440Y-68446000D01*
X98835440Y-67796000D01*
X98786157Y-67548235D01*
X98645809Y-67338191D01*
X98435765Y-67197843D01*
X98188000Y-67148560D01*
X97138000Y-67148560D01*
X96890235Y-67197843D01*
X96680191Y-67338191D01*
X96664950Y-67361000D01*
X96215560Y-67361000D01*
X96269000Y-67231983D01*
X96269000Y-66860017D01*
X96126655Y-66516365D01*
X95867040Y-66256750D01*
X96503000Y-66256750D01*
X96503000Y-66422310D01*
X96599673Y-66655699D01*
X96778302Y-66834327D01*
X97011691Y-66931000D01*
X97377250Y-66931000D01*
X97536000Y-66772250D01*
X97536000Y-66098000D01*
X96661750Y-66098000D01*
X96503000Y-66256750D01*
X95867040Y-66256750D01*
X95863635Y-66253345D01*
X95519983Y-66111000D01*
X95148017Y-66111000D01*
X94804365Y-66253345D01*
X94771710Y-66286000D01*
X94673000Y-66286000D01*
X94673000Y-66256750D01*
X94514250Y-66098000D01*
X93640000Y-66098000D01*
X93640000Y-66118000D01*
X93386000Y-66118000D01*
X93386000Y-66098000D01*
X93366000Y-66098000D01*
X93366000Y-65844000D01*
X93386000Y-65844000D01*
X93386000Y-65169750D01*
X93640000Y-65169750D01*
X93640000Y-65844000D01*
X94514250Y-65844000D01*
X94673000Y-65685250D01*
X94673000Y-65519690D01*
X94576327Y-65286301D01*
X94397698Y-65107673D01*
X94164309Y-65011000D01*
X93798750Y-65011000D01*
X93640000Y-65169750D01*
X93386000Y-65169750D01*
X93227250Y-65011000D01*
X92861691Y-65011000D01*
X92628302Y-65107673D01*
X92449673Y-65286301D01*
X92363993Y-65493150D01*
X92034250Y-65427560D01*
X91521750Y-65427560D01*
X91190273Y-65493495D01*
X90909261Y-65681261D01*
X90721495Y-65962273D01*
X90655560Y-66293750D01*
X90655560Y-66434158D01*
X90638049Y-66407951D01*
X90345310Y-66212348D01*
X90087165Y-66161000D01*
X90087161Y-66161000D01*
X90000000Y-66143663D01*
X89912839Y-66161000D01*
X89583250Y-66161000D01*
X89520250Y-66098000D01*
X88646000Y-66098000D01*
X88646000Y-66118000D01*
X88392000Y-66118000D01*
X88392000Y-66098000D01*
X88372000Y-66098000D01*
X88372000Y-65844000D01*
X88392000Y-65844000D01*
X88392000Y-65169750D01*
X88646000Y-65169750D01*
X88646000Y-65844000D01*
X89520250Y-65844000D01*
X89679000Y-65685250D01*
X89679000Y-65519690D01*
X89582327Y-65286301D01*
X89403698Y-65107673D01*
X89170309Y-65011000D01*
X88804750Y-65011000D01*
X88646000Y-65169750D01*
X88392000Y-65169750D01*
X88233250Y-65011000D01*
X87867691Y-65011000D01*
X87634302Y-65107673D01*
X87493132Y-65248842D01*
X87481635Y-65237345D01*
X87137983Y-65095000D01*
X86771168Y-65095000D01*
X86728655Y-64992365D01*
X86465635Y-64729345D01*
X86121983Y-64587000D01*
X85750017Y-64587000D01*
X85406365Y-64729345D01*
X85143345Y-64992365D01*
X85118738Y-65051771D01*
X85020309Y-65011000D01*
X84654750Y-65011000D01*
X84496000Y-65169750D01*
X84496000Y-65844000D01*
X84516000Y-65844000D01*
X84516000Y-66098000D01*
X84496000Y-66098000D01*
X84496000Y-66111012D01*
X84242000Y-66111012D01*
X84242000Y-66098000D01*
X84222000Y-66098000D01*
X84222000Y-65844000D01*
X84242000Y-65844000D01*
X84242000Y-65169750D01*
X84083250Y-65011000D01*
X83717691Y-65011000D01*
X83484302Y-65107673D01*
X83305673Y-65286301D01*
X83219993Y-65493150D01*
X83122296Y-65473717D01*
X83076855Y-65443354D01*
X82812315Y-65390734D01*
X82986974Y-65296886D01*
X84428492Y-64692407D01*
X85921310Y-64228875D01*
X87451683Y-63910557D01*
X89005519Y-63740384D01*
X90568513Y-63719923D01*
X92126272Y-63849363D01*
X92126272Y-63849363D01*
G37*
X92126272Y-63849363D02*
X93664453Y-64127512D01*
X95168893Y-64551808D01*
X96625740Y-65118344D01*
X96720080Y-65165895D01*
X96599673Y-65286301D01*
X96503000Y-65519690D01*
X96503000Y-65685250D01*
X96661750Y-65844000D01*
X97536000Y-65844000D01*
X97536000Y-65824000D01*
X97790000Y-65824000D01*
X97790000Y-65844000D01*
X97810000Y-65844000D01*
X97810000Y-66098000D01*
X97790000Y-66098000D01*
X97790000Y-66772250D01*
X97948750Y-66931000D01*
X98314309Y-66931000D01*
X98547698Y-66834327D01*
X98726327Y-66655699D01*
X98823000Y-66422310D01*
X98823000Y-66327564D01*
X99343560Y-66656013D01*
X100579509Y-67612987D01*
X101718045Y-68684015D01*
X102748687Y-69859237D01*
X102878148Y-70039070D01*
X102685735Y-70077343D01*
X102616000Y-70123939D01*
X102546265Y-70077343D01*
X102298500Y-70028060D01*
X101663500Y-70028060D01*
X101415735Y-70077343D01*
X101346000Y-70123939D01*
X101276265Y-70077343D01*
X101028500Y-70028060D01*
X100393500Y-70028060D01*
X100145735Y-70077343D01*
X100076000Y-70123939D01*
X100006265Y-70077343D01*
X99758500Y-70028060D01*
X99123500Y-70028060D01*
X98875735Y-70077343D01*
X98806000Y-70123939D01*
X98736265Y-70077343D01*
X98686607Y-70067466D01*
X98809000Y-69771983D01*
X98809000Y-69400017D01*
X98666655Y-69056365D01*
X98634000Y-69023710D01*
X98634000Y-68911700D01*
X98645809Y-68903809D01*
X98786157Y-68693765D01*
X98835440Y-68446000D01*
X98835440Y-67796000D01*
X98786157Y-67548235D01*
X98645809Y-67338191D01*
X98435765Y-67197843D01*
X98188000Y-67148560D01*
X97138000Y-67148560D01*
X96890235Y-67197843D01*
X96680191Y-67338191D01*
X96664950Y-67361000D01*
X96215560Y-67361000D01*
X96269000Y-67231983D01*
X96269000Y-66860017D01*
X96126655Y-66516365D01*
X95867040Y-66256750D01*
X96503000Y-66256750D01*
X96503000Y-66422310D01*
X96599673Y-66655699D01*
X96778302Y-66834327D01*
X97011691Y-66931000D01*
X97377250Y-66931000D01*
X97536000Y-66772250D01*
X97536000Y-66098000D01*
X96661750Y-66098000D01*
X96503000Y-66256750D01*
X95867040Y-66256750D01*
X95863635Y-66253345D01*
X95519983Y-66111000D01*
X95148017Y-66111000D01*
X94804365Y-66253345D01*
X94771710Y-66286000D01*
X94673000Y-66286000D01*
X94673000Y-66256750D01*
X94514250Y-66098000D01*
X93640000Y-66098000D01*
X93640000Y-66118000D01*
X93386000Y-66118000D01*
X93386000Y-66098000D01*
X93366000Y-66098000D01*
X93366000Y-65844000D01*
X93386000Y-65844000D01*
X93386000Y-65169750D01*
X93640000Y-65169750D01*
X93640000Y-65844000D01*
X94514250Y-65844000D01*
X94673000Y-65685250D01*
X94673000Y-65519690D01*
X94576327Y-65286301D01*
X94397698Y-65107673D01*
X94164309Y-65011000D01*
X93798750Y-65011000D01*
X93640000Y-65169750D01*
X93386000Y-65169750D01*
X93227250Y-65011000D01*
X92861691Y-65011000D01*
X92628302Y-65107673D01*
X92449673Y-65286301D01*
X92363993Y-65493150D01*
X92034250Y-65427560D01*
X91521750Y-65427560D01*
X91190273Y-65493495D01*
X90909261Y-65681261D01*
X90721495Y-65962273D01*
X90655560Y-66293750D01*
X90655560Y-66434158D01*
X90638049Y-66407951D01*
X90345310Y-66212348D01*
X90087165Y-66161000D01*
X90087161Y-66161000D01*
X90000000Y-66143663D01*
X89912839Y-66161000D01*
X89583250Y-66161000D01*
X89520250Y-66098000D01*
X88646000Y-66098000D01*
X88646000Y-66118000D01*
X88392000Y-66118000D01*
X88392000Y-66098000D01*
X88372000Y-66098000D01*
X88372000Y-65844000D01*
X88392000Y-65844000D01*
X88392000Y-65169750D01*
X88646000Y-65169750D01*
X88646000Y-65844000D01*
X89520250Y-65844000D01*
X89679000Y-65685250D01*
X89679000Y-65519690D01*
X89582327Y-65286301D01*
X89403698Y-65107673D01*
X89170309Y-65011000D01*
X88804750Y-65011000D01*
X88646000Y-65169750D01*
X88392000Y-65169750D01*
X88233250Y-65011000D01*
X87867691Y-65011000D01*
X87634302Y-65107673D01*
X87493132Y-65248842D01*
X87481635Y-65237345D01*
X87137983Y-65095000D01*
X86771168Y-65095000D01*
X86728655Y-64992365D01*
X86465635Y-64729345D01*
X86121983Y-64587000D01*
X85750017Y-64587000D01*
X85406365Y-64729345D01*
X85143345Y-64992365D01*
X85118738Y-65051771D01*
X85020309Y-65011000D01*
X84654750Y-65011000D01*
X84496000Y-65169750D01*
X84496000Y-65844000D01*
X84516000Y-65844000D01*
X84516000Y-66098000D01*
X84496000Y-66098000D01*
X84496000Y-66111012D01*
X84242000Y-66111012D01*
X84242000Y-66098000D01*
X84222000Y-66098000D01*
X84222000Y-65844000D01*
X84242000Y-65844000D01*
X84242000Y-65169750D01*
X84083250Y-65011000D01*
X83717691Y-65011000D01*
X83484302Y-65107673D01*
X83305673Y-65286301D01*
X83219993Y-65493150D01*
X83122296Y-65473717D01*
X83076855Y-65443354D01*
X82812315Y-65390734D01*
X82986974Y-65296886D01*
X84428492Y-64692407D01*
X85921310Y-64228875D01*
X87451683Y-63910557D01*
X89005519Y-63740384D01*
X90568513Y-63719923D01*
X92126272Y-63849363D01*
G04 #@! TD*
M02*
